<?xml version="1.0" encoding="UTF-8"?>
<svg xmlns="http://www.w3.org/2000/svg" xmlns:xlink="http://www.w3.org/1999/xlink" viewBox="0 0 792 612">
  <defs>
    <style>
      .cls-1, .cls-2, .cls-3, .cls-4, .cls-5, .cls-6, .cls-7, .cls-8, .cls-9 {
        fill: none;
      }

      .cls-2, .cls-10, .cls-3, .cls-9 {
        stroke: #231f20;
        stroke-miterlimit: 10;
      }

      .cls-2, .cls-8 {
        stroke-width: 3px;
      }

      .cls-11 {
        clip-path: url(#clippath);
      }

      .cls-12 {
        fill: #010101;
      }

      .cls-13, .cls-14, .cls-15, .cls-16 {
        fill: #231f20;
      }

      .cls-17 {
        letter-spacing: -.06em;
      }

      .cls-10 {
        fill: #fff;
      }

      .cls-10, .cls-3 {
        stroke-width: 2px;
      }

      .cls-18 {
        letter-spacing: .04em;
      }

      .cls-19 {
        letter-spacing: .01em;
      }

      .cls-20 {
        letter-spacing: .01em;
      }

      .cls-21 {
        letter-spacing: .04em;
      }

      .cls-22 {
        letter-spacing: .04em;
      }

      .cls-23 {
        clip-path: url(#clippath-1);
      }

      .cls-24 {
        clip-path: url(#clippath-4);
      }

      .cls-25 {
        clip-path: url(#clippath-3);
      }

      .cls-26 {
        clip-path: url(#clippath-2);
      }

      .cls-27 {
        clip-path: url(#clippath-7);
      }

      .cls-28 {
        clip-path: url(#clippath-8);
      }

      .cls-29 {
        clip-path: url(#clippath-6);
      }

      .cls-30 {
        clip-path: url(#clippath-5);
      }

      .cls-31 {
        clip-path: url(#clippath-9);
      }

      .cls-14 {
        font-size: 18px;
      }

      .cls-14, .cls-15, .cls-16 {
        font-family: Lustria-Regular, Lustria;
      }

      .cls-32 {
        clip-path: url(#clippath-20);
      }

      .cls-33 {
        clip-path: url(#clippath-21);
      }

      .cls-34 {
        clip-path: url(#clippath-24);
      }

      .cls-35 {
        clip-path: url(#clippath-23);
      }

      .cls-36 {
        clip-path: url(#clippath-22);
      }

      .cls-37 {
        clip-path: url(#clippath-25);
      }

      .cls-38 {
        clip-path: url(#clippath-27);
      }

      .cls-39 {
        clip-path: url(#clippath-28);
      }

      .cls-40 {
        clip-path: url(#clippath-26);
      }

      .cls-41 {
        clip-path: url(#clippath-29);
      }

      .cls-42 {
        clip-path: url(#clippath-34);
      }

      .cls-43 {
        clip-path: url(#clippath-35);
      }

      .cls-44 {
        clip-path: url(#clippath-36);
      }

      .cls-45 {
        clip-path: url(#clippath-37);
      }

      .cls-46 {
        clip-path: url(#clippath-39);
      }

      .cls-47 {
        clip-path: url(#clippath-33);
      }

      .cls-48 {
        clip-path: url(#clippath-32);
      }

      .cls-49 {
        clip-path: url(#clippath-30);
      }

      .cls-50 {
        clip-path: url(#clippath-38);
      }

      .cls-51 {
        clip-path: url(#clippath-31);
      }

      .cls-52 {
        clip-path: url(#clippath-14);
      }

      .cls-53 {
        clip-path: url(#clippath-13);
      }

      .cls-54 {
        clip-path: url(#clippath-12);
      }

      .cls-55 {
        clip-path: url(#clippath-10);
      }

      .cls-56 {
        clip-path: url(#clippath-15);
      }

      .cls-57 {
        clip-path: url(#clippath-17);
      }

      .cls-58 {
        clip-path: url(#clippath-16);
      }

      .cls-59 {
        clip-path: url(#clippath-19);
      }

      .cls-60 {
        clip-path: url(#clippath-11);
      }

      .cls-61 {
        clip-path: url(#clippath-18);
      }

      .cls-62 {
        letter-spacing: 0em;
      }

      .cls-63 {
        letter-spacing: .02em;
      }

      .cls-64 {
        letter-spacing: .02em;
      }

      .cls-65 {
        letter-spacing: .02em;
      }

      .cls-15 {
        font-size: 12px;
      }

      .cls-4 {
        stroke: #000;
        stroke-width: .53px;
      }

      .cls-4, .cls-5, .cls-6, .cls-7, .cls-8 {
        stroke-miterlimit: 2;
      }

      .cls-5 {
        stroke-width: .53px;
      }

      .cls-5, .cls-6, .cls-7, .cls-8 {
        stroke: #010101;
      }

      .cls-66 {
        letter-spacing: .01em;
      }

      .cls-67 {
        letter-spacing: -.02em;
      }

      .cls-16 {
        font-size: 16px;
      }

      .cls-68 {
        letter-spacing: -.02em;
      }

      .cls-7 {
        stroke-width: .71px;
      }

      .cls-69 {
        letter-spacing: -.02em;
      }

      .cls-8 {
        stroke-linecap: round;
      }

      .cls-9 {
        stroke-width: .5px;
      }
    </style>
    <clipPath id="clippath">
      <rect class="cls-1" x="319.15" y="189.89" width="10.09" height="8.21"/>
    </clipPath>
    <clipPath id="clippath-1">
      <rect class="cls-1" x="319.15" y="189.89" width="10.09" height="8.21"/>
    </clipPath>
    <clipPath id="clippath-2">
      <rect class="cls-1" x="375.63" y="193.4" width="9.99" height="4.84"/>
    </clipPath>
    <clipPath id="clippath-3">
      <rect class="cls-1" x="375.63" y="193.41" width="9.99" height="4.84"/>
    </clipPath>
    <clipPath id="clippath-4">
      <rect class="cls-1" x="355.79" y="244.12" width="9.99" height="4.84"/>
    </clipPath>
    <clipPath id="clippath-5">
      <rect class="cls-1" x="355.79" y="244.12" width="9.99" height="4.84"/>
    </clipPath>
    <clipPath id="clippath-6">
      <rect class="cls-1" x="394.02" y="231.21" width="10.09" height="8.21"/>
    </clipPath>
    <clipPath id="clippath-7">
      <rect class="cls-1" x="394.02" y="231.21" width="10.09" height="8.21"/>
    </clipPath>
    <clipPath id="clippath-8">
      <rect class="cls-1" x="438.66" y="206.53" width="10.09" height="8.21"/>
    </clipPath>
    <clipPath id="clippath-9">
      <rect class="cls-1" x="438.66" y="206.53" width="10.09" height="8.21"/>
    </clipPath>
    <clipPath id="clippath-10">
      <rect class="cls-1" x="501.89" y="200.92" width="9.99" height="4.84"/>
    </clipPath>
    <clipPath id="clippath-11">
      <rect class="cls-1" x="501.89" y="200.92" width="9.99" height="4.84"/>
    </clipPath>
    <clipPath id="clippath-12">
      <rect class="cls-1" x="339.08" y="484.53" width="10.09" height="8.21"/>
    </clipPath>
    <clipPath id="clippath-13">
      <rect class="cls-1" x="339.08" y="484.53" width="10.09" height="8.21"/>
    </clipPath>
    <clipPath id="clippath-14">
      <rect class="cls-1" x="435.94" y="486.22" width="9.99" height="4.84"/>
    </clipPath>
    <clipPath id="clippath-15">
      <rect class="cls-1" x="435.94" y="486.22" width="9.99" height="4.84"/>
    </clipPath>
    <clipPath id="clippath-16">
      <rect class="cls-1" x="393.24" y="512.29" width="10.09" height="8.21"/>
    </clipPath>
    <clipPath id="clippath-17">
      <rect class="cls-1" x="393.24" y="512.29" width="10.09" height="8.21"/>
    </clipPath>
    <clipPath id="clippath-18">
      <rect class="cls-1" x="437.95" y="527.17" width="9.99" height="4.84"/>
    </clipPath>
    <clipPath id="clippath-19">
      <rect class="cls-1" x="437.95" y="527.17" width="9.99" height="4.84"/>
    </clipPath>
    <clipPath id="clippath-20">
      <rect class="cls-1" x="449.55" y="518.59" width="9.99" height="4.84"/>
    </clipPath>
    <clipPath id="clippath-21">
      <rect class="cls-1" x="449.55" y="518.59" width="9.99" height="4.84"/>
    </clipPath>
    <clipPath id="clippath-22">
      <rect class="cls-1" x="176.27" y="372.1" width="9.99" height="4.84"/>
    </clipPath>
    <clipPath id="clippath-23">
      <rect class="cls-1" x="176.27" y="372.1" width="9.99" height="4.84"/>
    </clipPath>
    <clipPath id="clippath-24">
      <rect class="cls-1" x="139.27" y="378.62" width="9.99" height="4.84"/>
    </clipPath>
    <clipPath id="clippath-25">
      <rect class="cls-1" x="139.27" y="378.62" width="9.99" height="4.84"/>
    </clipPath>
    <clipPath id="clippath-26">
      <rect class="cls-1" x="176.07" y="380.49" width="9.99" height="4.84"/>
    </clipPath>
    <clipPath id="clippath-27">
      <rect class="cls-1" x="176.07" y="380.49" width="9.99" height="4.84"/>
    </clipPath>
    <clipPath id="clippath-28">
      <rect class="cls-1" x="250.15" y="380.45" width="9.99" height="4.84"/>
    </clipPath>
    <clipPath id="clippath-29">
      <rect class="cls-1" x="250.15" y="380.45" width="9.99" height="4.84"/>
    </clipPath>
    <clipPath id="clippath-30">
      <rect class="cls-1" x="230.16" y="383.65" width="9.39" height="7.65"/>
    </clipPath>
    <clipPath id="clippath-31">
      <rect class="cls-1" x="230.16" y="383.65" width="9.39" height="7.65"/>
    </clipPath>
    <clipPath id="clippath-32">
      <rect class="cls-1" x="279.78" y="421.4" width="10.09" height="8.21"/>
    </clipPath>
    <clipPath id="clippath-33">
      <rect class="cls-1" x="279.78" y="421.4" width="10.09" height="8.21"/>
    </clipPath>
    <clipPath id="clippath-34">
      <rect class="cls-1" x="291.29" y="422.88" width="9.99" height="4.84"/>
    </clipPath>
    <clipPath id="clippath-35">
      <rect class="cls-1" x="291.29" y="422.88" width="9.99" height="4.84"/>
    </clipPath>
    <clipPath id="clippath-36">
      <rect class="cls-1" x="263.85" y="416.98" width="9.99" height="4.84"/>
    </clipPath>
    <clipPath id="clippath-37">
      <rect class="cls-1" x="263.85" y="416.98" width="9.99" height="4.84"/>
    </clipPath>
    <clipPath id="clippath-38">
      <rect class="cls-1" x="181.16" y="410.54" width="10.09" height="8.21"/>
    </clipPath>
    <clipPath id="clippath-39">
      <rect class="cls-1" x="181.16" y="410.54" width="10.09" height="8.21"/>
    </clipPath>
  </defs>
  <g id="Layer_1" data-name="Layer 1">
    <text class="cls-15" transform="translate(122.87 28.5)"><tspan x="0" y="0">Use</tspan><tspan class="cls-19" x="21.08" y="0"> </tspan><tspan x="23.97" y="0">the</tspan><tspan class="cls-20" x="42.46" y="0"> </tspan><tspan x="45.34" y="0">flow</tspan><tspan class="cls-19" x="69.92" y="0"> </tspan><tspan x="72.81" y="0">chart</tspan><tspan class="cls-19" x="102.12" y="0"> </tspan><tspan x="105.01" y="0">below</tspan><tspan class="cls-19" x="139.3" y="0"> </tspan><tspan x="142.19" y="0">to</tspan><tspan class="cls-20" x="153.79" y="0"> </tspan><tspan x="156.67" y="0">traverse</tspan><tspan class="cls-19" x="201.67" y="0"> </tspan><tspan x="204.56" y="0">between</tspan><tspan class="cls-19" x="253.15" y="0"> </tspan><tspan x="256.03" y="0">different</tspan><tspan class="cls-20" x="305.1" y="0"> </tspan><tspan x="307.98" y="0">sets</tspan><tspan class="cls-19" x="329.43" y="0"> </tspan><tspan x="332.31" y="0">of</tspan><tspan class="cls-19" x="343.69" y="0"> </tspan><tspan x="346.57" y="0">musical</tspan><tspan class="cls-19" x="389.57" y="0"> </tspan><tspan x="392.45" y="0">materials.</tspan><tspan class="cls-19" x="446.39" y="0" xml:space="preserve">  </tspan><tspan x="452.16" y="0">Each</tspan><tspan class="cls-19" x="479.86" y="0"> </tspan><tspan x="482.74" y="0">performer</tspan><tspan class="cls-19" x="540.07" y="0"> </tspan><tspan x="542.96" y="0">has</tspan><tspan class="cls-19" x="562.05" y="0"> </tspan><tspan x="564.94" y="0">a</tspan><tspan class="cls-66" x="571.07" y="0"> </tspan><tspan x="573.95" y="0">separate </tspan><tspan x="0" y="14.4">flow</tspan><tspan class="cls-69" x="24.58" y="14.4"> </tspan><tspan x="27.13" y="14.4">chart</tspan><tspan class="cls-68" x="56.45" y="14.4"> </tspan><tspan x="59.01" y="14.4">identified</tspan><tspan class="cls-69" x="113.48" y="14.4"> </tspan><tspan x="116.03" y="14.4">by</tspan><tspan class="cls-68" x="129.76" y="14.4"> </tspan><tspan x="132.32" y="14.4">the</tspan><tspan class="cls-69" x="150.81" y="14.4"> </tspan><tspan x="153.37" y="14.4">circled</tspan><tspan class="cls-69" x="191.77" y="14.4"> </tspan><tspan x="194.32" y="14.4">number</tspan><tspan class="cls-68" x="239.07" y="14.4"> </tspan><tspan x="241.63" y="14.4">on</tspan><tspan class="cls-69" x="256.58" y="14.4"> </tspan><tspan x="259.14" y="14.4">the</tspan><tspan class="cls-68" x="277.63" y="14.4"> </tspan><tspan x="280.19" y="14.4">left.</tspan><tspan class="cls-69" x="301.5" y="14.4"> </tspan><tspan class="cls-17" x="304.06" y="14.4">Y</tspan><tspan class="cls-62" x="311.82" y="14.4">ou</tspan><tspan class="cls-68" x="326.63" y="14.4"> </tspan><tspan class="cls-62" x="329.19" y="14.4">may</tspan><tspan class="cls-69" x="352.54" y="14.4"> </tspan><tspan class="cls-62" x="355.1" y="14.4">progress</tspan><tspan class="cls-69" x="403.49" y="14.4"> </tspan><tspan x="406.05" y="14.4">to</tspan><tspan class="cls-68" x="417.66" y="14.4"> </tspan><tspan x="420.21" y="14.4">any</tspan><tspan class="cls-69" x="440.43" y="14.4"> </tspan><tspan x="442.99" y="14.4">group</tspan><tspan class="cls-69" x="476.91" y="14.4"> </tspan><tspan x="479.47" y="14.4">of</tspan><tspan class="cls-69" x="490.85" y="14.4"> </tspan><tspan x="493.4" y="14.4">materials</tspan><tspan class="cls-67" x="544.43" y="14.4"> </tspan><tspan x="546.99" y="14.4">connected</tspan><tspan class="cls-69" x="607.04" y="14.4"> </tspan><tspan x="609.6" y="14.4">to </tspan><tspan x="0" y="28.8">the</tspan><tspan class="cls-21" x="18.49" y="28.8"> </tspan><tspan x="21.7" y="28.8">group</tspan><tspan class="cls-22" x="55.63" y="28.8"> </tspan><tspan x="58.83" y="28.8">you</tspan><tspan class="cls-21" x="80.05" y="28.8"> </tspan><tspan x="83.26" y="28.8">are</tspan><tspan class="cls-21" x="100.79" y="28.8"> </tspan><tspan x="104" y="28.8">performing.</tspan><tspan class="cls-21" x="170.76" y="28.8" xml:space="preserve">  </tspan><tspan x="177.18" y="28.8">Materials</tspan><tspan class="cls-21" x="228.91" y="28.8"> </tspan><tspan x="232.12" y="28.8">within</tspan><tspan class="cls-21" x="268.44" y="28.8"> </tspan><tspan x="271.65" y="28.8">a</tspan><tspan class="cls-21" x="277.78" y="28.8"> </tspan><tspan x="280.99" y="28.8">group</tspan><tspan class="cls-22" x="314.92" y="28.8"> </tspan><tspan x="318.13" y="28.8">may</tspan><tspan class="cls-21" x="341.48" y="28.8"> </tspan><tspan x="344.69" y="28.8">be</tspan><tspan class="cls-21" x="358.51" y="28.8"> </tspan><tspan x="361.72" y="28.8">played</tspan><tspan class="cls-21" x="399.16" y="28.8"> </tspan><tspan x="402.37" y="28.8">in</tspan><tspan class="cls-22" x="413.51" y="28.8"> </tspan><tspan x="416.72" y="28.8">any</tspan><tspan class="cls-21" x="436.94" y="28.8"> </tspan><tspan x="440.15" y="28.8">order,</tspan><tspan class="cls-21" x="474.16" y="28.8"> </tspan><tspan x="477.37" y="28.8">any</tspan><tspan class="cls-21" x="497.58" y="28.8"> </tspan><tspan x="500.79" y="28.8">number</tspan><tspan class="cls-21" x="545.54" y="28.8"> </tspan><tspan x="548.75" y="28.8">of</tspan><tspan class="cls-18" x="560.13" y="28.8"> </tspan><tspan x="563.33" y="28.8">times,</tspan><tspan class="cls-21" x="596.69" y="28.8"> </tspan><tspan x="599.9" y="28.8">and </tspan><tspan x="0" y="43.2">may</tspan><tspan class="cls-63" x="23.35" y="43.2"> </tspan><tspan x="26.32" y="43.2">be</tspan><tspan class="cls-65" x="40.14" y="43.2"> </tspan><tspan x="43.11" y="43.2">used</tspan><tspan class="cls-63" x="69.94" y="43.2"> </tspan><tspan x="72.9" y="43.2">as</tspan><tspan class="cls-65" x="84.34" y="43.2"> </tspan><tspan x="87.3" y="43.2">a</tspan><tspan class="cls-63" x="93.44" y="43.2"> </tspan><tspan x="96.4" y="43.2">basis</tspan><tspan class="cls-65" x="123.92" y="43.2"> </tspan><tspan x="126.88" y="43.2">of</tspan><tspan class="cls-63" x="138.26" y="43.2"> </tspan><tspan x="141.22" y="43.2">improvisation.</tspan><tspan class="cls-65" x="222.09" y="43.2" xml:space="preserve">  </tspan><tspan x="228.02" y="43.2">Pitches</tspan><tspan class="cls-65" x="268.73" y="43.2"> </tspan><tspan x="271.69" y="43.2">may</tspan><tspan class="cls-63" x="295.04" y="43.2"> </tspan><tspan x="298.01" y="43.2">be</tspan><tspan class="cls-65" x="311.83" y="43.2"> </tspan><tspan x="314.8" y="43.2">played</tspan><tspan class="cls-63" x="352.24" y="43.2"> </tspan><tspan x="355.2" y="43.2">in</tspan><tspan class="cls-65" x="366.34" y="43.2"> </tspan><tspan x="369.31" y="43.2">any</tspan><tspan class="cls-63" x="389.52" y="43.2"> </tspan><tspan x="392.49" y="43.2">octave.</tspan><tspan class="cls-63" x="432.38" y="43.2"> </tspan><tspan class="cls-17" x="435.34" y="43.2">Y</tspan><tspan x="443.11" y="43.2">ou</tspan><tspan class="cls-63" x="457.92" y="43.2"> </tspan><tspan x="460.88" y="43.2">may</tspan><tspan class="cls-63" x="484.23" y="43.2"> </tspan><tspan x="487.2" y="43.2">add</tspan><tspan class="cls-64" x="508.31" y="43.2"> </tspan><tspan x="511.27" y="43.2">breaks</tspan><tspan class="cls-63" x="548.19" y="43.2"> </tspan><tspan x="551.16" y="43.2">between</tspan><tspan class="cls-63" x="599.75" y="43.2"> </tspan><tspan x="602.71" y="43.2">the </tspan><tspan x="0" y="57.6">materials. The intensity of this section should match the curve below.</tspan></text>
  </g>
  <g id="Notation">
    <g>
      <rect class="cls-10" x="35.92" y="19.95" width="73.81" height="25.55"/>
      <text class="cls-14" transform="translate(41.94 39.05)"><tspan x="0" y="0">Phase 3</tspan></text>
    </g>
    <g>
      <text class="cls-16" transform="translate(68.62 73.87)"><tspan x="0" y="0">c</tspan></text>
      <circle class="cls-6" cx="72.82" cy="68.21" r="17.45"/>
    </g>
    <g>
      <rect class="cls-2" x="280.24" y="169.92" width="267.26" height="100.94" rx="12" ry="12"/>
      <rect class="cls-2" x="443.63" y="318.01" width="289.75" height="121.58" rx="12" ry="12"/>
      <rect class="cls-2" x="314.14" y="466.49" width="218.95" height="84.87" rx="12" ry="12"/>
      <rect class="cls-2" x="110.84" y="355.18" width="204.53" height="99.77" rx="12" ry="12"/>
      <g>
        <path d="M315.43,193.46c1.09,0,1.85,.63,1.85,1.58,0,1.61-2.07,3.18-3.76,3.18-1.02,0-1.84-.6-1.84-1.58,0-1.63,1.67-3.18,3.74-3.18Z"/>
        <path d="M357.08,185.28c1.09,0,1.85,.63,1.85,1.58,0,1.61-2.07,3.18-3.76,3.18-1.02,0-1.84-.6-1.84-1.58,0-1.63,1.67-3.18,3.74-3.18Z"/>
        <g>
          <line class="cls-4" x1="304.69" y1="208.97" x2="394.02" y2="208.97"/>
          <line class="cls-4" x1="304.69" y1="204.72" x2="394.02" y2="204.72"/>
          <line class="cls-4" x1="304.69" y1="200.47" x2="394.02" y2="200.47"/>
          <line class="cls-4" x1="304.69" y1="196.22" x2="394.02" y2="196.22"/>
          <line class="cls-4" x1="304.69" y1="191.97" x2="394.02" y2="191.97"/>
        </g>
        <g id="Artwork_1" data-name="Artwork 1">
          <g class="cls-11">
            <g class="cls-23">
              <path class="cls-12" d="M319.15,196.52c0,.99,.81,1.58,1.83,1.58,1.68,0,3.75-1.56,3.75-3.18,0-.95-.76-1.58-1.85-1.58-2.07,0-3.73,1.55-3.73,3.18"/>
              <path class="cls-12" d="M322.86,192.73c1.69-2.27,4.24-2.27,5.93,0l.44-.3c-2.13-3.39-4.68-3.39-6.82,0l.44,.3Z"/>
            </g>
          </g>
        </g>
        <g id="Artwork_2" data-name="Artwork 2">
          <g class="cls-26">
            <g class="cls-25">
              <path class="cls-12" d="M375.63,196.62c0,.99,.82,1.58,1.84,1.58,1.68,0,3.76-1.56,3.76-3.18,0-.95-.76-1.58-1.85-1.58-2.07,0-3.74,1.55-3.74,3.18"/>
              <circle class="cls-9" cx="383.2" cy="195.82" r="2.17"/>
            </g>
          </g>
        </g>
        <line class="cls-7" x1="352.2" y1="187.66" x2="360.06" y2="187.66" vector-effect="none"/>
      </g>
      <g>
        <path d="M593.14,341.41c1.09,0,1.85,.63,1.85,1.58,0,1.61-2.07,3.18-3.76,3.18-1.02,0-1.84-.6-1.84-1.58,0-1.63,1.67-3.18,3.74-3.18Z"/>
        <path d="M605.18,339.04c1.09,0,1.85,.63,1.85,1.58,0,1.61-2.07,3.18-3.76,3.18-1.02,0-1.84-.6-1.84-1.58,0-1.63,1.67-3.18,3.74-3.18Z"/>
        <path d="M617.23,341.29c1.09,0,1.85,.63,1.85,1.58,0,1.61-2.07,3.18-3.76,3.18-1.02,0-1.84-.6-1.84-1.58,0-1.63,1.67-3.18,3.74-3.18Z"/>
        <path d="M625.74,339.04c1.09,0,1.85,.63,1.85,1.58,0,1.61-2.07,3.18-3.76,3.18-1.02,0-1.84-.6-1.84-1.58,0-1.63,1.67-3.18,3.74-3.18Z"/>
        <path d="M634.25,341.41c1.09,0,1.85,.63,1.85,1.58,0,1.61-2.07,3.18-3.76,3.18-1.02,0-1.84-.6-1.84-1.58,0-1.63,1.67-3.18,3.74-3.18Z"/>
        <path d="M641.45,339.29c1.09,0,1.85,.63,1.85,1.58,0,1.61-2.07,3.18-3.76,3.18-1.02,0-1.84-.6-1.84-1.58,0-1.63,1.67-3.18,3.74-3.18Z"/>
        <path d="M648.66,333.04c1.09,0,1.85,.63,1.85,1.58,0,1.61-2.07,3.18-3.76,3.18-1.02,0-1.84-.6-1.84-1.58,0-1.63,1.67-3.18,3.74-3.18Z"/>
        <path d="M655.46,341.41c1.09,0,1.85,.63,1.85,1.58,0,1.61-2.07,3.18-3.76,3.18-1.02,0-1.84-.6-1.84-1.58,0-1.63,1.67-3.18,3.74-3.18Z"/>
        <path d="M662.66,339.29c1.09,0,1.85,.63,1.85,1.58,0,1.61-2.07,3.18-3.76,3.18-1.02,0-1.84-.6-1.84-1.58,0-1.63,1.67-3.18,3.74-3.18Z"/>
        <path d="M671.17,333.04c1.09,0,1.85,.63,1.85,1.58,0,1.61-2.07,3.18-3.76,3.18-1.02,0-1.84-.6-1.84-1.58,0-1.63,1.67-3.18,3.74-3.18Z"/>
        <path d="M679.68,339.29c1.09,0,1.85,.63,1.85,1.58,0,1.61-2.07,3.18-3.76,3.18-1.02,0-1.84-.6-1.84-1.58,0-1.63,1.67-3.18,3.74-3.18Z"/>
        <path d="M691.72,341.41c1.09,0,1.85,.63,1.85,1.58,0,1.61-2.07,3.18-3.76,3.18-1.02,0-1.84-.6-1.84-1.58,0-1.63,1.67-3.18,3.74-3.18Z"/>
        <rect x="589.4" y="362.92" width="48.82" height="2.12"/>
        <polygon points="589.4 365.04 589.4 362.92 638.22 359.73 638.22 361.85 589.4 365.04"/>
        <polygon points="589.4 365.04 589.4 362.92 638.22 356.54 638.22 358.67 589.4 365.04"/>
        <rect x="644.92" y="362.92" width="43.58" height="2.12"/>
        <polygon points="644.92 361.85 644.92 359.73 688.49 362.92 688.49 365.04 644.92 361.85"/>
        <polygon points="644.92 358.67 644.92 356.54 688.49 362.92 688.49 365.04 644.92 358.67"/>
        <g>
          <line class="cls-4" x1="588.05" y1="356.54" x2="696.27" y2="356.54"/>
          <line class="cls-4" x1="588.05" y1="352.29" x2="696.27" y2="352.29"/>
          <line class="cls-4" x1="588.05" y1="348.04" x2="696.27" y2="348.04"/>
          <line class="cls-4" x1="588.05" y1="343.79" x2="696.27" y2="343.79"/>
          <line class="cls-4" x1="588.05" y1="339.54" x2="696.27" y2="339.54"/>
        </g>
        <line class="cls-7" x1="644.05" y1="335.39" x2="651.72" y2="335.39" vector-effect="none"/>
        <line class="cls-7" x1="666.09" y1="335.39" x2="673.75" y2="335.39" vector-effect="none"/>
      </g>
      <g>
        <path d="M316.51,243.55c1.09,0,1.85,.63,1.85,1.58,0,1.61-2.07,3.18-3.76,3.18-1.02,0-1.84-.6-1.84-1.58,0-1.63,1.67-3.18,3.74-3.18Z"/>
        <path d="M332.97,241.8c1.09,0,1.85,.63,1.85,1.58,0,1.61-2.07,3.18-3.76,3.18-1.02,0-1.84-.6-1.84-1.58,0-1.63,1.67-3.18,3.74-3.18Z"/>
        <g>
          <line class="cls-4" x1="304.69" y1="259.29" x2="416.88" y2="259.29"/>
          <line class="cls-4" x1="304.69" y1="255.04" x2="416.88" y2="255.04"/>
          <line class="cls-4" x1="304.69" y1="250.79" x2="416.88" y2="250.79"/>
          <line class="cls-4" x1="304.69" y1="246.54" x2="416.88" y2="246.54"/>
          <line class="cls-4" x1="304.69" y1="242.29" x2="416.88" y2="242.29"/>
        </g>
        <g id="Artwork_2-2" data-name="Artwork 2">
          <g class="cls-24">
            <g class="cls-30">
              <path class="cls-12" d="M355.79,247.33c0,.99,.82,1.58,1.84,1.58,1.68,0,3.76-1.56,3.76-3.18,0-.95-.76-1.58-1.85-1.58-2.07,0-3.74,1.55-3.74,3.18"/>
              <circle class="cls-9" cx="363.36" cy="246.54" r="2.17"/>
            </g>
          </g>
        </g>
        <g id="Artwork_1-2" data-name="Artwork 1">
          <g class="cls-29">
            <g class="cls-27">
              <path class="cls-12" d="M394.02,237.84c0,.99,.81,1.58,1.83,1.58,1.68,0,3.75-1.56,3.75-3.18,0-.95-.76-1.58-1.85-1.58-2.07,0-3.73,1.55-3.73,3.18"/>
              <path class="cls-12" d="M397.73,234.05c1.69-2.27,4.24-2.27,5.93,0l.44-.3c-2.13-3.39-4.68-3.39-6.82,0l.44,.3Z"/>
            </g>
          </g>
        </g>
        <line class="cls-7" x1="392.65" y1="237.15" x2="400.51" y2="237.15" vector-effect="none"/>
      </g>
      <g>
        <path d="M421.76,210.12c1.09,0,1.85,.63,1.85,1.58,0,1.61-2.07,3.18-3.76,3.18-1.02,0-1.84-.6-1.84-1.58,0-1.63,1.67-3.18,3.74-3.18Z"/>
        <path d="M436.8,210.12c1.09,0,1.85,.63,1.85,1.58,0,1.61-2.07,3.18-3.76,3.18-1.02,0-1.84-.6-1.84-1.58,0-1.63,1.67-3.18,3.74-3.18Z"/>
        <path d="M482.84,208.25c1.09,0,1.85,.63,1.85,1.58,0,1.61-2.07,3.18-3.76,3.18-1.02,0-1.84-.6-1.84-1.58,0-1.63,1.67-3.18,3.74-3.18Z"/>
        <g>
          <line class="cls-4" x1="413.87" y1="225.61" x2="526.07" y2="225.61"/>
          <line class="cls-4" x1="413.87" y1="221.36" x2="526.07" y2="221.36"/>
          <line class="cls-4" x1="413.87" y1="217.11" x2="526.07" y2="217.11"/>
          <line class="cls-4" x1="413.87" y1="212.86" x2="526.07" y2="212.86"/>
          <line class="cls-4" x1="413.87" y1="208.61" x2="526.07" y2="208.61"/>
        </g>
        <g id="Artwork_1-3" data-name="Artwork 1">
          <g class="cls-28">
            <g class="cls-31">
              <path class="cls-12" d="M438.66,213.16c0,.99,.81,1.58,1.83,1.58,1.68,0,3.75-1.56,3.75-3.18,0-.95-.76-1.58-1.85-1.58-2.07,0-3.73,1.55-3.73,3.18"/>
              <path class="cls-12" d="M442.37,209.37c1.69-2.27,4.24-2.27,5.93,0l.44-.3c-2.13-3.39-4.68-3.39-6.82,0l.44,.3Z"/>
            </g>
          </g>
        </g>
        <g id="Artwork_2-3" data-name="Artwork 2">
          <g class="cls-55">
            <g class="cls-60">
              <path class="cls-12" d="M501.89,204.14c0,.99,.82,1.58,1.84,1.58,1.68,0,3.76-1.56,3.76-3.18,0-.95-.76-1.58-1.85-1.58-2.07,0-3.74,1.55-3.74,3.18"/>
              <circle class="cls-9" cx="509.46" cy="203.34" r="2.17"/>
            </g>
          </g>
        </g>
        <line class="cls-7" x1="500.59" y1="203.34" x2="513.45" y2="203.34" vector-effect="none"/>
      </g>
      <g>
        <path d="M473.74,398.79c1.09,0,1.85,.63,1.85,1.58,0,1.61-2.07,3.18-3.76,3.18-1.02,0-1.84-.6-1.84-1.58,0-1.63,1.67-3.18,3.74-3.18Z"/>
        <g>
          <path d="M487.86,392.17c1.09,0,1.85,.63,1.85,1.58,0,1.61-2.07,3.18-3.76,3.18-1.02,0-1.84-.6-1.84-1.58,0-1.63,1.67-3.18,3.74-3.18Z"/>
          <path d="M496.37,392.17c1.09,0,1.85,.63,1.85,1.58,0,1.61-2.07,3.18-3.76,3.18-1.02,0-1.84-.6-1.84-1.58,0-1.63,1.67-3.18,3.74-3.18Z"/>
          <path d="M504.89,392.17c1.09,0,1.85,.63,1.85,1.58,0,1.61-2.07,3.18-3.76,3.18-1.02,0-1.84-.6-1.84-1.58,0-1.63,1.67-3.18,3.74-3.18Z"/>
          <path d="M512.09,392.17c1.09,0,1.85,.63,1.85,1.58,0,1.61-2.07,3.18-3.76,3.18-1.02,0-1.84-.6-1.84-1.58,0-1.63,1.67-3.18,3.74-3.18Z"/>
          <path d="M519.29,392.17c1.09,0,1.85,.63,1.85,1.58,0,1.61-2.07,3.18-3.76,3.18-1.02,0-1.84-.6-1.84-1.58,0-1.63,1.67-3.18,3.74-3.18Z"/>
          <path d="M526.49,392.17c1.09,0,1.85,.63,1.85,1.58,0,1.61-2.07,3.18-3.76,3.18-1.02,0-1.84-.6-1.84-1.58,0-1.63,1.67-3.18,3.74-3.18Z"/>
          <path d="M533.7,392.17c1.09,0,1.85,.63,1.85,1.58,0,1.61-2.07,3.18-3.76,3.18-1.02,0-1.84-.6-1.84-1.58,0-1.63,1.67-3.18,3.74-3.18Z"/>
          <path d="M542.21,392.17c1.09,0,1.85,.63,1.85,1.58,0,1.61-2.07,3.18-3.76,3.18-1.02,0-1.84-.6-1.84-1.58,0-1.63,1.67-3.18,3.74-3.18Z"/>
          <rect x="484.13" y="409.42" width="24.73" height="2.12"/>
          <polygon points="484.13 411.55 484.13 409.42 508.86 406.24 508.86 408.36 484.13 411.55"/>
          <polygon points="484.13 411.55 484.13 409.42 508.86 403.05 508.86 405.17 484.13 411.55"/>
          <rect x="515.55" y="409.42" width="23.43" height="2.12"/>
          <polygon points="515.55 408.36 515.55 406.24 538.98 409.42 538.98 411.55 515.55 408.36"/>
          <polygon points="515.55 405.17 515.55 403.05 538.98 409.42 538.98 411.55 515.55 405.17"/>
        </g>
        <g>
          <line class="cls-4" x1="461.28" y1="416.53" x2="546" y2="416.53"/>
          <line class="cls-4" x1="461.28" y1="412.28" x2="546" y2="412.28"/>
          <line class="cls-4" x1="461.28" y1="408.03" x2="546" y2="408.03"/>
          <line class="cls-4" x1="461.28" y1="403.78" x2="546" y2="403.78"/>
          <line class="cls-4" x1="461.28" y1="399.53" x2="546" y2="399.53"/>
        </g>
        <line class="cls-7" x1="482.47" y1="394.74" x2="490.33" y2="394.74" vector-effect="none"/>
        <line class="cls-7" x1="491.17" y1="394.74" x2="499.04" y2="394.74" vector-effect="none"/>
        <line class="cls-7" x1="515.09" y1="394.74" x2="521.94" y2="394.74" vector-effect="none"/>
        <line class="cls-7" x1="499.71" y1="394.74" x2="507.24" y2="394.74" vector-effect="none"/>
        <line class="cls-7" x1="507.69" y1="394.74" x2="514.77" y2="394.74" vector-effect="none"/>
        <line class="cls-7" x1="522.4" y1="394.74" x2="528.86" y2="394.74" vector-effect="none"/>
        <line class="cls-7" x1="529.3" y1="394.74" x2="536.58" y2="394.74" vector-effect="none"/>
        <line class="cls-7" x1="537.6" y1="394.74" x2="545.14" y2="394.74" vector-effect="none"/>
      </g>
      <g>
        <g>
          <line class="cls-5" x1="331.37" y1="503.43" x2="419.24" y2="503.43" vector-effect="none"/>
          <line class="cls-5" x1="331.37" y1="499.18" x2="419.24" y2="499.18" vector-effect="none"/>
          <line class="cls-5" x1="331.37" y1="494.93" x2="419.24" y2="494.93" vector-effect="none"/>
          <line class="cls-5" x1="331.37" y1="490.68" x2="419.24" y2="490.68" vector-effect="none"/>
          <line class="cls-5" x1="331.37" y1="486.43" x2="419.24" y2="486.43" vector-effect="none"/>
        </g>
        <path class="cls-12" d="M381.09,498.67v2.13l5.1-1.05v-2.13l-5.1,1.05m0-1l5.1-1.05v-2.13l-5.1,1.05v2.12m5.1-4.23v-2.12l-5.1,1.07v2.12l5.1-1.07" vector-effect="none"/>
        <path class="cls-12" d="M381.39,489.11c0,.99,.82,1.58,1.84,1.58,1.68,0,3.76-1.56,3.76-3.18,0-.95-.76-1.58-1.85-1.58-2.07,0-3.74,1.55-3.74,3.18" vector-effect="none"/>
        <line class="cls-8" x1="384.19" y1="488.29" x2="412.38" y2="488.29"/>
        <g id="Artwork_1-4" data-name="Artwork 1">
          <g class="cls-54">
            <g class="cls-53">
              <path class="cls-12" d="M339.08,491.16c0,.99,.81,1.58,1.83,1.58,1.68,0,3.75-1.56,3.75-3.18,0-.95-.76-1.58-1.85-1.58-2.07,0-3.73,1.55-3.73,3.18"/>
              <path class="cls-12" d="M342.79,487.37c1.69-2.27,4.24-2.27,5.93,0l.44-.3c-2.13-3.39-4.68-3.39-6.82,0l.44,.3Z"/>
            </g>
          </g>
        </g>
      </g>
      <g>
        <g>
          <line class="cls-5" x1="432.54" y1="503.43" x2="515.51" y2="503.43" vector-effect="none"/>
          <line class="cls-5" x1="432.54" y1="499.18" x2="515.51" y2="499.18" vector-effect="none"/>
          <line class="cls-5" x1="432.54" y1="494.93" x2="515.51" y2="494.93" vector-effect="none"/>
          <line class="cls-5" x1="432.54" y1="490.68" x2="515.51" y2="490.68" vector-effect="none"/>
          <line class="cls-5" x1="432.54" y1="486.43" x2="515.51" y2="486.43" vector-effect="none"/>
        </g>
        <path class="cls-12" d="M468.48,489.11c0,.99,.82,1.58,1.84,1.58,1.68,0,3.76-1.56,3.76-3.18,0-.95-.76-1.58-1.85-1.58-2.07,0-3.74,1.55-3.74,3.18" vector-effect="none"/>
        <path class="cls-12" d="M468.73,498.4v2.13l5.1-1.05v-2.13l-5.1,1.05m0-1l5.1-1.05v-2.13l-5.1,1.05v2.12m5.1-4.23v-2.12l-5.1,1.07v2.12l5.1-1.07" vector-effect="none"/>
        <line class="cls-8" x1="471.57" y1="488.33" x2="499.77" y2="488.33"/>
        <g id="Artwork_2-4" data-name="Artwork 2">
          <g class="cls-52">
            <g class="cls-56">
              <path class="cls-12" d="M435.94,489.44c0,.99,.82,1.58,1.84,1.58,1.68,0,3.76-1.56,3.76-3.18,0-.95-.76-1.58-1.85-1.58-2.07,0-3.74,1.55-3.74,3.18"/>
              <circle class="cls-9" cx="443.51" cy="488.64" r="2.17"/>
            </g>
          </g>
        </g>
      </g>
      <g>
        <g>
          <line class="cls-5" x1="336.33" y1="540.03" x2="413.19" y2="540.03" vector-effect="none"/>
          <line class="cls-5" x1="336.33" y1="535.78" x2="413.19" y2="535.78" vector-effect="none"/>
          <line class="cls-5" x1="336.33" y1="531.53" x2="413.19" y2="531.53" vector-effect="none"/>
          <line class="cls-5" x1="336.33" y1="527.28" x2="413.19" y2="527.28" vector-effect="none"/>
          <line class="cls-5" x1="336.33" y1="523.03" x2="413.19" y2="523.03" vector-effect="none"/>
        </g>
        <path class="cls-12" d="M354.17,536.14v2.13l5.1-1.05v-2.13l-5.1,1.05m0-1l5.1-1.05v-2.13l-5.1,1.05v2.12m5.1-4.23v-2.12l-5.1,1.07v2.12l5.1-1.07" vector-effect="none"/>
        <path class="cls-12" d="M354.48,525.7c0,.99,.82,1.58,1.84,1.58,1.68,0,3.76-1.56,3.76-3.18,0-.95-.76-1.58-1.85-1.58-2.07,0-3.74,1.55-3.74,3.18" vector-effect="none"/>
        <line class="cls-8" x1="356.42" y1="524.89" x2="381.39" y2="524.89"/>
        <g id="Artwork_1-5" data-name="Artwork 1">
          <g class="cls-58">
            <g class="cls-57">
              <path class="cls-12" d="M393.24,518.92c0,.99,.81,1.58,1.83,1.58,1.68,0,3.75-1.56,3.75-3.18,0-.95-.76-1.58-1.85-1.58-2.07,0-3.73,1.55-3.73,3.18"/>
              <path class="cls-12" d="M396.95,515.13c1.69-2.27,4.24-2.27,5.93,0l.44-.3c-2.13-3.39-4.68-3.39-6.82,0l.44,.3Z"/>
            </g>
          </g>
        </g>
        <line class="cls-7" x1="392.12" y1="518.53" x2="399.79" y2="518.53" vector-effect="none"/>
      </g>
      <g>
        <g>
          <line class="cls-5" x1="433.48" y1="542.5" x2="495.49" y2="542.5" vector-effect="none"/>
          <line class="cls-5" x1="433.48" y1="538.25" x2="495.49" y2="538.25" vector-effect="none"/>
          <line class="cls-5" x1="433.48" y1="534" x2="495.49" y2="534" vector-effect="none"/>
          <line class="cls-5" x1="433.48" y1="529.75" x2="495.49" y2="529.75" vector-effect="none"/>
          <line class="cls-5" x1="433.48" y1="525.5" x2="495.49" y2="525.5" vector-effect="none"/>
        </g>
        <path class="cls-12" d="M465.21,528.17c0,.99,.82,1.58,1.84,1.58,1.68,0,3.76-1.56,3.76-3.18,0-.95-.76-1.58-1.85-1.58-2.07,0-3.74,1.55-3.74,3.18" vector-effect="none"/>
        <path class="cls-12" d="M465.46,537.92v2.13l5.1-1.05v-2.13l-5.1,1.05m0-1l5.1-1.05v-2.13l-5.1,1.05v2.12m5.1-4.23v-2.12l-5.1,1.07v2.12l5.1-1.07" vector-effect="none"/>
        <line class="cls-8" x1="468.48" y1="527.4" x2="488.88" y2="527.4"/>
        <g id="Artwork_2-5" data-name="Artwork 2">
          <g class="cls-61">
            <g class="cls-59">
              <path class="cls-12" d="M437.95,530.39c0,.99,.82,1.58,1.84,1.58,1.68,0,3.76-1.56,3.76-3.18,0-.95-.76-1.58-1.85-1.58-2.07,0-3.74,1.55-3.74,3.18"/>
              <circle class="cls-9" cx="445.52" cy="529.59" r="2.17"/>
            </g>
          </g>
        </g>
        <g id="Artwork_2-6" data-name="Artwork 2">
          <g class="cls-32">
            <g class="cls-33">
              <path class="cls-12" d="M449.55,521.81c0,.99,.82,1.58,1.84,1.58,1.68,0,3.76-1.56,3.76-3.18,0-.95-.76-1.58-1.85-1.58-2.07,0-3.74,1.55-3.74,3.18"/>
              <circle class="cls-9" cx="457.12" cy="521.01" r="2.17"/>
            </g>
          </g>
        </g>
        <line class="cls-7" x1="448.48" y1="521.2" x2="460.61" y2="521.2" vector-effect="none"/>
      </g>
      <g>
        <g>
          <line class="cls-5" x1="123.52" y1="395.62" x2="196.62" y2="395.62" vector-effect="none"/>
          <line class="cls-5" x1="123.52" y1="391.37" x2="196.62" y2="391.37" vector-effect="none"/>
          <line class="cls-5" x1="123.52" y1="387.12" x2="196.62" y2="387.12" vector-effect="none"/>
          <line class="cls-5" x1="123.52" y1="382.87" x2="196.62" y2="382.87" vector-effect="none"/>
          <line class="cls-5" x1="123.52" y1="378.62" x2="196.62" y2="378.62" vector-effect="none"/>
        </g>
        <g id="Artwork_2-7" data-name="Artwork 2">
          <g class="cls-36">
            <g class="cls-35">
              <path class="cls-12" d="M176.27,375.32c0,.99,.82,1.58,1.84,1.58,1.68,0,3.76-1.56,3.76-3.18,0-.95-.76-1.58-1.85-1.58-2.07,0-3.74,1.55-3.74,3.18"/>
              <circle class="cls-9" cx="183.85" cy="374.52" r="2.17"/>
            </g>
          </g>
        </g>
        <g id="Artwork_2-8" data-name="Artwork 2">
          <g class="cls-34">
            <g class="cls-37">
              <path class="cls-12" d="M139.27,381.84c0,.99,.82,1.58,1.84,1.58,1.68,0,3.76-1.56,3.76-3.18,0-.95-.76-1.58-1.85-1.58-2.07,0-3.74,1.55-3.74,3.18"/>
              <circle class="cls-9" cx="146.85" cy="381.04" r="2.17"/>
            </g>
          </g>
        </g>
        <g id="Artwork_2-9" data-name="Artwork 2">
          <g class="cls-40">
            <g class="cls-38">
              <path class="cls-12" d="M176.07,383.71c0,.99,.82,1.58,1.84,1.58,1.68,0,3.76-1.56,3.76-3.18,0-.95-.76-1.58-1.85-1.58-2.07,0-3.74,1.55-3.74,3.18"/>
              <circle class="cls-9" cx="183.65" cy="382.91" r="2.17"/>
            </g>
          </g>
        </g>
        <line class="cls-7" x1="173.98" y1="374.52" x2="188.24" y2="374.52" vector-effect="none"/>
      </g>
      <g>
        <g>
          <line class="cls-5" x1="222.16" y1="403.95" x2="265.03" y2="403.95" vector-effect="none"/>
          <line class="cls-5" x1="222.16" y1="399.7" x2="265.03" y2="399.7" vector-effect="none"/>
          <line class="cls-5" x1="222.16" y1="395.45" x2="265.03" y2="395.45" vector-effect="none"/>
          <line class="cls-5" x1="222.16" y1="391.2" x2="265.03" y2="391.2" vector-effect="none"/>
          <line class="cls-5" x1="222.16" y1="386.95" x2="265.03" y2="386.95" vector-effect="none"/>
        </g>
        <g id="Artwork_2-10" data-name="Artwork 2">
          <g class="cls-39">
            <g class="cls-41">
              <path class="cls-12" d="M250.15,383.67c0,.99,.82,1.58,1.84,1.58,1.68,0,3.76-1.56,3.76-3.18,0-.95-.76-1.58-1.85-1.58-2.07,0-3.74,1.55-3.74,3.18"/>
              <circle class="cls-9" cx="257.73" cy="382.87" r="2.17"/>
            </g>
          </g>
        </g>
        <g>
          <g id="Artwork_1-6" data-name="Artwork 1">
            <g class="cls-49">
              <g class="cls-51">
                <path class="cls-12" d="M230.16,389.83c0,.92,.76,1.47,1.71,1.47,1.56,0,3.49-1.46,3.49-2.96,0-.89-.71-1.47-1.72-1.47-1.93,0-3.48,1.44-3.48,2.96"/>
                <path class="cls-12" d="M233.61,386.3c1.58-2.12,3.95-2.12,5.53,0l.41-.28c-1.99-3.16-4.36-3.16-6.35,0l.41,.28Z"/>
              </g>
            </g>
          </g>
          <g>
            <path class="cls-12" d="M232.98,392.71c0,.92,.76,1.47,1.71,1.47,1.56,0,3.49-1.46,3.49-2.96,0-.89-.71-1.47-1.72-1.47-1.93,0-3.48,1.44-3.48,2.96"/>
            <path class="cls-12" d="M235.42,394.64c1.58,2.12,3.95,2.12,5.53,0l.41,.28c-1.99,3.16-4.36,3.16-6.35,0l.41-.28Z"/>
          </g>
        </g>
        <line class="cls-7" x1="248.34" y1="382.87" x2="261.67" y2="382.87" vector-effect="none"/>
      </g>
      <g>
        <g>
          <line class="cls-5" x1="259.43" y1="440.42" x2="304.94" y2="440.42" vector-effect="none"/>
          <line class="cls-5" x1="259.43" y1="436.17" x2="304.94" y2="436.17" vector-effect="none"/>
          <line class="cls-5" x1="259.43" y1="431.92" x2="304.94" y2="431.92" vector-effect="none"/>
          <line class="cls-5" x1="259.43" y1="427.67" x2="304.94" y2="427.67" vector-effect="none"/>
          <line class="cls-5" x1="259.43" y1="423.42" x2="304.94" y2="423.42" vector-effect="none"/>
        </g>
        <g id="Artwork_1-7" data-name="Artwork 1">
          <g class="cls-48">
            <g class="cls-47">
              <path class="cls-12" d="M279.78,428.03c0,.99,.81,1.58,1.83,1.58,1.68,0,3.75-1.56,3.75-3.18,0-.95-.76-1.58-1.85-1.58-2.07,0-3.73,1.55-3.73,3.18"/>
              <path class="cls-12" d="M283.5,424.24c1.69-2.27,4.24-2.27,5.93,0l.44-.3c-2.13-3.39-4.68-3.39-6.82,0l.44,.3Z"/>
            </g>
          </g>
        </g>
        <g id="Artwork_2-11" data-name="Artwork 2">
          <g class="cls-42">
            <g class="cls-43">
              <path class="cls-12" d="M291.29,426.1c0,.99,.82,1.58,1.84,1.58,1.68,0,3.76-1.56,3.76-3.18,0-.95-.76-1.58-1.85-1.58-2.07,0-3.74,1.55-3.74,3.18"/>
              <circle class="cls-9" cx="298.87" cy="425.3" r="2.17"/>
            </g>
          </g>
        </g>
        <g id="Artwork_2-12" data-name="Artwork 2">
          <g class="cls-44">
            <g class="cls-45">
              <path class="cls-12" d="M263.85,420.19c0,.99,.82,1.58,1.84,1.58,1.68,0,3.76-1.56,3.76-3.18,0-.95-.76-1.58-1.85-1.58-2.07,0-3.74,1.55-3.74,3.18"/>
              <circle class="cls-9" cx="271.43" cy="419.4" r="2.17"/>
            </g>
          </g>
        </g>
        <line class="cls-7" x1="261.67" y1="419.4" x2="276.25" y2="419.4" vector-effect="none"/>
      </g>
      <g>
        <g>
          <line class="cls-5" x1="154.17" y1="438.05" x2="199.7" y2="438.05" vector-effect="none"/>
          <line class="cls-5" x1="154.17" y1="433.8" x2="199.7" y2="433.8" vector-effect="none"/>
          <line class="cls-5" x1="154.17" y1="429.55" x2="199.7" y2="429.55" vector-effect="none"/>
          <line class="cls-5" x1="154.17" y1="425.3" x2="199.7" y2="425.3" vector-effect="none"/>
          <line class="cls-5" x1="154.17" y1="421.05" x2="199.7" y2="421.05" vector-effect="none"/>
        </g>
        <path class="cls-12" d="M167.31,426.1c0,.99,.82,1.58,1.84,1.58,1.68,0,3.76-1.56,3.76-3.18,0-.95-.76-1.58-1.85-1.58-2.07,0-3.74,1.55-3.74,3.18" vector-effect="none"/>
        <g id="Artwork_1-8" data-name="Artwork 1">
          <g class="cls-50">
            <g class="cls-46">
              <path class="cls-12" d="M181.16,417.17c0,.99,.81,1.58,1.83,1.58,1.68,0,3.75-1.56,3.75-3.18,0-.95-.76-1.58-1.85-1.58-2.07,0-3.73,1.55-3.73,3.18"/>
              <path class="cls-12" d="M184.88,413.38c1.69-2.27,4.24-2.27,5.93,0l.44-.3c-2.13-3.39-4.68-3.39-6.82,0l.44,.3Z"/>
            </g>
          </g>
        </g>
        <g>
          <path class="cls-12" d="M180.7,424.03c0,.99,.81,1.58,1.83,1.58,1.68,0,3.75-1.56,3.75-3.18,0-.95-.76-1.58-1.85-1.58-2.07,0-3.73,1.55-3.73,3.18"/>
          <path class="cls-12" d="M190.03,426.13c-1.74,2.33-4.35,2.33-6.09,0l-.45,.3c2.19,3.48,4.8,3.48,6.99,0l-.45-.3Z"/>
          <rect class="cls-1" x="180.7" y="417.4" width="10.09" height="8.21"/>
        </g>
        <line class="cls-7" x1="180.02" y1="416.61" x2="187.89" y2="416.61" vector-effect="none"/>
      </g>
      <g>
        <g>
          <line class="cls-4" x1="461.18" y1="354.98" x2="551.23" y2="354.98"/>
          <line class="cls-4" x1="461.18" y1="350.73" x2="551.23" y2="350.73"/>
          <line class="cls-4" x1="461.18" y1="346.48" x2="551.23" y2="346.48"/>
          <line class="cls-4" x1="461.18" y1="342.23" x2="551.23" y2="342.23"/>
          <line class="cls-4" x1="461.18" y1="337.98" x2="551.23" y2="337.98"/>
        </g>
        <path d="M474.16,339.73c1.09,0,1.85,.63,1.85,1.58,0,1.61-2.07,3.18-3.76,3.18-1.02,0-1.84-.6-1.84-1.58,0-1.63,1.67-3.18,3.74-3.18Z"/>
        <path d="M486.21,339.73c1.09,0,1.85,.63,1.85,1.58,0,1.61-2.07,3.18-3.76,3.18-1.02,0-1.84-.6-1.84-1.58,0-1.63,1.67-3.18,3.74-3.18Z"/>
        <path d="M494.72,339.73c1.09,0,1.85,.63,1.85,1.58,0,1.61-2.07,3.18-3.76,3.18-1.02,0-1.84-.6-1.84-1.58,0-1.63,1.67-3.18,3.74-3.18Z"/>
        <path d="M503.23,339.73c1.09,0,1.85,.63,1.85,1.58,0,1.61-2.07,3.18-3.76,3.18-1.02,0-1.84-.6-1.84-1.58,0-1.63,1.67-3.18,3.74-3.18Z"/>
        <path d="M510.43,339.73c1.09,0,1.85,.63,1.85,1.58,0,1.61-2.07,3.18-3.76,3.18-1.02,0-1.84-.6-1.84-1.58,0-1.63,1.67-3.18,3.74-3.18Z"/>
        <path d="M517.64,339.73c1.09,0,1.85,.63,1.85,1.58,0,1.61-2.07,3.18-3.76,3.18-1.02,0-1.84-.6-1.84-1.58,0-1.63,1.67-3.18,3.74-3.18Z"/>
        <path d="M526.14,339.73c1.09,0,1.85,.63,1.85,1.58,0,1.61-2.07,3.18-3.76,3.18-1.02,0-1.84-.6-1.84-1.58,0-1.63,1.67-3.18,3.74-3.18Z"/>
        <path d="M534.65,339.73c1.09,0,1.85,.63,1.85,1.58,0,1.61-2.07,3.18-3.76,3.18-1.02,0-1.84-.6-1.84-1.58,0-1.63,1.67-3.18,3.74-3.18Z"/>
        <path d="M546.7,339.73c1.09,0,1.85,.63,1.85,1.58,0,1.61-2.07,3.18-3.76,3.18-1.02,0-1.84-.6-1.84-1.58,0-1.63,1.67-3.18,3.74-3.18Z"/>
        <rect x="470.42" y="360.29" width="36.78" height="2.12"/>
        <polygon points="470.42 362.42 470.42 360.29 507.2 357.11 507.2 359.23 470.42 362.42"/>
        <polygon points="470.42 362.42 470.42 360.29 507.2 353.92 507.2 356.04 470.42 362.42"/>
        <rect x="513.9" y="360.29" width="29.58" height="2.12"/>
        <polygon points="513.9 359.23 513.9 357.11 543.47 360.29 543.47 362.42 513.9 359.23"/>
        <polygon points="513.9 356.04 513.9 353.92 543.47 360.29 543.47 362.42 513.9 356.04"/>
      </g>
      <g>
        <path class="cls-12" d="M641.32,398.36c0,.99,.82,1.58,1.84,1.58,1.68,0,3.76-1.56,3.76-3.18,0-.95-.76-1.58-1.85-1.58-2.07,0-3.74,1.55-3.74,3.18" vector-effect="none"/>
        <path class="cls-12" d="M650.24,398.36c0,.99,.82,1.58,1.84,1.58,1.68,0,3.76-1.56,3.76-3.18,0-.95-.76-1.58-1.85-1.58-2.07,0-3.74,1.55-3.74,3.18" vector-effect="none"/>
        <path class="cls-12" d="M572.68,405.86c0,.99,.82,1.58,1.84,1.58,1.68,0,3.76-1.56,3.76-3.18,0-.95-.76-1.58-1.85-1.58-2.07,0-3.74,1.55-3.74,3.18" vector-effect="none"/>
        <path class="cls-12" d="M584.71,405.86c0,.99,.82,1.58,1.84,1.58,1.68,0,3.76-1.56,3.76-3.18,0-.95-.76-1.58-1.85-1.58-2.07,0-3.74,1.55-3.74,3.18" vector-effect="none"/>
        <path class="cls-12" d="M596.74,405.86c0,.99,.82,1.58,1.84,1.58,1.68,0,3.76-1.56,3.76-3.18,0-.95-.76-1.58-1.85-1.58-2.07,0-3.74,1.55-3.74,3.18" vector-effect="none"/>
        <path class="cls-12" d="M605.24,407.74c0,.99,.82,1.58,1.84,1.58,1.68,0,3.76-1.56,3.76-3.18,0-.95-.76-1.58-1.85-1.58-2.07,0-3.74,1.55-3.74,3.18" vector-effect="none"/>
        <path class="cls-12" d="M613.74,405.86c0,.99,.82,1.58,1.84,1.58,1.68,0,3.76-1.56,3.76-3.18,0-.95-.76-1.58-1.85-1.58-2.07,0-3.74,1.55-3.74,3.18" vector-effect="none"/>
        <path class="cls-12" d="M627.32,398.49c0,.99,.82,1.58,1.84,1.58,1.68,0,3.76-1.56,3.76-3.18,0-.95-.76-1.58-1.85-1.58-2.07,0-3.74,1.55-3.74,3.18" vector-effect="none"/>
        <path class="cls-12" d="M634.12,407.86c0,.99,.82,1.58,1.84,1.58,1.68,0,3.76-1.56,3.76-3.18,0-.95-.76-1.58-1.85-1.58-2.07,0-3.74,1.55-3.74,3.18" vector-effect="none"/>
        <path class="cls-12" d="M649.93,418.17v2.13l5.1-1.05v-2.13l-5.1,1.05m0-1l5.1-1.05v-2.13l-5.1,1.05v2.12m5.1-4.23v-2.12l-5.1,1.07v2.12l5.1-1.07" vector-effect="none"/>
        <path class="cls-12" d="M650.24,407.86c0,.99,.82,1.58,1.84,1.58,1.68,0,3.76-1.56,3.76-3.18,0-.95-.76-1.58-1.85-1.58-2.07,0-3.74,1.55-3.74,3.18" vector-effect="none"/>
        <path class="cls-12" d="M572.68,426.31v-2.12h69.15v2.12h-69.15" vector-effect="none"/>
        <path class="cls-12" d="M572.68,426.31v-2.12l69.15-3.19v2.12l-69.15,3.19" vector-effect="none"/>
        <path class="cls-12" d="M572.68,426.31v-2.12l69.15-6.38v2.12l-69.15,6.38" vector-effect="none"/>
        <g>
          <line class="cls-5" x1="570.95" y1="419.94" x2="684.24" y2="419.94" vector-effect="none"/>
          <line class="cls-5" x1="570.95" y1="415.69" x2="684.24" y2="415.69" vector-effect="none"/>
          <line class="cls-5" x1="570.95" y1="411.44" x2="684.24" y2="411.44" vector-effect="none"/>
          <line class="cls-5" x1="570.95" y1="407.19" x2="684.24" y2="407.19" vector-effect="none"/>
          <line class="cls-5" x1="570.95" y1="402.94" x2="684.24" y2="402.94" vector-effect="none"/>
        </g>
        <line class="cls-8" x1="653.85" y1="397.91" x2="678.81" y2="397.91"/>
        <line class="cls-8" x1="653.24" y1="407.06" x2="678.2" y2="407.06"/>
        <line class="cls-7" x1="625.93" y1="397.79" x2="633.59" y2="397.79" vector-effect="none"/>
        <line class="cls-7" x1="639.93" y1="397.79" x2="647.59" y2="397.79" vector-effect="none"/>
        <line class="cls-7" x1="648.93" y1="397.79" x2="656.59" y2="397.79" vector-effect="none"/>
      </g>
      <g>
        <polyline class="cls-3" points="388.07 281.93 388.07 308.77 209.98 308.77 209.98 344.01"/>
        <polygon class="cls-13" points="380.59 270.72 388.07 283.28 395.55 270.72 380.59 270.72"/>
        <polygon class="cls-13" points="202.5 355.22 209.98 342.67 217.46 355.22 202.5 355.22"/>
      </g>
      <g>
        <polyline class="cls-3" points="470.22 281.93 470.22 292.61 551.2 292.61 551.2 308.12"/>
        <polygon class="cls-13" points="462.74 270.72 470.22 283.28 477.7 270.72 462.74 270.72"/>
        <polygon class="cls-13" points="543.73 319.33 551.2 306.77 558.68 319.33 543.73 319.33"/>
      </g>
      <g>
        <polyline class="cls-3" points="557.96 451.63 557.96 476.36 558.03 512.29 544.92 512.29"/>
        <polygon class="cls-13" points="550.48 440.42 557.96 452.97 565.44 440.42 550.48 440.42"/>
        <polygon class="cls-13" points="533.71 504.81 546.27 512.29 533.71 519.77 533.71 504.81"/>
      </g>
    </g>
    <path class="cls-13" d="M124.65,120.86c16-2.97,32.24-3.23,48.4-2.25,9.75,.8,19.38,3.65,29.04,4.8,12.91,1.55,25.82-.18,38.72-3.15,12.69-2.95,25.69-5.13,38.72-3.94,12.91,.92,25.82,5.86,38.72,7.14,6.45,.7,12.91,.83,19.36-.13,6.45-.92,12.91-2.7,19.36-3.66,12.89-1.94,25.81-3.06,38.72-4.81,6.45-.91,12.91-2.15,19.36-2.95,12.97-1.66,25.88-.76,38.72,1.66,12.88,2.43,25.79,6.7,38.72,8.84,12.79,2.13,25.78,2.69,38.72,2.3,19.36-.84,38.72-2.37,58.08-.41,6.45,.53,12.91,1.17,19.36,1.3,6.48,.08,12.94,.07,19.36-1.03,6.45-1.11,12.91-3.61,19.36-5.05,6.45-1.47,12.91-1.68,19.36-1.09,9.66,.97,19.27,3.97,29.04,4.41,0,0,9.68,.71,9.68,.71,12.91,.84,25.82,1.48,38.72,1.48v8.19c-12.91,0-25.82,.64-38.72,1.48-6.13,.48-13.46,.81-19.36,1.8-6.45,1.04-12.91,2.74-19.36,3.32-6.45,.59-12.91,.38-19.36-1.09-6.45-1.44-12.91-3.94-19.36-5.05-12.85-2.03-25.84-.82-38.72,.27-19.37,1.96-38.73,.44-58.08-.41-12.94-.39-25.93,.16-38.72,2.3-19.32,3.41-38.34,10.55-58.08,11.2-13.01,.91-25.9-1.69-38.72-3.65-12.91-1.75-25.84-2.87-38.72-4.81-6.45-.96-12.91-2.74-19.36-3.66-6.45-.96-12.91-.83-19.36-.13-12.91,1.28-25.82,6.22-38.72,7.14-13.03,1.18-26.04-.99-38.72-3.94-12.91-2.97-25.82-4.7-38.72-3.15-6.45,.75-12.91,2.31-19.36,3.48-6.42,1.2-12.86,1.7-19.36,1.76-12.98,.18-25.89-.2-38.72-2.69,0,0,0-16.52,0-16.52h0Z"/>
    <text class="cls-15" transform="translate(124.65 110.28)"><tspan x="0" y="0">2’ - 3’</tspan></text>
  </g>
</svg>