<?xml version="1.0" encoding="UTF-8"?>
<svg id="Layer_1" data-name="Layer 1" xmlns="http://www.w3.org/2000/svg" viewBox="0 0 792 612">
  <defs>
    <style>
      .cls-1 {
        stroke-dasharray: 0 0 1.93 1.93;
      }

      .cls-1, .cls-2, .cls-3, .cls-4, .cls-5, .cls-6, .cls-7, .cls-8, .cls-9, .cls-10, .cls-11, .cls-12 {
        fill: none;
        stroke: #231f20;
        stroke-miterlimit: 10;
      }

      .cls-2 {
        stroke-dasharray: 0 0 2.08 2.08;
      }

      .cls-13 {
        letter-spacing: -.04em;
      }

      .cls-3 {
        stroke-dasharray: 0 0 2.02 2.02;
      }

      .cls-14, .cls-15, .cls-16, .cls-17 {
        fill: #231f20;
      }

      .cls-4 {
        stroke-dasharray: 0 0 4 4;
      }

      .cls-15 {
        font-size: 30px;
      }

      .cls-15, .cls-16, .cls-18, .cls-19, .cls-17 {
        font-family: Lustria-Regular, Lustria;
      }

      .cls-5 {
        stroke-dasharray: 0 0 2.05 2.05;
      }

      .cls-16, .cls-18 {
        font-size: 9.54px;
      }

      .cls-18, .cls-19 {
        fill: #fff;
      }

      .cls-6 {
        stroke-dasharray: 0 0 1.95 1.95;
      }

      .cls-19 {
        font-size: 5.56px;
      }

      .cls-7 {
        stroke-dasharray: 0 0 1.98 1.98;
      }

      .cls-9 {
        stroke-dasharray: 0 0 1.95 1.95;
      }

      .cls-20 {
        font-size: 12px;
      }

      .cls-21 {
        font-size: 14px;
      }

      .cls-10 {
        stroke-dasharray: 0 0 2.01 2.01;
      }

      .cls-11 {
        stroke-dasharray: 0 0 1.76 1.76;
      }

      .cls-12 {
        stroke-dasharray: 0 0 2.04 2.04;
      }
    </style>
  </defs>
  <text class="cls-15" transform="translate(49.22 72.81)"><tspan x="0" y="0">Field of Bokeh</tspan></text>
  <text class="cls-17" transform="translate(50.12 99.5)"><tspan class="cls-21"><tspan x="0" y="0">Stage and </tspan><tspan class="cls-13" x="66.97" y="0">T</tspan><tspan x="75.11" y="0">echnical Setup</tspan></tspan><tspan class="cls-20"><tspan x="0" y="31.2">Percussion players and speakers should surround the audience is a </tspan></tspan><tspan class="cls-20"><tspan x="0" y="45.6" xml:space="preserve">recangular configuration.  It is important that each input channel </tspan></tspan><tspan class="cls-20"><tspan x="0" y="60">from a percussion player coorisponds with the output connected to </tspan></tspan><tspan class="cls-20"><tspan x="0" y="74.4">the speaker nearest to them. Percussion players will likely need to mic </tspan></tspan><tspan class="cls-20"><tspan x="0" y="88.8">their bells with a dynanamic microphone such as a SM57. </tspan></tspan><tspan class="cls-20"><tspan x="0" y="117.6">The placement of the laptop and audio interface do not matter and </tspan></tspan><tspan class="cls-20"><tspan x="0" y="132">could be run by one of the percussion players or by a sound engeneer </tspan></tspan><tspan class="cls-20"><tspan x="0" y="146.4">at the front of house. </tspan></tspan><tspan class="cls-20"><tspan x="0" y="175.2">If more speakers are avalible, the sound should be diffused amongst </tspan></tspan><tspan class="cls-20"><tspan x="0" y="189.6">them so that the quadraphonic image is present. </tspan></tspan></text>
  <g>
    <circle class="cls-8" cx="503.78" cy="128.56" r="17.45"/>
    <circle class="cls-8" cx="649.02" cy="130.23" r="17.45"/>
    <circle class="cls-8" cx="649.02" cy="255.12" r="17.45"/>
    <circle class="cls-8" cx="503.78" cy="255.12" r="17.45"/>
    <rect class="cls-8" x="523.8" y="146.01" width="111.9" height="91.66" rx="12" ry="12"/>
    <text class="cls-16" transform="translate(559.76 193.2)"><tspan x="0" y="0">Audience</tspan></text>
    <text class="cls-16" transform="translate(639.31 258.19)"><tspan x="0" y="0">a I1</tspan></text>
    <text class="cls-16" transform="translate(493.99 258.56)"><tspan x="0" y="0">b I2</tspan></text>
    <text class="cls-16" transform="translate(641.8 133.38)"><tspan x="0" y="0">c I3</tspan></text>
    <text class="cls-16" transform="translate(494.12 130.71)"><tspan x="0" y="0">d I4</tspan></text>
    <g>
      <rect class="cls-14" x="460.55" y="88.15" width="18" height="31.96"/>
      <text class="cls-18" transform="translate(463.07 107.47)"><tspan x="0" y="0">O4</tspan></text>
    </g>
    <g>
      <rect class="cls-14" x="673.05" y="88.15" width="18" height="31.96"/>
      <text class="cls-18" transform="translate(676.04 107.43)"><tspan x="0" y="0">O3</tspan></text>
    </g>
    <g>
      <rect class="cls-14" x="460.55" y="276.91" width="18" height="31.96"/>
      <text class="cls-18" transform="translate(463.75 296.23)"><tspan x="0" y="0">O1</tspan></text>
    </g>
    <g>
      <rect class="cls-14" x="673.05" y="276.86" width="18" height="31.96"/>
      <text class="cls-18" transform="translate(675.82 296.18)"><tspan x="0" y="0">O2</tspan></text>
    </g>
    <text class="cls-16" transform="translate(564.04 292.14)"><tspan x="0" y="0">(Stage)</tspan></text>
    <rect class="cls-14" x="559.92" y="209.52" width="39.66" height="16.9" rx="8.45" ry="8.45"/>
    <text class="cls-19" transform="translate(567.38 216.37)"><tspan x="0" y="0">Laptop + </tspan><tspan x=".72" y="6.68">Interface</tspan></text>
    <g>
      <line class="cls-8" x1="573.61" y1="229.98" x2="573.61" y2="230.98"/>
      <line class="cls-5" x1="573.61" y1="233.02" x2="573.61" y2="260.63"/>
      <polyline class="cls-8" points="573.61 261.65 573.61 262.65 572.61 262.65"/>
      <line class="cls-1" x1="570.68" y1="262.65" x2="521.49" y2="262.65"/>
      <line class="cls-8" x1="520.53" y1="262.65" x2="519.53" y2="262.65"/>
      <path class="cls-14" d="M573.61,230.38c1.04,1.04,3.11,1.54,4.54,1.58-1.92-1.43-3.6-3.29-4.54-5.55-.9,2.25-2.68,4.03-4.54,5.55,1.54-.12,3.4-.5,4.54-1.58Z"/>
    </g>
    <g>
      <line class="cls-8" x1="565.19" y1="229.98" x2="565.19" y2="230.98"/>
      <line class="cls-3" x1="565.19" y1="232.99" x2="565.19" y2="256.18"/>
      <polyline class="cls-8" points="565.19 257.19 565.19 258.19 566.19 258.19"/>
      <line class="cls-9" x1="568.14" y1="258.19" x2="629.6" y2="258.19"/>
      <line class="cls-8" x1="630.57" y1="258.19" x2="631.57" y2="258.19"/>
      <path class="cls-14" d="M565.19,230.38c1.04,1.04,3.11,1.54,4.54,1.58-1.92-1.43-3.6-3.29-4.54-5.55-.9,2.25-2.68,4.03-4.54,5.55,1.54-.12,3.4-.5,4.54-1.58Z"/>
    </g>
    <g>
      <line class="cls-8" x1="583.72" y1="229.98" x2="583.72" y2="230.98"/>
      <line class="cls-11" x1="583.72" y1="232.73" x2="583.72" y2="242.4"/>
      <polyline class="cls-8" points="583.72 243.28 583.72 244.28 584.72 244.28"/>
      <line class="cls-2" x1="586.81" y1="244.28" x2="627.41" y2="244.28"/>
      <polyline class="cls-8" points="628.45 244.28 629.45 244.28 630.16 243.58"/>
      <polyline class="cls-10" points="631.58 242.15 648.7 225.03 648.7 149.69"/>
      <line class="cls-8" x1="648.7" y1="148.68" x2="648.7" y2="147.68"/>
      <path class="cls-14" d="M583.72,230.38c1.04,1.04,3.11,1.54,4.54,1.58-1.92-1.43-3.6-3.29-4.54-5.55-.9,2.25-2.68,4.03-4.54,5.55,1.54-.12,3.4-.5,4.54-1.58Z"/>
    </g>
    <g>
      <line class="cls-8" x1="592.71" y1="229.98" x2="592.71" y2="230.98"/>
      <line class="cls-6" x1="592.71" y1="232.92" x2="592.71" y2="239.74"/>
      <polyline class="cls-8" points="592.71 240.71 592.71 241.71 591.71 241.71"/>
      <polyline class="cls-7" points="589.72 241.71 521.23 241.71 500.32 220.8"/>
      <polyline class="cls-8" points="499.62 220.1 498.91 219.39 498.91 218.39"/>
      <line class="cls-12" x1="498.91" y1="216.35" x2="498.91" y2="148.03"/>
      <line class="cls-8" x1="498.91" y1="147.01" x2="498.91" y2="146.01"/>
      <path class="cls-14" d="M592.71,230.38c1.04,1.04,3.11,1.54,4.54,1.58-1.92-1.43-3.6-3.29-4.54-5.55-.9,2.25-2.68,4.03-4.54,5.55,1.54-.12,3.4-.5,4.54-1.58Z"/>
    </g>
    <g>
      <polyline class="cls-4" points="568.37 209.52 568.37 199.09 469.55 199.09 469.55 273.35"/>
      <path class="cls-14" d="M469.55,272.95c1.04-1.04,3.11-1.54,4.54-1.58-1.92,1.43-3.6,3.29-4.54,5.55-.9-2.25-2.68-4.03-4.54-5.55,1.54,.12,3.4,.5,4.54,1.58Z"/>
    </g>
    <g>
      <polyline class="cls-4" points="575.08 209.52 575.08 199.09 687.26 199.09 687.26 273.3"/>
      <path class="cls-14" d="M687.26,272.9c1.04-1.04,3.11-1.54,4.54-1.58-1.92,1.43-3.6,3.29-4.54,5.55-.9-2.25-2.68-4.03-4.54-5.55,1.54,.12,3.4,.5,4.54,1.58Z"/>
    </g>
    <g>
      <polyline class="cls-4" points="583.72 209.52 583.72 203.07 682.05 203.07 682.05 123.68"/>
      <path class="cls-14" d="M682.05,124.08c-1.04,1.04-3.11,1.54-4.54,1.58,1.92-1.43,3.6-3.29,4.54-5.55,.9,2.25,2.68,4.03,4.54,5.55-1.54-.12-3.4-.5-4.54-1.58Z"/>
    </g>
    <g>
      <polyline class="cls-4" points="591.13 209.52 591.13 207.31 472.57 207.31 472.57 123.68"/>
      <path class="cls-14" d="M472.57,124.08c-1.04,1.04-3.11,1.54-4.54,1.58,1.92-1.43,3.6-3.29,4.54-5.55,.9,2.25,2.68,4.03,4.54,5.55-1.54-.12-3.4-.5-4.54-1.58Z"/>
    </g>
  </g>
</svg>