<?xml version="1.0" encoding="UTF-8"?>
<svg xmlns="http://www.w3.org/2000/svg" viewBox="0 0 792 612">
  <defs>
    <style>
      .cls-1 {
        stroke-width: .43px;
      }

      .cls-1, .cls-2, .cls-3, .cls-4, .cls-5, .cls-6, .cls-7, .cls-8 {
        fill: none;
      }

      .cls-1, .cls-3, .cls-5, .cls-6, .cls-7 {
        stroke: #010101;
        stroke-miterlimit: 2;
      }

      .cls-9 {
        font-size: 8px;
      }

      .cls-9, .cls-10, .cls-11, .cls-12, .cls-13, .cls-14 {
        fill: #231f20;
      }

      .cls-9, .cls-11, .cls-12, .cls-13, .cls-14 {
        font-family: Lustria-Regular, Lustria;
      }

      .cls-15 {
        fill: #010101;
      }

      .cls-16, .cls-17 {
        fill: #fff;
      }

      .cls-17, .cls-2 {
        stroke-width: 2px;
      }

      .cls-17, .cls-2, .cls-4, .cls-8 {
        stroke: #231f20;
        stroke-miterlimit: 10;
      }

      .cls-11 {
        font-size: 24px;
      }

      .cls-12 {
        font-size: 18px;
      }

      .cls-13 {
        font-size: 12px;
      }

      .cls-3 {
        stroke-width: .53px;
      }

      .cls-5 {
        stroke-width: .31px;
      }

      .cls-14 {
        font-size: 11px;
      }

      .cls-7 {
        stroke-width: .71px;
      }

      .cls-8 {
        stroke-width: .5px;
      }
    </style>
  </defs>
  <g id="Layer_1" data-name="Layer 1">
    <text class="cls-11" transform="translate(224.41 70.16)"><tspan x="0" y="0">Field of Bokeh</tspan></text>
    <g>
      <rect class="cls-17" x="39.36" y="123.73" width="73.81" height="25.55"/>
      <text class="cls-12" transform="translate(45.88 142.83)"><tspan x="0" y="0">Phase 1</tspan></text>
    </g>
    <text class="cls-13" transform="translate(123.97 134.21)"><tspan x="0" y="0" xml:space="preserve">With varying density, play any single A.  Begin by striking the A bell occasionally with a dead stroke and slowly </tspan><tspan x="0" y="14.4">fade into letting each bell vibrate after each hit. After all its are l.v., begin increasing the density of attacks until </tspan><tspan x="0" y="28.8">you reach the final box. The intensity of the attacks should follow the swelling line below. At the start of the </tspan><tspan x="0" y="43.2">section, performers should avoid playing simultaneously, but as the texture becomes denser, players should </tspan><tspan x="0" y="57.6">overlap.</tspan></text>
    <g>
      <path class="cls-16" d="M504.68,493.78c-6.21,.14-15.16,.1-25.81-.8-22.2-1.88-57.25-8.26-58.8-15.17-3.63-16.18,29.76-32.73,40.88-16.06,5.54,8.3-10.84,40.86-36.22,46.41-30.21,6.6-52.33-29.52-68.84-15.44-5.71,4.87,5.53,25.34,16.85,25.29,8.68-.04,17.76-12.42,16.85-22.89-1.6-18.47-34.92-38.37-63.53-31.89-21.61,4.9-18.77,23.4-29.28,22.57h-6.65"/>
      <g>
        <path class="cls-2" d="M492.61,493.75c-4.14-.11-8.75-.35-13.75-.77-22.2-1.88-57.25-8.26-58.8-15.17-3.63-16.18,29.76-32.73,40.88-16.06,5.54,8.3-10.84,40.86-36.22,46.41-30.21,6.6-52.33-29.52-68.84-15.44-5.71,4.87,5.53,25.34,16.85,25.29,8.68-.04,17.76-12.42,16.85-22.89-1.6-18.47-34.92-38.37-63.53-31.89-21.61,4.9-18.77,23.4-29.28,22.57h-6.65"/>
        <path class="cls-10" d="M504.68,493.78c-5.66-2.16-12.68-5.81-17.01-9.66l3.36,9.54-3.52,9.48c4.4-3.77,11.48-7.31,17.18-9.36Z"/>
      </g>
    </g>
    <g>
      <g>
        <g>
          <path class="cls-15" d="M161.58,458.7c1.69-2.27,4.24-2.27,5.93,0l.44-.3c-2.13-3.39-4.68-3.39-6.82,0l.44,.3" vector-effect="none"/>
          <g>
            <g>
              <line class="cls-3" x1="151.78" y1="482.99" x2="214.03" y2="482.99" vector-effect="none"/>
              <line class="cls-3" x1="151.78" y1="478.74" x2="214.03" y2="478.74" vector-effect="none"/>
              <line class="cls-3" x1="151.78" y1="474.49" x2="214.03" y2="474.49" vector-effect="none"/>
              <line class="cls-3" x1="151.78" y1="470.24" x2="214.03" y2="470.24" vector-effect="none"/>
              <line class="cls-3" x1="151.78" y1="465.99" x2="214.03" y2="465.99" vector-effect="none"/>
            </g>
            <line class="cls-7" x1="156.85" y1="461.74" x2="165.86" y2="461.74" vector-effect="none"/>
            <path class="cls-15" d="M174.58,464.9c.24,0,.43-.1,.43-.22v-3.2c0-.2,2.14-.31,4.28-.31s4.3,.1,4.3,.31v3.2c0,.12,.19,.22,.41,.22,.24,0,.43-.1,.43-.22v-4.98c0-.25-.37-.46-.85-.46h-8.55c-.48,0-.85,.2-.85,.46v4.98c0,.12,.19,.22,.41,.22m4.71,.02c.53,0,.93-.42,.93-.93s-.41-.92-.93-.92-.92,.41-.92,.92,.41,.93,.92,.93" vector-effect="none"/>
            <path class="cls-15" d="M158.55,462.54c0,.99,.82,1.58,1.84,1.58,1.68,0,3.76-1.56,3.76-3.18,0-.95-.76-1.58-1.85-1.58-2.07,0-3.74,1.55-3.74,3.18" vector-effect="none"/>
            <path class="cls-15" d="M177.34,472.54h3.91c.24,0,.44-.2,.44-.44v-1.56c0-.26-.2-.44-.44-.44h-3.91c-.25,0-.44,.19-.44,.44v1.56c0,.24,.19,.44,.44,.44" vector-effect="none"/>
          </g>
        </g>
        <g>
          <path class="cls-15" d="M210.53,493c1.69-2.27,4.24-2.27,5.93,0l.44-.3c-2.13-3.39-4.68-3.39-6.82,0l.44,.3" vector-effect="none"/>
          <line class="cls-7" x1="205.81" y1="496.04" x2="214.82" y2="496.04" vector-effect="none"/>
          <path class="cls-15" d="M223.14,499c0,.17,.09,.22,.22,.22,.15,0,.24-.12,.34-.36,.02-.02,.03-.09,.05-.15,.2-.7,.97-3.3,4.47-3.3s4.35,2.69,4.52,3.33c.02,.05,.02,.1,.03,.12,.12,.24,.19,.36,.36,.36,.15,0,.24-.07,.24-.24,0-.05,0-.1-.02-.17-1.05-5.2-4.61-5.24-5.1-5.24-.54,0-4.06,.03-5.1,5.24-.02,.07-.02,.14-.02,.19m4.18-.71c0,.51,.43,.94,.92,.94s.93-.43,.93-.94-.43-.92-.93-.92-.92,.43-.92,.92" vector-effect="none"/>
          <path class="cls-15" d="M207.51,496.84c0,.99,.82,1.58,1.84,1.58,1.68,0,3.76-1.56,3.76-3.18,0-.95-.76-1.58-1.85-1.58-2.07,0-3.74,1.55-3.74,3.18" vector-effect="none"/>
          <path class="cls-15" d="M226.3,508.82h3.91c.24,0,.44-.2,.44-.44v-1.56c0-.25-.2-.44-.44-.44h-3.91c-.25,0-.44,.19-.44,.44v1.56c0,.24,.19,.44,.44,.44" vector-effect="none"/>
          <g>
            <line class="cls-3" x1="199.53" y1="517.32" x2="252.24" y2="517.32" vector-effect="none"/>
            <line class="cls-3" x1="199.53" y1="513.07" x2="252.24" y2="513.07" vector-effect="none"/>
            <line class="cls-3" x1="199.53" y1="508.82" x2="252.24" y2="508.82" vector-effect="none"/>
            <line class="cls-3" x1="199.53" y1="504.57" x2="252.24" y2="504.57" vector-effect="none"/>
            <line class="cls-3" x1="199.53" y1="500.32" x2="252.24" y2="500.32" vector-effect="none"/>
          </g>
        </g>
        <g>
          <path class="cls-15" d="M252.17,463.63c1.69-2.27,4.24-2.27,5.94,0l.44-.3c-2.13-3.39-4.68-3.39-6.81,0l.44,.3" vector-effect="none"/>
          <line class="cls-7" x1="247.45" y1="466.67" x2="256.46" y2="466.67" vector-effect="none"/>
          <path class="cls-15" d="M264.7,469.84h.87s.05-.03,.12-.07c.54-.46,3.83-3.81,4.1-3.81s3.62,3.42,4.11,3.84c.03,.02,.12,.03,.12,.03h.85s.05-.02,.05-.05c0-.02-.02-.05-.03-.07-.73-.7-4.64-5.68-5.1-5.68s-4.32,4.91-5.1,5.68c-.02,.02-.03,.05-.03,.07,0,.03,.05,.05,.05,.05m4.13-1.11c0,.53,.42,.95,.93,.95s.93-.43,.93-.95c0-.49-.43-.92-.93-.92s-.93,.42-.93,.92" vector-effect="none"/>
          <path class="cls-15" d="M249.15,467.47c0,.99,.82,1.58,1.84,1.58,1.68,0,3.76-1.56,3.76-3.18,0-.95-.76-1.58-1.85-1.58-2.07,0-3.74,1.55-3.74,3.18" vector-effect="none"/>
          <path class="cls-15" d="M269.47,485.64c.14,.1,.31,.15,.44,.15,.12,0,.24-.03,.26-.1,.02-.05,.03-.08,.03-.12,0-.15-.14-.29-.27-.41-.22,0-.41-.46-.44-.61-.05-.14-.07-.29-.07-.44,0-.7,.36-1.24,1.07-1.24,.49,0,1.05,.19,1.33,.29,.02,0,.03,.02,.05,.02,.05,.02,.09,.02,.12,.02,.05,0,.09-.02,.09-.07,0-.2-.44-.77-.63-.97-.65-.78-1.17-1.41-1.17-2.36,0-.07,.02-.15,.02-.22,.07-.99,.68-1.8,1.12-2.5,.05-.09,.07-.17,.07-.26,0-.17-.07-.32-.07-.32,0,0-2.52-2.99-2.81-3.28-.09-.09-.2-.14-.31-.14-.17,0-.34,.12-.34,.36,0,.09,.02,.17,.07,.27,.07,.19,1.04,1.05,1.04,2.28,0,.63-.25,1.36-1.02,2.16-.17,.17-.24,.36-.24,.49,0,.24,.17,.41,.17,.41l.83,1.02c.27,.34,.51,.66,.73,1.02,.03,.07,.1,.2,.1,.24,0,.02,0,.05-.02,.07-.03,.07-.1,.08-.19,.08-.07,0-.2-.03-.27-.05-.08,0-.19-.05-.27-.05-.73,0-1.39,.73-1.39,1.63,0,.85,.73,1.68,1.97,2.64" vector-effect="none"/>
          <g>
            <line class="cls-3" x1="242.48" y1="487.95" x2="286.27" y2="487.95" vector-effect="none"/>
            <line class="cls-3" x1="242.48" y1="483.7" x2="286.27" y2="483.7" vector-effect="none"/>
            <line class="cls-3" x1="242.48" y1="479.45" x2="286.27" y2="479.45" vector-effect="none"/>
            <line class="cls-3" x1="242.48" y1="475.2" x2="286.27" y2="475.2" vector-effect="none"/>
            <line class="cls-3" x1="242.48" y1="470.95" x2="286.27" y2="470.95" vector-effect="none"/>
          </g>
        </g>
      </g>
      <rect class="cls-4" x="143.18" y="448.6" width="147.45" height="76.06" rx="12" ry="12"/>
    </g>
    <g>
      <g>
        <g>
          <path class="cls-15" d="M560.86,462.81c1.69-2.27,4.24-2.27,5.93,0l.44-.3c-2.13-3.39-4.68-3.39-6.82,0l.44,.3" vector-effect="none"/>
          <line class="cls-7" x1="556.13" y1="465.85" x2="565.14" y2="465.85" vector-effect="none"/>
          <line class="cls-5" x1="552.84" y1="457.03" x2="552.84" y2="465.37" vector-effect="none"/>
          <line class="cls-1" x1="548.67" y1="465.85" x2="554.01" y2="465.85" vector-effect="none"/>
          <path class="cls-15" d="M573.46,468.81c0,.17,.09,.22,.22,.22,.15,0,.24-.12,.34-.36,.02-.02,.03-.09,.05-.15,.2-.7,.97-3.3,4.47-3.3s4.35,2.69,4.52,3.33c.02,.05,.02,.1,.03,.12,.12,.24,.19,.36,.36,.36,.15,0,.24-.07,.24-.24,0-.05,0-.1-.02-.17-1.05-5.2-4.61-5.24-5.1-5.24-.54,0-4.06,.03-5.1,5.24-.02,.07-.02,.14-.02,.19m4.18-.71c0,.51,.43,.94,.92,.94s.93-.43,.93-.94-.43-.92-.93-.92-.92,.43-.92,.92" vector-effect="none"/>
          <path class="cls-15" d="M557.83,466.65c0,.99,.82,1.58,1.84,1.58,1.68,0,3.76-1.56,3.76-3.18,0-.95-.76-1.58-1.85-1.58-2.07,0-3.74,1.55-3.74,3.18" vector-effect="none"/>
          <path class="cls-15" d="M554.65,461.71c.15,.34,.24,.91,.24,1.5,0,.45-.07,.92-.24,1.37-.02,.06-.03,.11-.03,.15,0,.16,.1,.25,.16,.29,.06,.04,.23-.02,.28-.19,0,0,.26-.95,.26-1.73,0-1.25-.52-2.43-1.15-3.43-.51-.79-.93-1.65-1.09-2.61-.03-.16-.11-.22-.3-.22-.06,0-.1,.03-.1,.15v2.39c.66,.12,1.61,1.48,1.97,2.33" vector-effect="none"/>
          <path class="cls-15" d="M549.69,466.32c0,.58,.48,.93,1.08,.93,.99,0,2.21-.92,2.21-1.87,0-.56-.45-.93-1.09-.93-1.22,0-2.2,.91-2.2,1.87" vector-effect="none"/>
          <path class="cls-15" d="M576.62,478.63h3.91c.24,0,.44-.2,.44-.44v-1.56c0-.25-.2-.44-.44-.44h-3.91c-.25,0-.44,.19-.44,.44v1.56c0,.24,.19,.44,.44,.44" vector-effect="none"/>
          <line class="cls-1" x1="551.93" y1="460.48" x2="555.54" y2="456.87" vector-effect="none"/>
          <g>
            <line class="cls-3" x1="545.34" y1="487.13" x2="602.56" y2="487.13" vector-effect="none"/>
            <line class="cls-3" x1="545.34" y1="482.88" x2="602.56" y2="482.88" vector-effect="none"/>
            <line class="cls-3" x1="545.34" y1="478.63" x2="602.56" y2="478.63" vector-effect="none"/>
            <line class="cls-3" x1="545.34" y1="474.38" x2="602.56" y2="474.38" vector-effect="none"/>
            <line class="cls-3" x1="545.34" y1="470.13" x2="602.56" y2="470.13" vector-effect="none"/>
          </g>
        </g>
        <g>
          <path class="cls-15" d="M629.3,495.18c1.16,2.04,2.52,2.04,3.67,0l-.27-.16c-.88,1.36-2.24,1.36-3.13,0l-.27,.16" vector-effect="none"/>
          <line class="cls-7" x1="605.61" y1="490.79" x2="614.62" y2="490.79" vector-effect="none"/>
          <line class="cls-5" x1="622.51" y1="481.87" x2="622.51" y2="490.31" vector-effect="none"/>
          <line class="cls-1" x1="618.34" y1="490.79" x2="623.68" y2="490.79" vector-effect="none"/>
          <line class="cls-5" x1="630.93" y1="481.87" x2="630.93" y2="490.31" vector-effect="none"/>
          <line class="cls-1" x1="626.76" y1="490.79" x2="632.1" y2="490.79" vector-effect="none"/>
          <path class="cls-15" d="M630.04,480.79h.87s.05-.03,.12-.07c.54-.46,3.83-3.81,4.1-3.81s3.62,3.42,4.11,3.84c.03,.02,.12,.03,.12,.03h.85s.05-.02,.05-.05c0-.02-.02-.05-.03-.07-.73-.7-4.64-5.68-5.1-5.68s-4.32,4.91-5.1,5.68c-.02,.02-.03,.05-.03,.07,0,.03,.05,.05,.05,.05m4.13-1.11c0,.53,.42,.95,.93,.95s.93-.43,.93-.95c0-.49-.43-.92-.93-.92s-.93,.42-.93,.92" vector-effect="none"/>
          <path class="cls-15" d="M607.31,491.59c0,.99,.82,1.58,1.84,1.58,1.68,0,3.76-1.56,3.76-3.18,0-.95-.76-1.58-1.85-1.58-2.07,0-3.74,1.55-3.74,3.18" vector-effect="none"/>
          <path class="cls-15" d="M634.81,509.76c.14,.1,.31,.15,.44,.15,.12,0,.24-.03,.26-.1,.02-.05,.03-.08,.03-.12,0-.15-.14-.29-.27-.41-.22,0-.41-.46-.44-.61-.05-.14-.07-.29-.07-.44,0-.7,.36-1.24,1.07-1.24,.49,0,1.05,.19,1.33,.29,.02,0,.03,.02,.05,.02,.05,.02,.09,.02,.12,.02,.05,0,.09-.02,.09-.07,0-.2-.44-.77-.63-.97-.65-.78-1.17-1.41-1.17-2.36,0-.07,.02-.15,.02-.22,.07-.99,.68-1.8,1.12-2.5,.05-.09,.07-.17,.07-.26,0-.17-.07-.32-.07-.32,0,0-2.52-2.99-2.81-3.28-.09-.09-.2-.14-.31-.14-.17,0-.34,.12-.34,.36,0,.09,.02,.17,.07,.27,.07,.19,1.04,1.05,1.04,2.28,0,.63-.25,1.36-1.02,2.16-.17,.17-.24,.36-.24,.49,0,.24,.17,.41,.17,.41l.83,1.02c.27,.34,.51,.66,.73,1.02,.03,.07,.1,.2,.1,.24,0,.02,0,.05-.02,.07-.03,.07-.1,.08-.19,.08-.07,0-.2-.03-.27-.05-.08,0-.19-.05-.27-.05-.73,0-1.39,.73-1.39,1.63,0,.85,.73,1.68,1.97,2.64" vector-effect="none"/>
          <path class="cls-15" d="M619.36,491.26c0,.58,.48,.93,1.08,.93,.99,0,2.21-.92,2.21-1.87,0-.56-.45-.93-1.09-.93-1.22,0-2.2,.91-2.2,1.87" vector-effect="none"/>
          <path class="cls-15" d="M627.78,491.26c0,.58,.48,.93,1.08,.93,.99,0,2.21-.92,2.21-1.87,0-.56-.45-.93-1.09-.93-1.22,0-2.2,.91-2.2,1.87" vector-effect="none"/>
          <path class="cls-15" d="M622.35,483.14v-1.27h8.73v1.27h-8.73" vector-effect="none"/>
          <line class="cls-1" x1="621.45" y1="485.32" x2="626.71" y2="480.06" vector-effect="none"/>
          <g>
            <line class="cls-3" x1="600.68" y1="512.07" x2="651.61" y2="512.07" vector-effect="none"/>
            <line class="cls-3" x1="600.68" y1="507.82" x2="651.61" y2="507.82" vector-effect="none"/>
            <line class="cls-3" x1="600.68" y1="503.57" x2="651.61" y2="503.57" vector-effect="none"/>
            <line class="cls-3" x1="600.68" y1="499.32" x2="651.61" y2="499.32" vector-effect="none"/>
            <line class="cls-3" x1="600.68" y1="495.07" x2="651.61" y2="495.07" vector-effect="none"/>
          </g>
        </g>
        <g>
          <path class="cls-15" d="M534.83,494.95c1.69-2.27,4.24-2.27,5.93,0l.44-.3c-2.13-3.39-4.68-3.39-6.82,0l.44,.3" vector-effect="none"/>
          <line class="cls-7" x1="530.11" y1="497.99" x2="539.12" y2="497.99" vector-effect="none"/>
          <line class="cls-5" x1="518.39" y1="489.07" x2="518.39" y2="497.51" vector-effect="none"/>
          <line class="cls-1" x1="514.23" y1="497.99" x2="519.56" y2="497.99" vector-effect="none"/>
          <line class="cls-5" x1="526.81" y1="489.07" x2="526.81" y2="497.51" vector-effect="none"/>
          <line class="cls-1" x1="522.65" y1="497.99" x2="527.98" y2="497.99" vector-effect="none"/>
          <path class="cls-15" d="M529.52,491.03h.87s.05-.03,.12-.07c.54-.46,3.83-3.81,4.1-3.81s3.62,3.42,4.11,3.84c.03,.02,.12,.03,.12,.03h.85s.05-.02,.05-.05c0-.02-.02-.05-.03-.07-.73-.7-4.64-5.68-5.1-5.68s-4.32,4.91-5.1,5.68c-.02,.02-.03,.05-.03,.07,0,.03,.05,.05,.05,.05m4.13-1.11c0,.53,.42,.95,.93,.95s.93-.43,.93-.95c0-.49-.43-.92-.93-.92s-.93,.42-.93,.92" vector-effect="none"/>
          <path class="cls-15" d="M547.84,501.15c.24,0,.43-.1,.43-.22v-3.2c0-.2,2.14-.31,4.28-.31s4.3,.1,4.3,.31v3.2c0,.12,.19,.22,.41,.22,.24,0,.43-.1,.43-.22v-4.98c0-.25-.37-.46-.85-.46h-8.55c-.48,0-.85,.2-.85,.46v4.98c0,.12,.19,.22,.41,.22m4.71,.02c.53,0,.93-.42,.93-.93s-.41-.92-.93-.92-.92,.41-.92,.92,.41,.93,.92,.93" vector-effect="none"/>
          <path class="cls-15" d="M531.81,498.79c0,.99,.82,1.58,1.84,1.58,1.68,0,3.76-1.56,3.76-3.18,0-.95-.76-1.58-1.85-1.58-2.07,0-3.74,1.55-3.74,3.18" vector-effect="none"/>
          <path class="cls-15" d="M515.25,498.46c0,.58,.48,.93,1.08,.93,.99,0,2.21-.92,2.21-1.87,0-.56-.45-.93-1.09-.93-1.22,0-2.2,.91-2.2,1.87" vector-effect="none"/>
          <path class="cls-15" d="M523.67,498.46c0,.58,.48,.93,1.08,.93,.99,0,2.21-.92,2.21-1.87,0-.56-.45-.93-1.09-.93-1.22,0-2.2,.91-2.2,1.87" vector-effect="none"/>
          <path class="cls-15" d="M550.6,508.79h3.91c.24,0,.44-.2,.44-.44v-1.56c0-.26-.2-.44-.44-.44h-3.91c-.25,0-.44,.19-.44,.44v1.56c0,.24,.19,.44,.44,.44" vector-effect="none"/>
          <path class="cls-15" d="M518.24,490.34v-1.27h8.73v1.27h-8.73" vector-effect="none"/>
          <line class="cls-1" x1="517.33" y1="492.52" x2="522.59" y2="487.26" vector-effect="none"/>
          <g>
            <line class="cls-3" x1="510.06" y1="519.28" x2="587.28" y2="519.28" vector-effect="none"/>
            <line class="cls-3" x1="510.06" y1="515.03" x2="587.28" y2="515.03" vector-effect="none"/>
            <line class="cls-3" x1="510.06" y1="510.78" x2="587.28" y2="510.78" vector-effect="none"/>
            <line class="cls-3" x1="510.06" y1="506.53" x2="587.28" y2="506.53" vector-effect="none"/>
            <line class="cls-3" x1="510.06" y1="502.28" x2="587.28" y2="502.28" vector-effect="none"/>
          </g>
        </g>
      </g>
      <rect class="cls-4" x="504.68" y="451.99" width="151.98" height="72.66" rx="12" ry="12"/>
    </g>
    <text class="cls-9" transform="translate(266.57 459.97)"><tspan x="0" y="0">1”</tspan></text>
    <text class="cls-9" transform="translate(224.81 491.39)"><tspan x="0" y="0">3”</tspan></text>
    <text class="cls-9" transform="translate(176.79 457.28)"><tspan x="0" y="0">5”</tspan></text>
    <g>
      <g>
        <g>
          <line class="cls-3" x1="189.86" y1="306.68" x2="252.11" y2="306.68" vector-effect="none"/>
          <line class="cls-3" x1="189.86" y1="302.43" x2="252.11" y2="302.43" vector-effect="none"/>
          <line class="cls-3" x1="189.86" y1="298.18" x2="252.11" y2="298.18" vector-effect="none"/>
          <line class="cls-3" x1="189.86" y1="293.93" x2="252.11" y2="293.93" vector-effect="none"/>
          <line class="cls-3" x1="189.86" y1="289.68" x2="252.11" y2="289.68" vector-effect="none"/>
        </g>
        <line class="cls-7" x1="194.94" y1="285.43" x2="207.76" y2="285.43" vector-effect="none"/>
        <path class="cls-15" d="M212.66,288.59c.24,0,.43-.1,.43-.22v-3.2c0-.2,2.14-.31,4.28-.31s4.3,.1,4.3,.31v3.2c0,.12,.19,.22,.41,.22,.24,0,.43-.1,.43-.22v-4.98c0-.25-.37-.46-.85-.46h-8.55c-.48,0-.85,.2-.85,.46v4.98c0,.12,.19,.22,.41,.22m4.71,.02c.53,0,.93-.42,.93-.93s-.41-.92-.93-.92-.92,.41-.92,.92,.41,.93,.92,.93" vector-effect="none"/>
        <path class="cls-15" d="M215.43,296.23h3.91c.24,0,.44-.2,.44-.44v-1.56c0-.26-.2-.44-.44-.44h-3.91c-.25,0-.44,.19-.44,.44v1.56c0,.24,.19,.44,.44,.44" vector-effect="none"/>
        <g>
          <path class="cls-15" d="M196.64,286.23c0,.99,.82,1.58,1.84,1.58,1.68,0,3.76-1.56,3.76-3.18,0-.95-.76-1.58-1.85-1.58-2.07,0-3.74,1.55-3.74,3.18" vector-effect="none"/>
          <circle class="cls-8" cx="204.21" cy="285.43" r="2.17"/>
        </g>
      </g>
      <rect class="cls-4" x="181.27" y="272.28" width="80.2" height="48.45" rx="12" ry="12"/>
    </g>
    <text class="cls-9" transform="translate(213.85 281.81)"><tspan x="0" y="0">5” - 15”</tspan></text>
    <g>
      <g>
        <g>
          <line class="cls-3" x1="552.41" y1="362.01" x2="614.66" y2="362.01" vector-effect="none"/>
          <line class="cls-3" x1="552.41" y1="357.76" x2="614.66" y2="357.76" vector-effect="none"/>
          <line class="cls-3" x1="552.41" y1="353.51" x2="614.66" y2="353.51" vector-effect="none"/>
          <line class="cls-3" x1="552.41" y1="349.26" x2="614.66" y2="349.26" vector-effect="none"/>
          <line class="cls-3" x1="552.41" y1="345.01" x2="614.66" y2="345.01" vector-effect="none"/>
        </g>
        <line class="cls-7" x1="557.49" y1="340.76" x2="566.5" y2="340.76" vector-effect="none"/>
        <path class="cls-15" d="M575.21,343.92c.24,0,.43-.1,.43-.22v-3.2c0-.2,2.14-.31,4.28-.31s4.3,.1,4.3,.31v3.2c0,.12,.19,.22,.41,.22,.24,0,.43-.1,.43-.22v-4.98c0-.25-.37-.46-.85-.46h-8.55c-.48,0-.85,.2-.85,.46v4.98c0,.12,.19,.22,.41,.22m4.71,.02c.53,0,.93-.42,.93-.93s-.41-.92-.93-.92-.92,.41-.92,.92,.41,.93,.92,.93" vector-effect="none"/>
        <path class="cls-15" d="M559.19,341.56c0,.99,.82,1.58,1.84,1.58,1.68,0,3.76-1.56,3.76-3.18,0-.95-.76-1.58-1.85-1.58-2.07,0-3.74,1.55-3.74,3.18" vector-effect="none"/>
        <path class="cls-15" d="M577.98,351.56h3.91c.24,0,.44-.2,.44-.44v-1.56c0-.26-.2-.44-.44-.44h-3.91c-.25,0-.44,.19-.44,.44v1.56c0,.24,.19,.44,.44,.44" vector-effect="none"/>
        <path class="cls-15" d="M562.43,337.3c1.69-2.27,4.24-2.27,5.93,0l.44-.3c-2.13-3.39-4.68-3.39-6.82,0l.44,.3" vector-effect="none"/>
      </g>
      <rect class="cls-4" x="543.82" y="327.61" width="80.2" height="48.45" rx="12" ry="12"/>
    </g>
    <text class="cls-9" transform="translate(575.81 337.14)"><tspan x="0" y="0">5” - 10”</tspan></text>
    <text class="cls-14" transform="translate(278.83 92.01)"><tspan x="0" y="0">Music and Electronics by Christopher Poovey</tspan></text>
    <text class="cls-13" transform="translate(392.84 69.43)"><tspan x="0" y="0">for percussion ensemble and live electronics</tspan></text>
    <g>
      <path class="cls-2" d="M261.46,296.23c6.97,.33,27.79,.69,39.69,.12,32.32-1.54,80.03-9.06,80.18-18.07,.15-8.55-42.45-20.13-46.31-12.99-3.41,6.31,19.67,34.08,48.56,38.96,38.69,6.53,65.33-31.79,82.45-20.33,12.75,8.54,11.56,38.91,3.95,41.79-10.17,3.84-43.4-37.03-34.45-54.21,9.41-18.07,63.66-6.51,94.31,6.21,10.7,4.44,26.93,11.17,26.54,19.2-.56,11.62-35.78,21.82-39.53,15.81-5.09-8.17,15.49-49.26,42.92-45.74,16.44,2.11,27.41,21.08,28.02,45.35"/>
      <path class="cls-10" d="M587.28,324.4c-1.91-5.75-5.26-12.91-8.92-17.41l9.39,3.76,9.62-3.11c-3.96,4.23-7.79,11.15-10.09,16.76Z"/>
    </g>
    <g>
      <path class="cls-2" d="M587.28,376.6c1.92,5.53,4.65,16.46,1.27,22.72-7.55,14.01-34.02,12.13-46.87,11.22-50.74-3.6-99.22-33.78-96-42.92,3.23-9.18,61.17-4.18,64.38,10.73,2.52,11.75-27.66,35.59-50.26,29.93-32.43-8.13-31.76-72.68-51.39-73.41-20.12-.75-46,66.2-35.01,73.98,8,5.67,40.8-16.34,38.96-33.88-1.8-17.13-36.81-31.84-62.68-24.28-17.63,5.15-17.65,16.72-38.96,27.67-26.86,13.79-62.21,13.59-66.07,3.95-4.96-12.37,38.55-48.84,50.26-41.22,12.92,8.41-4.55,76.02-33.32,81.88-24.99,5.09-17.05-27.31-24.46-22.18-3.15,2.18-16.13,7.47-17.48,34.8"/>
      <path class="cls-10" d="M219.78,447.64c-2.13-5.67-5.76-12.7-9.59-17.05l9.53,3.4,9.49-3.48c-3.79,4.38-7.35,11.45-9.44,17.14Z"/>
    </g>
    <g>
      <ellipse class="cls-6" cx="138.92" cy="294.68" rx="35.06" ry="12.44"/>
      <text class="cls-13" transform="translate(116.49 298.67)"><tspan x="0" y="0">a, b, c, d</tspan></text>
    </g>
  </g>
  <g id="Notation">
    <path class="cls-10" d="M123.97,227.87l19.19-.41c6.4-.11,12.79-.27,19.19-.33l38.37-.43,38.37-.17,9.59-.04c3.2,0,6.4-.12,9.59,.19,3.2,.29,6.4,.84,9.59,1,3.2,.19,6.4-.02,9.59-.04,25.58-.46,51.16-2.46,76.74-2.52,25.58-.23,51.16,.98,76.74,1.46,25.58,.38,51.16-.24,76.74-1.85,12.79-.73,25.58-1.51,38.37-1.86,6.4-.22,12.79-.36,19.19-.39,3.2-.04,6.4-.03,9.59,.11,3.2,.16,6.4,.43,9.59,.8,6.4,.76,12.79,1.74,19.19,2.28,6.4,.56,12.79,.41,19.19,.41l19.19-.03,19.19-.23c6.4-.05,12.79-.24,19.19-.37,6.4-.12,12.79-.33,19.19-.55,12.79-.43,25.58-.97,38.37-1.84v9.64c-12.79-.87-25.58-1.41-38.37-1.84-6.4-.22-12.79-.43-19.19-.55-6.4-.13-12.79-.32-19.19-.37l-19.19-.23-19.19-.03c-6.4,0-12.79-.15-19.19,.41-6.4,.54-12.79,1.51-19.19,2.28-3.2,.37-6.4,.64-9.59,.8-3.2,.14-6.4,.15-9.59,.11-6.4-.03-12.79-.17-19.19-.39-12.79-.35-25.58-1.13-38.37-1.86-25.58-1.61-51.16-2.22-76.74-1.85-25.58,.47-51.16,1.69-76.74,1.46-25.58-.07-51.16-2.06-76.74-2.52-3.2-.02-6.4-.23-9.59-.04-3.2,.16-6.4,.71-9.59,1-3.2,.31-6.4,.19-9.59,.19l-9.59-.04-38.37-.17-38.37-.43c-6.4-.05-12.79-.22-19.19-.33l-19.19-.41Z"/>
    <text class="cls-13" transform="translate(130.92 215.23)"><tspan x="0" y="0">1’-2’</tspan></text>
  </g>
</svg>