<?xml version="1.0" encoding="UTF-8"?>
<svg xmlns="http://www.w3.org/2000/svg" xmlns:xlink="http://www.w3.org/1999/xlink" viewBox="0 0 792 612">
  <defs>
    <style>
      .cls-1, .cls-2, .cls-3, .cls-4, .cls-5, .cls-6, .cls-7, .cls-8 {
        fill: none;
      }

      .cls-2, .cls-9, .cls-3, .cls-8 {
        stroke: #231f20;
        stroke-miterlimit: 10;
      }

      .cls-2, .cls-7 {
        stroke-width: 3px;
      }

      .cls-10 {
        clip-path: url(#clippath);
      }

      .cls-11 {
        fill: #010101;
      }

      .cls-12, .cls-13, .cls-14, .cls-15 {
        fill: #231f20;
      }

      .cls-16 {
        letter-spacing: -.06em;
      }

      .cls-9 {
        fill: #fff;
      }

      .cls-9, .cls-3 {
        stroke-width: 2px;
      }

      .cls-17 {
        letter-spacing: .04em;
      }

      .cls-18 {
        letter-spacing: .01em;
      }

      .cls-19 {
        letter-spacing: .01em;
      }

      .cls-20 {
        letter-spacing: .04em;
      }

      .cls-21 {
        letter-spacing: .04em;
      }

      .cls-22 {
        clip-path: url(#clippath-1);
      }

      .cls-23 {
        clip-path: url(#clippath-4);
      }

      .cls-24 {
        clip-path: url(#clippath-3);
      }

      .cls-25 {
        clip-path: url(#clippath-2);
      }

      .cls-26 {
        clip-path: url(#clippath-7);
      }

      .cls-27 {
        clip-path: url(#clippath-8);
      }

      .cls-28 {
        clip-path: url(#clippath-6);
      }

      .cls-29 {
        clip-path: url(#clippath-5);
      }

      .cls-30 {
        clip-path: url(#clippath-9);
      }

      .cls-13 {
        font-size: 18px;
      }

      .cls-13, .cls-14, .cls-15 {
        font-family: Lustria-Regular, Lustria;
      }

      .cls-31 {
        clip-path: url(#clippath-20);
      }

      .cls-32 {
        clip-path: url(#clippath-21);
      }

      .cls-33 {
        clip-path: url(#clippath-24);
      }

      .cls-34 {
        clip-path: url(#clippath-23);
      }

      .cls-35 {
        clip-path: url(#clippath-22);
      }

      .cls-36 {
        clip-path: url(#clippath-25);
      }

      .cls-37 {
        clip-path: url(#clippath-27);
      }

      .cls-38 {
        clip-path: url(#clippath-28);
      }

      .cls-39 {
        clip-path: url(#clippath-26);
      }

      .cls-40 {
        clip-path: url(#clippath-29);
      }

      .cls-41 {
        clip-path: url(#clippath-34);
      }

      .cls-42 {
        clip-path: url(#clippath-35);
      }

      .cls-43 {
        clip-path: url(#clippath-36);
      }

      .cls-44 {
        clip-path: url(#clippath-37);
      }

      .cls-45 {
        clip-path: url(#clippath-39);
      }

      .cls-46 {
        clip-path: url(#clippath-33);
      }

      .cls-47 {
        clip-path: url(#clippath-32);
      }

      .cls-48 {
        clip-path: url(#clippath-30);
      }

      .cls-49 {
        clip-path: url(#clippath-38);
      }

      .cls-50 {
        clip-path: url(#clippath-31);
      }

      .cls-51 {
        clip-path: url(#clippath-14);
      }

      .cls-52 {
        clip-path: url(#clippath-13);
      }

      .cls-53 {
        clip-path: url(#clippath-12);
      }

      .cls-54 {
        clip-path: url(#clippath-10);
      }

      .cls-55 {
        clip-path: url(#clippath-15);
      }

      .cls-56 {
        clip-path: url(#clippath-17);
      }

      .cls-57 {
        clip-path: url(#clippath-16);
      }

      .cls-58 {
        clip-path: url(#clippath-19);
      }

      .cls-59 {
        clip-path: url(#clippath-11);
      }

      .cls-60 {
        clip-path: url(#clippath-18);
      }

      .cls-61 {
        letter-spacing: 0em;
      }

      .cls-62 {
        letter-spacing: .02em;
      }

      .cls-63 {
        letter-spacing: .02em;
      }

      .cls-64 {
        letter-spacing: .02em;
      }

      .cls-14 {
        font-size: 12px;
      }

      .cls-4 {
        stroke: #000;
        stroke-width: .53px;
      }

      .cls-4, .cls-5, .cls-6, .cls-7 {
        stroke-miterlimit: 2;
      }

      .cls-5 {
        stroke-width: .53px;
      }

      .cls-5, .cls-6, .cls-7 {
        stroke: #010101;
      }

      .cls-65 {
        letter-spacing: .01em;
      }

      .cls-66 {
        letter-spacing: -.02em;
      }

      .cls-15 {
        font-size: 16px;
      }

      .cls-67 {
        letter-spacing: -.02em;
      }

      .cls-68 {
        letter-spacing: -.02em;
      }

      .cls-7 {
        stroke-linecap: round;
      }

      .cls-8 {
        stroke-width: .5px;
      }
    </style>
    <clipPath id="clippath">
      <rect class="cls-1" x="169.83" y="183.7" width="10.09" height="8.21"/>
    </clipPath>
    <clipPath id="clippath-1">
      <rect class="cls-1" x="169.83" y="183.7" width="10.09" height="8.21"/>
    </clipPath>
    <clipPath id="clippath-2">
      <rect class="cls-1" x="226.31" y="187.21" width="9.99" height="4.84"/>
    </clipPath>
    <clipPath id="clippath-3">
      <rect class="cls-1" x="226.31" y="187.21" width="9.99" height="4.84"/>
    </clipPath>
    <clipPath id="clippath-4">
      <rect class="cls-1" x="206.47" y="243.92" width="9.99" height="4.84"/>
    </clipPath>
    <clipPath id="clippath-5">
      <rect class="cls-1" x="206.47" y="243.92" width="9.99" height="4.84"/>
    </clipPath>
    <clipPath id="clippath-6">
      <rect class="cls-1" x="244.7" y="238.01" width="10.09" height="8.21"/>
    </clipPath>
    <clipPath id="clippath-7">
      <rect class="cls-1" x="244.7" y="238.01" width="10.09" height="8.21"/>
    </clipPath>
    <clipPath id="clippath-8">
      <rect class="cls-1" x="289.34" y="204.33" width="10.09" height="8.21"/>
    </clipPath>
    <clipPath id="clippath-9">
      <rect class="cls-1" x="289.34" y="204.33" width="10.09" height="8.21"/>
    </clipPath>
    <clipPath id="clippath-10">
      <rect class="cls-1" x="352.57" y="203.73" width="9.99" height="4.84"/>
    </clipPath>
    <clipPath id="clippath-11">
      <rect class="cls-1" x="352.57" y="203.73" width="9.99" height="4.84"/>
    </clipPath>
    <clipPath id="clippath-12">
      <rect class="cls-1" x="487.71" y="490.31" width="10.09" height="8.21"/>
    </clipPath>
    <clipPath id="clippath-13">
      <rect class="cls-1" x="487.71" y="490.31" width="10.09" height="8.21"/>
    </clipPath>
    <clipPath id="clippath-14">
      <rect class="cls-1" x="584.57" y="491.99" width="9.99" height="4.84"/>
    </clipPath>
    <clipPath id="clippath-15">
      <rect class="cls-1" x="584.57" y="492" width="9.99" height="4.84"/>
    </clipPath>
    <clipPath id="clippath-16">
      <rect class="cls-1" x="541.88" y="525.07" width="10.09" height="8.21"/>
    </clipPath>
    <clipPath id="clippath-17">
      <rect class="cls-1" x="541.88" y="525.07" width="10.09" height="8.21"/>
    </clipPath>
    <clipPath id="clippath-18">
      <rect class="cls-1" x="586.58" y="530.95" width="9.99" height="4.84"/>
    </clipPath>
    <clipPath id="clippath-19">
      <rect class="cls-1" x="586.58" y="530.95" width="9.99" height="4.84"/>
    </clipPath>
    <clipPath id="clippath-20">
      <rect class="cls-1" x="598.18" y="533.37" width="9.99" height="4.84"/>
    </clipPath>
    <clipPath id="clippath-21">
      <rect class="cls-1" x="598.18" y="533.37" width="9.99" height="4.84"/>
    </clipPath>
    <clipPath id="clippath-22">
      <rect class="cls-1" x="497.24" y="308.64" width="9.99" height="4.84"/>
    </clipPath>
    <clipPath id="clippath-23">
      <rect class="cls-1" x="497.24" y="308.64" width="9.99" height="4.84"/>
    </clipPath>
    <clipPath id="clippath-24">
      <rect class="cls-1" x="497.24" y="313.16" width="9.99" height="4.84"/>
    </clipPath>
    <clipPath id="clippath-25">
      <rect class="cls-1" x="497.24" y="313.16" width="9.99" height="4.84"/>
    </clipPath>
    <clipPath id="clippath-26">
      <rect class="cls-1" x="534.04" y="315.04" width="9.99" height="4.84"/>
    </clipPath>
    <clipPath id="clippath-27">
      <rect class="cls-1" x="534.04" y="315.04" width="9.99" height="4.84"/>
    </clipPath>
    <clipPath id="clippath-28">
      <rect class="cls-1" x="598.06" y="316.73" width="9.99" height="4.84"/>
    </clipPath>
    <clipPath id="clippath-29">
      <rect class="cls-1" x="598.06" y="316.73" width="9.99" height="4.84"/>
    </clipPath>
    <clipPath id="clippath-30">
      <rect class="cls-1" x="617.77" y="318.08" width="9.39" height="7.65"/>
    </clipPath>
    <clipPath id="clippath-31">
      <rect class="cls-1" x="617.77" y="318.08" width="9.39" height="7.65"/>
    </clipPath>
    <clipPath id="clippath-32">
      <rect class="cls-1" x="639.93" y="349.49" width="10.09" height="8.21"/>
    </clipPath>
    <clipPath id="clippath-33">
      <rect class="cls-1" x="639.93" y="349.49" width="10.09" height="8.21"/>
    </clipPath>
    <clipPath id="clippath-34">
      <rect class="cls-1" x="647.84" y="360.05" width="9.99" height="4.84"/>
    </clipPath>
    <clipPath id="clippath-35">
      <rect class="cls-1" x="647.84" y="360.05" width="9.99" height="4.84"/>
    </clipPath>
    <clipPath id="clippath-36">
      <rect class="cls-1" x="621.82" y="357.63" width="9.99" height="4.84"/>
    </clipPath>
    <clipPath id="clippath-37">
      <rect class="cls-1" x="621.82" y="357.63" width="9.99" height="4.84"/>
    </clipPath>
    <clipPath id="clippath-38">
      <rect class="cls-1" x="538.13" y="347.08" width="10.09" height="8.21"/>
    </clipPath>
    <clipPath id="clippath-39">
      <rect class="cls-1" x="538.13" y="347.08" width="10.09" height="8.21"/>
    </clipPath>
  </defs>
  <g id="Layer_1" data-name="Layer 1">
    <text class="cls-14" transform="translate(118.77 28.5)"><tspan x="0" y="0">Use</tspan><tspan class="cls-18" x="21.08" y="0"> </tspan><tspan x="23.97" y="0">the</tspan><tspan class="cls-19" x="42.46" y="0"> </tspan><tspan x="45.34" y="0">flow</tspan><tspan class="cls-18" x="69.92" y="0"> </tspan><tspan x="72.81" y="0">chart</tspan><tspan class="cls-18" x="102.12" y="0"> </tspan><tspan x="105.01" y="0">below</tspan><tspan class="cls-18" x="139.3" y="0"> </tspan><tspan x="142.19" y="0">to</tspan><tspan class="cls-19" x="153.79" y="0"> </tspan><tspan x="156.67" y="0">traverse</tspan><tspan class="cls-18" x="201.67" y="0"> </tspan><tspan x="204.56" y="0">between</tspan><tspan class="cls-18" x="253.15" y="0"> </tspan><tspan x="256.03" y="0">different</tspan><tspan class="cls-19" x="305.1" y="0"> </tspan><tspan x="307.98" y="0">sets</tspan><tspan class="cls-18" x="329.43" y="0"> </tspan><tspan x="332.31" y="0">of</tspan><tspan class="cls-18" x="343.69" y="0"> </tspan><tspan x="346.57" y="0">musical</tspan><tspan class="cls-18" x="389.57" y="0"> </tspan><tspan x="392.45" y="0">materials.</tspan><tspan class="cls-18" x="446.39" y="0" xml:space="preserve">  </tspan><tspan x="452.16" y="0">Each</tspan><tspan class="cls-18" x="479.86" y="0"> </tspan><tspan x="482.74" y="0">performer</tspan><tspan class="cls-18" x="540.07" y="0"> </tspan><tspan x="542.96" y="0">has</tspan><tspan class="cls-18" x="562.05" y="0"> </tspan><tspan x="564.94" y="0">a</tspan><tspan class="cls-65" x="571.07" y="0"> </tspan><tspan x="573.95" y="0">separate </tspan><tspan x="0" y="14.4">flow</tspan><tspan class="cls-68" x="24.58" y="14.4"> </tspan><tspan x="27.13" y="14.4">chart</tspan><tspan class="cls-67" x="56.45" y="14.4"> </tspan><tspan x="59.01" y="14.4">identified</tspan><tspan class="cls-68" x="113.48" y="14.4"> </tspan><tspan x="116.03" y="14.4">by</tspan><tspan class="cls-67" x="129.76" y="14.4"> </tspan><tspan x="132.32" y="14.4">the</tspan><tspan class="cls-68" x="150.81" y="14.4"> </tspan><tspan x="153.37" y="14.4">circled</tspan><tspan class="cls-68" x="191.77" y="14.4"> </tspan><tspan x="194.32" y="14.4">number</tspan><tspan class="cls-67" x="239.07" y="14.4"> </tspan><tspan x="241.63" y="14.4">on</tspan><tspan class="cls-68" x="256.58" y="14.4"> </tspan><tspan x="259.14" y="14.4">the</tspan><tspan class="cls-67" x="277.63" y="14.4"> </tspan><tspan x="280.19" y="14.4">left.</tspan><tspan class="cls-68" x="301.5" y="14.4"> </tspan><tspan class="cls-16" x="304.06" y="14.4">Y</tspan><tspan class="cls-61" x="311.82" y="14.4">ou</tspan><tspan class="cls-67" x="326.63" y="14.4"> </tspan><tspan class="cls-61" x="329.19" y="14.4">may</tspan><tspan class="cls-68" x="352.54" y="14.4"> </tspan><tspan class="cls-61" x="355.1" y="14.4">progress</tspan><tspan class="cls-68" x="403.49" y="14.4"> </tspan><tspan x="406.05" y="14.4">to</tspan><tspan class="cls-67" x="417.66" y="14.4"> </tspan><tspan x="420.21" y="14.4">any</tspan><tspan class="cls-68" x="440.43" y="14.4"> </tspan><tspan x="442.99" y="14.4">group</tspan><tspan class="cls-68" x="476.91" y="14.4"> </tspan><tspan x="479.47" y="14.4">of</tspan><tspan class="cls-68" x="490.85" y="14.4"> </tspan><tspan x="493.4" y="14.4">materials</tspan><tspan class="cls-66" x="544.43" y="14.4"> </tspan><tspan x="546.99" y="14.4">connected</tspan><tspan class="cls-68" x="607.04" y="14.4"> </tspan><tspan x="609.6" y="14.4">to </tspan><tspan x="0" y="28.8">the</tspan><tspan class="cls-20" x="18.49" y="28.8"> </tspan><tspan x="21.7" y="28.8">group</tspan><tspan class="cls-21" x="55.63" y="28.8"> </tspan><tspan x="58.83" y="28.8">you</tspan><tspan class="cls-20" x="80.05" y="28.8"> </tspan><tspan x="83.26" y="28.8">are</tspan><tspan class="cls-20" x="100.79" y="28.8"> </tspan><tspan x="104" y="28.8">performing.</tspan><tspan class="cls-20" x="170.76" y="28.8" xml:space="preserve">  </tspan><tspan x="177.18" y="28.8">Materials</tspan><tspan class="cls-20" x="228.91" y="28.8"> </tspan><tspan x="232.12" y="28.8">within</tspan><tspan class="cls-20" x="268.44" y="28.8"> </tspan><tspan x="271.65" y="28.8">a</tspan><tspan class="cls-20" x="277.78" y="28.8"> </tspan><tspan x="280.99" y="28.8">group</tspan><tspan class="cls-21" x="314.92" y="28.8"> </tspan><tspan x="318.13" y="28.8">may</tspan><tspan class="cls-20" x="341.48" y="28.8"> </tspan><tspan x="344.69" y="28.8">be</tspan><tspan class="cls-20" x="358.51" y="28.8"> </tspan><tspan x="361.72" y="28.8">played</tspan><tspan class="cls-20" x="399.16" y="28.8"> </tspan><tspan x="402.37" y="28.8">in</tspan><tspan class="cls-21" x="413.51" y="28.8"> </tspan><tspan x="416.72" y="28.8">any</tspan><tspan class="cls-20" x="436.94" y="28.8"> </tspan><tspan x="440.15" y="28.8">order,</tspan><tspan class="cls-20" x="474.16" y="28.8"> </tspan><tspan x="477.37" y="28.8">any</tspan><tspan class="cls-20" x="497.58" y="28.8"> </tspan><tspan x="500.79" y="28.8">number</tspan><tspan class="cls-20" x="545.54" y="28.8"> </tspan><tspan x="548.75" y="28.8">of</tspan><tspan class="cls-17" x="560.13" y="28.8"> </tspan><tspan x="563.33" y="28.8">times,</tspan><tspan class="cls-20" x="596.69" y="28.8"> </tspan><tspan x="599.9" y="28.8">and </tspan><tspan x="0" y="43.2">may</tspan><tspan class="cls-62" x="23.35" y="43.2"> </tspan><tspan x="26.32" y="43.2">be</tspan><tspan class="cls-64" x="40.14" y="43.2"> </tspan><tspan x="43.11" y="43.2">used</tspan><tspan class="cls-62" x="69.94" y="43.2"> </tspan><tspan x="72.9" y="43.2">as</tspan><tspan class="cls-64" x="84.34" y="43.2"> </tspan><tspan x="87.3" y="43.2">a</tspan><tspan class="cls-62" x="93.44" y="43.2"> </tspan><tspan x="96.4" y="43.2">basis</tspan><tspan class="cls-64" x="123.92" y="43.2"> </tspan><tspan x="126.88" y="43.2">of</tspan><tspan class="cls-62" x="138.26" y="43.2"> </tspan><tspan x="141.22" y="43.2">improvisation.</tspan><tspan class="cls-64" x="222.09" y="43.2" xml:space="preserve">  </tspan><tspan x="228.02" y="43.2">Pitches</tspan><tspan class="cls-64" x="268.73" y="43.2"> </tspan><tspan x="271.69" y="43.2">may</tspan><tspan class="cls-62" x="295.04" y="43.2"> </tspan><tspan x="298.01" y="43.2">be</tspan><tspan class="cls-64" x="311.83" y="43.2"> </tspan><tspan x="314.8" y="43.2">played</tspan><tspan class="cls-62" x="352.24" y="43.2"> </tspan><tspan x="355.2" y="43.2">in</tspan><tspan class="cls-64" x="366.34" y="43.2"> </tspan><tspan x="369.31" y="43.2">any</tspan><tspan class="cls-62" x="389.52" y="43.2"> </tspan><tspan x="392.49" y="43.2">octave.</tspan><tspan class="cls-62" x="432.38" y="43.2"> </tspan><tspan class="cls-16" x="435.34" y="43.2">Y</tspan><tspan x="443.11" y="43.2">ou</tspan><tspan class="cls-62" x="457.92" y="43.2"> </tspan><tspan x="460.88" y="43.2">may</tspan><tspan class="cls-62" x="484.23" y="43.2"> </tspan><tspan x="487.2" y="43.2">add</tspan><tspan class="cls-63" x="508.31" y="43.2"> </tspan><tspan x="511.27" y="43.2">breaks</tspan><tspan class="cls-62" x="548.19" y="43.2"> </tspan><tspan x="551.16" y="43.2">between</tspan><tspan class="cls-62" x="599.75" y="43.2"> </tspan><tspan x="602.71" y="43.2">the </tspan><tspan x="0" y="57.6">materials. The intensity of this section should match the curve below.</tspan></text>
  </g>
  <g id="Notation">
    <g>
      <rect class="cls-9" x="35.92" y="19.95" width="73.81" height="25.55"/>
      <text class="cls-13" transform="translate(42.14 39.05)"><tspan x="0" y="0">Phase 3</tspan></text>
    </g>
    <g>
      <text class="cls-15" transform="translate(68.74 72.19)"><tspan x="0" y="0">a</tspan></text>
      <circle class="cls-6" cx="72.83" cy="66.54" r="17.45"/>
    </g>
    <g>
      <rect class="cls-2" x="130.92" y="169.73" width="267.26" height="100.94" rx="12" ry="12"/>
      <rect class="cls-2" x="125.38" y="359.15" width="289.75" height="121.58" rx="12" ry="12"/>
      <rect class="cls-2" x="462.77" y="472.27" width="218.95" height="84.87" rx="12" ry="12"/>
      <rect class="cls-2" x="468.8" y="289.72" width="204.53" height="99.77" rx="12" ry="12"/>
      <g>
        <path d="M157.06,189.05v-1.21c0-.1,.08-.24,.2-.27,0,0,.34-.14,.44-.19s.2-.22,.2-.46v-2.29c0-.1,.1-.19,.27-.19,.12,0,.24,.08,.24,.19v2.04c0,.14,.05,.34,.2,.34,.29-.07,.87-.31,1.07-.42,.15-.1,.2-.32,.22-.49v-2.21c0-.1,.1-.19,.27-.19,.14,0,.24,.08,.24,.19v2.07c0,.14,.12,.22,.24,.22,.08-.02,.43-.15,.43-.15,.03-.02,.05-.02,.08-.02,.07,0,.12,.05,.12,.14v1.21c0,.1-.08,.24-.2,.29l-.44,.17c-.14,.05-.22,.37-.22,.49v1.58c0,.2,.12,.31,.22,.31l.44-.17s.05-.02,.08-.02c.07,0,.12,.05,.12,.14v1.21c0,.1-.08,.24-.2,.29,0,0-.36,.14-.48,.19s-.19,.25-.19,.39v2.41c0,.1-.1,.19-.29,.19-.12,0-.22-.08-.22-.19v-2.12c0-.1-.08-.31-.22-.31-.02,0-.05,.02-.07,.02l-1.04,.42c-.08,.03-.17,.15-.17,.37v2.36c0,.1-.12,.19-.29,.19-.12,0-.22-.08-.22-.19v-2.09c0-.08-.08-.27-.2-.27-.02,0-.03,0-.05,.02-.15,.05-.39,.15-.39,.15-.02,0-.05,.02-.07,.02-.08,0-.14-.05-.14-.15v-1.21c0-.1,.08-.24,.2-.27,0,0,.36-.15,.46-.19,.1-.05,.19-.2,.19-.39v-1.68c0-.14-.1-.31-.22-.31-.02,0-.03,.02-.05,.02-.05,.03-.37,.19-.44,.19-.08,0-.14-.05-.14-.15Zm1.36,1.95c.02,.05,.1,.08,.2,.08,.39,0,1.19-.34,1.29-.68,.03-.15,.07-.63,.07-1.09s-.03-.88-.07-.97c-.03-.07-.14-.1-.25-.1-.42,0-1.21,.36-1.24,.65-.03,.14-.05,.73-.05,1.26,0,.41,.02,.78,.05,.85Z"/>
        <path d="M166.11,187.27c1.09,0,1.85,.63,1.85,1.58,0,1.61-2.07,3.18-3.76,3.18-1.02,0-1.84-.6-1.84-1.58,0-1.63,1.67-3.18,3.74-3.18Z"/>
        <path d="M207.76,191.52c1.09,0,1.85,.63,1.85,1.58,0,1.61-2.07,3.18-3.76,3.18-1.02,0-1.84-.6-1.84-1.58,0-1.63,1.67-3.18,3.74-3.18Z"/>
        <g>
          <line class="cls-4" x1="155.37" y1="208.77" x2="244.7" y2="208.77"/>
          <line class="cls-4" x1="155.37" y1="204.52" x2="244.7" y2="204.52"/>
          <line class="cls-4" x1="155.37" y1="200.27" x2="244.7" y2="200.27"/>
          <line class="cls-4" x1="155.37" y1="196.02" x2="244.7" y2="196.02"/>
          <line class="cls-4" x1="155.37" y1="191.77" x2="244.7" y2="191.77"/>
        </g>
        <g id="Artwork_1" data-name="Artwork 1">
          <g class="cls-10">
            <g class="cls-22">
              <path class="cls-11" d="M169.83,190.33c0,.99,.81,1.58,1.83,1.58,1.68,0,3.75-1.56,3.75-3.18,0-.95-.76-1.58-1.85-1.58-2.07,0-3.73,1.55-3.73,3.18"/>
              <path class="cls-11" d="M173.54,186.54c1.69-2.27,4.24-2.27,5.93,0l.44-.3c-2.13-3.39-4.68-3.39-6.82,0l.44,.3Z"/>
            </g>
          </g>
        </g>
        <g id="Artwork_2" data-name="Artwork 2">
          <g class="cls-25">
            <g class="cls-24">
              <path class="cls-11" d="M226.31,190.43c0,.99,.82,1.58,1.84,1.58,1.68,0,3.76-1.56,3.76-3.18,0-.95-.76-1.58-1.85-1.58-2.07,0-3.74,1.55-3.74,3.18"/>
              <circle class="cls-8" cx="233.88" cy="189.63" r="2.17"/>
            </g>
          </g>
        </g>
      </g>
      <g>
        <path d="M274.89,382.55c1.09,0,1.85,.63,1.85,1.58,0,1.61-2.07,3.18-3.76,3.18-1.02,0-1.84-.6-1.84-1.58,0-1.63,1.67-3.18,3.74-3.18Z"/>
        <path d="M286.93,376.17c1.09,0,1.85,.63,1.85,1.58,0,1.61-2.07,3.18-3.76,3.18-1.02,0-1.84-.6-1.84-1.58,0-1.63,1.67-3.18,3.74-3.18Z"/>
        <path d="M298.98,380.42c1.09,0,1.85,.63,1.85,1.58,0,1.61-2.07,3.18-3.76,3.18-1.02,0-1.84-.6-1.84-1.58,0-1.63,1.67-3.18,3.74-3.18Z"/>
        <path d="M307.49,376.17c1.09,0,1.85,.63,1.85,1.58,0,1.61-2.07,3.18-3.76,3.18-1.02,0-1.84-.6-1.84-1.58,0-1.63,1.67-3.18,3.74-3.18Z"/>
        <path d="M316,382.55c1.09,0,1.85,.63,1.85,1.58,0,1.61-2.07,3.18-3.76,3.18-1.02,0-1.84-.6-1.84-1.58,0-1.63,1.67-3.18,3.74-3.18Z"/>
        <path d="M323.2,380.42c1.09,0,1.85,.63,1.85,1.58,0,1.61-2.07,3.18-3.76,3.18-1.02,0-1.84-.6-1.84-1.58,0-1.63,1.67-3.18,3.74-3.18Z"/>
        <path d="M330.41,376.17c1.09,0,1.85,.63,1.85,1.58,0,1.61-2.07,3.18-3.76,3.18-1.02,0-1.84-.6-1.84-1.58,0-1.63,1.67-3.18,3.74-3.18Z"/>
        <path d="M337.21,382.55c1.09,0,1.85,.63,1.85,1.58,0,1.61-2.07,3.18-3.76,3.18-1.02,0-1.84-.6-1.84-1.58,0-1.63,1.67-3.18,3.74-3.18Z"/>
        <path d="M344.41,380.42c1.09,0,1.85,.63,1.85,1.58,0,1.61-2.07,3.18-3.76,3.18-1.02,0-1.84-.6-1.84-1.58,0-1.63,1.67-3.18,3.74-3.18Z"/>
        <path d="M352.92,376.17c1.09,0,1.85,.63,1.85,1.58,0,1.61-2.07,3.18-3.76,3.18-1.02,0-1.84-.6-1.84-1.58,0-1.63,1.67-3.18,3.74-3.18Z"/>
        <path d="M361.43,380.42c1.09,0,1.85,.63,1.85,1.58,0,1.61-2.07,3.18-3.76,3.18-1.02,0-1.84-.6-1.84-1.58,0-1.63,1.67-3.18,3.74-3.18Z"/>
        <path d="M373.47,382.55c1.09,0,1.85,.63,1.85,1.58,0,1.61-2.07,3.18-3.76,3.18-1.02,0-1.84-.6-1.84-1.58,0-1.63,1.67-3.18,3.74-3.18Z"/>
        <rect x="271.15" y="404.05" width="48.82" height="2.12"/>
        <polygon points="271.15 406.18 271.15 404.05 319.97 400.86 319.97 402.99 271.15 406.18"/>
        <polygon points="271.15 406.18 271.15 404.05 319.97 397.68 319.97 399.8 271.15 406.18"/>
        <rect x="326.67" y="404.05" width="43.58" height="2.12"/>
        <polygon points="326.67 402.99 326.67 400.86 370.24 404.05 370.24 406.18 326.67 402.99"/>
        <polygon points="326.67 399.8 326.67 397.68 370.24 404.05 370.24 406.18 326.67 399.8"/>
        <g>
          <line class="cls-4" x1="269.79" y1="397.68" x2="378.02" y2="397.68"/>
          <line class="cls-4" x1="269.79" y1="393.43" x2="378.02" y2="393.43"/>
          <line class="cls-4" x1="269.79" y1="389.18" x2="378.02" y2="389.18"/>
          <line class="cls-4" x1="269.79" y1="384.93" x2="378.02" y2="384.93"/>
          <line class="cls-4" x1="269.79" y1="380.68" x2="378.02" y2="380.68"/>
        </g>
        <path d="M278.49,378v-1.21c0-.1,.08-.24,.2-.27,0,0,.34-.14,.44-.19s.2-.22,.2-.46v-2.29c0-.1,.1-.19,.27-.19,.12,0,.24,.08,.24,.19v2.04c0,.14,.05,.34,.2,.34,.29-.07,.87-.31,1.07-.42,.15-.1,.2-.32,.22-.49v-2.21c0-.1,.1-.19,.27-.19,.14,0,.24,.08,.24,.19v2.07c0,.14,.12,.22,.24,.22,.08-.02,.43-.15,.43-.15,.03-.02,.05-.02,.08-.02,.07,0,.12,.05,.12,.14v1.21c0,.1-.08,.24-.2,.29l-.44,.17c-.14,.05-.22,.37-.22,.49v1.58c0,.2,.12,.31,.22,.31l.44-.17s.05-.02,.08-.02c.07,0,.12,.05,.12,.14v1.21c0,.1-.08,.24-.2,.29,0,0-.36,.14-.48,.19s-.19,.25-.19,.39v2.41c0,.1-.1,.19-.29,.19-.12,0-.22-.08-.22-.19v-2.12c0-.1-.08-.31-.22-.31-.02,0-.05,.02-.07,.02l-1.04,.42c-.08,.03-.17,.15-.17,.37v2.36c0,.1-.12,.19-.29,.19-.12,0-.22-.08-.22-.19v-2.09c0-.08-.08-.27-.2-.27-.02,0-.03,0-.05,.02-.15,.05-.39,.15-.39,.15-.02,0-.05,.02-.07,.02-.08,0-.14-.05-.14-.15v-1.21c0-.1,.08-.24,.2-.27,0,0,.36-.15,.46-.19,.1-.05,.19-.2,.19-.39v-1.68c0-.14-.1-.31-.22-.31-.02,0-.03,.02-.05,.02-.05,.03-.37,.19-.44,.19-.08,0-.14-.05-.14-.15Zm1.36,1.95c.02,.05,.1,.08,.2,.08,.39,0,1.19-.34,1.29-.68,.03-.15,.07-.63,.07-1.09s-.03-.88-.07-.97c-.03-.07-.14-.1-.25-.1-.42,0-1.21,.36-1.24,.65-.03,.14-.05,.73-.05,1.26,0,.41,.02,.78,.05,.85Z"/>
      </g>
      <g>
        <path d="M167.19,237.36c1.09,0,1.85,.63,1.85,1.58,0,1.61-2.07,3.18-3.76,3.18-1.02,0-1.84-.6-1.84-1.58,0-1.63,1.67-3.18,3.74-3.18Z"/>
        <path d="M183.66,241.61c1.09,0,1.85,.63,1.85,1.58,0,1.61-2.07,3.18-3.76,3.18-1.02,0-1.84-.6-1.84-1.58,0-1.63,1.67-3.18,3.74-3.18Z"/>
        <g>
          <line class="cls-4" x1="155.37" y1="259.09" x2="267.56" y2="259.09"/>
          <line class="cls-4" x1="155.37" y1="254.84" x2="267.56" y2="254.84"/>
          <line class="cls-4" x1="155.37" y1="250.59" x2="267.56" y2="250.59"/>
          <line class="cls-4" x1="155.37" y1="246.34" x2="267.56" y2="246.34"/>
          <line class="cls-4" x1="155.37" y1="242.09" x2="267.56" y2="242.09"/>
        </g>
        <path d="M157.85,239.16v-1.21c0-.1,.08-.24,.2-.27,0,0,.34-.14,.44-.19s.2-.22,.2-.46v-2.29c0-.1,.1-.19,.27-.19,.12,0,.24,.08,.24,.19v2.04c0,.14,.05,.34,.2,.34,.29-.07,.87-.31,1.07-.42,.15-.1,.2-.32,.22-.49v-2.21c0-.1,.1-.19,.27-.19,.14,0,.24,.08,.24,.19v2.07c0,.14,.12,.22,.24,.22,.08-.02,.43-.15,.43-.15,.03-.02,.05-.02,.08-.02,.07,0,.12,.05,.12,.14v1.21c0,.1-.08,.24-.2,.29l-.44,.17c-.14,.05-.22,.37-.22,.49v1.58c0,.2,.12,.31,.22,.31l.44-.17s.05-.02,.08-.02c.07,0,.12,.05,.12,.14v1.21c0,.1-.08,.24-.2,.29,0,0-.36,.14-.48,.19s-.19,.25-.19,.39v2.41c0,.1-.1,.19-.29,.19-.12,0-.22-.08-.22-.19v-2.12c0-.1-.08-.31-.22-.31-.02,0-.05,.02-.07,.02l-1.04,.42c-.08,.03-.17,.15-.17,.37v2.36c0,.1-.12,.19-.29,.19-.12,0-.22-.08-.22-.19v-2.09c0-.08-.08-.27-.2-.27-.02,0-.03,0-.05,.02-.15,.05-.39,.15-.39,.15-.02,0-.05,.02-.07,.02-.08,0-.14-.05-.14-.15v-1.21c0-.1,.08-.24,.2-.27,0,0,.36-.15,.46-.19,.1-.05,.19-.2,.19-.39v-1.68c0-.14-.1-.31-.22-.31-.02,0-.03,.02-.05,.02-.05,.03-.37,.19-.44,.19-.08,0-.14-.05-.14-.15Zm1.36,1.95c.02,.05,.1,.08,.2,.08,.39,0,1.19-.34,1.29-.68,.03-.15,.07-.63,.07-1.09s-.03-.88-.07-.97c-.03-.07-.14-.1-.25-.1-.42,0-1.21,.36-1.24,.65-.03,.14-.05,.73-.05,1.26,0,.41,.02,.78,.05,.85Z"/>
        <g id="Artwork_2-2" data-name="Artwork 2">
          <g class="cls-23">
            <g class="cls-29">
              <path class="cls-11" d="M206.47,247.14c0,.99,.82,1.58,1.84,1.58,1.68,0,3.76-1.56,3.76-3.18,0-.95-.76-1.58-1.85-1.58-2.07,0-3.74,1.55-3.74,3.18"/>
              <circle class="cls-8" cx="214.05" cy="246.34" r="2.17"/>
            </g>
          </g>
        </g>
        <g id="Artwork_1-2" data-name="Artwork 1">
          <g class="cls-28">
            <g class="cls-26">
              <path class="cls-11" d="M244.7,244.64c0,.99,.81,1.58,1.83,1.58,1.68,0,3.75-1.56,3.75-3.18,0-.95-.76-1.58-1.85-1.58-2.07,0-3.73,1.55-3.73,3.18"/>
              <path class="cls-11" d="M248.41,240.85c1.69-2.27,4.24-2.27,5.93,0l.44-.3c-2.13-3.39-4.68-3.39-6.82,0l.44,.3Z"/>
            </g>
          </g>
        </g>
      </g>
      <g>
        <path d="M272.44,207.93c1.09,0,1.85,.63,1.85,1.58,0,1.61-2.07,3.18-3.76,3.18-1.02,0-1.84-.6-1.84-1.58,0-1.63,1.67-3.18,3.74-3.18Z"/>
        <path d="M287.49,207.93c1.09,0,1.85,.63,1.85,1.58,0,1.61-2.07,3.18-3.76,3.18-1.02,0-1.84-.6-1.84-1.58,0-1.63,1.67-3.18,3.74-3.18Z"/>
        <path d="M333.53,210.06c1.09,0,1.85,.63,1.85,1.58,0,1.61-2.07,3.18-3.76,3.18-1.02,0-1.84-.6-1.84-1.58,0-1.63,1.67-3.18,3.74-3.18Z"/>
        <g>
          <line class="cls-4" x1="264.56" y1="225.42" x2="376.75" y2="225.42"/>
          <line class="cls-4" x1="264.56" y1="221.17" x2="376.75" y2="221.17"/>
          <line class="cls-4" x1="264.56" y1="216.92" x2="376.75" y2="216.92"/>
          <line class="cls-4" x1="264.56" y1="212.67" x2="376.75" y2="212.67"/>
          <line class="cls-4" x1="264.56" y1="208.42" x2="376.75" y2="208.42"/>
        </g>
        <path d="M346.94,205.53v-1.21c0-.1,.08-.24,.2-.27,0,0,.34-.14,.44-.19s.2-.22,.2-.46v-2.29c0-.1,.1-.19,.27-.19,.12,0,.24,.08,.24,.19v2.04c0,.14,.05,.34,.2,.34,.29-.07,.87-.31,1.07-.42,.15-.1,.2-.32,.22-.49v-2.21c0-.1,.1-.19,.27-.19,.14,0,.24,.08,.24,.19v2.07c0,.14,.12,.22,.24,.22,.08-.02,.43-.15,.43-.15,.03-.02,.05-.02,.08-.02,.07,0,.12,.05,.12,.14v1.21c0,.1-.08,.24-.2,.29l-.44,.17c-.14,.05-.22,.37-.22,.49v1.58c0,.2,.12,.31,.22,.31l.44-.17s.05-.02,.08-.02c.07,0,.12,.05,.12,.14v1.21c0,.1-.08,.24-.2,.29,0,0-.36,.14-.48,.19s-.19,.25-.19,.39v2.41c0,.1-.1,.19-.29,.19-.12,0-.22-.08-.22-.19v-2.12c0-.1-.08-.31-.22-.31-.02,0-.05,.02-.07,.02l-1.04,.42c-.08,.03-.17,.15-.17,.37v2.36c0,.1-.12,.19-.29,.19-.12,0-.22-.08-.22-.19v-2.09c0-.08-.08-.27-.2-.27-.02,0-.03,0-.05,.02-.15,.05-.39,.15-.39,.15-.02,0-.05,.02-.07,.02-.08,0-.14-.05-.14-.15v-1.21c0-.1,.08-.24,.2-.27,0,0,.36-.15,.46-.19,.1-.05,.19-.2,.19-.39v-1.68c0-.14-.1-.31-.22-.31-.02,0-.03,.02-.05,.02-.05,.03-.37,.19-.44,.19-.08,0-.14-.05-.14-.15Zm1.36,1.95c.02,.05,.1,.08,.2,.08,.39,0,1.19-.34,1.29-.68,.03-.15,.07-.63,.07-1.09s-.03-.88-.07-.97c-.03-.07-.14-.1-.25-.1-.42,0-1.21,.36-1.24,.65-.03,.14-.05,.73-.05,1.26,0,.41,.02,.78,.05,.85Z"/>
        <g id="Artwork_1-3" data-name="Artwork 1">
          <g class="cls-27">
            <g class="cls-30">
              <path class="cls-11" d="M289.34,210.97c0,.99,.81,1.58,1.83,1.58,1.68,0,3.75-1.56,3.75-3.18,0-.95-.76-1.58-1.85-1.58-2.07,0-3.73,1.55-3.73,3.18"/>
              <path class="cls-11" d="M293.05,207.18c1.69-2.27,4.24-2.27,5.93,0l.44-.3c-2.13-3.39-4.68-3.39-6.82,0l.44,.3Z"/>
            </g>
          </g>
        </g>
        <g id="Artwork_2-3" data-name="Artwork 2">
          <g class="cls-54">
            <g class="cls-59">
              <path class="cls-11" d="M352.57,206.94c0,.99,.82,1.58,1.84,1.58,1.68,0,3.76-1.56,3.76-3.18,0-.95-.76-1.58-1.85-1.58-2.07,0-3.74,1.55-3.74,3.18"/>
              <circle class="cls-8" cx="360.15" cy="206.14" r="2.17"/>
            </g>
          </g>
        </g>
      </g>
      <g>
        <path d="M155.49,435.93c1.09,0,1.85,.63,1.85,1.58,0,1.61-2.07,3.18-3.76,3.18-1.02,0-1.84-.6-1.84-1.58,0-1.63,1.67-3.18,3.74-3.18Z"/>
        <g>
          <path d="M169.61,442.3c1.09,0,1.85,.63,1.85,1.58,0,1.61-2.07,3.18-3.76,3.18-1.02,0-1.84-.6-1.84-1.58,0-1.63,1.67-3.18,3.74-3.18Z"/>
          <path d="M178.12,442.3c1.09,0,1.85,.63,1.85,1.58,0,1.61-2.07,3.18-3.76,3.18-1.02,0-1.84-.6-1.84-1.58,0-1.63,1.67-3.18,3.74-3.18Z"/>
          <path d="M186.63,442.3c1.09,0,1.85,.63,1.85,1.58,0,1.61-2.07,3.18-3.76,3.18-1.02,0-1.84-.6-1.84-1.58,0-1.63,1.67-3.18,3.74-3.18Z"/>
          <path d="M193.84,442.3c1.09,0,1.85,.63,1.85,1.58,0,1.61-2.07,3.18-3.76,3.18-1.02,0-1.84-.6-1.84-1.58,0-1.63,1.67-3.18,3.74-3.18Z"/>
          <path d="M201.04,442.3c1.09,0,1.85,.63,1.85,1.58,0,1.61-2.07,3.18-3.76,3.18-1.02,0-1.84-.6-1.84-1.58,0-1.63,1.67-3.18,3.74-3.18Z"/>
          <path d="M208.24,442.3c1.09,0,1.85,.63,1.85,1.58,0,1.61-2.07,3.18-3.76,3.18-1.02,0-1.84-.6-1.84-1.58,0-1.63,1.67-3.18,3.74-3.18Z"/>
          <path d="M215.45,442.3c1.09,0,1.85,.63,1.85,1.58,0,1.61-2.07,3.18-3.76,3.18-1.02,0-1.84-.6-1.84-1.58,0-1.63,1.67-3.18,3.74-3.18Z"/>
          <path d="M223.96,442.3c1.09,0,1.85,.63,1.85,1.58,0,1.61-2.07,3.18-3.76,3.18-1.02,0-1.84-.6-1.84-1.58,0-1.63,1.67-3.18,3.74-3.18Z"/>
          <rect x="165.87" y="459.56" width="24.73" height="2.12"/>
          <polygon points="165.87 461.68 165.87 459.56 190.61 456.37 190.61 458.5 165.87 461.68"/>
          <polygon points="165.87 461.68 165.87 459.56 190.61 453.18 190.61 455.31 165.87 461.68"/>
          <rect x="197.3" y="459.56" width="23.43" height="2.12"/>
          <polygon points="197.3 458.5 197.3 456.37 220.73 459.56 220.73 461.68 197.3 458.5"/>
          <polygon points="197.3 455.31 197.3 453.18 220.73 459.56 220.73 461.68 197.3 455.31"/>
        </g>
        <g>
          <line class="cls-4" x1="143.03" y1="457.66" x2="227.75" y2="457.66"/>
          <line class="cls-4" x1="143.03" y1="453.41" x2="227.75" y2="453.41"/>
          <line class="cls-4" x1="143.03" y1="449.16" x2="227.75" y2="449.16"/>
          <line class="cls-4" x1="143.03" y1="444.91" x2="227.75" y2="444.91"/>
          <line class="cls-4" x1="143.03" y1="440.66" x2="227.75" y2="440.66"/>
        </g>
        <path d="M144.46,437.77v-1.21c0-.1,.08-.24,.2-.27,0,0,.34-.14,.44-.19s.2-.22,.2-.46v-2.29c0-.1,.1-.19,.27-.19,.12,0,.24,.08,.24,.19v2.04c0,.14,.05,.34,.2,.34,.29-.07,.87-.31,1.07-.42,.15-.1,.2-.32,.22-.49v-2.21c0-.1,.1-.19,.27-.19,.14,0,.24,.08,.24,.19v2.07c0,.14,.12,.22,.24,.22,.08-.02,.43-.15,.43-.15,.03-.02,.05-.02,.08-.02,.07,0,.12,.05,.12,.14v1.21c0,.1-.08,.24-.2,.29l-.44,.17c-.14,.05-.22,.37-.22,.49v1.58c0,.2,.12,.31,.22,.31l.44-.17s.05-.02,.08-.02c.07,0,.12,.05,.12,.14v1.21c0,.1-.08,.24-.2,.29,0,0-.36,.14-.48,.19s-.19,.25-.19,.39v2.41c0,.1-.1,.19-.29,.19-.12,0-.22-.08-.22-.19v-2.12c0-.1-.08-.31-.22-.31-.02,0-.05,.02-.07,.02l-1.04,.42c-.08,.03-.17,.15-.17,.37v2.36c0,.1-.12,.19-.29,.19-.12,0-.22-.08-.22-.19v-2.09c0-.08-.08-.27-.2-.27-.02,0-.03,0-.05,.02-.15,.05-.39,.15-.39,.15-.02,0-.05,.02-.07,.02-.08,0-.14-.05-.14-.15v-1.21c0-.1,.08-.24,.2-.27,0,0,.36-.15,.46-.19,.1-.05,.19-.2,.19-.39v-1.68c0-.14-.1-.31-.22-.31-.02,0-.03,.02-.05,.02-.05,.03-.37,.19-.44,.19-.08,0-.14-.05-.14-.15Zm1.36,1.95c.02,.05,.1,.08,.2,.08,.39,0,1.19-.34,1.29-.68,.03-.15,.07-.63,.07-1.09s-.03-.88-.07-.97c-.03-.07-.14-.1-.25-.1-.42,0-1.21,.36-1.24,.65-.03,.14-.05,.73-.05,1.26,0,.41,.02,.78,.05,.85Z"/>
      </g>
      <g>
        <g>
          <line class="cls-5" x1="480" y1="509.21" x2="567.88" y2="509.21" vector-effect="none"/>
          <line class="cls-5" x1="480" y1="504.96" x2="567.88" y2="504.96" vector-effect="none"/>
          <line class="cls-5" x1="480" y1="500.71" x2="567.88" y2="500.71" vector-effect="none"/>
          <line class="cls-5" x1="480" y1="496.46" x2="567.88" y2="496.46" vector-effect="none"/>
          <line class="cls-5" x1="480" y1="492.21" x2="567.88" y2="492.21" vector-effect="none"/>
        </g>
        <path class="cls-11" d="M524.85,489.64c.07,0,.39-.15,.44-.19,.02,0,.03-.02,.05-.02,.12,0,.22,.17,.22,.31v1.68c0,.19-.09,.34-.19,.39-.1,.03-.46,.19-.46,.19-.12,.03-.2,.17-.2,.27v1.21c0,.1,.05,.15,.14,.15,.02,0,.05-.02,.07-.02,0,0,.24-.1,.39-.15,.02-.02,.03-.02,.05-.02,.12,0,.2,.19,.2,.27v2.09c0,.1,.1,.19,.22,.19,.17,0,.29-.09,.29-.19v-2.36c0-.22,.09-.34,.17-.37l1.04-.43s.05-.02,.07-.02c.14,0,.22,.2,.22,.31v2.12c0,.1,.1,.19,.22,.19,.19,0,.29-.09,.29-.19v-2.41c0-.14,.07-.34,.19-.39,.12-.05,.48-.19,.48-.19,.12-.05,.2-.19,.2-.29v-1.21c0-.09-.05-.14-.12-.14-.03,0-.05,0-.09,.02l-.44,.17c-.1,0-.22-.1-.22-.31v-1.58c0-.12,.09-.44,.22-.49l.44-.17c.12-.05,.2-.19,.2-.29v-1.21c0-.08-.05-.14-.12-.14-.03,0-.05,0-.09,.02,0,0-.34,.14-.42,.15-.12,0-.24-.09-.24-.22v-2.07c0-.1-.1-.19-.24-.19-.17,0-.27,.09-.27,.19v2.21c-.02,.17-.07,.39-.22,.49-.2,.12-.78,.36-1.07,.42-.15,0-.2-.2-.2-.34v-2.04c0-.1-.12-.19-.24-.19-.17,0-.27,.09-.27,.19v2.29c0,.24-.1,.41-.2,.46-.1,.05-.44,.19-.44,.19-.12,.03-.2,.17-.2,.27v1.21c0,.1,.05,.15,.14,.15m1.17,.95c0-.53,.02-1.12,.05-1.26,.03-.29,.82-.65,1.24-.65,.12,0,.22,.03,.25,.1,.03,.09,.07,.51,.07,.97s-.03,.94-.07,1.09c-.1,.34-.9,.68-1.29,.68-.1,0-.19-.03-.2-.09-.03-.07-.05-.44-.05-.85" vector-effect="none"/>
        <path class="cls-11" d="M529.72,503.32v2.13l5.1-1.05v-2.13l-5.1,1.05m0-1l5.1-1.05v-2.13l-5.1,1.05v2.12m5.1-4.23v-2.12l-5.1,1.07v2.12l5.1-1.07" vector-effect="none"/>
        <path class="cls-11" d="M530.02,490.88c0,.99,.82,1.58,1.84,1.58,1.68,0,3.76-1.56,3.76-3.18,0-.95-.76-1.58-1.85-1.58-2.07,0-3.74,1.55-3.74,3.18" vector-effect="none"/>
        <line class="cls-7" x1="532.82" y1="490.07" x2="561.02" y2="490.07"/>
        <g id="Artwork_1-4" data-name="Artwork 1">
          <g class="cls-53">
            <g class="cls-52">
              <path class="cls-11" d="M487.71,496.94c0,.99,.81,1.58,1.83,1.58,1.68,0,3.75-1.56,3.75-3.18,0-.95-.76-1.58-1.85-1.58-2.07,0-3.73,1.55-3.73,3.18"/>
              <path class="cls-11" d="M491.42,493.15c1.69-2.27,4.24-2.27,5.93,0l.44-.3c-2.13-3.39-4.68-3.39-6.82,0l.44,.3Z"/>
            </g>
          </g>
        </g>
      </g>
      <g>
        <g>
          <line class="cls-5" x1="581.17" y1="509.21" x2="664.14" y2="509.21" vector-effect="none"/>
          <line class="cls-5" x1="581.17" y1="504.96" x2="664.14" y2="504.96" vector-effect="none"/>
          <line class="cls-5" x1="581.17" y1="500.71" x2="664.14" y2="500.71" vector-effect="none"/>
          <line class="cls-5" x1="581.17" y1="496.46" x2="664.14" y2="496.46" vector-effect="none"/>
          <line class="cls-5" x1="581.17" y1="492.21" x2="664.14" y2="492.21" vector-effect="none"/>
        </g>
        <path class="cls-11" d="M611.94,489.64c.07,0,.39-.15,.44-.19,.02,0,.03-.02,.05-.02,.12,0,.22,.17,.22,.31v1.68c0,.19-.09,.34-.19,.39-.1,.03-.46,.19-.46,.19-.12,.03-.2,.17-.2,.27v1.21c0,.1,.05,.15,.14,.15,.02,0,.05-.02,.07-.02,0,0,.24-.1,.39-.15,.02-.02,.03-.02,.05-.02,.12,0,.2,.19,.2,.27v2.09c0,.1,.1,.19,.22,.19,.17,0,.29-.09,.29-.19v-2.36c0-.22,.09-.34,.17-.37l1.04-.43s.05-.02,.07-.02c.14,0,.22,.2,.22,.31v2.12c0,.1,.1,.19,.22,.19,.19,0,.29-.09,.29-.19v-2.41c0-.14,.07-.34,.19-.39,.12-.05,.48-.19,.48-.19,.12-.05,.2-.19,.2-.29v-1.21c0-.09-.05-.14-.12-.14-.03,0-.05,0-.09,.02l-.44,.17c-.1,0-.22-.1-.22-.31v-1.58c0-.12,.09-.44,.22-.49l.44-.17c.12-.05,.2-.19,.2-.29v-1.21c0-.08-.05-.14-.12-.14-.03,0-.05,0-.09,.02,0,0-.34,.14-.42,.15-.12,0-.24-.09-.24-.22v-2.07c0-.1-.1-.19-.24-.19-.17,0-.27,.09-.27,.19v2.21c-.02,.17-.07,.39-.22,.49-.2,.12-.78,.36-1.07,.42-.15,0-.2-.2-.2-.34v-2.04c0-.1-.12-.19-.24-.19-.17,0-.27,.09-.27,.19v2.29c0,.24-.1,.41-.2,.46-.1,.05-.44,.19-.44,.19-.12,.03-.2,.17-.2,.27v1.21c0,.1,.05,.15,.14,.15m1.17,.95c0-.53,.02-1.12,.05-1.26,.03-.29,.82-.65,1.24-.65,.12,0,.22,.03,.25,.1,.03,.09,.07,.51,.07,.97s-.03,.94-.07,1.09c-.1,.34-.9,.68-1.29,.68-.1,0-.19-.03-.2-.09-.03-.07-.05-.44-.05-.85" vector-effect="none"/>
        <path class="cls-11" d="M617.12,490.88c0,.99,.82,1.58,1.84,1.58,1.68,0,3.76-1.56,3.76-3.18,0-.95-.76-1.58-1.85-1.58-2.07,0-3.74,1.55-3.74,3.18" vector-effect="none"/>
        <path class="cls-11" d="M617.36,500.18v2.13l5.1-1.05v-2.13l-5.1,1.05m0-1l5.1-1.05v-2.13l-5.1,1.05v2.12m5.1-4.23v-2.12l-5.1,1.07v2.12l5.1-1.07" vector-effect="none"/>
        <line class="cls-7" x1="620.2" y1="490.11" x2="648.4" y2="490.11"/>
        <g id="Artwork_2-4" data-name="Artwork 2">
          <g class="cls-51">
            <g class="cls-55">
              <path class="cls-11" d="M584.57,495.21c0,.99,.82,1.58,1.84,1.58,1.68,0,3.76-1.56,3.76-3.18,0-.95-.76-1.58-1.85-1.58-2.07,0-3.74,1.55-3.74,3.18"/>
              <circle class="cls-8" cx="592.14" cy="494.41" r="2.17"/>
            </g>
          </g>
        </g>
      </g>
      <g>
        <g>
          <line class="cls-5" x1="484.97" y1="545.81" x2="561.83" y2="545.81" vector-effect="none"/>
          <line class="cls-5" x1="484.97" y1="541.56" x2="561.83" y2="541.56" vector-effect="none"/>
          <line class="cls-5" x1="484.97" y1="537.31" x2="561.83" y2="537.31" vector-effect="none"/>
          <line class="cls-5" x1="484.97" y1="533.06" x2="561.83" y2="533.06" vector-effect="none"/>
          <line class="cls-5" x1="484.97" y1="528.81" x2="561.83" y2="528.81" vector-effect="none"/>
        </g>
        <path class="cls-11" d="M497.93,526.24c.07,0,.39-.15,.44-.19,.02,0,.03-.02,.05-.02,.12,0,.22,.17,.22,.31v1.68c0,.19-.09,.34-.19,.39-.1,.03-.46,.19-.46,.19-.12,.03-.2,.17-.2,.27v1.21c0,.1,.05,.15,.14,.15,.02,0,.05-.02,.07-.02,0,0,.24-.1,.39-.15,.02-.02,.03-.02,.05-.02,.12,0,.2,.19,.2,.27v2.09c0,.1,.1,.19,.22,.19,.17,0,.29-.09,.29-.19v-2.36c0-.22,.09-.34,.17-.37l1.04-.43s.05-.02,.07-.02c.14,0,.22,.2,.22,.31v2.12c0,.1,.1,.19,.22,.19,.19,0,.29-.09,.29-.19v-2.41c0-.14,.07-.34,.19-.39,.12-.05,.48-.19,.48-.19,.12-.05,.2-.19,.2-.29v-1.21c0-.09-.05-.14-.12-.14-.03,0-.05,0-.09,.02l-.44,.17c-.1,0-.22-.1-.22-.31v-1.58c0-.12,.09-.44,.22-.49l.44-.17c.12-.05,.2-.19,.2-.29v-1.21c0-.08-.05-.14-.12-.14-.03,0-.05,0-.09,.02,0,0-.34,.14-.42,.15-.12,0-.24-.09-.24-.22v-2.07c0-.1-.1-.19-.24-.19-.17,0-.27,.09-.27,.19v2.21c-.02,.17-.07,.39-.22,.49-.2,.12-.78,.36-1.07,.42-.15,0-.2-.2-.2-.34v-2.04c0-.1-.12-.19-.24-.19-.17,0-.27,.09-.27,.19v2.29c0,.24-.1,.41-.2,.46-.1,.05-.44,.19-.44,.19-.12,.03-.2,.17-.2,.27v1.21c0,.1,.05,.15,.14,.15m1.17,.95c0-.53,.02-1.12,.05-1.26,.03-.29,.82-.65,1.24-.65,.12,0,.22,.03,.25,.1,.03,.09,.07,.51,.07,.97s-.03,.94-.07,1.09c-.1,.34-.9,.68-1.29,.68-.1,0-.19-.03-.2-.09-.03-.07-.05-.44-.05-.85" vector-effect="none"/>
        <path class="cls-11" d="M502.81,539.92v2.13l5.1-1.05v-2.13l-5.1,1.05m0-1l5.1-1.05v-2.13l-5.1,1.05v2.12m5.1-4.23v-2.12l-5.1,1.07v2.12l5.1-1.07" vector-effect="none"/>
        <path class="cls-11" d="M503.11,527.48c0,.99,.82,1.58,1.84,1.58,1.68,0,3.76-1.56,3.76-3.18,0-.95-.76-1.58-1.85-1.58-2.07,0-3.74,1.55-3.74,3.18" vector-effect="none"/>
        <line class="cls-7" x1="505.06" y1="526.66" x2="530.02" y2="526.66"/>
        <g id="Artwork_1-5" data-name="Artwork 1">
          <g class="cls-57">
            <g class="cls-56">
              <path class="cls-11" d="M541.88,531.7c0,.99,.81,1.58,1.83,1.58,1.68,0,3.75-1.56,3.75-3.18,0-.95-.76-1.58-1.85-1.58-2.07,0-3.73,1.55-3.73,3.18"/>
              <path class="cls-11" d="M545.59,527.91c1.69-2.27,4.24-2.27,5.93,0l.44-.3c-2.13-3.39-4.68-3.39-6.82,0l.44,.3Z"/>
            </g>
          </g>
        </g>
      </g>
      <g>
        <g>
          <line class="cls-5" x1="582.11" y1="548.27" x2="644.12" y2="548.27" vector-effect="none"/>
          <line class="cls-5" x1="582.11" y1="544.02" x2="644.12" y2="544.02" vector-effect="none"/>
          <line class="cls-5" x1="582.11" y1="539.77" x2="644.12" y2="539.77" vector-effect="none"/>
          <line class="cls-5" x1="582.11" y1="535.52" x2="644.12" y2="535.52" vector-effect="none"/>
          <line class="cls-5" x1="582.11" y1="531.27" x2="644.12" y2="531.27" vector-effect="none"/>
        </g>
        <path class="cls-11" d="M608.67,528.71c.07,0,.39-.15,.44-.19,.02,0,.03-.02,.05-.02,.12,0,.22,.17,.22,.31v1.68c0,.19-.09,.34-.19,.39-.1,.03-.46,.19-.46,.19-.12,.03-.2,.17-.2,.27v1.21c0,.1,.05,.15,.14,.15,.02,0,.05-.02,.07-.02,0,0,.24-.1,.39-.15,.02-.02,.03-.02,.05-.02,.12,0,.2,.19,.2,.27v2.09c0,.1,.1,.19,.22,.19,.17,0,.29-.09,.29-.19v-2.36c0-.22,.09-.34,.17-.37l1.04-.43s.05-.02,.07-.02c.14,0,.22,.2,.22,.31v2.12c0,.1,.1,.19,.22,.19,.19,0,.29-.09,.29-.19v-2.41c0-.14,.07-.34,.19-.39,.12-.05,.48-.19,.48-.19,.12-.05,.2-.19,.2-.29v-1.21c0-.09-.05-.14-.12-.14-.03,0-.05,0-.09,.02l-.44,.17c-.1,0-.22-.1-.22-.31v-1.58c0-.12,.09-.44,.22-.49l.44-.17c.12-.05,.2-.19,.2-.29v-1.21c0-.08-.05-.14-.12-.14-.03,0-.05,0-.09,.02,0,0-.34,.14-.42,.15-.12,0-.24-.09-.24-.22v-2.07c0-.1-.1-.19-.24-.19-.17,0-.27,.09-.27,.19v2.21c-.02,.17-.07,.39-.22,.49-.2,.12-.78,.36-1.07,.42-.15,0-.2-.2-.2-.34v-2.04c0-.1-.12-.19-.24-.19-.17,0-.27,.09-.27,.19v2.29c0,.24-.1,.41-.2,.46-.1,.05-.44,.19-.44,.19-.12,.03-.2,.17-.2,.27v1.21c0,.1,.05,.15,.14,.15m1.17,.95c0-.53,.02-1.12,.05-1.26,.03-.29,.82-.65,1.24-.65,.12,0,.22,.03,.25,.1,.03,.09,.07,.51,.07,.97s-.03,.94-.07,1.09c-.1,.34-.9,.68-1.29,.68-.1,0-.19-.03-.2-.09-.03-.07-.05-.44-.05-.85" vector-effect="none"/>
        <path class="cls-11" d="M613.85,529.95c0,.99,.82,1.58,1.84,1.58,1.68,0,3.76-1.56,3.76-3.18,0-.95-.76-1.58-1.85-1.58-2.07,0-3.74,1.55-3.74,3.18" vector-effect="none"/>
        <path class="cls-11" d="M614.09,539.7v2.13l5.1-1.05v-2.13l-5.1,1.05m0-1l5.1-1.05v-2.13l-5.1,1.05v2.12m5.1-4.23v-2.12l-5.1,1.07v2.12l5.1-1.07" vector-effect="none"/>
        <line class="cls-7" x1="617.12" y1="529.17" x2="637.52" y2="529.17"/>
        <g id="Artwork_2-5" data-name="Artwork 2">
          <g class="cls-60">
            <g class="cls-58">
              <path class="cls-11" d="M586.58,534.17c0,.99,.82,1.58,1.84,1.58,1.68,0,3.76-1.56,3.76-3.18,0-.95-.76-1.58-1.85-1.58-2.07,0-3.74,1.55-3.74,3.18"/>
              <circle class="cls-8" cx="594.16" cy="533.37" r="2.17"/>
            </g>
          </g>
        </g>
        <g id="Artwork_2-6" data-name="Artwork 2">
          <g class="cls-31">
            <g class="cls-32">
              <path class="cls-11" d="M598.18,536.59c0,.99,.82,1.58,1.84,1.58,1.68,0,3.76-1.56,3.76-3.18,0-.95-.76-1.58-1.85-1.58-2.07,0-3.74,1.55-3.74,3.18"/>
              <circle class="cls-8" cx="605.75" cy="535.79" r="2.17"/>
            </g>
          </g>
        </g>
      </g>
      <g>
        <g>
          <line class="cls-5" x1="481.49" y1="330.16" x2="554.58" y2="330.16" vector-effect="none"/>
          <line class="cls-5" x1="481.49" y1="325.91" x2="554.58" y2="325.91" vector-effect="none"/>
          <line class="cls-5" x1="481.49" y1="321.66" x2="554.58" y2="321.66" vector-effect="none"/>
          <line class="cls-5" x1="481.49" y1="317.41" x2="554.58" y2="317.41" vector-effect="none"/>
          <line class="cls-5" x1="481.49" y1="313.16" x2="554.58" y2="313.16" vector-effect="none"/>
        </g>
        <path class="cls-11" d="M491.02,310.6c.07,0,.39-.15,.44-.19,.02,0,.03-.02,.05-.02,.12,0,.22,.17,.22,.31v1.68c0,.19-.09,.34-.19,.39-.1,.03-.46,.19-.46,.19-.12,.03-.2,.17-.2,.27v1.21c0,.1,.05,.15,.14,.15,.02,0,.05-.02,.07-.02,0,0,.24-.1,.39-.15,.02-.02,.03-.02,.05-.02,.12,0,.2,.19,.2,.27v2.09c0,.1,.1,.19,.22,.19,.17,0,.29-.09,.29-.19v-2.36c0-.22,.09-.34,.17-.37l1.04-.43s.05-.02,.07-.02c.14,0,.22,.2,.22,.31v2.12c0,.1,.1,.19,.22,.19,.19,0,.29-.09,.29-.19v-2.41c0-.14,.07-.34,.19-.39,.12-.05,.48-.19,.48-.19,.12-.05,.2-.19,.2-.29v-1.21c0-.09-.05-.14-.12-.14-.03,0-.05,0-.09,.02l-.44,.17c-.1,0-.22-.1-.22-.31v-1.58c0-.12,.09-.44,.22-.49l.44-.17c.12-.05,.2-.19,.2-.29v-1.21c0-.08-.05-.14-.12-.14-.03,0-.05,0-.09,.02,0,0-.34,.14-.42,.15-.12,0-.24-.09-.24-.22v-2.07c0-.1-.1-.19-.24-.19-.17,0-.27,.09-.27,.19v2.21c-.02,.17-.07,.39-.22,.49-.2,.12-.78,.36-1.07,.42-.15,0-.2-.2-.2-.34v-2.04c0-.1-.12-.19-.24-.19-.17,0-.27,.09-.27,.19v2.29c0,.24-.1,.41-.2,.46-.1,.05-.44,.19-.44,.19-.12,.03-.2,.17-.2,.27v1.21c0,.1,.05,.15,.14,.15m1.17,.95c0-.53,.02-1.12,.05-1.26,.03-.29,.82-.65,1.24-.65,.12,0,.22,.03,.25,.1,.03,.09,.07,.51,.07,.97s-.03,.94-.07,1.09c-.1,.34-.9,.68-1.29,.68-.1,0-.19-.03-.2-.09-.03-.07-.05-.44-.05-.85" vector-effect="none"/>
        <g id="Artwork_2-7" data-name="Artwork 2">
          <g class="cls-35">
            <g class="cls-34">
              <path class="cls-11" d="M497.24,311.86c0,.99,.82,1.58,1.84,1.58,1.68,0,3.76-1.56,3.76-3.18,0-.95-.76-1.58-1.85-1.58-2.07,0-3.74,1.55-3.74,3.18"/>
              <circle class="cls-8" cx="504.81" cy="311.06" r="2.17"/>
            </g>
          </g>
        </g>
        <g id="Artwork_2-8" data-name="Artwork 2">
          <g class="cls-33">
            <g class="cls-36">
              <path class="cls-11" d="M497.24,316.38c0,.99,.82,1.58,1.84,1.58,1.68,0,3.76-1.56,3.76-3.18,0-.95-.76-1.58-1.85-1.58-2.07,0-3.74,1.55-3.74,3.18"/>
              <circle class="cls-8" cx="504.81" cy="315.58" r="2.17"/>
            </g>
          </g>
        </g>
        <g id="Artwork_2-9" data-name="Artwork 2">
          <g class="cls-39">
            <g class="cls-37">
              <path class="cls-11" d="M534.04,318.25c0,.99,.82,1.58,1.84,1.58,1.68,0,3.76-1.56,3.76-3.18,0-.95-.76-1.58-1.85-1.58-2.07,0-3.74,1.55-3.74,3.18"/>
              <circle class="cls-8" cx="541.62" cy="317.45" r="2.17"/>
            </g>
          </g>
        </g>
      </g>
      <g>
        <g>
          <line class="cls-5" x1="580.12" y1="338.49" x2="637.27" y2="338.49" vector-effect="none"/>
          <line class="cls-5" x1="580.12" y1="334.24" x2="637.27" y2="334.24" vector-effect="none"/>
          <line class="cls-5" x1="580.12" y1="329.99" x2="637.27" y2="329.99" vector-effect="none"/>
          <line class="cls-5" x1="580.12" y1="325.74" x2="637.27" y2="325.74" vector-effect="none"/>
          <line class="cls-5" x1="580.12" y1="321.49" x2="637.27" y2="321.49" vector-effect="none"/>
        </g>
        <path class="cls-11" d="M592.46,318.93c.07,0,.39-.15,.44-.19,.02,0,.03-.02,.05-.02,.12,0,.22,.17,.22,.31v1.68c0,.19-.09,.34-.19,.39-.1,.03-.46,.19-.46,.19-.12,.03-.2,.17-.2,.27v1.21c0,.1,.05,.15,.14,.15,.02,0,.05-.02,.07-.02,0,0,.24-.1,.39-.15,.02-.02,.03-.02,.05-.02,.12,0,.2,.19,.2,.27v2.09c0,.1,.1,.19,.22,.19,.17,0,.29-.09,.29-.19v-2.36c0-.22,.09-.34,.17-.37l1.04-.43s.05-.02,.07-.02c.14,0,.22,.2,.22,.31v2.12c0,.1,.1,.19,.22,.19,.19,0,.29-.09,.29-.19v-2.41c0-.14,.07-.34,.19-.39,.12-.05,.48-.19,.48-.19,.12-.05,.2-.19,.2-.29v-1.21c0-.09-.05-.14-.12-.14-.03,0-.05,0-.09,.02l-.44,.17c-.1,0-.22-.1-.22-.31v-1.58c0-.12,.09-.44,.22-.49l.44-.17c.12-.05,.2-.19,.2-.29v-1.21c0-.08-.05-.14-.12-.14-.03,0-.05,0-.09,.02,0,0-.34,.14-.42,.15-.12,0-.24-.09-.24-.22v-2.07c0-.1-.1-.19-.24-.19-.17,0-.27,.09-.27,.19v2.21c-.02,.17-.07,.39-.22,.49-.2,.12-.78,.36-1.07,.42-.15,0-.2-.2-.2-.34v-2.04c0-.1-.12-.19-.24-.19-.17,0-.27,.09-.27,.19v2.29c0,.24-.1,.41-.2,.46-.1,.05-.44,.19-.44,.19-.12,.03-.2,.17-.2,.27v1.21c0,.1,.05,.15,.14,.15m1.17,.95c0-.53,.02-1.12,.05-1.26,.03-.29,.82-.65,1.24-.65,.12,0,.22,.03,.25,.1,.03,.09,.07,.51,.07,.97s-.03,.94-.07,1.09c-.1,.34-.9,.68-1.29,.68-.1,0-.19-.03-.2-.09-.03-.07-.05-.44-.05-.85" vector-effect="none"/>
        <g id="Artwork_2-10" data-name="Artwork 2">
          <g class="cls-38">
            <g class="cls-40">
              <path class="cls-11" d="M598.06,319.95c0,.99,.82,1.58,1.84,1.58,1.68,0,3.76-1.56,3.76-3.18,0-.95-.76-1.58-1.85-1.58-2.07,0-3.74,1.55-3.74,3.18"/>
              <circle class="cls-8" cx="605.63" cy="319.15" r="2.17"/>
            </g>
          </g>
        </g>
        <g>
          <g id="Artwork_1-6" data-name="Artwork 1">
            <g class="cls-48">
              <g class="cls-50">
                <path class="cls-11" d="M617.77,324.26c0,.92,.76,1.47,1.71,1.47,1.56,0,3.49-1.46,3.49-2.96,0-.89-.71-1.47-1.72-1.47-1.93,0-3.48,1.44-3.48,2.96"/>
                <path class="cls-11" d="M621.23,320.73c1.58-2.12,3.95-2.12,5.53,0l.41-.28c-1.99-3.16-4.36-3.16-6.35,0l.41,.28Z"/>
              </g>
            </g>
          </g>
          <g>
            <path class="cls-11" d="M620.6,327.14c0,.92,.76,1.47,1.71,1.47,1.56,0,3.49-1.46,3.49-2.96,0-.89-.71-1.47-1.72-1.47-1.93,0-3.48,1.44-3.48,2.96"/>
            <path class="cls-11" d="M623.03,329.07c1.58,2.12,3.95,2.12,5.53,0l.41,.28c-1.99,3.16-4.36,3.16-6.35,0l.41-.28Z"/>
          </g>
        </g>
      </g>
      <g>
        <g>
          <line class="cls-5" x1="617.39" y1="374.96" x2="662.9" y2="374.96" vector-effect="none"/>
          <line class="cls-5" x1="617.39" y1="370.71" x2="662.9" y2="370.71" vector-effect="none"/>
          <line class="cls-5" x1="617.39" y1="366.46" x2="662.9" y2="366.46" vector-effect="none"/>
          <line class="cls-5" x1="617.39" y1="362.21" x2="662.9" y2="362.21" vector-effect="none"/>
          <line class="cls-5" x1="617.39" y1="357.96" x2="662.9" y2="357.96" vector-effect="none"/>
        </g>
        <path class="cls-11" d="M634.8,355.39c.07,0,.39-.15,.44-.19,.02,0,.03-.02,.05-.02,.12,0,.22,.17,.22,.31v1.68c0,.19-.09,.34-.19,.39-.1,.03-.46,.19-.46,.19-.12,.03-.2,.17-.2,.27v1.21c0,.1,.05,.15,.14,.15,.02,0,.05-.02,.07-.02,0,0,.24-.1,.39-.15,.02-.02,.03-.02,.05-.02,.12,0,.2,.19,.2,.27v2.09c0,.1,.1,.19,.22,.19,.17,0,.29-.09,.29-.19v-2.36c0-.22,.09-.34,.17-.37l1.04-.43s.05-.02,.07-.02c.14,0,.22,.2,.22,.31v2.12c0,.1,.1,.19,.22,.19,.19,0,.29-.09,.29-.19v-2.41c0-.14,.07-.34,.19-.39,.12-.05,.48-.19,.48-.19,.12-.05,.2-.19,.2-.29v-1.21c0-.09-.05-.14-.12-.14-.03,0-.05,0-.09,.02l-.44,.17c-.1,0-.22-.1-.22-.31v-1.58c0-.12,.09-.44,.22-.49l.44-.17c.12-.05,.2-.19,.2-.29v-1.21c0-.08-.05-.14-.12-.14-.03,0-.05,0-.09,.02,0,0-.34,.14-.42,.15-.12,0-.24-.09-.24-.22v-2.07c0-.1-.1-.19-.24-.19-.17,0-.27,.09-.27,.19v2.21c-.02,.17-.07,.39-.22,.49-.2,.12-.78,.36-1.07,.42-.15,0-.2-.2-.2-.34v-2.04c0-.1-.12-.19-.24-.19-.17,0-.27,.09-.27,.19v2.29c0,.24-.1,.41-.2,.46-.1,.05-.44,.19-.44,.19-.12,.03-.2,.17-.2,.27v1.21c0,.1,.05,.15,.14,.15m1.17,.95c0-.53,.02-1.12,.05-1.26,.03-.29,.82-.65,1.24-.65,.12,0,.22,.03,.25,.1,.03,.09,.07,.51,.07,.97s-.03,.94-.07,1.09c-.1,.34-.9,.68-1.29,.68-.1,0-.19-.03-.2-.09-.03-.07-.05-.44-.05-.85" vector-effect="none"/>
        <g id="Artwork_1-7" data-name="Artwork 1">
          <g class="cls-47">
            <g class="cls-46">
              <path class="cls-11" d="M639.93,356.12c0,.99,.81,1.58,1.83,1.58,1.68,0,3.75-1.56,3.75-3.18,0-.95-.76-1.58-1.85-1.58-2.07,0-3.73,1.55-3.73,3.18"/>
              <path class="cls-11" d="M643.64,352.33c1.69-2.27,4.24-2.27,5.93,0l.44-.3c-2.13-3.39-4.68-3.39-6.82,0l.44,.3Z"/>
            </g>
          </g>
        </g>
        <g id="Artwork_2-11" data-name="Artwork 2">
          <g class="cls-41">
            <g class="cls-42">
              <path class="cls-11" d="M647.84,363.26c0,.99,.82,1.58,1.84,1.58,1.68,0,3.76-1.56,3.76-3.18,0-.95-.76-1.58-1.85-1.58-2.07,0-3.74,1.55-3.74,3.18"/>
              <circle class="cls-8" cx="655.41" cy="362.46" r="2.17"/>
            </g>
          </g>
        </g>
        <g id="Artwork_2-12" data-name="Artwork 2">
          <g class="cls-43">
            <g class="cls-44">
              <path class="cls-11" d="M621.82,360.84c0,.99,.82,1.58,1.84,1.58,1.68,0,3.76-1.56,3.76-3.18,0-.95-.76-1.58-1.85-1.58-2.07,0-3.74,1.55-3.74,3.18"/>
              <circle class="cls-8" cx="629.39" cy="360.05" r="2.17"/>
            </g>
          </g>
        </g>
      </g>
      <g>
        <g>
          <line class="cls-5" x1="512.13" y1="372.6" x2="557.67" y2="372.6" vector-effect="none"/>
          <line class="cls-5" x1="512.13" y1="368.35" x2="557.67" y2="368.35" vector-effect="none"/>
          <line class="cls-5" x1="512.13" y1="364.1" x2="557.67" y2="364.1" vector-effect="none"/>
          <line class="cls-5" x1="512.13" y1="359.85" x2="557.67" y2="359.85" vector-effect="none"/>
          <line class="cls-5" x1="512.13" y1="355.6" x2="557.67" y2="355.6" vector-effect="none"/>
        </g>
        <path class="cls-11" d="M525.28,360.65c0,.99,.82,1.58,1.84,1.58,1.68,0,3.76-1.56,3.76-3.18,0-.95-.76-1.58-1.85-1.58-2.07,0-3.74,1.55-3.74,3.18" vector-effect="none"/>
        <g id="Artwork_1-8" data-name="Artwork 1">
          <g class="cls-49">
            <g class="cls-45">
              <path class="cls-11" d="M538.13,353.71c0,.99,.81,1.58,1.83,1.58,1.68,0,3.75-1.56,3.75-3.18,0-.95-.76-1.58-1.85-1.58-2.07,0-3.73,1.55-3.73,3.18"/>
              <path class="cls-11" d="M541.84,349.92c1.69-2.27,4.24-2.27,5.93,0l.44-.3c-2.13-3.39-4.68-3.39-6.82,0l.44,.3Z"/>
            </g>
          </g>
        </g>
        <g>
          <path class="cls-11" d="M538.13,358.56c0,.99,.81,1.58,1.83,1.58,1.68,0,3.75-1.56,3.75-3.18,0-.95-.76-1.58-1.85-1.58-2.07,0-3.73,1.55-3.73,3.18"/>
          <path class="cls-11" d="M547.46,360.67c-1.74,2.33-4.35,2.33-6.09,0l-.45,.3c2.19,3.48,4.8,3.48,6.99,0l-.45-.3Z"/>
          <rect class="cls-1" x="538.13" y="351.93" width="10.09" height="8.21"/>
        </g>
        <path class="cls-11" d="M533.38,352.88c.07,0,.39-.15,.44-.19,.02,0,.03-.02,.05-.02,.12,0,.22,.17,.22,.31v1.68c0,.19-.09,.34-.19,.39-.1,.03-.46,.19-.46,.19-.12,.03-.2,.17-.2,.27v1.21c0,.1,.05,.15,.14,.15,.02,0,.05-.02,.07-.02,0,0,.24-.1,.39-.15,.02-.02,.03-.02,.05-.02,.12,0,.2,.19,.2,.27v2.09c0,.1,.1,.19,.22,.19,.17,0,.29-.09,.29-.19v-2.36c0-.22,.09-.34,.17-.37l1.04-.43s.05-.02,.07-.02c.14,0,.22,.2,.22,.31v2.12c0,.1,.1,.19,.22,.19,.19,0,.29-.09,.29-.19v-2.41c0-.14,.07-.34,.19-.39,.12-.05,.48-.19,.48-.19,.12-.05,.2-.19,.2-.29v-1.21c0-.09-.05-.14-.12-.14-.03,0-.05,0-.09,.02l-.44,.17c-.1,0-.22-.1-.22-.31v-1.58c0-.12,.09-.44,.22-.49l.44-.17c.12-.05,.2-.19,.2-.29v-1.21c0-.08-.05-.14-.12-.14-.03,0-.05,0-.09,.02,0,0-.34,.14-.42,.15-.12,0-.24-.09-.24-.22v-2.07c0-.1-.1-.19-.24-.19-.17,0-.27,.09-.27,.19v2.21c-.02,.17-.07,.39-.22,.49-.2,.12-.78,.36-1.07,.42-.15,0-.2-.2-.2-.34v-2.04c0-.1-.12-.19-.24-.19-.17,0-.27,.09-.27,.19v2.29c0,.24-.1,.41-.2,.46-.1,.05-.44,.19-.44,.19-.12,.03-.2,.17-.2,.27v1.21c0,.1,.05,.15,.14,.15m1.17,.95c0-.53,.02-1.12,.05-1.26,.03-.29,.82-.65,1.24-.65,.12,0,.22,.03,.25,.1,.03,.09,.07,.51,.07,.97s-.03,.94-.07,1.09c-.1,.34-.9,.68-1.29,.68-.1,0-.19-.03-.2-.09-.03-.07-.05-.44-.05-.85" vector-effect="none"/>
      </g>
      <g>
        <g>
          <line class="cls-4" x1="142.93" y1="396.12" x2="232.98" y2="396.12"/>
          <line class="cls-4" x1="142.93" y1="391.87" x2="232.98" y2="391.87"/>
          <line class="cls-4" x1="142.93" y1="387.62" x2="232.98" y2="387.62"/>
          <line class="cls-4" x1="142.93" y1="383.37" x2="232.98" y2="383.37"/>
          <line class="cls-4" x1="142.93" y1="379.12" x2="232.98" y2="379.12"/>
        </g>
        <path d="M155.91,378.86c1.09,0,1.85,.63,1.85,1.58,0,1.61-2.07,3.18-3.76,3.18-1.02,0-1.84-.6-1.84-1.58,0-1.63,1.67-3.18,3.74-3.18Z"/>
        <path d="M167.96,378.86c1.09,0,1.85,.63,1.85,1.58,0,1.61-2.07,3.18-3.76,3.18-1.02,0-1.84-.6-1.84-1.58,0-1.63,1.67-3.18,3.74-3.18Z"/>
        <path d="M176.47,378.86c1.09,0,1.85,.63,1.85,1.58,0,1.61-2.07,3.18-3.76,3.18-1.02,0-1.84-.6-1.84-1.58,0-1.63,1.67-3.18,3.74-3.18Z"/>
        <path d="M184.98,378.86c1.09,0,1.85,.63,1.85,1.58,0,1.61-2.07,3.18-3.76,3.18-1.02,0-1.84-.6-1.84-1.58,0-1.63,1.67-3.18,3.74-3.18Z"/>
        <path d="M192.18,378.86c1.09,0,1.85,.63,1.85,1.58,0,1.61-2.07,3.18-3.76,3.18-1.02,0-1.84-.6-1.84-1.58,0-1.63,1.67-3.18,3.74-3.18Z"/>
        <path d="M199.38,378.86c1.09,0,1.85,.63,1.85,1.58,0,1.61-2.07,3.18-3.76,3.18-1.02,0-1.84-.6-1.84-1.58,0-1.63,1.67-3.18,3.74-3.18Z"/>
        <path d="M207.89,378.86c1.09,0,1.85,.63,1.85,1.58,0,1.61-2.07,3.18-3.76,3.18-1.02,0-1.84-.6-1.84-1.58,0-1.63,1.67-3.18,3.74-3.18Z"/>
        <path d="M216.4,378.86c1.09,0,1.85,.63,1.85,1.58,0,1.61-2.07,3.18-3.76,3.18-1.02,0-1.84-.6-1.84-1.58,0-1.63,1.67-3.18,3.74-3.18Z"/>
        <path d="M228.45,378.86c1.09,0,1.85,.63,1.85,1.58,0,1.61-2.07,3.18-3.76,3.18-1.02,0-1.84-.6-1.84-1.58,0-1.63,1.67-3.18,3.74-3.18Z"/>
        <rect x="152.17" y="401.43" width="36.78" height="2.12"/>
        <polygon points="152.17 403.55 152.17 401.43 188.95 398.24 188.95 400.37 152.17 403.55"/>
        <polygon points="152.17 403.55 152.17 401.43 188.95 395.05 188.95 397.18 152.17 403.55"/>
        <rect x="195.64" y="401.43" width="29.58" height="2.12"/>
        <polygon points="195.64 400.37 195.64 398.24 225.22 401.43 225.22 403.55 195.64 400.37"/>
        <polygon points="195.64 397.18 195.64 395.05 225.22 401.43 225.22 403.55 195.64 397.18"/>
      </g>
      <g>
        <polyline class="cls-2" points="409.4 221.17 552.31 221.17 552.31 280.15"/>
        <polygon class="cls-12" points="398.19 228.64 410.74 221.17 398.19 213.69 398.19 228.64"/>
        <polygon class="cls-12" points="544.83 291.36 552.31 278.8 559.78 291.36 544.83 291.36"/>
      </g>
      <g>
        <path class="cls-11" d="M323.07,442.5c0,.99,.82,1.58,1.84,1.58,1.68,0,3.76-1.56,3.76-3.18,0-.95-.76-1.58-1.85-1.58-2.07,0-3.74,1.55-3.74,3.18" vector-effect="none"/>
        <path class="cls-11" d="M331.99,442.5c0,.99,.82,1.58,1.84,1.58,1.68,0,3.76-1.56,3.76-3.18,0-.95-.76-1.58-1.85-1.58-2.07,0-3.74,1.55-3.74,3.18" vector-effect="none"/>
        <path class="cls-11" d="M254.43,447c0,.99,.82,1.58,1.84,1.58,1.68,0,3.76-1.56,3.76-3.18,0-.95-.76-1.58-1.85-1.58-2.07,0-3.74,1.55-3.74,3.18" vector-effect="none"/>
        <path class="cls-11" d="M266.46,447c0,.99,.82,1.58,1.84,1.58,1.68,0,3.76-1.56,3.76-3.18,0-.95-.76-1.58-1.85-1.58-2.07,0-3.74,1.55-3.74,3.18" vector-effect="none"/>
        <path class="cls-11" d="M278.49,447c0,.99,.82,1.58,1.84,1.58,1.68,0,3.76-1.56,3.76-3.18,0-.95-.76-1.58-1.85-1.58-2.07,0-3.74,1.55-3.74,3.18" vector-effect="none"/>
        <path class="cls-11" d="M286.99,446.87c0,.99,.82,1.58,1.84,1.58,1.68,0,3.76-1.56,3.76-3.18,0-.95-.76-1.58-1.85-1.58-2.07,0-3.74,1.55-3.74,3.18" vector-effect="none"/>
        <path class="cls-11" d="M295.49,447c0,.99,.82,1.58,1.84,1.58,1.68,0,3.76-1.56,3.76-3.18,0-.95-.76-1.58-1.85-1.58-2.07,0-3.74,1.55-3.74,3.18" vector-effect="none"/>
        <path class="cls-11" d="M303.89,441.38c.07,0,.39-.15,.44-.19,.02,0,.03-.02,.05-.02,.12,0,.22,.17,.22,.31v1.68c0,.19-.09,.34-.19,.39-.1,.03-.46,.19-.46,.19-.12,.03-.2,.17-.2,.27v1.21c0,.1,.05,.15,.14,.15,.02,0,.05-.02,.07-.02,0,0,.24-.1,.39-.15,.02-.02,.03-.02,.05-.02,.12,0,.2,.19,.2,.27v2.09c0,.1,.1,.19,.22,.19,.17,0,.29-.09,.29-.19v-2.36c0-.22,.09-.34,.17-.37l1.04-.43s.05-.02,.07-.02c.14,0,.22,.2,.22,.31v2.12c0,.1,.1,.19,.22,.19,.19,0,.29-.09,.29-.19v-2.41c0-.14,.07-.34,.19-.39,.12-.05,.48-.19,.48-.19,.12-.05,.2-.19,.2-.29v-1.21c0-.09-.05-.14-.12-.14-.03,0-.05,0-.09,.02l-.44,.17c-.1,0-.22-.1-.22-.31v-1.58c0-.12,.09-.44,.22-.49l.44-.17c.12-.05,.2-.19,.2-.29v-1.21c0-.08-.05-.14-.12-.14-.03,0-.05,0-.09,.02,0,0-.34,.14-.42,.15-.12,0-.24-.09-.24-.22v-2.07c0-.1-.1-.19-.24-.19-.17,0-.27,.09-.27,.19v2.21c-.02,.17-.07,.39-.22,.49-.2,.12-.78,.36-1.07,.42-.15,0-.2-.2-.2-.34v-2.04c0-.1-.12-.19-.24-.19-.17,0-.27,.09-.27,.19v2.29c0,.24-.1,.41-.2,.46-.1,.05-.44,.19-.44,.19-.12,.03-.2,.17-.2,.27v1.21c0,.1,.05,.15,.14,.15m1.17,.95c0-.53,.02-1.12,.05-1.26,.03-.29,.82-.65,1.24-.65,.12,0,.22,.03,.25,.1,.03,.09,.07,.51,.07,.97s-.03,.94-.07,1.09c-.1,.34-.9,.68-1.29,.68-.1,0-.19-.03-.2-.09-.03-.07-.05-.44-.05-.85" vector-effect="none"/>
        <path class="cls-11" d="M309.07,442.62c0,.99,.82,1.58,1.84,1.58,1.68,0,3.76-1.56,3.76-3.18,0-.95-.76-1.58-1.85-1.58-2.07,0-3.74,1.55-3.74,3.18" vector-effect="none"/>
        <path class="cls-11" d="M315.87,447c0,.99,.82,1.58,1.84,1.58,1.68,0,3.76-1.56,3.76-3.18,0-.95-.76-1.58-1.85-1.58-2.07,0-3.74,1.55-3.74,3.18" vector-effect="none"/>
        <path class="cls-11" d="M331.68,457.31v2.13l5.1-1.05v-2.13l-5.1,1.05m0-1l5.1-1.05v-2.13l-5.1,1.05v2.12m5.1-4.23v-2.12l-5.1,1.07v2.12l5.1-1.07" vector-effect="none"/>
        <path class="cls-11" d="M331.99,447c0,.99,.82,1.58,1.84,1.58,1.68,0,3.76-1.56,3.76-3.18,0-.95-.76-1.58-1.85-1.58-2.07,0-3.74,1.55-3.74,3.18" vector-effect="none"/>
        <path class="cls-11" d="M254.43,467.45v-2.12h69.15v2.12h-69.15" vector-effect="none"/>
        <path class="cls-11" d="M254.43,467.45v-2.12l69.15-3.19v2.12l-69.15,3.19" vector-effect="none"/>
        <path class="cls-11" d="M254.43,467.45v-2.12l69.15-6.38v2.12l-69.15,6.38" vector-effect="none"/>
        <g>
          <line class="cls-5" x1="252.69" y1="461.07" x2="365.99" y2="461.07" vector-effect="none"/>
          <line class="cls-5" x1="252.69" y1="456.82" x2="365.99" y2="456.82" vector-effect="none"/>
          <line class="cls-5" x1="252.69" y1="452.57" x2="365.99" y2="452.57" vector-effect="none"/>
          <line class="cls-5" x1="252.69" y1="448.32" x2="365.99" y2="448.32" vector-effect="none"/>
          <line class="cls-5" x1="252.69" y1="444.07" x2="365.99" y2="444.07" vector-effect="none"/>
        </g>
        <line class="cls-7" x1="335.59" y1="442.05" x2="360.56" y2="442.05"/>
        <line class="cls-7" x1="334.99" y1="446.2" x2="359.95" y2="446.2"/>
      </g>
      <g>
        <polyline class="cls-2" points="451.56 535.06 244.7 535.06 244.7 491.94"/>
        <polygon class="cls-12" points="462.77 527.59 450.21 535.06 462.77 542.54 462.77 527.59"/>
        <polygon class="cls-12" points="252.18 480.73 244.7 493.29 237.22 480.73 252.18 480.73"/>
      </g>
      <g>
        <polyline class="cls-3" points="595.05 399.52 595.05 426.11 549.44 426.11 549.44 461.06"/>
        <polygon class="cls-12" points="587.57 388.31 595.05 400.87 602.53 388.31 587.57 388.31"/>
        <polygon class="cls-12" points="541.96 472.27 549.44 459.71 556.92 472.27 541.96 472.27"/>
      </g>
      <g>
        <polyline class="cls-2" points="457.59 319.39 337.58 319.39 337.58 348.09"/>
        <polygon class="cls-12" points="468.8 311.91 456.24 319.39 468.8 326.87 468.8 311.91"/>
        <polygon class="cls-12" points="330.1 359.3 337.58 346.75 345.06 359.3 330.1 359.3"/>
      </g>
      <g>
        <polyline class="cls-3" points="224.04 281.88 224.04 310.62 178.43 310.62 178.43 348.18"/>
        <polygon class="cls-12" points="216.56 270.67 224.04 283.23 231.52 270.67 216.56 270.67"/>
        <polygon class="cls-12" points="170.95 359.39 178.43 346.84 185.91 359.39 170.95 359.39"/>
      </g>
    </g>
    <path class="cls-12" d="M120.41,120.86c6.45,4.97,12.91,5.05,19.36,5.02,6.45,.07,12.91,.02,19.36-.17,12.91-.41,25.82-1.45,38.72-2.36,12.93-.89,25.84-1.8,38.72-3.39,25.68-3.4,51.56-5.08,77.45-3.81,12.91,.59,25.82,1.78,38.72,2.8,6.45,.44,12.91,1.25,19.36,2.56,12.76,2.69,25.64,5.62,38.72,4.26,13.25-.62,26.11-9.83,38.72-13.06,6.45-1.69,12.91-1.57,19.36-1.2,13.11,.73,26,5.18,38.72,8.37,12.91,3.39,25.82,4.13,38.72,5.23,16.03,1.26,32.36,.94,48.4,.2,16.16-.59,32.29-6.36,48.4-7.02,12.98-.79,25.88,.98,38.72,2.85,19.29,2.43,38.69,3.15,58.08,3.88,0,0,0,8.19,0,8.19-19.4,.73-38.8,1.45-58.08,3.88-12.84,1.88-25.74,3.64-38.72,2.85-16.11-.66-32.24-6.43-48.4-7.02-16.07-.74-32.37-1.06-48.4,.2-12.91,1.1-25.82,1.84-38.72,5.23-6.45,1.58-12.91,3.56-19.36,5.16-54.66,13.55-49.79-16.93-96.81-10.5-12.82,1.96-25.72,5.69-38.72,6.27-25.77,2.27-51.58,4.14-77.45,2.7-19.42-.87-38.72-4.13-58.08-5.69-25.79-1.79-51.58-4.33-77.45-3.94-6.45-.03-12.91,.05-19.36,5.02v-16.52h0Z"/>
    <text class="cls-14" transform="translate(120.41 110.28)"><tspan x="0" y="0">2 - 3</tspan></text>
  </g>
</svg>