<?xml version="1.0" encoding="UTF-8"?>
<svg xmlns="http://www.w3.org/2000/svg" xmlns:xlink="http://www.w3.org/1999/xlink" viewBox="0 0 792 612">
  <defs>
    <style>
      .cls-1, .cls-2, .cls-3, .cls-4, .cls-5, .cls-6, .cls-7, .cls-8, .cls-9 {
        fill: none;
      }

      .cls-2, .cls-10, .cls-3, .cls-9 {
        stroke: #231f20;
        stroke-miterlimit: 10;
      }

      .cls-2, .cls-8 {
        stroke-width: 3px;
      }

      .cls-11 {
        clip-path: url(#clippath);
      }

      .cls-12 {
        fill: #010101;
      }

      .cls-13, .cls-14, .cls-15, .cls-16 {
        fill: #231f20;
      }

      .cls-17 {
        letter-spacing: -.06em;
      }

      .cls-10 {
        fill: #fff;
      }

      .cls-10, .cls-3 {
        stroke-width: 2px;
      }

      .cls-18 {
        letter-spacing: .04em;
      }

      .cls-19 {
        letter-spacing: .01em;
      }

      .cls-20 {
        letter-spacing: .01em;
      }

      .cls-21 {
        letter-spacing: .04em;
      }

      .cls-22 {
        letter-spacing: .04em;
      }

      .cls-23 {
        clip-path: url(#clippath-1);
      }

      .cls-24 {
        clip-path: url(#clippath-4);
      }

      .cls-25 {
        clip-path: url(#clippath-3);
      }

      .cls-26 {
        clip-path: url(#clippath-2);
      }

      .cls-27 {
        clip-path: url(#clippath-7);
      }

      .cls-28 {
        clip-path: url(#clippath-8);
      }

      .cls-29 {
        clip-path: url(#clippath-6);
      }

      .cls-30 {
        clip-path: url(#clippath-5);
      }

      .cls-31 {
        clip-path: url(#clippath-9);
      }

      .cls-14 {
        font-size: 18px;
      }

      .cls-14, .cls-15, .cls-16 {
        font-family: Lustria-Regular, Lustria;
      }

      .cls-32 {
        clip-path: url(#clippath-20);
      }

      .cls-33 {
        clip-path: url(#clippath-21);
      }

      .cls-34 {
        clip-path: url(#clippath-24);
      }

      .cls-35 {
        clip-path: url(#clippath-23);
      }

      .cls-36 {
        clip-path: url(#clippath-22);
      }

      .cls-37 {
        clip-path: url(#clippath-25);
      }

      .cls-38 {
        clip-path: url(#clippath-27);
      }

      .cls-39 {
        clip-path: url(#clippath-28);
      }

      .cls-40 {
        clip-path: url(#clippath-26);
      }

      .cls-41 {
        clip-path: url(#clippath-29);
      }

      .cls-42 {
        clip-path: url(#clippath-34);
      }

      .cls-43 {
        clip-path: url(#clippath-35);
      }

      .cls-44 {
        clip-path: url(#clippath-36);
      }

      .cls-45 {
        clip-path: url(#clippath-37);
      }

      .cls-46 {
        clip-path: url(#clippath-39);
      }

      .cls-47 {
        clip-path: url(#clippath-33);
      }

      .cls-48 {
        clip-path: url(#clippath-32);
      }

      .cls-49 {
        clip-path: url(#clippath-30);
      }

      .cls-50 {
        clip-path: url(#clippath-38);
      }

      .cls-51 {
        clip-path: url(#clippath-31);
      }

      .cls-52 {
        clip-path: url(#clippath-14);
      }

      .cls-53 {
        clip-path: url(#clippath-13);
      }

      .cls-54 {
        clip-path: url(#clippath-12);
      }

      .cls-55 {
        clip-path: url(#clippath-10);
      }

      .cls-56 {
        clip-path: url(#clippath-15);
      }

      .cls-57 {
        clip-path: url(#clippath-17);
      }

      .cls-58 {
        clip-path: url(#clippath-16);
      }

      .cls-59 {
        clip-path: url(#clippath-19);
      }

      .cls-60 {
        clip-path: url(#clippath-11);
      }

      .cls-61 {
        clip-path: url(#clippath-18);
      }

      .cls-62 {
        letter-spacing: 0em;
      }

      .cls-63 {
        letter-spacing: .02em;
      }

      .cls-64 {
        letter-spacing: .02em;
      }

      .cls-65 {
        letter-spacing: .02em;
      }

      .cls-15 {
        font-size: 12px;
      }

      .cls-4 {
        stroke: #000;
        stroke-width: .53px;
      }

      .cls-4, .cls-5, .cls-6, .cls-7, .cls-8 {
        stroke-miterlimit: 2;
      }

      .cls-5 {
        stroke-width: .53px;
      }

      .cls-5, .cls-6, .cls-7, .cls-8 {
        stroke: #010101;
      }

      .cls-66 {
        letter-spacing: .01em;
      }

      .cls-67 {
        letter-spacing: -.02em;
      }

      .cls-16 {
        font-size: 16px;
      }

      .cls-68 {
        letter-spacing: -.02em;
      }

      .cls-7 {
        stroke-width: .71px;
      }

      .cls-69 {
        letter-spacing: -.02em;
      }

      .cls-8 {
        stroke-linecap: round;
      }

      .cls-9 {
        stroke-width: .5px;
      }
    </style>
    <clipPath id="clippath">
      <rect class="cls-1" x="288.77" y="189.89" width="10.09" height="8.21"/>
    </clipPath>
    <clipPath id="clippath-1">
      <rect class="cls-1" x="288.77" y="189.89" width="10.09" height="8.21"/>
    </clipPath>
    <clipPath id="clippath-2">
      <rect class="cls-1" x="345.25" y="187.4" width="9.99" height="4.84"/>
    </clipPath>
    <clipPath id="clippath-3">
      <rect class="cls-1" x="345.25" y="187.41" width="9.99" height="4.84"/>
    </clipPath>
    <clipPath id="clippath-4">
      <rect class="cls-1" x="325.41" y="244.12" width="9.99" height="4.84"/>
    </clipPath>
    <clipPath id="clippath-5">
      <rect class="cls-1" x="325.41" y="244.12" width="9.99" height="4.84"/>
    </clipPath>
    <clipPath id="clippath-6">
      <rect class="cls-1" x="363.63" y="231.34" width="10.09" height="8.21"/>
    </clipPath>
    <clipPath id="clippath-7">
      <rect class="cls-1" x="363.63" y="231.34" width="10.09" height="8.21"/>
    </clipPath>
    <clipPath id="clippath-8">
      <rect class="cls-1" x="405.6" y="197.53" width="10.09" height="8.21"/>
    </clipPath>
    <clipPath id="clippath-9">
      <rect class="cls-1" x="405.6" y="197.53" width="10.09" height="8.21"/>
    </clipPath>
    <clipPath id="clippath-10">
      <rect class="cls-1" x="471.51" y="203.92" width="9.99" height="4.84"/>
    </clipPath>
    <clipPath id="clippath-11">
      <rect class="cls-1" x="471.51" y="203.92" width="9.99" height="4.84"/>
    </clipPath>
    <clipPath id="clippath-12">
      <rect class="cls-1" x="528.95" y="494.28" width="10.09" height="8.21"/>
    </clipPath>
    <clipPath id="clippath-13">
      <rect class="cls-1" x="528.95" y="494.28" width="10.09" height="8.21"/>
    </clipPath>
    <clipPath id="clippath-14">
      <rect class="cls-1" x="625.81" y="497.96" width="9.99" height="4.84"/>
    </clipPath>
    <clipPath id="clippath-15">
      <rect class="cls-1" x="625.81" y="497.96" width="9.99" height="4.84"/>
    </clipPath>
    <clipPath id="clippath-16">
      <rect class="cls-1" x="583.12" y="524.04" width="10.09" height="8.21"/>
    </clipPath>
    <clipPath id="clippath-17">
      <rect class="cls-1" x="583.12" y="524.04" width="10.09" height="8.21"/>
    </clipPath>
    <clipPath id="clippath-18">
      <rect class="cls-1" x="627.82" y="526.92" width="9.99" height="4.84"/>
    </clipPath>
    <clipPath id="clippath-19">
      <rect class="cls-1" x="627.82" y="526.92" width="9.99" height="4.84"/>
    </clipPath>
    <clipPath id="clippath-20">
      <rect class="cls-1" x="673.03" y="530.34" width="9.99" height="4.84"/>
    </clipPath>
    <clipPath id="clippath-21">
      <rect class="cls-1" x="673.03" y="530.34" width="9.99" height="4.84"/>
    </clipPath>
    <clipPath id="clippath-22">
      <rect class="cls-1" x="479.49" y="338.25" width="9.99" height="4.84"/>
    </clipPath>
    <clipPath id="clippath-23">
      <rect class="cls-1" x="479.49" y="338.25" width="9.99" height="4.84"/>
    </clipPath>
    <clipPath id="clippath-24">
      <rect class="cls-1" x="479.49" y="344.77" width="9.99" height="4.84"/>
    </clipPath>
    <clipPath id="clippath-25">
      <rect class="cls-1" x="479.49" y="344.77" width="9.99" height="4.84"/>
    </clipPath>
    <clipPath id="clippath-26">
      <rect class="cls-1" x="448.29" y="337.64" width="9.99" height="4.84"/>
    </clipPath>
    <clipPath id="clippath-27">
      <rect class="cls-1" x="448.29" y="337.64" width="9.99" height="4.84"/>
    </clipPath>
    <clipPath id="clippath-28">
      <rect class="cls-1" x="550.31" y="346.34" width="9.99" height="4.84"/>
    </clipPath>
    <clipPath id="clippath-29">
      <rect class="cls-1" x="550.31" y="346.34" width="9.99" height="4.84"/>
    </clipPath>
    <clipPath id="clippath-30">
      <rect class="cls-1" x="573.03" y="340.69" width="9.39" height="7.65"/>
    </clipPath>
    <clipPath id="clippath-31">
      <rect class="cls-1" x="573.03" y="340.69" width="9.39" height="7.65"/>
    </clipPath>
    <clipPath id="clippath-32">
      <rect class="cls-1" x="586.02" y="376.47" width="10.09" height="8.21"/>
    </clipPath>
    <clipPath id="clippath-33">
      <rect class="cls-1" x="586.02" y="376.47" width="10.09" height="8.21"/>
    </clipPath>
    <clipPath id="clippath-34">
      <rect class="cls-1" x="600.09" y="382.92" width="9.99" height="4.84"/>
    </clipPath>
    <clipPath id="clippath-35">
      <rect class="cls-1" x="600.09" y="382.92" width="9.99" height="4.84"/>
    </clipPath>
    <clipPath id="clippath-36">
      <rect class="cls-1" x="574.07" y="389.24" width="9.99" height="4.84"/>
    </clipPath>
    <clipPath id="clippath-37">
      <rect class="cls-1" x="574.07" y="389.24" width="9.99" height="4.84"/>
    </clipPath>
    <clipPath id="clippath-38">
      <rect class="cls-1" x="490.38" y="373.69" width="10.09" height="8.21"/>
    </clipPath>
    <clipPath id="clippath-39">
      <rect class="cls-1" x="490.38" y="373.69" width="10.09" height="8.21"/>
    </clipPath>
  </defs>
  <g id="Layer_1" data-name="Layer 1">
    <text class="cls-15" transform="translate(119.54 28.5)"><tspan x="0" y="0">Use</tspan><tspan class="cls-19" x="21.08" y="0"> </tspan><tspan x="23.97" y="0">the</tspan><tspan class="cls-20" x="42.46" y="0"> </tspan><tspan x="45.34" y="0">flow</tspan><tspan class="cls-19" x="69.92" y="0"> </tspan><tspan x="72.81" y="0">chart</tspan><tspan class="cls-19" x="102.12" y="0"> </tspan><tspan x="105.01" y="0">below</tspan><tspan class="cls-19" x="139.3" y="0"> </tspan><tspan x="142.19" y="0">to</tspan><tspan class="cls-20" x="153.79" y="0"> </tspan><tspan x="156.67" y="0">traverse</tspan><tspan class="cls-19" x="201.67" y="0"> </tspan><tspan x="204.56" y="0">between</tspan><tspan class="cls-19" x="253.15" y="0"> </tspan><tspan x="256.03" y="0">different</tspan><tspan class="cls-20" x="305.1" y="0"> </tspan><tspan x="307.98" y="0">sets</tspan><tspan class="cls-19" x="329.43" y="0"> </tspan><tspan x="332.31" y="0">of</tspan><tspan class="cls-19" x="343.69" y="0"> </tspan><tspan x="346.57" y="0">musical</tspan><tspan class="cls-19" x="389.57" y="0"> </tspan><tspan x="392.45" y="0">materials.</tspan><tspan class="cls-19" x="446.39" y="0" xml:space="preserve">  </tspan><tspan x="452.16" y="0">Each</tspan><tspan class="cls-19" x="479.86" y="0"> </tspan><tspan x="482.74" y="0">performer</tspan><tspan class="cls-19" x="540.07" y="0"> </tspan><tspan x="542.96" y="0">has</tspan><tspan class="cls-19" x="562.05" y="0"> </tspan><tspan x="564.94" y="0">a</tspan><tspan class="cls-66" x="571.07" y="0"> </tspan><tspan x="573.95" y="0">separate </tspan><tspan x="0" y="14.4">flow</tspan><tspan class="cls-69" x="24.58" y="14.4"> </tspan><tspan x="27.13" y="14.4">chart</tspan><tspan class="cls-68" x="56.45" y="14.4"> </tspan><tspan x="59.01" y="14.4">identified</tspan><tspan class="cls-69" x="113.48" y="14.4"> </tspan><tspan x="116.03" y="14.4">by</tspan><tspan class="cls-68" x="129.76" y="14.4"> </tspan><tspan x="132.32" y="14.4">the</tspan><tspan class="cls-69" x="150.81" y="14.4"> </tspan><tspan x="153.37" y="14.4">circled</tspan><tspan class="cls-69" x="191.77" y="14.4"> </tspan><tspan x="194.32" y="14.4">number</tspan><tspan class="cls-68" x="239.07" y="14.4"> </tspan><tspan x="241.63" y="14.4">on</tspan><tspan class="cls-69" x="256.58" y="14.4"> </tspan><tspan x="259.14" y="14.4">the</tspan><tspan class="cls-68" x="277.63" y="14.4"> </tspan><tspan x="280.19" y="14.4">left.</tspan><tspan class="cls-69" x="301.5" y="14.4"> </tspan><tspan class="cls-17" x="304.06" y="14.4">Y</tspan><tspan class="cls-62" x="311.82" y="14.4">ou</tspan><tspan class="cls-68" x="326.63" y="14.4"> </tspan><tspan class="cls-62" x="329.19" y="14.4">may</tspan><tspan class="cls-69" x="352.54" y="14.4"> </tspan><tspan class="cls-62" x="355.1" y="14.4">progress</tspan><tspan class="cls-69" x="403.49" y="14.4"> </tspan><tspan x="406.05" y="14.4">to</tspan><tspan class="cls-68" x="417.66" y="14.4"> </tspan><tspan x="420.21" y="14.4">any</tspan><tspan class="cls-69" x="440.43" y="14.4"> </tspan><tspan x="442.99" y="14.4">group</tspan><tspan class="cls-69" x="476.91" y="14.4"> </tspan><tspan x="479.47" y="14.4">of</tspan><tspan class="cls-69" x="490.85" y="14.4"> </tspan><tspan x="493.4" y="14.4">materials</tspan><tspan class="cls-67" x="544.43" y="14.4"> </tspan><tspan x="546.99" y="14.4">connected</tspan><tspan class="cls-69" x="607.04" y="14.4"> </tspan><tspan x="609.6" y="14.4">to </tspan><tspan x="0" y="28.8">the</tspan><tspan class="cls-21" x="18.49" y="28.8"> </tspan><tspan x="21.7" y="28.8">group</tspan><tspan class="cls-22" x="55.63" y="28.8"> </tspan><tspan x="58.83" y="28.8">you</tspan><tspan class="cls-21" x="80.05" y="28.8"> </tspan><tspan x="83.26" y="28.8">are</tspan><tspan class="cls-21" x="100.79" y="28.8"> </tspan><tspan x="104" y="28.8">performing.</tspan><tspan class="cls-21" x="170.76" y="28.8" xml:space="preserve">  </tspan><tspan x="177.18" y="28.8">Materials</tspan><tspan class="cls-21" x="228.91" y="28.8"> </tspan><tspan x="232.12" y="28.8">within</tspan><tspan class="cls-21" x="268.44" y="28.8"> </tspan><tspan x="271.65" y="28.8">a</tspan><tspan class="cls-21" x="277.78" y="28.8"> </tspan><tspan x="280.99" y="28.8">group</tspan><tspan class="cls-22" x="314.92" y="28.8"> </tspan><tspan x="318.13" y="28.8">may</tspan><tspan class="cls-21" x="341.48" y="28.8"> </tspan><tspan x="344.69" y="28.8">be</tspan><tspan class="cls-21" x="358.51" y="28.8"> </tspan><tspan x="361.72" y="28.8">played</tspan><tspan class="cls-21" x="399.16" y="28.8"> </tspan><tspan x="402.37" y="28.8">in</tspan><tspan class="cls-22" x="413.51" y="28.8"> </tspan><tspan x="416.72" y="28.8">any</tspan><tspan class="cls-21" x="436.94" y="28.8"> </tspan><tspan x="440.15" y="28.8">order,</tspan><tspan class="cls-21" x="474.16" y="28.8"> </tspan><tspan x="477.37" y="28.8">any</tspan><tspan class="cls-21" x="497.58" y="28.8"> </tspan><tspan x="500.79" y="28.8">number</tspan><tspan class="cls-21" x="545.54" y="28.8"> </tspan><tspan x="548.75" y="28.8">of</tspan><tspan class="cls-18" x="560.13" y="28.8"> </tspan><tspan x="563.33" y="28.8">times,</tspan><tspan class="cls-21" x="596.69" y="28.8"> </tspan><tspan x="599.9" y="28.8">and </tspan><tspan x="0" y="43.2">may</tspan><tspan class="cls-63" x="23.35" y="43.2"> </tspan><tspan x="26.32" y="43.2">be</tspan><tspan class="cls-65" x="40.14" y="43.2"> </tspan><tspan x="43.11" y="43.2">used</tspan><tspan class="cls-63" x="69.94" y="43.2"> </tspan><tspan x="72.9" y="43.2">as</tspan><tspan class="cls-65" x="84.34" y="43.2"> </tspan><tspan x="87.3" y="43.2">a</tspan><tspan class="cls-63" x="93.44" y="43.2"> </tspan><tspan x="96.4" y="43.2">basis</tspan><tspan class="cls-65" x="123.92" y="43.2"> </tspan><tspan x="126.88" y="43.2">of</tspan><tspan class="cls-63" x="138.26" y="43.2"> </tspan><tspan x="141.22" y="43.2">improvisation.</tspan><tspan class="cls-65" x="222.09" y="43.2" xml:space="preserve">  </tspan><tspan x="228.02" y="43.2">Pitches</tspan><tspan class="cls-65" x="268.73" y="43.2"> </tspan><tspan x="271.69" y="43.2">may</tspan><tspan class="cls-63" x="295.04" y="43.2"> </tspan><tspan x="298.01" y="43.2">be</tspan><tspan class="cls-65" x="311.83" y="43.2"> </tspan><tspan x="314.8" y="43.2">played</tspan><tspan class="cls-63" x="352.24" y="43.2"> </tspan><tspan x="355.2" y="43.2">in</tspan><tspan class="cls-65" x="366.34" y="43.2"> </tspan><tspan x="369.31" y="43.2">any</tspan><tspan class="cls-63" x="389.52" y="43.2"> </tspan><tspan x="392.49" y="43.2">octave.</tspan><tspan class="cls-63" x="432.38" y="43.2"> </tspan><tspan class="cls-17" x="435.34" y="43.2">Y</tspan><tspan x="443.11" y="43.2">ou</tspan><tspan class="cls-63" x="457.92" y="43.2"> </tspan><tspan x="460.88" y="43.2">may</tspan><tspan class="cls-63" x="484.23" y="43.2"> </tspan><tspan x="487.2" y="43.2">add</tspan><tspan class="cls-64" x="508.31" y="43.2"> </tspan><tspan x="511.27" y="43.2">breaks</tspan><tspan class="cls-63" x="548.19" y="43.2"> </tspan><tspan x="551.16" y="43.2">between</tspan><tspan class="cls-63" x="599.75" y="43.2"> </tspan><tspan x="602.71" y="43.2">the </tspan><tspan x="0" y="57.6">materials. The intensity of this section should match the curve below.</tspan></text>
  </g>
  <g id="Notation">
    <g>
      <rect class="cls-10" x="35.92" y="19.95" width="73.81" height="25.55"/>
      <text class="cls-14" transform="translate(42.17 39.05)"><tspan x="0" y="0">Phase 3</tspan></text>
    </g>
    <g>
      <text class="cls-16" transform="translate(68.17 73.87)"><tspan x="0" y="0">b</tspan></text>
      <circle class="cls-6" cx="73.05" cy="68.21" r="17.45"/>
    </g>
    <g>
      <rect class="cls-2" x="249.86" y="169.92" width="267.26" height="100.94" rx="12" ry="12"/>
      <rect class="cls-2" x="37.57" y="355.36" width="289.75" height="121.58" rx="12" ry="12"/>
      <rect class="cls-2" x="504.02" y="476.24" width="218.95" height="84.87" rx="12" ry="12"/>
      <rect class="cls-2" x="421.06" y="319.33" width="204.53" height="99.77" rx="12" ry="12"/>
      <g>
        <path d="M340,189.25v-1.21c0-.1,.08-.24,.2-.27,0,0,.34-.14,.44-.19s.2-.22,.2-.46v-2.29c0-.1,.1-.19,.27-.19,.12,0,.24,.08,.24,.19v2.04c0,.14,.05,.34,.2,.34,.29-.07,.87-.31,1.07-.42,.15-.1,.2-.32,.22-.49v-2.21c0-.1,.1-.19,.27-.19,.14,0,.24,.08,.24,.19v2.07c0,.14,.12,.22,.24,.22,.08-.02,.43-.15,.43-.15,.03-.02,.05-.02,.08-.02,.07,0,.12,.05,.12,.14v1.21c0,.1-.08,.24-.2,.29l-.44,.17c-.14,.05-.22,.37-.22,.49v1.58c0,.2,.12,.31,.22,.31l.44-.17s.05-.02,.08-.02c.07,0,.12,.05,.12,.14v1.21c0,.1-.08,.24-.2,.29,0,0-.36,.14-.48,.19s-.19,.25-.19,.39v2.41c0,.1-.1,.19-.29,.19-.12,0-.22-.08-.22-.19v-2.12c0-.1-.08-.31-.22-.31-.02,0-.05,.02-.07,.02l-1.04,.42c-.08,.03-.17,.15-.17,.37v2.36c0,.1-.12,.19-.29,.19-.12,0-.22-.08-.22-.19v-2.09c0-.08-.08-.27-.2-.27-.02,0-.03,0-.05,.02-.15,.05-.39,.15-.39,.15-.02,0-.05,.02-.07,.02-.08,0-.14-.05-.14-.15v-1.21c0-.1,.08-.24,.2-.27,0,0,.36-.15,.46-.19,.1-.05,.19-.2,.19-.39v-1.68c0-.14-.1-.31-.22-.31-.02,0-.03,.02-.05,.02-.05,.03-.37,.19-.44,.19-.08,0-.14-.05-.14-.15Zm1.36,1.95c.02,.05,.1,.08,.2,.08,.39,0,1.19-.34,1.29-.68,.03-.15,.07-.63,.07-1.09s-.03-.88-.07-.97c-.03-.07-.14-.1-.25-.1-.42,0-1.21,.36-1.24,.65-.03,.14-.05,.73-.05,1.26,0,.41,.02,.78,.05,.85Z"/>
        <path d="M285.05,193.46c1.09,0,1.85,.63,1.85,1.58,0,1.61-2.07,3.18-3.76,3.18-1.02,0-1.84-.6-1.84-1.58,0-1.63,1.67-3.18,3.74-3.18Z"/>
        <path d="M313.7,184.71c1.09,0,1.85,.63,1.85,1.58,0,1.61-2.07,3.18-3.76,3.18-1.02,0-1.84-.6-1.84-1.58,0-1.63,1.67-3.18,3.74-3.18Z"/>
        <g>
          <line class="cls-4" x1="274.31" y1="208.97" x2="363.63" y2="208.97"/>
          <line class="cls-4" x1="274.31" y1="204.72" x2="363.63" y2="204.72"/>
          <line class="cls-4" x1="274.31" y1="200.47" x2="363.63" y2="200.47"/>
          <line class="cls-4" x1="274.31" y1="196.22" x2="363.63" y2="196.22"/>
          <line class="cls-4" x1="274.31" y1="191.97" x2="363.63" y2="191.97"/>
        </g>
        <g id="Artwork_1" data-name="Artwork 1">
          <g class="cls-11">
            <g class="cls-23">
              <path class="cls-12" d="M288.77,196.52c0,.99,.81,1.58,1.83,1.58,1.68,0,3.75-1.56,3.75-3.18,0-.95-.76-1.58-1.85-1.58-2.07,0-3.73,1.55-3.73,3.18"/>
              <path class="cls-12" d="M292.48,192.73c1.69-2.27,4.24-2.27,5.93,0l.44-.3c-2.13-3.39-4.68-3.39-6.82,0l.44,.3Z"/>
            </g>
          </g>
        </g>
        <g id="Artwork_2" data-name="Artwork 2">
          <g class="cls-26">
            <g class="cls-25">
              <path class="cls-12" d="M345.25,190.62c0,.99,.82,1.58,1.84,1.58,1.68,0,3.76-1.56,3.76-3.18,0-.95-.76-1.58-1.85-1.58-2.07,0-3.74,1.55-3.74,3.18"/>
              <circle class="cls-9" cx="352.82" cy="189.82" r="2.17"/>
            </g>
          </g>
        </g>
        <line class="cls-7" x1="308.27" y1="187.24" x2="317.26" y2="187.24" vector-effect="none"/>
      </g>
      <g>
        <path d="M187.08,378.76c1.09,0,1.85,.63,1.85,1.58,0,1.61-2.07,3.18-3.76,3.18-1.02,0-1.84-.6-1.84-1.58,0-1.63,1.67-3.18,3.74-3.18Z"/>
        <path d="M199.12,369.39c1.09,0,1.85,.63,1.85,1.58,0,1.61-2.07,3.18-3.76,3.18-1.02,0-1.84-.6-1.84-1.58,0-1.63,1.67-3.18,3.74-3.18Z"/>
        <path d="M211.17,378.64c1.09,0,1.85,.63,1.85,1.58,0,1.61-2.07,3.18-3.76,3.18-1.02,0-1.84-.6-1.84-1.58,0-1.63,1.67-3.18,3.74-3.18Z"/>
        <path d="M219.68,369.39c1.09,0,1.85,.63,1.85,1.58,0,1.61-2.07,3.18-3.76,3.18-1.02,0-1.84-.6-1.84-1.58,0-1.63,1.67-3.18,3.74-3.18Z"/>
        <path d="M228.19,378.76c1.09,0,1.85,.63,1.85,1.58,0,1.61-2.07,3.18-3.76,3.18-1.02,0-1.84-.6-1.84-1.58,0-1.63,1.67-3.18,3.74-3.18Z"/>
        <path d="M242.6,369.39c1.09,0,1.85,.63,1.85,1.58,0,1.61-2.07,3.18-3.76,3.18-1.02,0-1.84-.6-1.84-1.58,0-1.63,1.67-3.18,3.74-3.18Z"/>
        <path d="M249.4,378.76c1.09,0,1.85,.63,1.85,1.58,0,1.61-2.07,3.18-3.76,3.18-1.02,0-1.84-.6-1.84-1.58,0-1.63,1.67-3.18,3.74-3.18Z"/>
        <path d="M255.97,369.39c1.09,0,1.85,.63,1.85,1.58,0,1.61-2.07,3.18-3.76,3.18-1.02,0-1.84-.6-1.84-1.58,0-1.63,1.67-3.18,3.74-3.18Z"/>
        <path d="M265.55,378.35c1.09,0,1.85,.63,1.85,1.58,0,1.61-2.07,3.18-3.76,3.18-1.02,0-1.84-.6-1.84-1.58,0-1.63,1.67-3.18,3.74-3.18Z"/>
        <path d="M282.25,378.36c1.09,0,1.85,.63,1.85,1.58,0,1.61-2.07,3.18-3.76,3.18-1.02,0-1.84-.6-1.84-1.58,0-1.63,1.67-3.18,3.74-3.18Z"/>
        <rect x="183.34" y="400.27" width="48.82" height="2.12"/>
        <polygon points="183.34 402.39 183.34 400.27 232.16 397.08 232.16 399.21 183.34 402.39"/>
        <polygon points="183.34 402.39 183.34 400.27 232.16 393.89 232.16 396.02 183.34 402.39"/>
        <rect x="238.86" y="400.27" width="43.58" height="2.12"/>
        <polygon points="238.86 399.21 238.86 397.08 282.43 400.27 282.43 402.39 238.86 399.21"/>
        <polygon points="238.86 396.02 238.86 393.89 282.43 400.27 282.43 402.39 238.86 396.02"/>
        <g>
          <line class="cls-4" x1="181.98" y1="393.89" x2="290.21" y2="393.89"/>
          <line class="cls-4" x1="181.98" y1="389.64" x2="290.21" y2="389.64"/>
          <line class="cls-4" x1="181.98" y1="385.39" x2="290.21" y2="385.39"/>
          <line class="cls-4" x1="181.98" y1="381.14" x2="290.21" y2="381.14"/>
          <line class="cls-4" x1="181.98" y1="376.89" x2="290.21" y2="376.89"/>
        </g>
        <line class="cls-7" x1="250.35" y1="371.79" x2="259.34" y2="371.79" vector-effect="none"/>
        <line class="cls-7" x1="237.35" y1="371.79" x2="246.34" y2="371.79" vector-effect="none"/>
        <line class="cls-7" x1="214.35" y1="371.79" x2="223.34" y2="371.79" vector-effect="none"/>
        <line class="cls-7" x1="193.35" y1="371.79" x2="202.34" y2="371.79" vector-effect="none"/>
      </g>
      <g>
        <path d="M286.13,235.04c1.09,0,1.85,.63,1.85,1.58,0,1.61-2.07,3.18-3.76,3.18-1.02,0-1.84-.6-1.84-1.58,0-1.63,1.67-3.18,3.74-3.18Z"/>
        <path d="M305.39,237.55c1.09,0,1.85,.63,1.85,1.58,0,1.61-2.07,3.18-3.76,3.18-1.02,0-1.84-.6-1.84-1.58,0-1.63,1.67-3.18,3.74-3.18Z"/>
        <g>
          <line class="cls-4" x1="274.31" y1="259.29" x2="386.5" y2="259.29"/>
          <line class="cls-4" x1="274.31" y1="255.04" x2="386.5" y2="255.04"/>
          <line class="cls-4" x1="274.31" y1="250.79" x2="386.5" y2="250.79"/>
          <line class="cls-4" x1="274.31" y1="246.54" x2="386.5" y2="246.54"/>
          <line class="cls-4" x1="274.31" y1="242.29" x2="386.5" y2="242.29"/>
        </g>
        <path d="M296.1,239.4v-1.21c0-.1,.08-.24,.2-.27,0,0,.34-.14,.44-.19s.2-.22,.2-.46v-2.29c0-.1,.1-.19,.27-.19,.12,0,.24,.08,.24,.19v2.04c0,.14,.05,.34,.2,.34,.29-.07,.87-.31,1.07-.42,.15-.1,.2-.32,.22-.49v-2.21c0-.1,.1-.19,.27-.19,.14,0,.24,.08,.24,.19v2.07c0,.14,.12,.22,.24,.22,.08-.02,.43-.15,.43-.15,.03-.02,.05-.02,.08-.02,.07,0,.12,.05,.12,.14v1.21c0,.1-.08,.24-.2,.29l-.44,.17c-.14,.05-.22,.37-.22,.49v1.58c0,.2,.12,.31,.22,.31l.44-.17s.05-.02,.08-.02c.07,0,.12,.05,.12,.14v1.21c0,.1-.08,.24-.2,.29,0,0-.36,.14-.48,.19s-.19,.25-.19,.39v2.41c0,.1-.1,.19-.29,.19-.12,0-.22-.08-.22-.19v-2.12c0-.1-.08-.31-.22-.31-.02,0-.05,.02-.07,.02l-1.04,.42c-.08,.03-.17,.15-.17,.37v2.36c0,.1-.12,.19-.29,.19-.12,0-.22-.08-.22-.19v-2.09c0-.08-.08-.27-.2-.27-.02,0-.03,0-.05,.02-.15,.05-.39,.15-.39,.15-.02,0-.05,.02-.07,.02-.08,0-.14-.05-.14-.15v-1.21c0-.1,.08-.24,.2-.27,0,0,.36-.15,.46-.19,.1-.05,.19-.2,.19-.39v-1.68c0-.14-.1-.31-.22-.31-.02,0-.03,.02-.05,.02-.05,.03-.37,.19-.44,.19-.08,0-.14-.05-.14-.15Zm1.36,1.95c.02,.05,.1,.08,.2,.08,.39,0,1.19-.34,1.29-.68,.03-.15,.07-.63,.07-1.09s-.03-.88-.07-.97c-.03-.07-.14-.1-.25-.1-.42,0-1.21,.36-1.24,.65-.03,.14-.05,.73-.05,1.26,0,.41,.02,.78,.05,.85Z"/>
        <g id="Artwork_2-2" data-name="Artwork 2">
          <g class="cls-24">
            <g class="cls-30">
              <path class="cls-12" d="M325.41,247.33c0,.99,.82,1.58,1.84,1.58,1.68,0,3.76-1.56,3.76-3.18,0-.95-.76-1.58-1.85-1.58-2.07,0-3.74,1.55-3.74,3.18"/>
              <circle class="cls-9" cx="332.98" cy="246.54" r="2.17"/>
            </g>
          </g>
        </g>
        <g id="Artwork_1-2" data-name="Artwork 1">
          <g class="cls-29">
            <g class="cls-27">
              <path class="cls-12" d="M363.63,237.97c0,.99,.81,1.58,1.83,1.58,1.68,0,3.75-1.56,3.75-3.18,0-.95-.76-1.58-1.85-1.58-2.07,0-3.73,1.55-3.73,3.18"/>
              <path class="cls-12" d="M367.35,234.18c1.69-2.27,4.24-2.27,5.93,0l.44-.3c-2.13-3.39-4.68-3.39-6.82,0l.44,.3Z"/>
            </g>
          </g>
        </g>
        <line class="cls-7" x1="362" y1="237.48" x2="370.99" y2="237.48" vector-effect="none"/>
        <line class="cls-7" x1="280" y1="237.48" x2="288.99" y2="237.48" vector-effect="none"/>
      </g>
      <g>
        <path d="M391.38,201.12c1.09,0,1.85,.63,1.85,1.58,0,1.61-2.07,3.18-3.76,3.18-1.02,0-1.84-.6-1.84-1.58,0-1.63,1.67-3.18,3.74-3.18Z"/>
        <path d="M400.24,201.12c1.09,0,1.85,.63,1.85,1.58,0,1.61-2.07,3.18-3.76,3.18-1.02,0-1.84-.6-1.84-1.58,0-1.63,1.67-3.18,3.74-3.18Z"/>
        <path d="M452.46,210.25c1.09,0,1.85,.63,1.85,1.58,0,1.61-2.07,3.18-3.76,3.18-1.02,0-1.84-.6-1.84-1.58,0-1.63,1.67-3.18,3.74-3.18Z"/>
        <g>
          <line class="cls-4" x1="383.49" y1="225.61" x2="495.69" y2="225.61"/>
          <line class="cls-4" x1="383.49" y1="221.36" x2="495.69" y2="221.36"/>
          <line class="cls-4" x1="383.49" y1="217.11" x2="495.69" y2="217.11"/>
          <line class="cls-4" x1="383.49" y1="212.86" x2="495.69" y2="212.86"/>
          <line class="cls-4" x1="383.49" y1="208.61" x2="495.69" y2="208.61"/>
        </g>
        <path d="M465.88,205.72v-1.21c0-.1,.08-.24,.2-.27,0,0,.34-.14,.44-.19s.2-.22,.2-.46v-2.29c0-.1,.1-.19,.27-.19,.12,0,.24,.08,.24,.19v2.04c0,.14,.05,.34,.2,.34,.29-.07,.87-.31,1.07-.42,.15-.1,.2-.32,.22-.49v-2.21c0-.1,.1-.19,.27-.19,.14,0,.24,.08,.24,.19v2.07c0,.14,.12,.22,.24,.22,.08-.02,.43-.15,.43-.15,.03-.02,.05-.02,.08-.02,.07,0,.12,.05,.12,.14v1.21c0,.1-.08,.24-.2,.29l-.44,.17c-.14,.05-.22,.37-.22,.49v1.58c0,.2,.12,.31,.22,.31l.44-.17s.05-.02,.08-.02c.07,0,.12,.05,.12,.14v1.21c0,.1-.08,.24-.2,.29,0,0-.36,.14-.48,.19s-.19,.25-.19,.39v2.41c0,.1-.1,.19-.29,.19-.12,0-.22-.08-.22-.19v-2.12c0-.1-.08-.31-.22-.31-.02,0-.05,.02-.07,.02l-1.04,.42c-.08,.03-.17,.15-.17,.37v2.36c0,.1-.12,.19-.29,.19-.12,0-.22-.08-.22-.19v-2.09c0-.08-.08-.27-.2-.27-.02,0-.03,0-.05,.02-.15,.05-.39,.15-.39,.15-.02,0-.05,.02-.07,.02-.08,0-.14-.05-.14-.15v-1.21c0-.1,.08-.24,.2-.27,0,0,.36-.15,.46-.19,.1-.05,.19-.2,.19-.39v-1.68c0-.14-.1-.31-.22-.31-.02,0-.03,.02-.05,.02-.05,.03-.37,.19-.44,.19-.08,0-.14-.05-.14-.15Zm1.36,1.95c.02,.05,.1,.08,.2,.08,.39,0,1.19-.34,1.29-.68,.03-.15,.07-.63,.07-1.09s-.03-.88-.07-.97c-.03-.07-.14-.1-.25-.1-.42,0-1.21,.36-1.24,.65-.03,.14-.05,.73-.05,1.26,0,.41,.02,.78,.05,.85Z"/>
        <g id="Artwork_1-3" data-name="Artwork 1">
          <g class="cls-28">
            <g class="cls-31">
              <path class="cls-12" d="M405.6,204.16c0,.99,.81,1.58,1.83,1.58,1.68,0,3.75-1.56,3.75-3.18,0-.95-.76-1.58-1.85-1.58-2.07,0-3.73,1.55-3.73,3.18"/>
              <path class="cls-12" d="M409.31,200.37c1.69-2.27,4.24-2.27,5.93,0l.44-.3c-2.13-3.39-4.68-3.39-6.82,0l.44,.3Z"/>
            </g>
          </g>
        </g>
        <g id="Artwork_2-3" data-name="Artwork 2">
          <g class="cls-55">
            <g class="cls-60">
              <path class="cls-12" d="M471.51,207.14c0,.99,.82,1.58,1.84,1.58,1.68,0,3.76-1.56,3.76-3.18,0-.95-.76-1.58-1.85-1.58-2.07,0-3.74,1.55-3.74,3.18"/>
              <circle class="cls-9" cx="479.08" cy="206.34" r="2.17"/>
            </g>
          </g>
        </g>
        <line class="cls-7" x1="385.94" y1="203.5" x2="394.93" y2="203.5" vector-effect="none"/>
        <line class="cls-7" x1="395.66" y1="203.5" x2="403.52" y2="203.5" vector-effect="none"/>
        <line class="cls-7" x1="404.32" y1="203.5" x2="412.19" y2="203.5" vector-effect="none"/>
      </g>
      <g>
        <path d="M67.68,430.15c1.09,0,1.85,.63,1.85,1.58,0,1.61-2.07,3.18-3.76,3.18-1.02,0-1.84-.6-1.84-1.58,0-1.63,1.67-3.18,3.74-3.18Z"/>
        <g>
          <path d="M81.8,438.52c1.09,0,1.85,.63,1.85,1.58,0,1.61-2.07,3.18-3.76,3.18-1.02,0-1.84-.6-1.84-1.58,0-1.63,1.67-3.18,3.74-3.18Z"/>
          <path d="M90.31,438.52c1.09,0,1.85,.63,1.85,1.58,0,1.61-2.07,3.18-3.76,3.18-1.02,0-1.84-.6-1.84-1.58,0-1.63,1.67-3.18,3.74-3.18Z"/>
          <path d="M98.82,438.52c1.09,0,1.85,.63,1.85,1.58,0,1.61-2.07,3.18-3.76,3.18-1.02,0-1.84-.6-1.84-1.58,0-1.63,1.67-3.18,3.74-3.18Z"/>
          <path d="M106.03,438.52c1.09,0,1.85,.63,1.85,1.58,0,1.61-2.07,3.18-3.76,3.18-1.02,0-1.84-.6-1.84-1.58,0-1.63,1.67-3.18,3.74-3.18Z"/>
          <path d="M113.23,438.52c1.09,0,1.85,.63,1.85,1.58,0,1.61-2.07,3.18-3.76,3.18-1.02,0-1.84-.6-1.84-1.58,0-1.63,1.67-3.18,3.74-3.18Z"/>
          <path d="M120.43,438.52c1.09,0,1.85,.63,1.85,1.58,0,1.61-2.07,3.18-3.76,3.18-1.02,0-1.84-.6-1.84-1.58,0-1.63,1.67-3.18,3.74-3.18Z"/>
          <path d="M127.64,438.52c1.09,0,1.85,.63,1.85,1.58,0,1.61-2.07,3.18-3.76,3.18-1.02,0-1.84-.6-1.84-1.58,0-1.63,1.67-3.18,3.74-3.18Z"/>
          <path d="M136.15,438.52c1.09,0,1.85,.63,1.85,1.58,0,1.61-2.07,3.18-3.76,3.18-1.02,0-1.84-.6-1.84-1.58,0-1.63,1.67-3.18,3.74-3.18Z"/>
          <rect x="78.07" y="455.78" width="24.73" height="2.12"/>
          <polygon points="78.07 457.9 78.07 455.78 102.8 452.59 102.8 454.71 78.07 457.9"/>
          <polygon points="78.07 457.9 78.07 455.78 102.8 449.4 102.8 451.53 78.07 457.9"/>
          <rect x="109.49" y="455.78" width="23.43" height="2.12"/>
          <polygon points="109.49 454.71 109.49 452.59 132.92 455.78 132.92 457.9 109.49 454.71"/>
          <polygon points="109.49 451.53 109.49 449.4 132.92 455.78 132.92 457.9 109.49 451.53"/>
        </g>
        <g>
          <line class="cls-4" x1="55.22" y1="453.88" x2="139.94" y2="453.88"/>
          <line class="cls-4" x1="55.22" y1="449.63" x2="139.94" y2="449.63"/>
          <line class="cls-4" x1="55.22" y1="445.38" x2="139.94" y2="445.38"/>
          <line class="cls-4" x1="55.22" y1="441.13" x2="139.94" y2="441.13"/>
          <line class="cls-4" x1="55.22" y1="436.88" x2="139.94" y2="436.88"/>
        </g>
        <line class="cls-7" x1="62.24" y1="432.56" x2="71.23" y2="432.56" vector-effect="none"/>
      </g>
      <g>
        <g>
          <line class="cls-5" x1="521.25" y1="513.18" x2="609.12" y2="513.18" vector-effect="none"/>
          <line class="cls-5" x1="521.25" y1="508.93" x2="609.12" y2="508.93" vector-effect="none"/>
          <line class="cls-5" x1="521.25" y1="504.68" x2="609.12" y2="504.68" vector-effect="none"/>
          <line class="cls-5" x1="521.25" y1="500.43" x2="609.12" y2="500.43" vector-effect="none"/>
          <line class="cls-5" x1="521.25" y1="496.18" x2="609.12" y2="496.18" vector-effect="none"/>
        </g>
        <path class="cls-12" d="M570.96,503.29v2.13l5.1-1.05v-2.13l-5.1,1.05m0-1l5.1-1.05v-2.13l-5.1,1.05v2.12m5.1-4.23v-2.12l-5.1,1.07v2.12l5.1-1.07" vector-effect="none"/>
        <path class="cls-12" d="M571.27,491.85c0,.99,.82,1.58,1.84,1.58,1.68,0,3.76-1.56,3.76-3.18,0-.95-.76-1.58-1.85-1.58-2.07,0-3.74,1.55-3.74,3.18" vector-effect="none"/>
        <line class="cls-8" x1="574.06" y1="491.04" x2="602.26" y2="491.04"/>
        <g id="Artwork_1-4" data-name="Artwork 1">
          <g class="cls-54">
            <g class="cls-53">
              <path class="cls-12" d="M528.95,500.91c0,.99,.81,1.58,1.83,1.58,1.68,0,3.75-1.56,3.75-3.18,0-.95-.76-1.58-1.85-1.58-2.07,0-3.73,1.55-3.73,3.18"/>
              <path class="cls-12" d="M532.66,497.12c1.69-2.27,4.24-2.27,5.93,0l.44-.3c-2.13-3.39-4.68-3.39-6.82,0l.44,.3Z"/>
            </g>
          </g>
        </g>
        <line class="cls-7" x1="569.58" y1="491.48" x2="577.45" y2="491.48" vector-effect="none"/>
      </g>
      <g>
        <g>
          <line class="cls-5" x1="622.41" y1="513.18" x2="705.38" y2="513.18" vector-effect="none"/>
          <line class="cls-5" x1="622.41" y1="508.93" x2="705.38" y2="508.93" vector-effect="none"/>
          <line class="cls-5" x1="622.41" y1="504.68" x2="705.38" y2="504.68" vector-effect="none"/>
          <line class="cls-5" x1="622.41" y1="500.43" x2="705.38" y2="500.43" vector-effect="none"/>
          <line class="cls-5" x1="622.41" y1="496.18" x2="705.38" y2="496.18" vector-effect="none"/>
        </g>
        <path class="cls-12" d="M653.18,493.61c.07,0,.39-.15,.44-.19,.02,0,.03-.02,.05-.02,.12,0,.22,.17,.22,.31v1.68c0,.19-.09,.34-.19,.39-.1,.03-.46,.19-.46,.19-.12,.03-.2,.17-.2,.27v1.21c0,.1,.05,.15,.14,.15,.02,0,.05-.02,.07-.02,0,0,.24-.1,.39-.15,.02-.02,.03-.02,.05-.02,.12,0,.2,.19,.2,.27v2.09c0,.1,.1,.19,.22,.19,.17,0,.29-.09,.29-.19v-2.36c0-.22,.09-.34,.17-.37l1.04-.43s.05-.02,.07-.02c.14,0,.22,.2,.22,.31v2.12c0,.1,.1,.19,.22,.19,.19,0,.29-.09,.29-.19v-2.41c0-.14,.07-.34,.19-.39,.12-.05,.48-.19,.48-.19,.12-.05,.2-.19,.2-.29v-1.21c0-.09-.05-.14-.12-.14-.03,0-.05,0-.09,.02l-.44,.17c-.1,0-.22-.1-.22-.31v-1.58c0-.12,.09-.44,.22-.49l.44-.17c.12-.05,.2-.19,.2-.29v-1.21c0-.08-.05-.14-.12-.14-.03,0-.05,0-.09,.02,0,0-.34,.14-.42,.15-.12,0-.24-.09-.24-.22v-2.07c0-.1-.1-.19-.24-.19-.17,0-.27,.09-.27,.19v2.21c-.02,.17-.07,.39-.22,.49-.2,.12-.78,.36-1.07,.42-.15,0-.2-.2-.2-.34v-2.04c0-.1-.12-.19-.24-.19-.17,0-.27,.09-.27,.19v2.29c0,.24-.1,.41-.2,.46-.1,.05-.44,.19-.44,.19-.12,.03-.2,.17-.2,.27v1.21c0,.1,.05,.15,.14,.15m1.17,.95c0-.53,.02-1.12,.05-1.26,.03-.29,.82-.65,1.24-.65,.12,0,.22,.03,.25,.1,.03,.09,.07,.51,.07,.97s-.03,.94-.07,1.09c-.1,.34-.9,.68-1.29,.68-.1,0-.19-.03-.2-.09-.03-.07-.05-.44-.05-.85" vector-effect="none"/>
        <path class="cls-12" d="M658.36,494.85c0,.99,.82,1.58,1.84,1.58,1.68,0,3.76-1.56,3.76-3.18,0-.95-.76-1.58-1.85-1.58-2.07,0-3.74,1.55-3.74,3.18" vector-effect="none"/>
        <path class="cls-12" d="M658.61,504.14v2.13l5.1-1.05v-2.13l-5.1,1.05m0-1l5.1-1.05v-2.13l-5.1,1.05v2.12m5.1-4.23v-2.12l-5.1,1.07v2.12l5.1-1.07" vector-effect="none"/>
        <line class="cls-8" x1="661.45" y1="494.08" x2="689.65" y2="494.08"/>
        <g id="Artwork_2-4" data-name="Artwork 2">
          <g class="cls-52">
            <g class="cls-56">
              <path class="cls-12" d="M625.81,501.18c0,.99,.82,1.58,1.84,1.58,1.68,0,3.76-1.56,3.76-3.18,0-.95-.76-1.58-1.85-1.58-2.07,0-3.74,1.55-3.74,3.18"/>
              <circle class="cls-9" cx="633.39" cy="500.38" r="2.17"/>
            </g>
          </g>
        </g>
      </g>
      <g>
        <g>
          <line class="cls-5" x1="526.21" y1="549.77" x2="603.07" y2="549.77" vector-effect="none"/>
          <line class="cls-5" x1="526.21" y1="545.52" x2="603.07" y2="545.52" vector-effect="none"/>
          <line class="cls-5" x1="526.21" y1="541.27" x2="603.07" y2="541.27" vector-effect="none"/>
          <line class="cls-5" x1="526.21" y1="537.02" x2="603.07" y2="537.02" vector-effect="none"/>
          <line class="cls-5" x1="526.21" y1="532.77" x2="603.07" y2="532.77" vector-effect="none"/>
        </g>
        <path class="cls-12" d="M578.18,530.21c.07,0,.39-.15,.44-.19,.02,0,.03-.02,.05-.02,.12,0,.22,.17,.22,.31v1.68c0,.19-.09,.34-.19,.39-.1,.03-.46,.19-.46,.19-.12,.03-.2,.17-.2,.27v1.21c0,.1,.05,.15,.14,.15,.02,0,.05-.02,.07-.02,0,0,.24-.1,.39-.15,.02-.02,.03-.02,.05-.02,.12,0,.2,.19,.2,.27v2.09c0,.1,.1,.19,.22,.19,.17,0,.29-.09,.29-.19v-2.36c0-.22,.09-.34,.17-.37l1.04-.43s.05-.02,.07-.02c.14,0,.22,.2,.22,.31v2.12c0,.1,.1,.19,.22,.19,.19,0,.29-.09,.29-.19v-2.41c0-.14,.07-.34,.19-.39,.12-.05,.48-.19,.48-.19,.12-.05,.2-.19,.2-.29v-1.21c0-.09-.05-.14-.12-.14-.03,0-.05,0-.09,.02l-.44,.17c-.1,0-.22-.1-.22-.31v-1.58c0-.12,.09-.44,.22-.49l.44-.17c.12-.05,.2-.19,.2-.29v-1.21c0-.08-.05-.14-.12-.14-.03,0-.05,0-.09,.02,0,0-.34,.14-.42,.15-.12,0-.24-.09-.24-.22v-2.07c0-.1-.1-.19-.24-.19-.17,0-.27,.09-.27,.19v2.21c-.02,.17-.07,.39-.22,.49-.2,.12-.78,.36-1.07,.42-.15,0-.2-.2-.2-.34v-2.04c0-.1-.12-.19-.24-.19-.17,0-.27,.09-.27,.19v2.29c0,.24-.1,.41-.2,.46-.1,.05-.44,.19-.44,.19-.12,.03-.2,.17-.2,.27v1.21c0,.1,.05,.15,.14,.15m1.17,.95c0-.53,.02-1.12,.05-1.26,.03-.29,.82-.65,1.24-.65,.12,0,.22,.03,.25,.1,.03,.09,.07,.51,.07,.97s-.03,.94-.07,1.09c-.1,.34-.9,.68-1.29,.68-.1,0-.19-.03-.2-.09-.03-.07-.05-.44-.05-.85" vector-effect="none"/>
        <path class="cls-12" d="M543.35,538.04v2.13l5.1-1.05v-2.13l-5.1,1.05m0-1l5.1-1.05v-2.13l-5.1,1.05v2.12m5.1-4.23v-2.12l-5.1,1.07v2.12l5.1-1.07" vector-effect="none"/>
        <path class="cls-12" d="M543.35,527.45c0,.99,.82,1.58,1.84,1.58,1.68,0,3.76-1.56,3.76-3.18,0-.95-.76-1.58-1.85-1.58-2.07,0-3.74,1.55-3.74,3.18" vector-effect="none"/>
        <line class="cls-8" x1="546.3" y1="526.63" x2="571.26" y2="526.63"/>
        <g id="Artwork_1-5" data-name="Artwork 1">
          <g class="cls-58">
            <g class="cls-57">
              <path class="cls-12" d="M583.12,530.67c0,.99,.81,1.58,1.83,1.58,1.68,0,3.75-1.56,3.75-3.18,0-.95-.76-1.58-1.85-1.58-2.07,0-3.73,1.55-3.73,3.18"/>
              <path class="cls-12" d="M586.83,526.88c1.69-2.27,4.24-2.27,5.93,0l.44-.3c-2.13-3.39-4.68-3.39-6.82,0l.44,.3Z"/>
            </g>
          </g>
        </g>
        <line class="cls-7" x1="542.25" y1="526.64" x2="550.11" y2="526.64" vector-effect="none"/>
      </g>
      <g>
        <g>
          <line class="cls-5" x1="623.35" y1="552.24" x2="685.37" y2="552.24" vector-effect="none"/>
          <line class="cls-5" x1="623.35" y1="547.99" x2="685.37" y2="547.99" vector-effect="none"/>
          <line class="cls-5" x1="623.35" y1="543.74" x2="685.37" y2="543.74" vector-effect="none"/>
          <line class="cls-5" x1="623.35" y1="539.49" x2="685.37" y2="539.49" vector-effect="none"/>
          <line class="cls-5" x1="623.35" y1="535.24" x2="685.37" y2="535.24" vector-effect="none"/>
        </g>
        <path class="cls-12" d="M667.44,532.35c.07,0,.39-.15,.44-.19,.02,0,.03-.02,.05-.02,.12,0,.22,.17,.22,.31v1.68c0,.19-.09,.34-.19,.39-.1,.03-.46,.19-.46,.19-.12,.03-.2,.17-.2,.27v1.21c0,.1,.05,.15,.14,.15,.02,0,.05-.02,.07-.02,0,0,.24-.1,.39-.15,.02-.02,.03-.02,.05-.02,.12,0,.2,.19,.2,.27v2.09c0,.1,.1,.19,.22,.19,.17,0,.29-.09,.29-.19v-2.36c0-.22,.09-.34,.17-.37l1.04-.43s.05-.02,.07-.02c.14,0,.22,.2,.22,.31v2.12c0,.1,.1,.19,.22,.19,.19,0,.29-.09,.29-.19v-2.41c0-.14,.07-.34,.19-.39,.12-.05,.48-.19,.48-.19,.12-.05,.2-.19,.2-.29v-1.21c0-.09-.05-.14-.12-.14-.03,0-.05,0-.09,.02l-.44,.17c-.1,0-.22-.1-.22-.31v-1.58c0-.12,.09-.44,.22-.49l.44-.17c.12-.05,.2-.19,.2-.29v-1.21c0-.08-.05-.14-.12-.14-.03,0-.05,0-.09,.02,0,0-.34,.14-.42,.15-.12,0-.24-.09-.24-.22v-2.07c0-.1-.1-.19-.24-.19-.17,0-.27,.09-.27,.19v2.21c-.02,.17-.07,.39-.22,.49-.2,.12-.78,.36-1.07,.42-.15,0-.2-.2-.2-.34v-2.04c0-.1-.12-.19-.24-.19-.17,0-.27,.09-.27,.19v2.29c0,.24-.1,.41-.2,.46-.1,.05-.44,.19-.44,.19-.12,.03-.2,.17-.2,.27v1.21c0,.1,.05,.15,.14,.15m1.17,.95c0-.53,.02-1.12,.05-1.26,.03-.29,.82-.65,1.24-.65,.12,0,.22,.03,.25,.1,.03,.09,.07,.51,.07,.97s-.03,.94-.07,1.09c-.1,.34-.9,.68-1.29,.68-.1,0-.19-.03-.2-.09-.03-.07-.05-.44-.05-.85" vector-effect="none"/>
        <path class="cls-12" d="M640.09,539.92c0,.99,.82,1.58,1.84,1.58,1.68,0,3.76-1.56,3.76-3.18,0-.95-.76-1.58-1.85-1.58-2.07,0-3.74,1.55-3.74,3.18" vector-effect="none"/>
        <path class="cls-12" d="M640.34,549.67v2.13l5.1-1.05v-2.13l-5.1,1.05m0-1l5.1-1.05v-2.13l-5.1,1.05v2.12m5.1-4.23v-2.12l-5.1,1.07v2.12l5.1-1.07" vector-effect="none"/>
        <line class="cls-8" x1="643.36" y1="539.14" x2="663.76" y2="539.14"/>
        <g id="Artwork_2-5" data-name="Artwork 2">
          <g class="cls-61">
            <g class="cls-59">
              <path class="cls-12" d="M627.82,530.13c0,.99,.82,1.58,1.84,1.58,1.68,0,3.76-1.56,3.76-3.18,0-.95-.76-1.58-1.85-1.58-2.07,0-3.74,1.55-3.74,3.18"/>
              <circle class="cls-9" cx="635.4" cy="529.34" r="2.17"/>
            </g>
          </g>
        </g>
        <g id="Artwork_2-6" data-name="Artwork 2">
          <g class="cls-32">
            <g class="cls-33">
              <path class="cls-12" d="M673.03,533.55c0,.99,.82,1.58,1.84,1.58,1.68,0,3.76-1.56,3.76-3.18,0-.95-.76-1.58-1.85-1.58-2.07,0-3.74,1.55-3.74,3.18"/>
              <circle class="cls-9" cx="680.6" cy="532.75" r="2.17"/>
            </g>
          </g>
        </g>
        <line class="cls-7" x1="625.81" y1="529.24" x2="639.63" y2="529.24" vector-effect="none"/>
      </g>
      <g>
        <g>
          <line class="cls-5" x1="433.74" y1="359.77" x2="506.84" y2="359.77" vector-effect="none"/>
          <line class="cls-5" x1="433.74" y1="355.52" x2="506.84" y2="355.52" vector-effect="none"/>
          <line class="cls-5" x1="433.74" y1="351.27" x2="506.84" y2="351.27" vector-effect="none"/>
          <line class="cls-5" x1="433.74" y1="347.02" x2="506.84" y2="347.02" vector-effect="none"/>
          <line class="cls-5" x1="433.74" y1="342.77" x2="506.84" y2="342.77" vector-effect="none"/>
        </g>
        <g id="Artwork_2-7" data-name="Artwork 2">
          <g class="cls-36">
            <g class="cls-35">
              <path class="cls-12" d="M479.49,341.47c0,.99,.82,1.58,1.84,1.58,1.68,0,3.76-1.56,3.76-3.18,0-.95-.76-1.58-1.85-1.58-2.07,0-3.74,1.55-3.74,3.18"/>
              <circle class="cls-9" cx="487.07" cy="340.67" r="2.17"/>
            </g>
          </g>
        </g>
        <g id="Artwork_2-8" data-name="Artwork 2">
          <g class="cls-34">
            <g class="cls-37">
              <path class="cls-12" d="M479.49,347.99c0,.99,.82,1.58,1.84,1.58,1.68,0,3.76-1.56,3.76-3.18,0-.95-.76-1.58-1.85-1.58-2.07,0-3.74,1.55-3.74,3.18"/>
              <circle class="cls-9" cx="487.07" cy="347.19" r="2.17"/>
            </g>
          </g>
        </g>
        <g id="Artwork_2-9" data-name="Artwork 2">
          <g class="cls-40">
            <g class="cls-38">
              <path class="cls-12" d="M448.29,340.86c0,.99,.82,1.58,1.84,1.58,1.68,0,3.76-1.56,3.76-3.18,0-.95-.76-1.58-1.85-1.58-2.07,0-3.74,1.55-3.74,3.18"/>
              <circle class="cls-9" cx="455.87" cy="340.06" r="2.17"/>
            </g>
          </g>
        </g>
        <path class="cls-12" d="M443.23,339.64c.07,0,.39-.15,.44-.19,.02,0,.03-.02,.05-.02,.12,0,.22,.17,.22,.31v1.68c0,.19-.09,.34-.19,.39-.1,.03-.46,.19-.46,.19-.12,.03-.2,.17-.2,.27v1.21c0,.1,.05,.15,.14,.15,.02,0,.05-.02,.07-.02,0,0,.24-.1,.39-.15,.02-.02,.03-.02,.05-.02,.12,0,.2,.19,.2,.27v2.09c0,.1,.1,.19,.22,.19,.17,0,.29-.09,.29-.19v-2.36c0-.22,.09-.34,.17-.37l1.04-.43s.05-.02,.07-.02c.14,0,.22,.2,.22,.31v2.12c0,.1,.1,.19,.22,.19,.19,0,.29-.09,.29-.19v-2.41c0-.14,.07-.34,.19-.39,.12-.05,.48-.19,.48-.19,.12-.05,.2-.19,.2-.29v-1.21c0-.09-.05-.14-.12-.14-.03,0-.05,0-.09,.02l-.44,.17c-.1,0-.22-.1-.22-.31v-1.58c0-.12,.09-.44,.22-.49l.44-.17c.12-.05,.2-.19,.2-.29v-1.21c0-.08-.05-.14-.12-.14-.03,0-.05,0-.09,.02,0,0-.34,.14-.42,.15-.12,0-.24-.09-.24-.22v-2.07c0-.1-.1-.19-.24-.19-.17,0-.27,.09-.27,.19v2.21c-.02,.17-.07,.39-.22,.49-.2,.12-.78,.36-1.07,.42-.15,0-.2-.2-.2-.34v-2.04c0-.1-.12-.19-.24-.19-.17,0-.27,.09-.27,.19v2.29c0,.24-.1,.41-.2,.46-.1,.05-.44,.19-.44,.19-.12,.03-.2,.17-.2,.27v1.21c0,.1,.05,.15,.14,.15m1.17,.95c0-.53,.02-1.12,.05-1.26,.03-.29,.82-.65,1.24-.65,.12,0,.22,.03,.25,.1,.03,.09,.07,.51,.07,.97s-.03,.94-.07,1.09c-.1,.34-.9,.68-1.29,.68-.1,0-.19-.03-.2-.09-.03-.07-.05-.44-.05-.85" vector-effect="none"/>
      </g>
      <g>
        <g>
          <line class="cls-5" x1="532.38" y1="368.1" x2="589.53" y2="368.1" vector-effect="none"/>
          <line class="cls-5" x1="532.38" y1="363.85" x2="589.53" y2="363.85" vector-effect="none"/>
          <line class="cls-5" x1="532.38" y1="359.6" x2="589.53" y2="359.6" vector-effect="none"/>
          <line class="cls-5" x1="532.38" y1="355.35" x2="589.53" y2="355.35" vector-effect="none"/>
          <line class="cls-5" x1="532.38" y1="351.1" x2="589.53" y2="351.1" vector-effect="none"/>
        </g>
        <path class="cls-12" d="M544.71,348.53c.07,0,.39-.15,.44-.19,.02,0,.03-.02,.05-.02,.12,0,.22,.17,.22,.31v1.68c0,.19-.09,.34-.19,.39-.1,.03-.46,.19-.46,.19-.12,.03-.2,.17-.2,.27v1.21c0,.1,.05,.15,.14,.15,.02,0,.05-.02,.07-.02,0,0,.24-.1,.39-.15,.02-.02,.03-.02,.05-.02,.12,0,.2,.19,.2,.27v2.09c0,.1,.1,.19,.22,.19,.17,0,.29-.09,.29-.19v-2.36c0-.22,.09-.34,.17-.37l1.04-.43s.05-.02,.07-.02c.14,0,.22,.2,.22,.31v2.12c0,.1,.1,.19,.22,.19,.19,0,.29-.09,.29-.19v-2.41c0-.14,.07-.34,.19-.39,.12-.05,.48-.19,.48-.19,.12-.05,.2-.19,.2-.29v-1.21c0-.09-.05-.14-.12-.14-.03,0-.05,0-.09,.02l-.44,.17c-.1,0-.22-.1-.22-.31v-1.58c0-.12,.09-.44,.22-.49l.44-.17c.12-.05,.2-.19,.2-.29v-1.21c0-.08-.05-.14-.12-.14-.03,0-.05,0-.09,.02,0,0-.34,.14-.42,.15-.12,0-.24-.09-.24-.22v-2.07c0-.1-.1-.19-.24-.19-.17,0-.27,.09-.27,.19v2.21c-.02,.17-.07,.39-.22,.49-.2,.12-.78,.36-1.07,.42-.15,0-.2-.2-.2-.34v-2.04c0-.1-.12-.19-.24-.19-.17,0-.27,.09-.27,.19v2.29c0,.24-.1,.41-.2,.46-.1,.05-.44,.19-.44,.19-.12,.03-.2,.17-.2,.27v1.21c0,.1,.05,.15,.14,.15m1.17,.95c0-.53,.02-1.12,.05-1.26,.03-.29,.82-.65,1.24-.65,.12,0,.22,.03,.25,.1,.03,.09,.07,.51,.07,.97s-.03,.94-.07,1.09c-.1,.34-.9,.68-1.29,.68-.1,0-.19-.03-.2-.09-.03-.07-.05-.44-.05-.85" vector-effect="none"/>
        <g id="Artwork_2-10" data-name="Artwork 2">
          <g class="cls-39">
            <g class="cls-41">
              <path class="cls-12" d="M550.31,349.56c0,.99,.82,1.58,1.84,1.58,1.68,0,3.76-1.56,3.76-3.18,0-.95-.76-1.58-1.85-1.58-2.07,0-3.74,1.55-3.74,3.18"/>
              <circle class="cls-9" cx="557.89" cy="348.76" r="2.17"/>
            </g>
          </g>
        </g>
        <g>
          <g id="Artwork_1-6" data-name="Artwork 1">
            <g class="cls-49">
              <g class="cls-51">
                <path class="cls-12" d="M573.03,346.87c0,.92,.76,1.47,1.71,1.47,1.56,0,3.49-1.46,3.49-2.96,0-.89-.71-1.47-1.72-1.47-1.93,0-3.48,1.44-3.48,2.96"/>
                <path class="cls-12" d="M576.48,343.34c1.58-2.12,3.95-2.12,5.53,0l.41-.28c-1.99-3.16-4.36-3.16-6.35,0l.41,.28Z"/>
              </g>
            </g>
          </g>
          <g>
            <path class="cls-12" d="M572.85,356.75c0,.92,.76,1.47,1.71,1.47,1.56,0,3.49-1.46,3.49-2.96,0-.89-.71-1.47-1.72-1.47-1.93,0-3.48,1.44-3.48,2.96"/>
            <path class="cls-12" d="M575.29,358.68c1.58,2.12,3.95,2.12,5.53,0l.41,.28c-1.99,3.16-4.36,3.16-6.35,0l.41-.28Z"/>
          </g>
          <line class="cls-7" x1="570.87" y1="346" x2="579.86" y2="346" vector-effect="none"/>
        </g>
      </g>
      <g>
        <g>
          <line class="cls-5" x1="569.65" y1="404.57" x2="615.16" y2="404.57" vector-effect="none"/>
          <line class="cls-5" x1="569.65" y1="400.32" x2="615.16" y2="400.32" vector-effect="none"/>
          <line class="cls-5" x1="569.65" y1="396.07" x2="615.16" y2="396.07" vector-effect="none"/>
          <line class="cls-5" x1="569.65" y1="391.82" x2="615.16" y2="391.82" vector-effect="none"/>
          <line class="cls-5" x1="569.65" y1="387.57" x2="615.16" y2="387.57" vector-effect="none"/>
        </g>
        <path class="cls-12" d="M595.48,385.06c.07,0,.39-.15,.44-.19,.02,0,.03-.02,.05-.02,.12,0,.22,.17,.22,.31v1.68c0,.19-.09,.34-.19,.39-.1,.03-.46,.19-.46,.19-.12,.03-.2,.17-.2,.27v1.21c0,.1,.05,.15,.14,.15,.02,0,.05-.02,.07-.02,0,0,.24-.1,.39-.15,.02-.02,.03-.02,.05-.02,.12,0,.2,.19,.2,.27v2.09c0,.1,.1,.19,.22,.19,.17,0,.29-.09,.29-.19v-2.36c0-.22,.09-.34,.17-.37l1.04-.43s.05-.02,.07-.02c.14,0,.22,.2,.22,.31v2.12c0,.1,.1,.19,.22,.19,.19,0,.29-.09,.29-.19v-2.41c0-.14,.07-.34,.19-.39,.12-.05,.48-.19,.48-.19,.12-.05,.2-.19,.2-.29v-1.21c0-.09-.05-.14-.12-.14-.03,0-.05,0-.09,.02l-.44,.17c-.1,0-.22-.1-.22-.31v-1.58c0-.12,.09-.44,.22-.49l.44-.17c.12-.05,.2-.19,.2-.29v-1.21c0-.08-.05-.14-.12-.14-.03,0-.05,0-.09,.02,0,0-.34,.14-.42,.15-.12,0-.24-.09-.24-.22v-2.07c0-.1-.1-.19-.24-.19-.17,0-.27,.09-.27,.19v2.21c-.02,.17-.07,.39-.22,.49-.2,.12-.78,.36-1.07,.42-.15,0-.2-.2-.2-.34v-2.04c0-.1-.12-.19-.24-.19-.17,0-.27,.09-.27,.19v2.29c0,.24-.1,.41-.2,.46-.1,.05-.44,.19-.44,.19-.12,.03-.2,.17-.2,.27v1.21c0,.1,.05,.15,.14,.15m1.17,.95c0-.53,.02-1.12,.05-1.26,.03-.29,.82-.65,1.24-.65,.12,0,.22,.03,.25,.1,.03,.09,.07,.51,.07,.97s-.03,.94-.07,1.09c-.1,.34-.9,.68-1.29,.68-.1,0-.19-.03-.2-.09-.03-.07-.05-.44-.05-.85" vector-effect="none"/>
        <g id="Artwork_1-7" data-name="Artwork 1">
          <g class="cls-48">
            <g class="cls-47">
              <path class="cls-12" d="M586.02,383.11c0,.99,.81,1.58,1.83,1.58,1.68,0,3.75-1.56,3.75-3.18,0-.95-.76-1.58-1.85-1.58-2.07,0-3.73,1.55-3.73,3.18"/>
              <path class="cls-12" d="M589.73,379.32c1.69-2.27,4.24-2.27,5.93,0l.44-.3c-2.13-3.39-4.68-3.39-6.82,0l.44,.3Z"/>
            </g>
          </g>
        </g>
        <g id="Artwork_2-11" data-name="Artwork 2">
          <g class="cls-42">
            <g class="cls-43">
              <path class="cls-12" d="M600.09,386.14c0,.99,.82,1.58,1.84,1.58,1.68,0,3.76-1.56,3.76-3.18,0-.95-.76-1.58-1.85-1.58-2.07,0-3.74,1.55-3.74,3.18"/>
              <circle class="cls-9" cx="607.67" cy="385.34" r="2.17"/>
            </g>
          </g>
        </g>
        <g id="Artwork_2-12" data-name="Artwork 2">
          <g class="cls-44">
            <g class="cls-45">
              <path class="cls-12" d="M574.07,392.45c0,.99,.82,1.58,1.84,1.58,1.68,0,3.76-1.56,3.76-3.18,0-.95-.76-1.58-1.85-1.58-2.07,0-3.74,1.55-3.74,3.18"/>
              <circle class="cls-9" cx="581.65" cy="391.65" r="2.17"/>
            </g>
          </g>
        </g>
        <line class="cls-7" x1="584.07" y1="382.96" x2="593.06" y2="382.96" vector-effect="none"/>
      </g>
      <g>
        <g>
          <line class="cls-5" x1="464.39" y1="402.2" x2="509.92" y2="402.2" vector-effect="none"/>
          <line class="cls-5" x1="464.39" y1="397.95" x2="509.92" y2="397.95" vector-effect="none"/>
          <line class="cls-5" x1="464.39" y1="393.7" x2="509.92" y2="393.7" vector-effect="none"/>
          <line class="cls-5" x1="464.39" y1="389.45" x2="509.92" y2="389.45" vector-effect="none"/>
          <line class="cls-5" x1="464.39" y1="385.2" x2="509.92" y2="385.2" vector-effect="none"/>
        </g>
        <path class="cls-12" d="M477.53,390.25c0,.99,.82,1.58,1.84,1.58,1.68,0,3.76-1.56,3.76-3.18,0-.95-.76-1.58-1.85-1.58-2.07,0-3.74,1.55-3.74,3.18" vector-effect="none"/>
        <g id="Artwork_1-8" data-name="Artwork 1">
          <g class="cls-50">
            <g class="cls-46">
              <path class="cls-12" d="M490.38,380.32c0,.99,.81,1.58,1.83,1.58,1.68,0,3.75-1.56,3.75-3.18,0-.95-.76-1.58-1.85-1.58-2.07,0-3.73,1.55-3.73,3.18"/>
              <path class="cls-12" d="M494.1,376.53c1.69-2.27,4.24-2.27,5.93,0l.44-.3c-2.13-3.39-4.68-3.39-6.82,0l.44,.3Z"/>
            </g>
          </g>
        </g>
        <path class="cls-12" d="M470.87,382.49c.07,0,.39-.15,.44-.19,.02,0,.03-.02,.05-.02,.12,0,.22,.17,.22,.31v1.68c0,.19-.09,.34-.19,.39-.1,.03-.46,.19-.46,.19-.12,.03-.2,.17-.2,.27v1.21c0,.1,.05,.15,.14,.15,.02,0,.05-.02,.07-.02,0,0,.24-.1,.39-.15,.02-.02,.03-.02,.05-.02,.12,0,.2,.19,.2,.27v2.09c0,.1,.1,.19,.22,.19,.17,0,.29-.09,.29-.19v-2.36c0-.22,.09-.34,.17-.37l1.04-.43s.05-.02,.07-.02c.14,0,.22,.2,.22,.31v2.12c0,.1,.1,.19,.22,.19,.19,0,.29-.09,.29-.19v-2.41c0-.14,.07-.34,.19-.39,.12-.05,.48-.19,.48-.19,.12-.05,.2-.19,.2-.29v-1.21c0-.09-.05-.14-.12-.14-.03,0-.05,0-.09,.02l-.44,.17c-.1,0-.22-.1-.22-.31v-1.58c0-.12,.09-.44,.22-.49l.44-.17c.12-.05,.2-.19,.2-.29v-1.21c0-.08-.05-.14-.12-.14-.03,0-.05,0-.09,.02,0,0-.34,.14-.42,.15-.12,0-.24-.09-.24-.22v-2.07c0-.1-.1-.19-.24-.19-.17,0-.27,.09-.27,.19v2.21c-.02,.17-.07,.39-.22,.49-.2,.12-.78,.36-1.07,.42-.15,0-.2-.2-.2-.34v-2.04c0-.1-.12-.19-.24-.19-.17,0-.27,.09-.27,.19v2.29c0,.24-.1,.41-.2,.46-.1,.05-.44,.19-.44,.19-.12,.03-.2,.17-.2,.27v1.21c0,.1,.05,.15,.14,.15m1.17,.95c0-.53,.02-1.12,.05-1.26,.03-.29,.82-.65,1.24-.65,.12,0,.22,.03,.25,.1,.03,.09,.07,.51,.07,.97s-.03,.94-.07,1.09c-.1,.34-.9,.68-1.29,.68-.1,0-.19-.03-.2-.09-.03-.07-.05-.44-.05-.85" vector-effect="none"/>
        <path class="cls-12" d="M477.53,383.76c0,.99,.82,1.58,1.84,1.58,1.68,0,3.76-1.56,3.76-3.18,0-.95-.76-1.58-1.85-1.58-2.07,0-3.74,1.55-3.74,3.18" vector-effect="none"/>
        <line class="cls-7" x1="488.5" y1="379.89" x2="497.49" y2="379.89" vector-effect="none"/>
      </g>
      <g>
        <g>
          <line class="cls-4" x1="55.12" y1="392.33" x2="145.17" y2="392.33"/>
          <line class="cls-4" x1="55.12" y1="388.08" x2="145.17" y2="388.08"/>
          <line class="cls-4" x1="55.12" y1="383.83" x2="145.17" y2="383.83"/>
          <line class="cls-4" x1="55.12" y1="379.58" x2="145.17" y2="379.58"/>
          <line class="cls-4" x1="55.12" y1="375.33" x2="145.17" y2="375.33"/>
        </g>
        <path d="M68.1,377.08c1.09,0,1.85,.63,1.85,1.58,0,1.61-2.07,3.18-3.76,3.18-1.02,0-1.84-.6-1.84-1.58,0-1.63,1.67-3.18,3.74-3.18Z"/>
        <path d="M80.15,377.08c1.09,0,1.85,.63,1.85,1.58,0,1.61-2.07,3.18-3.76,3.18-1.02,0-1.84-.6-1.84-1.58,0-1.63,1.67-3.18,3.74-3.18Z"/>
        <path d="M88.66,377.08c1.09,0,1.85,.63,1.85,1.58,0,1.61-2.07,3.18-3.76,3.18-1.02,0-1.84-.6-1.84-1.58,0-1.63,1.67-3.18,3.74-3.18Z"/>
        <path d="M97.17,377.08c1.09,0,1.85,.63,1.85,1.58,0,1.61-2.07,3.18-3.76,3.18-1.02,0-1.84-.6-1.84-1.58,0-1.63,1.67-3.18,3.74-3.18Z"/>
        <path d="M104.37,377.08c1.09,0,1.85,.63,1.85,1.58,0,1.61-2.07,3.18-3.76,3.18-1.02,0-1.84-.6-1.84-1.58,0-1.63,1.67-3.18,3.74-3.18Z"/>
        <path d="M115.57,371.08c1.09,0,1.85,.63,1.85,1.58,0,1.61-2.07,3.18-3.76,3.18-1.02,0-1.84-.6-1.84-1.58,0-1.63,1.67-3.18,3.74-3.18Z"/>
        <path d="M124.08,371.08c1.09,0,1.85,.63,1.85,1.58,0,1.61-2.07,3.18-3.76,3.18-1.02,0-1.84-.6-1.84-1.58,0-1.63,1.67-3.18,3.74-3.18Z"/>
        <path d="M132.59,371.08c1.09,0,1.85,.63,1.85,1.58,0,1.61-2.07,3.18-3.76,3.18-1.02,0-1.84-.6-1.84-1.58,0-1.63,1.67-3.18,3.74-3.18Z"/>
        <path d="M144.64,371.08c1.09,0,1.85,.63,1.85,1.58,0,1.61-2.07,3.18-3.76,3.18-1.02,0-1.84-.6-1.84-1.58,0-1.63,1.67-3.18,3.74-3.18Z"/>
        <rect x="64.36" y="397.65" width="36.78" height="2.12"/>
        <polygon points="64.36 399.77 64.36 397.65 101.14 394.46 101.14 396.58 64.36 399.77"/>
        <polygon points="64.36 399.77 64.36 397.65 101.14 391.27 101.14 393.4 64.36 399.77"/>
        <rect x="111.83" y="397.65" width="29.58" height="2.12"/>
        <polygon points="111.83 396.58 111.83 394.46 141.41 397.65 141.41 399.77 111.83 396.58"/>
        <polygon points="111.83 393.4 111.83 391.27 141.41 397.65 141.41 399.77 111.83 393.4"/>
        <path d="M106.97,372.88v-1.21c0-.1,.08-.24,.2-.27,0,0,.34-.14,.44-.19s.2-.22,.2-.46v-2.29c0-.1,.1-.19,.27-.19,.12,0,.24,.08,.24,.19v2.04c0,.14,.05,.34,.2,.34,.29-.07,.87-.31,1.07-.42,.15-.1,.2-.32,.22-.49v-2.21c0-.1,.1-.19,.27-.19,.14,0,.24,.08,.24,.19v2.07c0,.14,.12,.22,.24,.22,.08-.02,.43-.15,.43-.15,.03-.02,.05-.02,.08-.02,.07,0,.12,.05,.12,.14v1.21c0,.1-.08,.24-.2,.29l-.44,.17c-.14,.05-.22,.37-.22,.49v1.58c0,.2,.12,.31,.22,.31l.44-.17s.05-.02,.08-.02c.07,0,.12,.05,.12,.14v1.21c0,.1-.08,.24-.2,.29,0,0-.36,.14-.48,.19s-.19,.25-.19,.39v2.41c0,.1-.1,.19-.29,.19-.12,0-.22-.08-.22-.19v-2.12c0-.1-.08-.31-.22-.31-.02,0-.05,.02-.07,.02l-1.04,.42c-.08,.03-.17,.15-.17,.37v2.36c0,.1-.12,.19-.29,.19-.12,0-.22-.08-.22-.19v-2.09c0-.08-.08-.27-.2-.27-.02,0-.03,0-.05,.02-.15,.05-.39,.15-.39,.15-.02,0-.05,.02-.07,.02-.08,0-.14-.05-.14-.15v-1.21c0-.1,.08-.24,.2-.27,0,0,.36-.15,.46-.19,.1-.05,.19-.2,.19-.39v-1.68c0-.14-.1-.31-.22-.31-.02,0-.03,.02-.05,.02-.05,.03-.37,.19-.44,.19-.08,0-.14-.05-.14-.15Zm1.36,1.95c.02,.05,.1,.08,.2,.08,.39,0,1.19-.34,1.29-.68,.03-.15,.07-.63,.07-1.09s-.03-.88-.07-.97c-.03-.07-.14-.1-.25-.1-.42,0-1.21,.36-1.24,.65-.03,.14-.05,.73-.05,1.26,0,.41,.02,.78,.05,.85Z"/>
      </g>
      <g>
        <polyline class="cls-2" points="528.33 221.36 671.24 221.36 671.24 465.74"/>
        <polygon class="cls-13" points="517.12 228.84 529.68 221.36 517.12 213.88 517.12 228.84"/>
        <polygon class="cls-13" points="663.76 476.95 671.24 464.39 678.72 476.95 663.76 476.95"/>
      </g>
      <g>
        <path class="cls-12" d="M235.26,438.71c0,.99,.82,1.58,1.84,1.58,1.68,0,3.76-1.56,3.76-3.18,0-.95-.76-1.58-1.85-1.58-2.07,0-3.74,1.55-3.74,3.18" vector-effect="none"/>
        <path class="cls-12" d="M244.18,438.71c0,.99,.82,1.58,1.84,1.58,1.68,0,3.76-1.56,3.76-3.18,0-.95-.76-1.58-1.85-1.58-2.07,0-3.74,1.55-3.74,3.18" vector-effect="none"/>
        <path class="cls-12" d="M166.62,445.21c0,.99,.82,1.58,1.84,1.58,1.68,0,3.76-1.56,3.76-3.18,0-.95-.76-1.58-1.85-1.58-2.07,0-3.74,1.55-3.74,3.18" vector-effect="none"/>
        <path class="cls-12" d="M178.65,445.21c0,.99,.82,1.58,1.84,1.58,1.68,0,3.76-1.56,3.76-3.18,0-.95-.76-1.58-1.85-1.58-2.07,0-3.74,1.55-3.74,3.18" vector-effect="none"/>
        <path class="cls-12" d="M190.68,445.21c0,.99,.82,1.58,1.84,1.58,1.68,0,3.76-1.56,3.76-3.18,0-.95-.76-1.58-1.85-1.58-2.07,0-3.74,1.55-3.74,3.18" vector-effect="none"/>
        <path class="cls-12" d="M199.18,445.09c0,.99,.82,1.58,1.84,1.58,1.68,0,3.76-1.56,3.76-3.18,0-.95-.76-1.58-1.85-1.58-2.07,0-3.74,1.55-3.74,3.18" vector-effect="none"/>
        <path class="cls-12" d="M207.68,445.21c0,.99,.82,1.58,1.84,1.58,1.68,0,3.76-1.56,3.76-3.18,0-.95-.76-1.58-1.85-1.58-2.07,0-3.74,1.55-3.74,3.18" vector-effect="none"/>
        <path class="cls-12" d="M216.08,437.6c.07,0,.39-.15,.44-.19,.02,0,.03-.02,.05-.02,.12,0,.22,.17,.22,.31v1.68c0,.19-.09,.34-.19,.39-.1,.03-.46,.19-.46,.19-.12,.03-.2,.17-.2,.27v1.21c0,.1,.05,.15,.14,.15,.02,0,.05-.02,.07-.02,0,0,.24-.1,.39-.15,.02-.02,.03-.02,.05-.02,.12,0,.2,.19,.2,.27v2.09c0,.1,.1,.19,.22,.19,.17,0,.29-.09,.29-.19v-2.36c0-.22,.09-.34,.17-.37l1.04-.43s.05-.02,.07-.02c.14,0,.22,.2,.22,.31v2.12c0,.1,.1,.19,.22,.19,.19,0,.29-.09,.29-.19v-2.41c0-.14,.07-.34,.19-.39,.12-.05,.48-.19,.48-.19,.12-.05,.2-.19,.2-.29v-1.21c0-.09-.05-.14-.12-.14-.03,0-.05,0-.09,.02l-.44,.17c-.1,0-.22-.1-.22-.31v-1.58c0-.12,.09-.44,.22-.49l.44-.17c.12-.05,.2-.19,.2-.29v-1.21c0-.08-.05-.14-.12-.14-.03,0-.05,0-.09,.02,0,0-.34,.14-.42,.15-.12,0-.24-.09-.24-.22v-2.07c0-.1-.1-.19-.24-.19-.17,0-.27,.09-.27,.19v2.21c-.02,.17-.07,.39-.22,.49-.2,.12-.78,.36-1.07,.42-.15,0-.2-.2-.2-.34v-2.04c0-.1-.12-.19-.24-.19-.17,0-.27,.09-.27,.19v2.29c0,.24-.1,.41-.2,.46-.1,.05-.44,.19-.44,.19-.12,.03-.2,.17-.2,.27v1.21c0,.1,.05,.15,.14,.15m1.17,.95c0-.53,.02-1.12,.05-1.26,.03-.29,.82-.65,1.24-.65,.12,0,.22,.03,.25,.1,.03,.09,.07,.51,.07,.97s-.03,.94-.07,1.09c-.1,.34-.9,.68-1.29,.68-.1,0-.19-.03-.2-.09-.03-.07-.05-.44-.05-.85" vector-effect="none"/>
        <path class="cls-12" d="M221.26,438.84c0,.99,.82,1.58,1.84,1.58,1.68,0,3.76-1.56,3.76-3.18,0-.95-.76-1.58-1.85-1.58-2.07,0-3.74,1.55-3.74,3.18" vector-effect="none"/>
        <path class="cls-12" d="M228.06,445.21c0,.99,.82,1.58,1.84,1.58,1.68,0,3.76-1.56,3.76-3.18,0-.95-.76-1.58-1.85-1.58-2.07,0-3.74,1.55-3.74,3.18" vector-effect="none"/>
        <path class="cls-12" d="M243.87,455.53v2.13l5.1-1.05v-2.13l-5.1,1.05m0-1l5.1-1.05v-2.13l-5.1,1.05v2.12m5.1-4.23v-2.12l-5.1,1.07v2.12l5.1-1.07" vector-effect="none"/>
        <path class="cls-12" d="M244.18,445.21c0,.99,.82,1.58,1.84,1.58,1.68,0,3.76-1.56,3.76-3.18,0-.95-.76-1.58-1.85-1.58-2.07,0-3.74,1.55-3.74,3.18" vector-effect="none"/>
        <path class="cls-12" d="M166.62,463.66v-2.12h69.15v2.12h-69.15" vector-effect="none"/>
        <path class="cls-12" d="M166.62,463.66v-2.12l69.15-3.19v2.12l-69.15,3.19" vector-effect="none"/>
        <path class="cls-12" d="M166.62,463.66v-2.12l69.15-6.38v2.12l-69.15,6.38" vector-effect="none"/>
        <g>
          <line class="cls-5" x1="164.88" y1="457.29" x2="278.18" y2="457.29" vector-effect="none"/>
          <line class="cls-5" x1="164.88" y1="453.04" x2="278.18" y2="453.04" vector-effect="none"/>
          <line class="cls-5" x1="164.88" y1="448.79" x2="278.18" y2="448.79" vector-effect="none"/>
          <line class="cls-5" x1="164.88" y1="444.54" x2="278.18" y2="444.54" vector-effect="none"/>
          <line class="cls-5" x1="164.88" y1="440.29" x2="278.18" y2="440.29" vector-effect="none"/>
        </g>
        <line class="cls-8" x1="247.79" y1="438.27" x2="272.75" y2="438.27"/>
        <line class="cls-8" x1="247.18" y1="444.41" x2="272.14" y2="444.41"/>
      </g>
      <g>
        <polyline class="cls-2" points="492.81 523.31 166.62 523.31 166.62 488.16"/>
        <polygon class="cls-13" points="504.02 515.83 491.46 523.31 504.02 530.79 504.02 515.83"/>
        <polygon class="cls-13" points="174.1 476.95 166.62 489.5 159.14 476.95 174.1 476.95"/>
      </g>
      <g>
        <polyline class="cls-3" points="547.3 429.13 547.3 444.5 601.94 444.5 601.94 465.74"/>
        <polygon class="cls-13" points="539.82 417.92 547.3 430.47 554.78 417.92 539.82 417.92"/>
        <polygon class="cls-13" points="594.46 476.95 601.94 464.39 609.42 476.95 594.46 476.95"/>
      </g>
      <g>
        <polyline class="cls-3" points="342.98 282.07 342.98 308.91 164.88 308.91 164.88 344.15"/>
        <polygon class="cls-13" points="335.5 270.86 342.98 283.42 350.46 270.86 335.5 270.86"/>
        <polygon class="cls-13" points="157.41 355.36 164.88 342.81 172.36 355.36 157.41 355.36"/>
      </g>
      <g>
        <polyline class="cls-3" points="439.84 281.93 439.84 292.61 520.82 292.61 520.82 308.12"/>
        <polygon class="cls-13" points="432.36 270.72 439.84 283.28 447.32 270.72 432.36 270.72"/>
        <polygon class="cls-13" points="513.35 319.33 520.82 306.77 528.3 319.33 513.35 319.33"/>
      </g>
    </g>
    <path class="cls-13" d="M123.73,120.86c6.45,5.23,12.91,5.15,19.36,4.85,6.45-.19,12.91-.65,19.36-1.33,19.33-2.22,38.6-5.32,58.08-4.41,9.69,.42,19.4,2.26,29.04,3.54,9.64,1.27,19.35,1.58,29.04,.56,12.91-1.26,25.82-6.01,38.72-7.51,6.45-.79,12.91-1.1,19.36-.66,6.45,.43,12.91,1.73,19.36,2.78,3.29,.53,6.51,1.07,9.68,2.25,6.2,2.29,12.61,5.75,19.36,4.93,9.73-.68,20.05-5.09,29.04-8.89,12.55-5.7,25.4-6.43,38.72-6.47,12.95-.04,25.86,1.86,38.72,3.29,6.45,.75,12.91,1.3,19.36,1.95,19.36,1.91,38.71,5.32,58.08,7.45,9.57,1.05,19.39,3.45,29.04,2.06,6.56-.7,13.01-4.68,19.36-6.27,9.81-2.57,19.5,1.06,29.04,3.01,3.21,.59,6.44,.76,9.68,.92,28.99,1.52,58.13,2.64,87.13,2.13,0,0,0,8.19,0,8.19-30.61-.52-61.37,.69-91.97,2.41-8.15,.55-16.04,4.09-24.2,4.45-6.78,.58-13.14-1.57-19.36-4.32-6.27-2.75-12.7-3.42-19.36-3.11-4.58,.23-9.91,1.18-14.52,1.82-8.05,.98-16.17,1.89-24.2,3.03-19.35,2.93-38.65,5.08-58.08,6.96-12.86,1.43-25.77,3.33-38.72,3.29-6.45,0-12.91-.35-19.36-1.01-13.02-1.21-26.04-9.35-38.72-12.65-6.45-1.57-12.89-2.77-19.36-.51-4.8,1.61-9.53,4.11-14.52,5.13-8.03,1.37-16.14,3.03-24.2,3.64-6.45,.44-12.91,.13-19.36-.66-12.91-1.5-25.82-6.25-38.72-7.51-6.45-.68-12.91-.76-19.36-.38-12.95,.79-25.78,3.95-38.72,4.49-19.48,.9-38.75-2.19-58.08-4.41-6.45-.68-12.91-1.14-19.36-1.33-6.45-.29-12.91-.38-19.36,4.85v-16.52h0Z"/>
    <text class="cls-15" transform="translate(123.95 110.28)"><tspan x="0" y="0">2 - 3</tspan></text>
  </g>
</svg>