<?xml version="1.0" encoding="UTF-8"?>
<svg xmlns="http://www.w3.org/2000/svg" xmlns:xlink="http://www.w3.org/1999/xlink" viewBox="0 0 792 612">
  <defs>
    <style>
      .cls-1, .cls-2, .cls-3, .cls-4, .cls-5, .cls-6, .cls-7, .cls-8, .cls-9 {
        fill: none;
      }

      .cls-2, .cls-10, .cls-3, .cls-9 {
        stroke: #231f20;
        stroke-miterlimit: 10;
      }

      .cls-2, .cls-8 {
        stroke-width: 3px;
      }

      .cls-11 {
        clip-path: url(#clippath);
      }

      .cls-12 {
        fill: #010101;
      }

      .cls-13, .cls-14, .cls-15, .cls-16 {
        fill: #231f20;
      }

      .cls-17 {
        letter-spacing: -.06em;
      }

      .cls-10 {
        fill: #fff;
      }

      .cls-10, .cls-3 {
        stroke-width: 2px;
      }

      .cls-18 {
        letter-spacing: .04em;
      }

      .cls-19 {
        letter-spacing: .01em;
      }

      .cls-20 {
        letter-spacing: .01em;
      }

      .cls-21 {
        letter-spacing: .04em;
      }

      .cls-22 {
        letter-spacing: .04em;
      }

      .cls-23 {
        clip-path: url(#clippath-1);
      }

      .cls-24 {
        clip-path: url(#clippath-4);
      }

      .cls-25 {
        clip-path: url(#clippath-3);
      }

      .cls-26 {
        clip-path: url(#clippath-2);
      }

      .cls-27 {
        clip-path: url(#clippath-7);
      }

      .cls-28 {
        clip-path: url(#clippath-8);
      }

      .cls-29 {
        clip-path: url(#clippath-6);
      }

      .cls-30 {
        clip-path: url(#clippath-5);
      }

      .cls-31 {
        clip-path: url(#clippath-9);
      }

      .cls-14 {
        font-size: 18px;
      }

      .cls-14, .cls-15, .cls-16 {
        font-family: Lustria-Regular, Lustria;
      }

      .cls-32 {
        clip-path: url(#clippath-20);
      }

      .cls-33 {
        clip-path: url(#clippath-21);
      }

      .cls-34 {
        clip-path: url(#clippath-24);
      }

      .cls-35 {
        clip-path: url(#clippath-23);
      }

      .cls-36 {
        clip-path: url(#clippath-22);
      }

      .cls-37 {
        clip-path: url(#clippath-25);
      }

      .cls-38 {
        clip-path: url(#clippath-27);
      }

      .cls-39 {
        clip-path: url(#clippath-28);
      }

      .cls-40 {
        clip-path: url(#clippath-26);
      }

      .cls-41 {
        clip-path: url(#clippath-29);
      }

      .cls-42 {
        clip-path: url(#clippath-34);
      }

      .cls-43 {
        clip-path: url(#clippath-35);
      }

      .cls-44 {
        clip-path: url(#clippath-36);
      }

      .cls-45 {
        clip-path: url(#clippath-37);
      }

      .cls-46 {
        clip-path: url(#clippath-39);
      }

      .cls-47 {
        clip-path: url(#clippath-33);
      }

      .cls-48 {
        clip-path: url(#clippath-32);
      }

      .cls-49 {
        clip-path: url(#clippath-30);
      }

      .cls-50 {
        clip-path: url(#clippath-38);
      }

      .cls-51 {
        clip-path: url(#clippath-31);
      }

      .cls-52 {
        clip-path: url(#clippath-14);
      }

      .cls-53 {
        clip-path: url(#clippath-13);
      }

      .cls-54 {
        clip-path: url(#clippath-12);
      }

      .cls-55 {
        clip-path: url(#clippath-10);
      }

      .cls-56 {
        clip-path: url(#clippath-15);
      }

      .cls-57 {
        clip-path: url(#clippath-17);
      }

      .cls-58 {
        clip-path: url(#clippath-16);
      }

      .cls-59 {
        clip-path: url(#clippath-19);
      }

      .cls-60 {
        clip-path: url(#clippath-11);
      }

      .cls-61 {
        clip-path: url(#clippath-18);
      }

      .cls-62 {
        letter-spacing: 0em;
      }

      .cls-63 {
        letter-spacing: .02em;
      }

      .cls-64 {
        letter-spacing: .02em;
      }

      .cls-65 {
        letter-spacing: .02em;
      }

      .cls-15 {
        font-size: 12px;
      }

      .cls-4 {
        stroke: #000;
        stroke-width: .53px;
      }

      .cls-4, .cls-5, .cls-6, .cls-7, .cls-8 {
        stroke-miterlimit: 2;
      }

      .cls-5 {
        stroke-width: .53px;
      }

      .cls-5, .cls-6, .cls-7, .cls-8 {
        stroke: #010101;
      }

      .cls-66 {
        letter-spacing: .01em;
      }

      .cls-67 {
        letter-spacing: -.02em;
      }

      .cls-16 {
        font-size: 16px;
      }

      .cls-68 {
        letter-spacing: -.02em;
      }

      .cls-7 {
        stroke-width: .71px;
      }

      .cls-69 {
        letter-spacing: -.02em;
      }

      .cls-8 {
        stroke-linecap: round;
      }

      .cls-9 {
        stroke-width: .5px;
      }
    </style>
    <clipPath id="clippath">
      <rect class="cls-1" x="181.18" y="196.01" width="10.09" height="8.21"/>
    </clipPath>
    <clipPath id="clippath-1">
      <rect class="cls-1" x="181.18" y="196.01" width="10.09" height="8.21"/>
    </clipPath>
    <clipPath id="clippath-2">
      <rect class="cls-1" x="237.66" y="202.53" width="9.99" height="4.84"/>
    </clipPath>
    <clipPath id="clippath-3">
      <rect class="cls-1" x="237.66" y="202.53" width="9.99" height="4.84"/>
    </clipPath>
    <clipPath id="clippath-4">
      <rect class="cls-1" x="206.39" y="252.57" width="9.99" height="4.84"/>
    </clipPath>
    <clipPath id="clippath-5">
      <rect class="cls-1" x="206.39" y="252.57" width="9.99" height="4.84"/>
    </clipPath>
    <clipPath id="clippath-6">
      <rect class="cls-1" x="256.05" y="253.33" width="10.09" height="8.21"/>
    </clipPath>
    <clipPath id="clippath-7">
      <rect class="cls-1" x="256.05" y="253.33" width="10.09" height="8.21"/>
    </clipPath>
    <clipPath id="clippath-8">
      <rect class="cls-1" x="300.69" y="215.65" width="10.09" height="8.21"/>
    </clipPath>
    <clipPath id="clippath-9">
      <rect class="cls-1" x="300.69" y="215.65" width="10.09" height="8.21"/>
    </clipPath>
    <clipPath id="clippath-10">
      <rect class="cls-1" x="348.9" y="223.21" width="9.99" height="4.84"/>
    </clipPath>
    <clipPath id="clippath-11">
      <rect class="cls-1" x="348.9" y="223.21" width="9.99" height="4.84"/>
    </clipPath>
    <clipPath id="clippath-12">
      <rect class="cls-1" x="553.2" y="423.08" width="10.09" height="8.21"/>
    </clipPath>
    <clipPath id="clippath-13">
      <rect class="cls-1" x="553.2" y="423.08" width="10.09" height="8.21"/>
    </clipPath>
    <clipPath id="clippath-14">
      <rect class="cls-1" x="652.02" y="422.39" width="9.99" height="4.84"/>
    </clipPath>
    <clipPath id="clippath-15">
      <rect class="cls-1" x="652.02" y="422.39" width="9.99" height="4.84"/>
    </clipPath>
    <clipPath id="clippath-16">
      <rect class="cls-1" x="602.32" y="455.68" width="10.09" height="8.21"/>
    </clipPath>
    <clipPath id="clippath-17">
      <rect class="cls-1" x="602.32" y="455.68" width="10.09" height="8.21"/>
    </clipPath>
    <clipPath id="clippath-18">
      <rect class="cls-1" x="649.02" y="461.43" width="9.99" height="4.84"/>
    </clipPath>
    <clipPath id="clippath-19">
      <rect class="cls-1" x="649.02" y="461.43" width="9.99" height="4.84"/>
    </clipPath>
    <clipPath id="clippath-20">
      <rect class="cls-1" x="660.62" y="465.36" width="9.99" height="4.84"/>
    </clipPath>
    <clipPath id="clippath-21">
      <rect class="cls-1" x="660.62" y="465.36" width="9.99" height="4.84"/>
    </clipPath>
    <clipPath id="clippath-22">
      <rect class="cls-1" x="556.07" y="281.54" width="9.99" height="4.84"/>
    </clipPath>
    <clipPath id="clippath-23">
      <rect class="cls-1" x="556.07" y="281.54" width="9.99" height="4.84"/>
    </clipPath>
    <clipPath id="clippath-24">
      <rect class="cls-1" x="556.07" y="286.06" width="9.99" height="4.84"/>
    </clipPath>
    <clipPath id="clippath-25">
      <rect class="cls-1" x="556.07" y="286.06" width="9.99" height="4.84"/>
    </clipPath>
    <clipPath id="clippath-26">
      <rect class="cls-1" x="592.87" y="279.12" width="9.99" height="4.84"/>
    </clipPath>
    <clipPath id="clippath-27">
      <rect class="cls-1" x="592.87" y="279.12" width="9.99" height="4.84"/>
    </clipPath>
    <clipPath id="clippath-28">
      <rect class="cls-1" x="656.89" y="287.43" width="9.99" height="4.84"/>
    </clipPath>
    <clipPath id="clippath-29">
      <rect class="cls-1" x="656.89" y="287.43" width="9.99" height="4.84"/>
    </clipPath>
    <clipPath id="clippath-30">
      <rect class="cls-1" x="679.43" y="287.05" width="9.39" height="7.65"/>
    </clipPath>
    <clipPath id="clippath-31">
      <rect class="cls-1" x="679.43" y="287.05" width="9.39" height="7.65"/>
    </clipPath>
    <clipPath id="clippath-32">
      <rect class="cls-1" x="698.76" y="326.39" width="10.09" height="8.21"/>
    </clipPath>
    <clipPath id="clippath-33">
      <rect class="cls-1" x="698.76" y="326.39" width="10.09" height="8.21"/>
    </clipPath>
    <clipPath id="clippath-34">
      <rect class="cls-1" x="711.67" y="322.41" width="9.99" height="4.84"/>
    </clipPath>
    <clipPath id="clippath-35">
      <rect class="cls-1" x="711.67" y="322.41" width="9.99" height="4.84"/>
    </clipPath>
    <clipPath id="clippath-36">
      <rect class="cls-1" x="683.83" y="325.29" width="9.99" height="4.84"/>
    </clipPath>
    <clipPath id="clippath-37">
      <rect class="cls-1" x="683.83" y="325.29" width="9.99" height="4.84"/>
    </clipPath>
    <clipPath id="clippath-38">
      <rect class="cls-1" x="602.13" y="316.96" width="10.09" height="8.21"/>
    </clipPath>
    <clipPath id="clippath-39">
      <rect class="cls-1" x="602.13" y="316.96" width="10.09" height="8.21"/>
    </clipPath>
  </defs>
  <g id="Layer_1" data-name="Layer 1">
    <text class="cls-15" transform="translate(118.79 28.5)"><tspan x="0" y="0">Use</tspan><tspan class="cls-19" x="21.08" y="0"> </tspan><tspan x="23.97" y="0">the</tspan><tspan class="cls-20" x="42.46" y="0"> </tspan><tspan x="45.34" y="0">flow</tspan><tspan class="cls-19" x="69.92" y="0"> </tspan><tspan x="72.81" y="0">chart</tspan><tspan class="cls-19" x="102.12" y="0"> </tspan><tspan x="105.01" y="0">below</tspan><tspan class="cls-19" x="139.3" y="0"> </tspan><tspan x="142.19" y="0">to</tspan><tspan class="cls-20" x="153.79" y="0"> </tspan><tspan x="156.67" y="0">traverse</tspan><tspan class="cls-19" x="201.67" y="0"> </tspan><tspan x="204.56" y="0">between</tspan><tspan class="cls-19" x="253.15" y="0"> </tspan><tspan x="256.03" y="0">different</tspan><tspan class="cls-20" x="305.1" y="0"> </tspan><tspan x="307.98" y="0">sets</tspan><tspan class="cls-19" x="329.43" y="0"> </tspan><tspan x="332.31" y="0">of</tspan><tspan class="cls-19" x="343.69" y="0"> </tspan><tspan x="346.57" y="0">musical</tspan><tspan class="cls-19" x="389.57" y="0"> </tspan><tspan x="392.45" y="0">materials.</tspan><tspan class="cls-19" x="446.39" y="0" xml:space="preserve">  </tspan><tspan x="452.16" y="0">Each</tspan><tspan class="cls-19" x="479.86" y="0"> </tspan><tspan x="482.74" y="0">performer</tspan><tspan class="cls-19" x="540.07" y="0"> </tspan><tspan x="542.96" y="0">has</tspan><tspan class="cls-19" x="562.05" y="0"> </tspan><tspan x="564.94" y="0">a</tspan><tspan class="cls-66" x="571.07" y="0"> </tspan><tspan x="573.95" y="0">separate </tspan><tspan x="0" y="14.4">flow</tspan><tspan class="cls-69" x="24.58" y="14.4"> </tspan><tspan x="27.13" y="14.4">chart</tspan><tspan class="cls-68" x="56.45" y="14.4"> </tspan><tspan x="59.01" y="14.4">identified</tspan><tspan class="cls-69" x="113.48" y="14.4"> </tspan><tspan x="116.03" y="14.4">by</tspan><tspan class="cls-68" x="129.76" y="14.4"> </tspan><tspan x="132.32" y="14.4">the</tspan><tspan class="cls-69" x="150.81" y="14.4"> </tspan><tspan x="153.37" y="14.4">circled</tspan><tspan class="cls-69" x="191.77" y="14.4"> </tspan><tspan x="194.32" y="14.4">number</tspan><tspan class="cls-68" x="239.07" y="14.4"> </tspan><tspan x="241.63" y="14.4">on</tspan><tspan class="cls-69" x="256.58" y="14.4"> </tspan><tspan x="259.14" y="14.4">the</tspan><tspan class="cls-68" x="277.63" y="14.4"> </tspan><tspan x="280.19" y="14.4">left.</tspan><tspan class="cls-69" x="301.5" y="14.4"> </tspan><tspan class="cls-17" x="304.06" y="14.4">Y</tspan><tspan class="cls-62" x="311.82" y="14.4">ou</tspan><tspan class="cls-68" x="326.63" y="14.4"> </tspan><tspan class="cls-62" x="329.19" y="14.4">may</tspan><tspan class="cls-69" x="352.54" y="14.4"> </tspan><tspan class="cls-62" x="355.1" y="14.4">progress</tspan><tspan class="cls-69" x="403.49" y="14.4"> </tspan><tspan x="406.05" y="14.4">to</tspan><tspan class="cls-68" x="417.66" y="14.4"> </tspan><tspan x="420.21" y="14.4">any</tspan><tspan class="cls-69" x="440.43" y="14.4"> </tspan><tspan x="442.99" y="14.4">group</tspan><tspan class="cls-69" x="476.91" y="14.4"> </tspan><tspan x="479.47" y="14.4">of</tspan><tspan class="cls-69" x="490.85" y="14.4"> </tspan><tspan x="493.4" y="14.4">materials</tspan><tspan class="cls-67" x="544.43" y="14.4"> </tspan><tspan x="546.99" y="14.4">connected</tspan><tspan class="cls-69" x="607.04" y="14.4"> </tspan><tspan x="609.6" y="14.4">to </tspan><tspan x="0" y="28.8">the</tspan><tspan class="cls-21" x="18.49" y="28.8"> </tspan><tspan x="21.7" y="28.8">group</tspan><tspan class="cls-22" x="55.63" y="28.8"> </tspan><tspan x="58.83" y="28.8">you</tspan><tspan class="cls-21" x="80.05" y="28.8"> </tspan><tspan x="83.26" y="28.8">are</tspan><tspan class="cls-21" x="100.79" y="28.8"> </tspan><tspan x="104" y="28.8">performing.</tspan><tspan class="cls-21" x="170.76" y="28.8" xml:space="preserve">  </tspan><tspan x="177.18" y="28.8">Materials</tspan><tspan class="cls-21" x="228.91" y="28.8"> </tspan><tspan x="232.12" y="28.8">within</tspan><tspan class="cls-21" x="268.44" y="28.8"> </tspan><tspan x="271.65" y="28.8">a</tspan><tspan class="cls-21" x="277.78" y="28.8"> </tspan><tspan x="280.99" y="28.8">group</tspan><tspan class="cls-22" x="314.92" y="28.8"> </tspan><tspan x="318.13" y="28.8">may</tspan><tspan class="cls-21" x="341.48" y="28.8"> </tspan><tspan x="344.69" y="28.8">be</tspan><tspan class="cls-21" x="358.51" y="28.8"> </tspan><tspan x="361.72" y="28.8">played</tspan><tspan class="cls-21" x="399.16" y="28.8"> </tspan><tspan x="402.37" y="28.8">in</tspan><tspan class="cls-22" x="413.51" y="28.8"> </tspan><tspan x="416.72" y="28.8">any</tspan><tspan class="cls-21" x="436.94" y="28.8"> </tspan><tspan x="440.15" y="28.8">order,</tspan><tspan class="cls-21" x="474.16" y="28.8"> </tspan><tspan x="477.37" y="28.8">any</tspan><tspan class="cls-21" x="497.58" y="28.8"> </tspan><tspan x="500.79" y="28.8">number</tspan><tspan class="cls-21" x="545.54" y="28.8"> </tspan><tspan x="548.75" y="28.8">of</tspan><tspan class="cls-18" x="560.13" y="28.8"> </tspan><tspan x="563.33" y="28.8">times,</tspan><tspan class="cls-21" x="596.69" y="28.8"> </tspan><tspan x="599.9" y="28.8">and </tspan><tspan x="0" y="43.2">may</tspan><tspan class="cls-63" x="23.35" y="43.2"> </tspan><tspan x="26.32" y="43.2">be</tspan><tspan class="cls-65" x="40.14" y="43.2"> </tspan><tspan x="43.11" y="43.2">used</tspan><tspan class="cls-63" x="69.94" y="43.2"> </tspan><tspan x="72.9" y="43.2">as</tspan><tspan class="cls-65" x="84.34" y="43.2"> </tspan><tspan x="87.3" y="43.2">a</tspan><tspan class="cls-63" x="93.44" y="43.2"> </tspan><tspan x="96.4" y="43.2">basis</tspan><tspan class="cls-65" x="123.92" y="43.2"> </tspan><tspan x="126.88" y="43.2">of</tspan><tspan class="cls-63" x="138.26" y="43.2"> </tspan><tspan x="141.22" y="43.2">improvisation.</tspan><tspan class="cls-65" x="222.09" y="43.2" xml:space="preserve">  </tspan><tspan x="228.02" y="43.2">Pitches</tspan><tspan class="cls-65" x="268.73" y="43.2"> </tspan><tspan x="271.69" y="43.2">may</tspan><tspan class="cls-63" x="295.04" y="43.2"> </tspan><tspan x="298.01" y="43.2">be</tspan><tspan class="cls-65" x="311.83" y="43.2"> </tspan><tspan x="314.8" y="43.2">played</tspan><tspan class="cls-63" x="352.24" y="43.2"> </tspan><tspan x="355.2" y="43.2">in</tspan><tspan class="cls-65" x="366.34" y="43.2"> </tspan><tspan x="369.31" y="43.2">any</tspan><tspan class="cls-63" x="389.52" y="43.2"> </tspan><tspan x="392.49" y="43.2">octave.</tspan><tspan class="cls-63" x="432.38" y="43.2"> </tspan><tspan class="cls-17" x="435.34" y="43.2">Y</tspan><tspan x="443.11" y="43.2">ou</tspan><tspan class="cls-63" x="457.92" y="43.2"> </tspan><tspan x="460.88" y="43.2">may</tspan><tspan class="cls-63" x="484.23" y="43.2"> </tspan><tspan x="487.2" y="43.2">add</tspan><tspan class="cls-64" x="508.31" y="43.2"> </tspan><tspan x="511.27" y="43.2">breaks</tspan><tspan class="cls-63" x="548.19" y="43.2"> </tspan><tspan x="551.16" y="43.2">between</tspan><tspan class="cls-63" x="599.75" y="43.2"> </tspan><tspan x="602.71" y="43.2">the </tspan><tspan x="0" y="57.6">materials. The intensity of this section should match the curve below.</tspan></text>
  </g>
  <g id="Notation">
    <g>
      <rect class="cls-10" x="35.92" y="19.95" width="73.81" height="25.55"/>
      <text class="cls-14" transform="translate(42.2 39.05)"><tspan x="0" y="0">Phase 3</tspan></text>
    </g>
    <g>
      <text class="cls-16" transform="translate(68.09 72.32)"><tspan x="0" y="0">d</tspan></text>
      <circle class="cls-6" cx="73.08" cy="66.66" r="17.45"/>
    </g>
    <g>
      <g>
        <rect class="cls-2" x="142.28" y="185.05" width="267.26" height="100.94" rx="12" ry="12"/>
        <g>
          <path d="M168.41,204.37v-1.21c0-.1,.08-.24,.2-.27,0,0,.34-.14,.44-.19s.2-.22,.2-.46v-2.29c0-.1,.1-.19,.27-.19,.12,0,.24,.08,.24,.19v2.04c0,.14,.05,.34,.2,.34,.29-.07,.87-.31,1.07-.42,.15-.1,.2-.32,.22-.49v-2.21c0-.1,.1-.19,.27-.19,.14,0,.24,.08,.24,.19v2.07c0,.14,.12,.22,.24,.22,.08-.02,.43-.15,.43-.15,.03-.02,.05-.02,.08-.02,.07,0,.12,.05,.12,.14v1.21c0,.1-.08,.24-.2,.29l-.44,.17c-.14,.05-.22,.37-.22,.49v1.58c0,.2,.12,.31,.22,.31l.44-.17s.05-.02,.08-.02c.07,0,.12,.05,.12,.14v1.21c0,.1-.08,.24-.2,.29,0,0-.36,.14-.48,.19s-.19,.25-.19,.39v2.41c0,.1-.1,.19-.29,.19-.12,0-.22-.08-.22-.19v-2.12c0-.1-.08-.31-.22-.31-.02,0-.05,.02-.07,.02l-1.04,.42c-.08,.03-.17,.15-.17,.37v2.36c0,.1-.12,.19-.29,.19-.12,0-.22-.08-.22-.19v-2.09c0-.08-.08-.27-.2-.27-.02,0-.03,0-.05,.02-.15,.05-.39,.15-.39,.15-.02,0-.05,.02-.07,.02-.08,0-.14-.05-.14-.15v-1.21c0-.1,.08-.24,.2-.27,0,0,.36-.15,.46-.19,.1-.05,.19-.2,.19-.39v-1.68c0-.14-.1-.31-.22-.31-.02,0-.03,.02-.05,.02-.05,.03-.37,.19-.44,.19-.08,0-.14-.05-.14-.15Zm1.36,1.95c.02,.05,.1,.08,.2,.08,.39,0,1.19-.34,1.29-.68,.03-.15,.07-.63,.07-1.09s-.03-.88-.07-.97c-.03-.07-.14-.1-.25-.1-.42,0-1.21,.36-1.24,.65-.03,.14-.05,.73-.05,1.26,0,.41,.02,.78,.05,.85Z"/>
          <path d="M177.47,202.58c1.09,0,1.85,.63,1.85,1.58,0,1.61-2.07,3.18-3.76,3.18-1.02,0-1.84-.6-1.84-1.58,0-1.63,1.67-3.18,3.74-3.18Z"/>
          <path d="M219.11,206.83c1.09,0,1.85,.63,1.85,1.58,0,1.61-2.07,3.18-3.76,3.18-1.02,0-1.84-.6-1.84-1.58,0-1.63,1.67-3.18,3.74-3.18Z"/>
          <g>
            <line class="cls-4" x1="166.72" y1="224.09" x2="256.05" y2="224.09"/>
            <line class="cls-4" x1="166.72" y1="219.84" x2="256.05" y2="219.84"/>
            <line class="cls-4" x1="166.72" y1="215.59" x2="256.05" y2="215.59"/>
            <line class="cls-4" x1="166.72" y1="211.34" x2="256.05" y2="211.34"/>
            <line class="cls-4" x1="166.72" y1="207.09" x2="256.05" y2="207.09"/>
          </g>
          <g id="Artwork_1" data-name="Artwork 1">
            <g class="cls-11">
              <g class="cls-23">
                <path class="cls-12" d="M181.18,202.65c0,.99,.81,1.58,1.83,1.58,1.68,0,3.75-1.56,3.75-3.18,0-.95-.76-1.58-1.85-1.58-2.07,0-3.73,1.55-3.73,3.18"/>
                <path class="cls-12" d="M184.9,198.86c1.69-2.27,4.24-2.27,5.93,0l.44-.3c-2.13-3.39-4.68-3.39-6.82,0l.44,.3Z"/>
              </g>
            </g>
          </g>
          <g id="Artwork_2" data-name="Artwork 2">
            <g class="cls-26">
              <g class="cls-25">
                <path class="cls-12" d="M237.66,205.75c0,.99,.82,1.58,1.84,1.58,1.68,0,3.76-1.56,3.76-3.18,0-.95-.76-1.58-1.85-1.58-2.07,0-3.74,1.55-3.74,3.18"/>
                <circle class="cls-9" cx="245.24" cy="204.95" r="2.17"/>
              </g>
            </g>
          </g>
          <line class="cls-7" x1="180.16" y1="201.95" x2="187.83" y2="201.95" vector-effect="none"/>
        </g>
        <g>
          <path d="M178.55,249.67c1.09,0,1.85,.63,1.85,1.58,0,1.61-2.07,3.18-3.76,3.18-1.02,0-1.84-.6-1.84-1.58,0-1.63,1.67-3.18,3.74-3.18Z"/>
          <path d="M195.01,256.92c1.09,0,1.85,.63,1.85,1.58,0,1.61-2.07,3.18-3.76,3.18-1.02,0-1.84-.6-1.84-1.58,0-1.63,1.67-3.18,3.74-3.18Z"/>
          <g>
            <line class="cls-4" x1="166.72" y1="274.41" x2="278.92" y2="274.41"/>
            <line class="cls-4" x1="166.72" y1="270.16" x2="278.92" y2="270.16"/>
            <line class="cls-4" x1="166.72" y1="265.91" x2="278.92" y2="265.91"/>
            <line class="cls-4" x1="166.72" y1="261.66" x2="278.92" y2="261.66"/>
            <line class="cls-4" x1="166.72" y1="257.41" x2="278.92" y2="257.41"/>
          </g>
          <g id="Artwork_2-2" data-name="Artwork 2">
            <g class="cls-24">
              <g class="cls-30">
                <path class="cls-12" d="M206.39,255.79c0,.99,.82,1.58,1.84,1.58,1.68,0,3.76-1.56,3.76-3.18,0-.95-.76-1.58-1.85-1.58-2.07,0-3.74,1.55-3.74,3.18"/>
                <circle class="cls-9" cx="213.97" cy="254.99" r="2.17"/>
              </g>
            </g>
          </g>
          <g id="Artwork_1-2" data-name="Artwork 1">
            <g class="cls-29">
              <g class="cls-27">
                <path class="cls-12" d="M256.05,259.96c0,.99,.81,1.58,1.83,1.58,1.68,0,3.75-1.56,3.75-3.18,0-.95-.76-1.58-1.85-1.58-2.07,0-3.73,1.55-3.73,3.18"/>
                <path class="cls-12" d="M259.76,256.17c1.69-2.27,4.24-2.27,5.93,0l.44-.3c-2.13-3.39-4.68-3.39-6.82,0l.44,.3Z"/>
              </g>
            </g>
          </g>
          <line class="cls-7" x1="173.77" y1="252.05" x2="181.44" y2="252.05" vector-effect="none"/>
          <path d="M202.16,254.41v-1.21c0-.1,.08-.24,.2-.27,0,0,.34-.14,.44-.19s.2-.22,.2-.46v-2.29c0-.1,.1-.19,.27-.19,.12,0,.24,.08,.24,.19v2.04c0,.14,.05,.34,.2,.34,.29-.07,.87-.31,1.07-.42,.15-.1,.2-.32,.22-.49v-2.21c0-.1,.1-.19,.27-.19,.14,0,.24,.08,.24,.19v2.07c0,.14,.12,.22,.24,.22,.08-.02,.43-.15,.43-.15,.03-.02,.05-.02,.08-.02,.07,0,.12,.05,.12,.14v1.21c0,.1-.08,.24-.2,.29l-.44,.17c-.14,.05-.22,.37-.22,.49v1.58c0,.2,.12,.31,.22,.31l.44-.17s.05-.02,.08-.02c.07,0,.12,.05,.12,.14v1.21c0,.1-.08,.24-.2,.29,0,0-.36,.14-.48,.19s-.19,.25-.19,.39v2.41c0,.1-.1,.19-.29,.19-.12,0-.22-.08-.22-.19v-2.12c0-.1-.08-.31-.22-.31-.02,0-.05,.02-.07,.02l-1.04,.42c-.08,.03-.17,.15-.17,.37v2.36c0,.1-.12,.19-.29,.19-.12,0-.22-.08-.22-.19v-2.09c0-.08-.08-.27-.2-.27-.02,0-.03,0-.05,.02-.15,.05-.39,.15-.39,.15-.02,0-.05,.02-.07,.02-.08,0-.14-.05-.14-.15v-1.21c0-.1,.08-.24,.2-.27,0,0,.36-.15,.46-.19,.1-.05,.19-.2,.19-.39v-1.68c0-.14-.1-.31-.22-.31-.02,0-.03,.02-.05,.02-.05,.03-.37,.19-.44,.19-.08,0-.14-.05-.14-.15Zm1.36,1.95c.02,.05,.1,.08,.2,.08,.39,0,1.19-.34,1.29-.68,.03-.15,.07-.63,.07-1.09s-.03-.88-.07-.97c-.03-.07-.14-.1-.25-.1-.42,0-1.21,.36-1.24,.65-.03,.14-.05,.73-.05,1.26,0,.41,.02,.78,.05,.85Z"/>
        </g>
        <g>
          <path d="M283.79,223.25c1.09,0,1.85,.63,1.85,1.58,0,1.61-2.07,3.18-3.76,3.18-1.02,0-1.84-.6-1.84-1.58,0-1.63,1.67-3.18,3.74-3.18Z"/>
          <path d="M298.84,219.25c1.09,0,1.85,.63,1.85,1.58,0,1.61-2.07,3.18-3.76,3.18-1.02,0-1.84-.6-1.84-1.58,0-1.63,1.67-3.18,3.74-3.18Z"/>
          <path d="M344.88,219.37c1.09,0,1.85,.63,1.85,1.58,0,1.61-2.07,3.18-3.76,3.18-1.02,0-1.84-.6-1.84-1.58,0-1.63,1.67-3.18,3.74-3.18Z"/>
          <g>
            <line class="cls-4" x1="275.91" y1="240.73" x2="388.1" y2="240.73"/>
            <line class="cls-4" x1="275.91" y1="236.48" x2="388.1" y2="236.48"/>
            <line class="cls-4" x1="275.91" y1="232.23" x2="388.1" y2="232.23"/>
            <line class="cls-4" x1="275.91" y1="227.98" x2="388.1" y2="227.98"/>
            <line class="cls-4" x1="275.91" y1="223.73" x2="388.1" y2="223.73"/>
          </g>
          <path d="M289.81,220.88v-1.21c0-.1,.08-.24,.2-.27,0,0,.34-.14,.44-.19s.2-.22,.2-.46v-2.29c0-.1,.1-.19,.27-.19,.12,0,.24,.08,.24,.19v2.04c0,.14,.05,.34,.2,.34,.29-.07,.87-.31,1.07-.42,.15-.1,.2-.32,.22-.49v-2.21c0-.1,.1-.19,.27-.19,.14,0,.24,.08,.24,.19v2.07c0,.14,.12,.22,.24,.22,.08-.02,.43-.15,.43-.15,.03-.02,.05-.02,.08-.02,.07,0,.12,.05,.12,.14v1.21c0,.1-.08,.24-.2,.29l-.44,.17c-.14,.05-.22,.37-.22,.49v1.58c0,.2,.12,.31,.22,.31l.44-.17s.05-.02,.08-.02c.07,0,.12,.05,.12,.14v1.21c0,.1-.08,.24-.2,.29,0,0-.36,.14-.48,.19s-.19,.25-.19,.39v2.41c0,.1-.1,.19-.29,.19-.12,0-.22-.08-.22-.19v-2.12c0-.1-.08-.31-.22-.31-.02,0-.05,.02-.07,.02l-1.04,.42c-.08,.03-.17,.15-.17,.37v2.36c0,.1-.12,.19-.29,.19-.12,0-.22-.08-.22-.19v-2.09c0-.08-.08-.27-.2-.27-.02,0-.03,0-.05,.02-.15,.05-.39,.15-.39,.15-.02,0-.05,.02-.07,.02-.08,0-.14-.05-.14-.15v-1.21c0-.1,.08-.24,.2-.27,0,0,.36-.15,.46-.19,.1-.05,.19-.2,.19-.39v-1.68c0-.14-.1-.31-.22-.31-.02,0-.03,.02-.05,.02-.05,.03-.37,.19-.44,.19-.08,0-.14-.05-.14-.15Zm1.36,1.95c.02,.05,.1,.08,.2,.08,.39,0,1.19-.34,1.29-.68,.03-.15,.07-.63,.07-1.09s-.03-.88-.07-.97c-.03-.07-.14-.1-.25-.1-.42,0-1.21,.36-1.24,.65-.03,.14-.05,.73-.05,1.26,0,.41,.02,.78,.05,.85Z"/>
          <g id="Artwork_1-3" data-name="Artwork 1">
            <g class="cls-28">
              <g class="cls-31">
                <path class="cls-12" d="M300.69,222.28c0,.99,.81,1.58,1.83,1.58,1.68,0,3.75-1.56,3.75-3.18,0-.95-.76-1.58-1.85-1.58-2.07,0-3.73,1.55-3.73,3.18"/>
                <path class="cls-12" d="M304.4,218.49c1.69-2.27,4.24-2.27,5.93,0l.44-.3c-2.13-3.39-4.68-3.39-6.82,0l.44,.3Z"/>
              </g>
            </g>
          </g>
          <g id="Artwork_2-3" data-name="Artwork 2">
            <g class="cls-55">
              <g class="cls-60">
                <path class="cls-12" d="M348.9,226.43c0,.99,.82,1.58,1.84,1.58,1.68,0,3.76-1.56,3.76-3.18,0-.95-.76-1.58-1.85-1.58-2.07,0-3.74,1.55-3.74,3.18"/>
                <circle class="cls-9" cx="356.48" cy="225.63" r="2.17"/>
              </g>
            </g>
          </g>
        </g>
      </g>
      <g>
        <rect class="cls-2" x="523.21" y="406.99" width="218.95" height="84.87" rx="12" ry="12"/>
        <g>
          <g>
            <line class="cls-5" x1="540.45" y1="443.93" x2="628.32" y2="443.93" vector-effect="none"/>
            <line class="cls-5" x1="540.45" y1="439.68" x2="628.32" y2="439.68" vector-effect="none"/>
            <line class="cls-5" x1="540.45" y1="435.43" x2="628.32" y2="435.43" vector-effect="none"/>
            <line class="cls-5" x1="540.45" y1="431.18" x2="628.32" y2="431.18" vector-effect="none"/>
            <line class="cls-5" x1="540.45" y1="426.93" x2="628.32" y2="426.93" vector-effect="none"/>
          </g>
          <path class="cls-12" d="M590.16,436.04v2.13l5.1-1.05v-2.13l-5.1,1.05m0-1l5.1-1.05v-2.13l-5.1,1.05v2.12m5.1-4.23v-2.12l-5.1,1.07v2.12l5.1-1.07" vector-effect="none"/>
          <path class="cls-12" d="M590.46,423.61c0,.99,.82,1.58,1.84,1.58,1.68,0,3.76-1.56,3.76-3.18,0-.95-.76-1.58-1.85-1.58-2.07,0-3.74,1.55-3.74,3.18" vector-effect="none"/>
          <line class="cls-8" x1="593.26" y1="422.79" x2="621.46" y2="422.79"/>
          <g id="Artwork_1-4" data-name="Artwork 1">
            <g class="cls-54">
              <g class="cls-53">
                <path class="cls-12" d="M553.2,429.71c0,.99,.81,1.58,1.83,1.58,1.68,0,3.75-1.56,3.75-3.18,0-.95-.76-1.58-1.85-1.58-2.07,0-3.73,1.55-3.73,3.18"/>
                <path class="cls-12" d="M556.91,425.92c1.69-2.27,4.24-2.27,5.93,0l.44-.3c-2.13-3.39-4.68-3.39-6.82,0l.44,.3Z"/>
              </g>
            </g>
          </g>
          <line class="cls-7" x1="588.44" y1="422.79" x2="596.1" y2="422.79" vector-effect="none"/>
        </g>
        <g>
          <g>
            <line class="cls-5" x1="641.61" y1="443.93" x2="724.58" y2="443.93" vector-effect="none"/>
            <line class="cls-5" x1="641.61" y1="439.68" x2="724.58" y2="439.68" vector-effect="none"/>
            <line class="cls-5" x1="641.61" y1="435.43" x2="724.58" y2="435.43" vector-effect="none"/>
            <line class="cls-5" x1="641.61" y1="431.18" x2="724.58" y2="431.18" vector-effect="none"/>
            <line class="cls-5" x1="641.61" y1="426.93" x2="724.58" y2="426.93" vector-effect="none"/>
          </g>
          <path class="cls-12" d="M645.91,424.76c.07,0,.39-.15,.44-.19,.02,0,.03-.02,.05-.02,.12,0,.22,.17,.22,.31v1.68c0,.19-.09,.34-.19,.39-.1,.03-.46,.19-.46,.19-.12,.03-.2,.17-.2,.27v1.21c0,.1,.05,.15,.14,.15,.02,0,.05-.02,.07-.02,0,0,.24-.1,.39-.15,.02-.02,.03-.02,.05-.02,.12,0,.2,.19,.2,.27v2.09c0,.1,.1,.19,.22,.19,.17,0,.29-.09,.29-.19v-2.36c0-.22,.09-.34,.17-.37l1.04-.43s.05-.02,.07-.02c.14,0,.22,.2,.22,.31v2.12c0,.1,.1,.19,.22,.19,.19,0,.29-.09,.29-.19v-2.41c0-.14,.07-.34,.19-.39,.12-.05,.48-.19,.48-.19,.12-.05,.2-.19,.2-.29v-1.21c0-.09-.05-.14-.12-.14-.03,0-.05,0-.09,.02l-.44,.17c-.1,0-.22-.1-.22-.31v-1.58c0-.12,.09-.44,.22-.49l.44-.17c.12-.05,.2-.19,.2-.29v-1.21c0-.08-.05-.14-.12-.14-.03,0-.05,0-.09,.02,0,0-.34,.14-.42,.15-.12,0-.24-.09-.24-.22v-2.07c0-.1-.1-.19-.24-.19-.17,0-.27,.09-.27,.19v2.21c-.02,.17-.07,.39-.22,.49-.2,.12-.78,.36-1.07,.42-.15,0-.2-.2-.2-.34v-2.04c0-.1-.12-.19-.24-.19-.17,0-.27,.09-.27,.19v2.29c0,.24-.1,.41-.2,.46-.1,.05-.44,.19-.44,.19-.12,.03-.2,.17-.2,.27v1.21c0,.1,.05,.15,.14,.15m1.17,.95c0-.53,.02-1.12,.05-1.26,.03-.29,.82-.65,1.24-.65,.12,0,.22,.03,.25,.1,.03,.09,.07,.51,.07,.97s-.03,.94-.07,1.09c-.1,.34-.9,.68-1.29,.68-.1,0-.19-.03-.2-.09-.03-.07-.05-.44-.05-.85" vector-effect="none"/>
          <path class="cls-12" d="M666.14,423.19c0,.99,.82,1.58,1.84,1.58,1.68,0,3.76-1.56,3.76-3.18,0-.95-.76-1.58-1.85-1.58-2.07,0-3.74,1.55-3.74,3.18" vector-effect="none"/>
          <path class="cls-12" d="M666.39,432.9v2.13l5.1-1.05v-2.13l-5.1,1.05m0-1l5.1-1.05v-2.13l-5.1,1.05v2.12m5.1-4.23v-2.12l-5.1,1.07v2.12l5.1-1.07" vector-effect="none"/>
          <line class="cls-8" x1="670.65" y1="422.83" x2="698.84" y2="422.83"/>
          <g id="Artwork_2-4" data-name="Artwork 2">
            <g class="cls-52">
              <g class="cls-56">
                <path class="cls-12" d="M652.02,425.61c0,.99,.82,1.58,1.84,1.58,1.68,0,3.76-1.56,3.76-3.18,0-.95-.76-1.58-1.85-1.58-2.07,0-3.74,1.55-3.74,3.18"/>
                <circle class="cls-9" cx="659.6" cy="424.81" r="2.17"/>
              </g>
            </g>
          </g>
          <line class="cls-7" x1="665.1" y1="422.83" x2="672.77" y2="422.83" vector-effect="none"/>
        </g>
        <g>
          <g>
            <line class="cls-5" x1="545.41" y1="480.53" x2="622.27" y2="480.53" vector-effect="none"/>
            <line class="cls-5" x1="545.41" y1="476.28" x2="622.27" y2="476.28" vector-effect="none"/>
            <line class="cls-5" x1="545.41" y1="472.03" x2="622.27" y2="472.03" vector-effect="none"/>
            <line class="cls-5" x1="545.41" y1="467.78" x2="622.27" y2="467.78" vector-effect="none"/>
            <line class="cls-5" x1="545.41" y1="463.53" x2="622.27" y2="463.53" vector-effect="none"/>
          </g>
          <path class="cls-12" d="M596.24,461.07c.07,0,.39-.15,.44-.19,.02,0,.03-.02,.05-.02,.12,0,.22,.17,.22,.31v1.68c0,.19-.09,.34-.19,.39-.1,.03-.46,.19-.46,.19-.12,.03-.2,.17-.2,.27v1.21c0,.1,.05,.15,.14,.15,.02,0,.05-.02,.07-.02,0,0,.24-.1,.39-.15,.02-.02,.03-.02,.05-.02,.12,0,.2,.19,.2,.27v2.09c0,.1,.1,.19,.22,.19,.17,0,.29-.09,.29-.19v-2.36c0-.22,.09-.34,.17-.37l1.04-.43s.05-.02,.07-.02c.14,0,.22,.2,.22,.31v2.12c0,.1,.1,.19,.22,.19,.19,0,.29-.09,.29-.19v-2.41c0-.14,.07-.34,.19-.39,.12-.05,.48-.19,.48-.19,.12-.05,.2-.19,.2-.29v-1.21c0-.09-.05-.14-.12-.14-.03,0-.05,0-.09,.02l-.44,.17c-.1,0-.22-.1-.22-.31v-1.58c0-.12,.09-.44,.22-.49l.44-.17c.12-.05,.2-.19,.2-.29v-1.21c0-.08-.05-.14-.12-.14-.03,0-.05,0-.09,.02,0,0-.34,.14-.42,.15-.12,0-.24-.09-.24-.22v-2.07c0-.1-.1-.19-.24-.19-.17,0-.27,.09-.27,.19v2.21c-.02,.17-.07,.39-.22,.49-.2,.12-.78,.36-1.07,.42-.15,0-.2-.2-.2-.34v-2.04c0-.1-.12-.19-.24-.19-.17,0-.27,.09-.27,.19v2.29c0,.24-.1,.41-.2,.46-.1,.05-.44,.19-.44,.19-.12,.03-.2,.17-.2,.27v1.21c0,.1,.05,.15,.14,.15m1.17,.95c0-.53,.02-1.12,.05-1.26,.03-.29,.82-.65,1.24-.65,.12,0,.22,.03,.25,.1,.03,.09,.07,.51,.07,.97s-.03,.94-.07,1.09c-.1,.34-.9,.68-1.29,.68-.1,0-.19-.03-.2-.09-.03-.07-.05-.44-.05-.85" vector-effect="none"/>
          <path class="cls-12" d="M563.25,471.64v2.13l5.1-1.05v-2.13l-5.1,1.05m0-1l5.1-1.05v-2.13l-5.1,1.05v2.12m5.1-4.23v-2.12l-5.1,1.07v2.12l5.1-1.07" vector-effect="none"/>
          <path class="cls-12" d="M563.55,459.2c0,.99,.82,1.58,1.84,1.58,1.68,0,3.76-1.56,3.76-3.18,0-.95-.76-1.58-1.85-1.58-2.07,0-3.74,1.55-3.74,3.18" vector-effect="none"/>
          <line class="cls-8" x1="565.5" y1="458.39" x2="590.46" y2="458.39"/>
          <g id="Artwork_1-5" data-name="Artwork 1">
            <g class="cls-58">
              <g class="cls-57">
                <path class="cls-12" d="M602.32,462.31c0,.99,.81,1.58,1.83,1.58,1.68,0,3.75-1.56,3.75-3.18,0-.95-.76-1.58-1.85-1.58-2.07,0-3.73,1.55-3.73,3.18"/>
                <path class="cls-12" d="M606.03,458.53c1.69-2.27,4.24-2.27,5.93,0l.44-.3c-2.13-3.39-4.68-3.39-6.82,0l.44,.3Z"/>
              </g>
            </g>
          </g>
          <line class="cls-7" x1="561.66" y1="458.4" x2="569.33" y2="458.4" vector-effect="none"/>
        </g>
        <g>
          <g>
            <line class="cls-5" x1="642.55" y1="483" x2="704.57" y2="483" vector-effect="none"/>
            <line class="cls-5" x1="642.55" y1="478.75" x2="704.57" y2="478.75" vector-effect="none"/>
            <line class="cls-5" x1="642.55" y1="474.5" x2="704.57" y2="474.5" vector-effect="none"/>
            <line class="cls-5" x1="642.55" y1="470.25" x2="704.57" y2="470.25" vector-effect="none"/>
            <line class="cls-5" x1="642.55" y1="466" x2="704.57" y2="466" vector-effect="none"/>
          </g>
          <path class="cls-12" d="M643.8,463.85c.07,0,.39-.15,.44-.19,.02,0,.03-.02,.05-.02,.12,0,.22,.17,.22,.31v1.68c0,.19-.09,.34-.19,.39-.1,.03-.46,.19-.46,.19-.12,.03-.2,.17-.2,.27v1.21c0,.1,.05,.15,.14,.15,.02,0,.05-.02,.07-.02,0,0,.24-.1,.39-.15,.02-.02,.03-.02,.05-.02,.12,0,.2,.19,.2,.27v2.09c0,.1,.1,.19,.22,.19,.17,0,.29-.09,.29-.19v-2.36c0-.22,.09-.34,.17-.37l1.04-.43s.05-.02,.07-.02c.14,0,.22,.2,.22,.31v2.12c0,.1,.1,.19,.22,.19,.19,0,.29-.09,.29-.19v-2.41c0-.14,.07-.34,.19-.39,.12-.05,.48-.19,.48-.19,.12-.05,.2-.19,.2-.29v-1.21c0-.09-.05-.14-.12-.14-.03,0-.05,0-.09,.02l-.44,.17c-.1,0-.22-.1-.22-.31v-1.58c0-.12,.09-.44,.22-.49l.44-.17c.12-.05,.2-.19,.2-.29v-1.21c0-.08-.05-.14-.12-.14-.03,0-.05,0-.09,.02,0,0-.34,.14-.42,.15-.12,0-.24-.09-.24-.22v-2.07c0-.1-.1-.19-.24-.19-.17,0-.27,.09-.27,.19v2.21c-.02,.17-.07,.39-.22,.49-.2,.12-.78,.36-1.07,.42-.15,0-.2-.2-.2-.34v-2.04c0-.1-.12-.19-.24-.19-.17,0-.27,.09-.27,.19v2.29c0,.24-.1,.41-.2,.46-.1,.05-.44,.19-.44,.19-.12,.03-.2,.17-.2,.27v1.21c0,.1,.05,.15,.14,.15m1.17,.95c0-.53,.02-1.12,.05-1.26,.03-.29,.82-.65,1.24-.65,.12,0,.22,.03,.25,.1,.03,.09,.07,.51,.07,.97s-.03,.94-.07,1.09c-.1,.34-.9,.68-1.29,.68-.1,0-.19-.03-.2-.09-.03-.07-.05-.44-.05-.85" vector-effect="none"/>
          <path class="cls-12" d="M674.29,462.67c0,.99,.82,1.58,1.84,1.58,1.68,0,3.76-1.56,3.76-3.18,0-.95-.76-1.58-1.85-1.58-2.07,0-3.74,1.55-3.74,3.18" vector-effect="none"/>
          <path class="cls-12" d="M674.53,472.42v2.13l5.1-1.05v-2.13l-5.1,1.05m0-1l5.1-1.05v-2.13l-5.1,1.05v2.12m5.1-4.23v-2.12l-5.1,1.07v2.12l5.1-1.07" vector-effect="none"/>
          <line class="cls-8" x1="677.56" y1="461.9" x2="697.96" y2="461.9"/>
          <g id="Artwork_2-5" data-name="Artwork 2">
            <g class="cls-61">
              <g class="cls-59">
                <path class="cls-12" d="M649.02,464.65c0,.99,.82,1.58,1.84,1.58,1.68,0,3.76-1.56,3.76-3.18,0-.95-.76-1.58-1.85-1.58-2.07,0-3.74,1.55-3.74,3.18"/>
                <circle class="cls-9" cx="656.6" cy="463.85" r="2.17"/>
              </g>
            </g>
          </g>
          <g id="Artwork_2-6" data-name="Artwork 2">
            <g class="cls-32">
              <g class="cls-33">
                <path class="cls-12" d="M660.62,468.58c0,.99,.82,1.58,1.84,1.58,1.68,0,3.76-1.56,3.76-3.18,0-.95-.76-1.58-1.85-1.58-2.07,0-3.74,1.55-3.74,3.18"/>
                <circle class="cls-9" cx="668.2" cy="467.78" r="2.17"/>
              </g>
            </g>
          </g>
          <line class="cls-7" x1="672.21" y1="461.87" x2="679.88" y2="461.87" vector-effect="none"/>
        </g>
      </g>
      <g>
        <rect class="cls-2" x="527.63" y="262.62" width="204.53" height="99.77" rx="12" ry="12"/>
        <g>
          <g>
            <line class="cls-5" x1="540.32" y1="303.06" x2="613.41" y2="303.06" vector-effect="none"/>
            <line class="cls-5" x1="540.32" y1="298.81" x2="613.41" y2="298.81" vector-effect="none"/>
            <line class="cls-5" x1="540.32" y1="294.56" x2="613.41" y2="294.56" vector-effect="none"/>
            <line class="cls-5" x1="540.32" y1="290.31" x2="613.41" y2="290.31" vector-effect="none"/>
            <line class="cls-5" x1="540.32" y1="286.06" x2="613.41" y2="286.06" vector-effect="none"/>
          </g>
          <path class="cls-12" d="M549.85,283.49c.07,0,.39-.15,.44-.19,.02,0,.03-.02,.05-.02,.12,0,.22,.17,.22,.31v1.68c0,.19-.09,.34-.19,.39-.1,.03-.46,.19-.46,.19-.12,.03-.2,.17-.2,.27v1.21c0,.1,.05,.15,.14,.15,.02,0,.05-.02,.07-.02,0,0,.24-.1,.39-.15,.02-.02,.03-.02,.05-.02,.12,0,.2,.19,.2,.27v2.09c0,.1,.1,.19,.22,.19,.17,0,.29-.09,.29-.19v-2.36c0-.22,.09-.34,.17-.37l1.04-.43s.05-.02,.07-.02c.14,0,.22,.2,.22,.31v2.12c0,.1,.1,.19,.22,.19,.19,0,.29-.09,.29-.19v-2.41c0-.14,.07-.34,.19-.39,.12-.05,.48-.19,.48-.19,.12-.05,.2-.19,.2-.29v-1.21c0-.09-.05-.14-.12-.14-.03,0-.05,0-.09,.02l-.44,.17c-.1,0-.22-.1-.22-.31v-1.58c0-.12,.09-.44,.22-.49l.44-.17c.12-.05,.2-.19,.2-.29v-1.21c0-.08-.05-.14-.12-.14-.03,0-.05,0-.09,.02,0,0-.34,.14-.42,.15-.12,0-.24-.09-.24-.22v-2.07c0-.1-.1-.19-.24-.19-.17,0-.27,.09-.27,.19v2.21c-.02,.17-.07,.39-.22,.49-.2,.12-.78,.36-1.07,.42-.15,0-.2-.2-.2-.34v-2.04c0-.1-.12-.19-.24-.19-.17,0-.27,.09-.27,.19v2.29c0,.24-.1,.41-.2,.46-.1,.05-.44,.19-.44,.19-.12,.03-.2,.17-.2,.27v1.21c0,.1,.05,.15,.14,.15m1.17,.95c0-.53,.02-1.12,.05-1.26,.03-.29,.82-.65,1.24-.65,.12,0,.22,.03,.25,.1,.03,.09,.07,.51,.07,.97s-.03,.94-.07,1.09c-.1,.34-.9,.68-1.29,.68-.1,0-.19-.03-.2-.09-.03-.07-.05-.44-.05-.85" vector-effect="none"/>
          <g id="Artwork_2-7" data-name="Artwork 2">
            <g class="cls-36">
              <g class="cls-35">
                <path class="cls-12" d="M556.07,284.76c0,.99,.82,1.58,1.84,1.58,1.68,0,3.76-1.56,3.76-3.18,0-.95-.76-1.58-1.85-1.58-2.07,0-3.74,1.55-3.74,3.18"/>
                <circle class="cls-9" cx="563.65" cy="283.96" r="2.17"/>
              </g>
            </g>
          </g>
          <g id="Artwork_2-8" data-name="Artwork 2">
            <g class="cls-34">
              <g class="cls-37">
                <path class="cls-12" d="M556.07,289.28c0,.99,.82,1.58,1.84,1.58,1.68,0,3.76-1.56,3.76-3.18,0-.95-.76-1.58-1.85-1.58-2.07,0-3.74,1.55-3.74,3.18"/>
                <circle class="cls-9" cx="563.65" cy="288.48" r="2.17"/>
              </g>
            </g>
          </g>
          <g id="Artwork_2-9" data-name="Artwork 2">
            <g class="cls-40">
              <g class="cls-38">
                <path class="cls-12" d="M592.87,282.34c0,.99,.82,1.58,1.84,1.58,1.68,0,3.76-1.56,3.76-3.18,0-.95-.76-1.58-1.85-1.58-2.07,0-3.74,1.55-3.74,3.18"/>
                <circle class="cls-9" cx="600.45" cy="281.54" r="2.17"/>
              </g>
            </g>
          </g>
          <line class="cls-7" x1="589.9" y1="281.71" x2="605.03" y2="281.71" vector-effect="none"/>
        </g>
        <g>
          <g>
            <line class="cls-5" x1="638.95" y1="311.39" x2="696.11" y2="311.39" vector-effect="none"/>
            <line class="cls-5" x1="638.95" y1="307.14" x2="696.11" y2="307.14" vector-effect="none"/>
            <line class="cls-5" x1="638.95" y1="302.89" x2="696.11" y2="302.89" vector-effect="none"/>
            <line class="cls-5" x1="638.95" y1="298.64" x2="696.11" y2="298.64" vector-effect="none"/>
            <line class="cls-5" x1="638.95" y1="294.39" x2="696.11" y2="294.39" vector-effect="none"/>
          </g>
          <path class="cls-12" d="M674.24,291.87c.07,0,.39-.15,.44-.19,.02,0,.03-.02,.05-.02,.12,0,.22,.17,.22,.31v1.68c0,.19-.09,.34-.19,.39-.1,.03-.46,.19-.46,.19-.12,.03-.2,.17-.2,.27v1.21c0,.1,.05,.15,.14,.15,.02,0,.05-.02,.07-.02,0,0,.24-.1,.39-.15,.02-.02,.03-.02,.05-.02,.12,0,.2,.19,.2,.27v2.09c0,.1,.1,.19,.22,.19,.17,0,.29-.09,.29-.19v-2.36c0-.22,.09-.34,.17-.37l1.04-.43s.05-.02,.07-.02c.14,0,.22,.2,.22,.31v2.12c0,.1,.1,.19,.22,.19,.19,0,.29-.09,.29-.19v-2.41c0-.14,.07-.34,.19-.39,.12-.05,.48-.19,.48-.19,.12-.05,.2-.19,.2-.29v-1.21c0-.09-.05-.14-.12-.14-.03,0-.05,0-.09,.02l-.44,.17c-.1,0-.22-.1-.22-.31v-1.58c0-.12,.09-.44,.22-.49l.44-.17c.12-.05,.2-.19,.2-.29v-1.21c0-.08-.05-.14-.12-.14-.03,0-.05,0-.09,.02,0,0-.34,.14-.42,.15-.12,0-.24-.09-.24-.22v-2.07c0-.1-.1-.19-.24-.19-.17,0-.27,.09-.27,.19v2.21c-.02,.17-.07,.39-.22,.49-.2,.12-.78,.36-1.07,.42-.15,0-.2-.2-.2-.34v-2.04c0-.1-.12-.19-.24-.19-.17,0-.27,.09-.27,.19v2.29c0,.24-.1,.41-.2,.46-.1,.05-.44,.19-.44,.19-.12,.03-.2,.17-.2,.27v1.21c0,.1,.05,.15,.14,.15m1.17,.95c0-.53,.02-1.12,.05-1.26,.03-.29,.82-.65,1.24-.65,.12,0,.22,.03,.25,.1,.03,.09,.07,.51,.07,.97s-.03,.94-.07,1.09c-.1,.34-.9,.68-1.29,.68-.1,0-.19-.03-.2-.09-.03-.07-.05-.44-.05-.85" vector-effect="none"/>
          <g id="Artwork_2-10" data-name="Artwork 2">
            <g class="cls-39">
              <g class="cls-41">
                <path class="cls-12" d="M656.89,290.65c0,.99,.82,1.58,1.84,1.58,1.68,0,3.76-1.56,3.76-3.18,0-.95-.76-1.58-1.85-1.58-2.07,0-3.74,1.55-3.74,3.18"/>
                <circle class="cls-9" cx="664.46" cy="289.85" r="2.17"/>
              </g>
            </g>
          </g>
          <g>
            <g id="Artwork_1-6" data-name="Artwork 1">
              <g class="cls-49">
                <g class="cls-51">
                  <path class="cls-12" d="M679.43,293.22c0,.92,.76,1.47,1.71,1.47,1.56,0,3.49-1.46,3.49-2.96,0-.89-.71-1.47-1.72-1.47-1.93,0-3.48,1.44-3.48,2.96"/>
                  <path class="cls-12" d="M682.89,289.69c1.58-2.12,3.95-2.12,5.53,0l.41-.28c-1.99-3.16-4.36-3.16-6.35,0l.41,.28Z"/>
                </g>
              </g>
            </g>
            <g>
              <path class="cls-12" d="M679.43,297.37c0,.92,.76,1.47,1.71,1.47,1.56,0,3.49-1.46,3.49-2.96,0-.89-.71-1.47-1.72-1.47-1.93,0-3.48,1.44-3.48,2.96"/>
              <path class="cls-12" d="M681.87,299.3c1.58,2.12,3.95,2.12,5.53,0l.41,.28c-1.99,3.16-4.36,3.16-6.35,0l.41-.28Z"/>
            </g>
          </g>
          <line class="cls-7" x1="654.22" y1="289.85" x2="668.75" y2="289.85" vector-effect="none"/>
        </g>
        <g>
          <g>
            <line class="cls-5" x1="676.23" y1="347.86" x2="721.74" y2="347.86" vector-effect="none"/>
            <line class="cls-5" x1="676.23" y1="343.61" x2="721.74" y2="343.61" vector-effect="none"/>
            <line class="cls-5" x1="676.23" y1="339.36" x2="721.74" y2="339.36" vector-effect="none"/>
            <line class="cls-5" x1="676.23" y1="335.11" x2="721.74" y2="335.11" vector-effect="none"/>
            <line class="cls-5" x1="676.23" y1="330.86" x2="721.74" y2="330.86" vector-effect="none"/>
          </g>
          <path class="cls-12" d="M678.67,327.24c.07,0,.39-.15,.44-.19,.02,0,.03-.02,.05-.02,.12,0,.22,.17,.22,.31v1.68c0,.19-.09,.34-.19,.39-.1,.03-.46,.19-.46,.19-.12,.03-.2,.17-.2,.27v1.21c0,.1,.05,.15,.14,.15,.02,0,.05-.02,.07-.02,0,0,.24-.1,.39-.15,.02-.02,.03-.02,.05-.02,.12,0,.2,.19,.2,.27v2.09c0,.1,.1,.19,.22,.19,.17,0,.29-.09,.29-.19v-2.36c0-.22,.09-.34,.17-.37l1.04-.43s.05-.02,.07-.02c.14,0,.22,.2,.22,.31v2.12c0,.1,.1,.19,.22,.19,.19,0,.29-.09,.29-.19v-2.41c0-.14,.07-.34,.19-.39,.12-.05,.48-.19,.48-.19,.12-.05,.2-.19,.2-.29v-1.21c0-.09-.05-.14-.12-.14-.03,0-.05,0-.09,.02l-.44,.17c-.1,0-.22-.1-.22-.31v-1.58c0-.12,.09-.44,.22-.49l.44-.17c.12-.05,.2-.19,.2-.29v-1.21c0-.08-.05-.14-.12-.14-.03,0-.05,0-.09,.02,0,0-.34,.14-.42,.15-.12,0-.24-.09-.24-.22v-2.07c0-.1-.1-.19-.24-.19-.17,0-.27,.09-.27,.19v2.21c-.02,.17-.07,.39-.22,.49-.2,.12-.78,.36-1.07,.42-.15,0-.2-.2-.2-.34v-2.04c0-.1-.12-.19-.24-.19-.17,0-.27,.09-.27,.19v2.29c0,.24-.1,.41-.2,.46-.1,.05-.44,.19-.44,.19-.12,.03-.2,.17-.2,.27v1.21c0,.1,.05,.15,.14,.15m1.17,.95c0-.53,.02-1.12,.05-1.26,.03-.29,.82-.65,1.24-.65,.12,0,.22,.03,.25,.1,.03,.09,.07,.51,.07,.97s-.03,.94-.07,1.09c-.1,.34-.9,.68-1.29,.68-.1,0-.19-.03-.2-.09-.03-.07-.05-.44-.05-.85" vector-effect="none"/>
          <g id="Artwork_1-7" data-name="Artwork 1">
            <g class="cls-48">
              <g class="cls-47">
                <path class="cls-12" d="M698.76,333.02c0,.99,.81,1.58,1.83,1.58,1.68,0,3.75-1.56,3.75-3.18,0-.95-.76-1.58-1.85-1.58-2.07,0-3.73,1.55-3.73,3.18"/>
                <path class="cls-12" d="M702.47,329.23c1.69-2.27,4.24-2.27,5.93,0l.44-.3c-2.13-3.39-4.68-3.39-6.82,0l.44,.3Z"/>
              </g>
            </g>
          </g>
          <g id="Artwork_2-11" data-name="Artwork 2">
            <g class="cls-42">
              <g class="cls-43">
                <path class="cls-12" d="M711.67,325.63c0,.99,.82,1.58,1.84,1.58,1.68,0,3.76-1.56,3.76-3.18,0-.95-.76-1.58-1.85-1.58-2.07,0-3.74,1.55-3.74,3.18"/>
                <circle class="cls-9" cx="719.24" cy="324.83" r="2.17"/>
              </g>
            </g>
          </g>
          <g id="Artwork_2-12" data-name="Artwork 2">
            <g class="cls-44">
              <g class="cls-45">
                <path class="cls-12" d="M683.83,328.51c0,.99,.82,1.58,1.84,1.58,1.68,0,3.76-1.56,3.76-3.18,0-.95-.76-1.58-1.85-1.58-2.07,0-3.74,1.55-3.74,3.18"/>
                <circle class="cls-9" cx="691.4" cy="327.71" r="2.17"/>
              </g>
            </g>
          </g>
          <line class="cls-7" x1="710.16" y1="325.29" x2="723.18" y2="325.29" vector-effect="none"/>
        </g>
        <g>
          <g>
            <line class="cls-5" x1="570.96" y1="345.49" x2="616.5" y2="345.49" vector-effect="none"/>
            <line class="cls-5" x1="570.96" y1="341.24" x2="616.5" y2="341.24" vector-effect="none"/>
            <line class="cls-5" x1="570.96" y1="336.99" x2="616.5" y2="336.99" vector-effect="none"/>
            <line class="cls-5" x1="570.96" y1="332.74" x2="616.5" y2="332.74" vector-effect="none"/>
            <line class="cls-5" x1="570.96" y1="328.49" x2="616.5" y2="328.49" vector-effect="none"/>
          </g>
          <path class="cls-12" d="M581.32,331.66c0,.99,.82,1.58,1.84,1.58,1.68,0,3.76-1.56,3.76-3.18,0-.95-.76-1.58-1.85-1.58-2.07,0-3.74,1.55-3.74,3.18" vector-effect="none"/>
          <g id="Artwork_1-8" data-name="Artwork 1">
            <g class="cls-50">
              <g class="cls-46">
                <path class="cls-12" d="M602.13,323.59c0,.99,.81,1.58,1.83,1.58,1.68,0,3.75-1.56,3.75-3.18,0-.95-.76-1.58-1.85-1.58-2.07,0-3.73,1.55-3.73,3.18"/>
                <path class="cls-12" d="M605.84,319.8c1.69-2.27,4.24-2.27,5.93,0l.44-.3c-2.13-3.39-4.68-3.39-6.82,0l.44,.3Z"/>
              </g>
            </g>
          </g>
          <g>
            <path class="cls-12" d="M596.79,326.56c0,.99,.81,1.58,1.83,1.58,1.68,0,3.75-1.56,3.75-3.18,0-.95-.76-1.58-1.85-1.58-2.07,0-3.73,1.55-3.73,3.18"/>
            <path class="cls-12" d="M606.12,328.66c-1.74,2.33-4.35,2.33-6.09,0l-.45,.3c2.19,3.48,4.8,3.48,6.99,0l-.45-.3Z"/>
            <rect class="cls-1" x="596.79" y="319.93" width="10.09" height="8.21"/>
          </g>
          <path class="cls-12" d="M592.21,325.78c.07,0,.39-.15,.44-.19,.02,0,.03-.02,.05-.02,.12,0,.22,.17,.22,.31v1.68c0,.19-.09,.34-.19,.39-.1,.03-.46,.19-.46,.19-.12,.03-.2,.17-.2,.27v1.21c0,.1,.05,.15,.14,.15,.02,0,.05-.02,.07-.02,0,0,.24-.1,.39-.15,.02-.02,.03-.02,.05-.02,.12,0,.2,.19,.2,.27v2.09c0,.1,.1,.19,.22,.19,.17,0,.29-.09,.29-.19v-2.36c0-.22,.09-.34,.17-.37l1.04-.43s.05-.02,.07-.02c.14,0,.22,.2,.22,.31v2.12c0,.1,.1,.19,.22,.19,.19,0,.29-.09,.29-.19v-2.41c0-.14,.07-.34,.19-.39,.12-.05,.48-.19,.48-.19,.12-.05,.2-.19,.2-.29v-1.21c0-.09-.05-.14-.12-.14-.03,0-.05,0-.09,.02l-.44,.17c-.1,0-.22-.1-.22-.31v-1.58c0-.12,.09-.44,.22-.49l.44-.17c.12-.05,.2-.19,.2-.29v-1.21c0-.08-.05-.14-.12-.14-.03,0-.05,0-.09,.02,0,0-.34,.14-.42,.15-.12,0-.24-.09-.24-.22v-2.07c0-.1-.1-.19-.24-.19-.17,0-.27,.09-.27,.19v2.21c-.02,.17-.07,.39-.22,.49-.2,.12-.78,.36-1.07,.42-.15,0-.2-.2-.2-.34v-2.04c0-.1-.12-.19-.24-.19-.17,0-.27,.09-.27,.19v2.29c0,.24-.1,.41-.2,.46-.1,.05-.44,.19-.44,.19-.12,.03-.2,.17-.2,.27v1.21c0,.1,.05,.15,.14,.15m1.17,.95c0-.53,.02-1.12,.05-1.26,.03-.29,.82-.65,1.24-.65,.12,0,.22,.03,.25,.1,.03,.09,.07,.51,.07,.97s-.03,.94-.07,1.09c-.1,.34-.9,.68-1.29,.68-.1,0-.19-.03-.2-.09-.03-.07-.05-.44-.05-.85" vector-effect="none"/>
          <line class="cls-7" x1="600.86" y1="322.65" x2="608.53" y2="322.65" vector-effect="none"/>
        </g>
      </g>
      <g>
        <rect class="cls-2" x="121.26" y="369.87" width="289.75" height="121.58" rx="12" ry="12"/>
        <g>
          <path d="M270.77,391.27c1.09,0,1.85,.63,1.85,1.58,0,1.61-2.07,3.18-3.76,3.18-1.02,0-1.84-.6-1.84-1.58,0-1.63,1.67-3.18,3.74-3.18Z"/>
          <path d="M282.81,386.9c1.09,0,1.85,.63,1.85,1.58,0,1.61-2.07,3.18-3.76,3.18-1.02,0-1.84-.6-1.84-1.58,0-1.63,1.67-3.18,3.74-3.18Z"/>
          <path d="M294.86,391.15c1.09,0,1.85,.63,1.85,1.58,0,1.61-2.07,3.18-3.76,3.18-1.02,0-1.84-.6-1.84-1.58,0-1.63,1.67-3.18,3.74-3.18Z"/>
          <path d="M303.37,386.9c1.09,0,1.85,.63,1.85,1.58,0,1.61-2.07,3.18-3.76,3.18-1.02,0-1.84-.6-1.84-1.58,0-1.63,1.67-3.18,3.74-3.18Z"/>
          <path d="M311.88,391.27c1.09,0,1.85,.63,1.85,1.58,0,1.61-2.07,3.18-3.76,3.18-1.02,0-1.84-.6-1.84-1.58,0-1.63,1.67-3.18,3.74-3.18Z"/>
          <path d="M319.08,387.15c1.09,0,1.85,.63,1.85,1.58,0,1.61-2.07,3.18-3.76,3.18-1.02,0-1.84-.6-1.84-1.58,0-1.63,1.67-3.18,3.74-3.18Z"/>
          <path d="M326.28,383.9c1.09,0,1.85,.63,1.85,1.58,0,1.61-2.07,3.18-3.76,3.18-1.02,0-1.84-.6-1.84-1.58,0-1.63,1.67-3.18,3.74-3.18Z"/>
          <path d="M333.08,391.27c1.09,0,1.85,.63,1.85,1.58,0,1.61-2.07,3.18-3.76,3.18-1.02,0-1.84-.6-1.84-1.58,0-1.63,1.67-3.18,3.74-3.18Z"/>
          <path d="M340.29,387.15c1.09,0,1.85,.63,1.85,1.58,0,1.61-2.07,3.18-3.76,3.18-1.02,0-1.84-.6-1.84-1.58,0-1.63,1.67-3.18,3.74-3.18Z"/>
          <path d="M348.8,383.9c1.09,0,1.85,.63,1.85,1.58,0,1.61-2.07,3.18-3.76,3.18-1.02,0-1.84-.6-1.84-1.58,0-1.63,1.67-3.18,3.74-3.18Z"/>
          <path d="M357.31,387.15c1.09,0,1.85,.63,1.85,1.58,0,1.61-2.07,3.18-3.76,3.18-1.02,0-1.84-.6-1.84-1.58,0-1.63,1.67-3.18,3.74-3.18Z"/>
          <path d="M369.35,391.27c1.09,0,1.85,.63,1.85,1.58,0,1.61-2.07,3.18-3.76,3.18-1.02,0-1.84-.6-1.84-1.58,0-1.63,1.67-3.18,3.74-3.18Z"/>
          <rect x="267.03" y="414.78" width="48.82" height="2.12"/>
          <polygon points="267.03 416.9 267.03 414.78 315.85 411.59 315.85 413.71 267.03 416.9"/>
          <polygon points="267.03 416.9 267.03 414.78 315.85 408.4 315.85 410.53 267.03 416.9"/>
          <rect x="322.54" y="414.78" width="43.58" height="2.12"/>
          <polygon points="322.54 413.71 322.54 411.59 366.12 414.78 366.12 416.9 322.54 413.71"/>
          <polygon points="322.54 410.53 322.54 408.4 366.12 414.78 366.12 416.9 322.54 410.53"/>
          <g>
            <line class="cls-4" x1="265.67" y1="408.4" x2="373.9" y2="408.4"/>
            <line class="cls-4" x1="265.67" y1="404.15" x2="373.9" y2="404.15"/>
            <line class="cls-4" x1="265.67" y1="399.9" x2="373.9" y2="399.9"/>
            <line class="cls-4" x1="265.67" y1="395.65" x2="373.9" y2="395.65"/>
            <line class="cls-4" x1="265.67" y1="391.4" x2="373.9" y2="391.4"/>
          </g>
          <path d="M274.37,388.72v-1.21c0-.1,.08-.24,.2-.27,0,0,.34-.14,.44-.19s.2-.22,.2-.46v-2.29c0-.1,.1-.19,.27-.19,.12,0,.24,.08,.24,.19v2.04c0,.14,.05,.34,.2,.34,.29-.07,.87-.31,1.07-.42,.15-.1,.2-.32,.22-.49v-2.21c0-.1,.1-.19,.27-.19,.14,0,.24,.08,.24,.19v2.07c0,.14,.12,.22,.24,.22,.08-.02,.43-.15,.43-.15,.03-.02,.05-.02,.08-.02,.07,0,.12,.05,.12,.14v1.21c0,.1-.08,.24-.2,.29l-.44,.17c-.14,.05-.22,.37-.22,.49v1.58c0,.2,.12,.31,.22,.31l.44-.17s.05-.02,.08-.02c.07,0,.12,.05,.12,.14v1.21c0,.1-.08,.24-.2,.29,0,0-.36,.14-.48,.19s-.19,.25-.19,.39v2.41c0,.1-.1,.19-.29,.19-.12,0-.22-.08-.22-.19v-2.12c0-.1-.08-.31-.22-.31-.02,0-.05,.02-.07,.02l-1.04,.42c-.08,.03-.17,.15-.17,.37v2.36c0,.1-.12,.19-.29,.19-.12,0-.22-.08-.22-.19v-2.09c0-.08-.08-.27-.2-.27-.02,0-.03,0-.05,.02-.15,.05-.39,.15-.39,.15-.02,0-.05,.02-.07,.02-.08,0-.14-.05-.14-.15v-1.21c0-.1,.08-.24,.2-.27,0,0,.36-.15,.46-.19,.1-.05,.19-.2,.19-.39v-1.68c0-.14-.1-.31-.22-.31-.02,0-.03,.02-.05,.02-.05,.03-.37,.19-.44,.19-.08,0-.14-.05-.14-.15Zm1.36,1.95c.02,.05,.1,.08,.2,.08,.39,0,1.19-.34,1.29-.68,.03-.15,.07-.63,.07-1.09s-.03-.88-.07-.97c-.03-.07-.14-.1-.25-.1-.42,0-1.21,.36-1.24,.65-.03,.14-.05,.73-.05,1.26,0,.41,.02,.78,.05,.85Z"/>
          <line class="cls-7" x1="321.34" y1="386.28" x2="329.01" y2="386.28" vector-effect="none"/>
          <line class="cls-7" x1="344.02" y1="386.28" x2="351.69" y2="386.28" vector-effect="none"/>
        </g>
        <g>
          <path d="M151.37,446.65c1.09,0,1.85,.63,1.85,1.58,0,1.61-2.07,3.18-3.76,3.18-1.02,0-1.84-.6-1.84-1.58,0-1.63,1.67-3.18,3.74-3.18Z"/>
          <g>
            <path d="M165.49,451.03c1.09,0,1.85,.63,1.85,1.58,0,1.61-2.07,3.18-3.76,3.18-1.02,0-1.84-.6-1.84-1.58,0-1.63,1.67-3.18,3.74-3.18Z"/>
            <path d="M174,451.03c1.09,0,1.85,.63,1.85,1.58,0,1.61-2.07,3.18-3.76,3.18-1.02,0-1.84-.6-1.84-1.58,0-1.63,1.67-3.18,3.74-3.18Z"/>
            <path d="M182.51,451.03c1.09,0,1.85,.63,1.85,1.58,0,1.61-2.07,3.18-3.76,3.18-1.02,0-1.84-.6-1.84-1.58,0-1.63,1.67-3.18,3.74-3.18Z"/>
            <path d="M189.72,451.03c1.09,0,1.85,.63,1.85,1.58,0,1.61-2.07,3.18-3.76,3.18-1.02,0-1.84-.6-1.84-1.58,0-1.63,1.67-3.18,3.74-3.18Z"/>
            <path d="M196.92,451.03c1.09,0,1.85,.63,1.85,1.58,0,1.61-2.07,3.18-3.76,3.18-1.02,0-1.84-.6-1.84-1.58,0-1.63,1.67-3.18,3.74-3.18Z"/>
            <path d="M204.12,451.03c1.09,0,1.85,.63,1.85,1.58,0,1.61-2.07,3.18-3.76,3.18-1.02,0-1.84-.6-1.84-1.58,0-1.63,1.67-3.18,3.74-3.18Z"/>
            <path d="M211.33,451.03c1.09,0,1.85,.63,1.85,1.58,0,1.61-2.07,3.18-3.76,3.18-1.02,0-1.84-.6-1.84-1.58,0-1.63,1.67-3.18,3.74-3.18Z"/>
            <path d="M219.84,451.03c1.09,0,1.85,.63,1.85,1.58,0,1.61-2.07,3.18-3.76,3.18-1.02,0-1.84-.6-1.84-1.58,0-1.63,1.67-3.18,3.74-3.18Z"/>
            <rect x="161.75" y="468.28" width="24.73" height="2.12"/>
            <polygon points="161.75 470.41 161.75 468.28 186.49 465.09 186.49 467.22 161.75 470.41"/>
            <polygon points="161.75 470.41 161.75 468.28 186.49 461.91 186.49 464.03 161.75 470.41"/>
            <rect x="193.18" y="468.28" width="23.43" height="2.12"/>
            <polygon points="193.18 467.22 193.18 465.09 216.61 468.28 216.61 470.41 193.18 467.22"/>
            <polygon points="193.18 464.03 193.18 461.91 216.61 468.28 216.61 470.41 193.18 464.03"/>
          </g>
          <g>
            <line class="cls-4" x1="138.91" y1="468.39" x2="223.63" y2="468.39"/>
            <line class="cls-4" x1="138.91" y1="464.14" x2="223.63" y2="464.14"/>
            <line class="cls-4" x1="138.91" y1="459.89" x2="223.63" y2="459.89"/>
            <line class="cls-4" x1="138.91" y1="455.64" x2="223.63" y2="455.64"/>
            <line class="cls-4" x1="138.91" y1="451.39" x2="223.63" y2="451.39"/>
          </g>
          <path d="M140.34,448.5v-1.21c0-.1,.08-.24,.2-.27,0,0,.34-.14,.44-.19s.2-.22,.2-.46v-2.29c0-.1,.1-.19,.27-.19,.12,0,.24,.08,.24,.19v2.04c0,.14,.05,.34,.2,.34,.29-.07,.87-.31,1.07-.42,.15-.1,.2-.32,.22-.49v-2.21c0-.1,.1-.19,.27-.19,.14,0,.24,.08,.24,.19v2.07c0,.14,.12,.22,.24,.22,.08-.02,.43-.15,.43-.15,.03-.02,.05-.02,.08-.02,.07,0,.12,.05,.12,.14v1.21c0,.1-.08,.24-.2,.29l-.44,.17c-.14,.05-.22,.37-.22,.49v1.58c0,.2,.12,.31,.22,.31l.44-.17s.05-.02,.08-.02c.07,0,.12,.05,.12,.14v1.21c0,.1-.08,.24-.2,.29,0,0-.36,.14-.48,.19s-.19,.25-.19,.39v2.41c0,.1-.1,.19-.29,.19-.12,0-.22-.08-.22-.19v-2.12c0-.1-.08-.31-.22-.31-.02,0-.05,.02-.07,.02l-1.04,.42c-.08,.03-.17,.15-.17,.37v2.36c0,.1-.12,.19-.29,.19-.12,0-.22-.08-.22-.19v-2.09c0-.08-.08-.27-.2-.27-.02,0-.03,0-.05,.02-.15,.05-.39,.15-.39,.15-.02,0-.05,.02-.07,.02-.08,0-.14-.05-.14-.15v-1.21c0-.1,.08-.24,.2-.27,0,0,.36-.15,.46-.19,.1-.05,.19-.2,.19-.39v-1.68c0-.14-.1-.31-.22-.31-.02,0-.03,.02-.05,.02-.05,.03-.37,.19-.44,.19-.08,0-.14-.05-.14-.15Zm1.36,1.95c.02,.05,.1,.08,.2,.08,.39,0,1.19-.34,1.29-.68,.03-.15,.07-.63,.07-1.09s-.03-.88-.07-.97c-.03-.07-.14-.1-.25-.1-.42,0-1.21,.36-1.24,.65-.03,.14-.05,.73-.05,1.26,0,.41,.02,.78,.05,.85Z"/>
        </g>
        <g>
          <g>
            <line class="cls-4" x1="138.81" y1="406.84" x2="228.85" y2="406.84"/>
            <line class="cls-4" x1="138.81" y1="402.59" x2="228.85" y2="402.59"/>
            <line class="cls-4" x1="138.81" y1="398.34" x2="228.85" y2="398.34"/>
            <line class="cls-4" x1="138.81" y1="394.09" x2="228.85" y2="394.09"/>
            <line class="cls-4" x1="138.81" y1="389.84" x2="228.85" y2="389.84"/>
          </g>
          <path d="M151.79,385.59c1.09,0,1.85,.63,1.85,1.58,0,1.61-2.07,3.18-3.76,3.18-1.02,0-1.84-.6-1.84-1.58,0-1.63,1.67-3.18,3.74-3.18Z"/>
          <path d="M163.84,385.59c1.09,0,1.85,.63,1.85,1.58,0,1.61-2.07,3.18-3.76,3.18-1.02,0-1.84-.6-1.84-1.58,0-1.63,1.67-3.18,3.74-3.18Z"/>
          <path d="M172.35,385.59c1.09,0,1.85,.63,1.85,1.58,0,1.61-2.07,3.18-3.76,3.18-1.02,0-1.84-.6-1.84-1.58,0-1.63,1.67-3.18,3.74-3.18Z"/>
          <path d="M180.86,385.59c1.09,0,1.85,.63,1.85,1.58,0,1.61-2.07,3.18-3.76,3.18-1.02,0-1.84-.6-1.84-1.58,0-1.63,1.67-3.18,3.74-3.18Z"/>
          <path d="M188.06,385.59c1.09,0,1.85,.63,1.85,1.58,0,1.61-2.07,3.18-3.76,3.18-1.02,0-1.84-.6-1.84-1.58,0-1.63,1.67-3.18,3.74-3.18Z"/>
          <path d="M195.26,385.59c1.09,0,1.85,.63,1.85,1.58,0,1.61-2.07,3.18-3.76,3.18-1.02,0-1.84-.6-1.84-1.58,0-1.63,1.67-3.18,3.74-3.18Z"/>
          <path d="M203.77,385.59c1.09,0,1.85,.63,1.85,1.58,0,1.61-2.07,3.18-3.76,3.18-1.02,0-1.84-.6-1.84-1.58,0-1.63,1.67-3.18,3.74-3.18Z"/>
          <path d="M212.28,385.59c1.09,0,1.85,.63,1.85,1.58,0,1.61-2.07,3.18-3.76,3.18-1.02,0-1.84-.6-1.84-1.58,0-1.63,1.67-3.18,3.74-3.18Z"/>
          <path d="M224.33,385.59c1.09,0,1.85,.63,1.85,1.58,0,1.61-2.07,3.18-3.76,3.18-1.02,0-1.84-.6-1.84-1.58,0-1.63,1.67-3.18,3.74-3.18Z"/>
          <rect x="148.05" y="407.15" width="36.78" height="2.12"/>
          <polygon points="148.05 409.28 148.05 407.15 184.83 403.96 184.83 406.09 148.05 409.28"/>
          <polygon points="148.05 409.28 148.05 407.15 184.83 400.78 184.83 402.9 148.05 409.28"/>
          <rect x="191.52" y="407.15" width="29.58" height="2.12"/>
          <polygon points="191.52 406.09 191.52 403.96 221.1 407.15 221.1 409.28 191.52 406.09"/>
          <polygon points="191.52 402.9 191.52 400.78 221.1 407.15 221.1 409.28 191.52 402.9"/>
          <path d="M142.46,387.39v-1.21c0-.1,.08-.24,.2-.27,0,0,.34-.14,.44-.19s.2-.22,.2-.46v-2.29c0-.1,.1-.19,.27-.19,.12,0,.24,.08,.24,.19v2.04c0,.14,.05,.34,.2,.34,.29-.07,.87-.31,1.07-.42,.15-.1,.2-.32,.22-.49v-2.21c0-.1,.1-.19,.27-.19,.14,0,.24,.08,.24,.19v2.07c0,.14,.12,.22,.24,.22,.08-.02,.43-.15,.43-.15,.03-.02,.05-.02,.08-.02,.07,0,.12,.05,.12,.14v1.21c0,.1-.08,.24-.2,.29l-.44,.17c-.14,.05-.22,.37-.22,.49v1.58c0,.2,.12,.31,.22,.31l.44-.17s.05-.02,.08-.02c.07,0,.12,.05,.12,.14v1.21c0,.1-.08,.24-.2,.29,0,0-.36,.14-.48,.19s-.19,.25-.19,.39v2.41c0,.1-.1,.19-.29,.19-.12,0-.22-.08-.22-.19v-2.12c0-.1-.08-.31-.22-.31-.02,0-.05,.02-.07,.02l-1.04,.42c-.08,.03-.17,.15-.17,.37v2.36c0,.1-.12,.19-.29,.19-.12,0-.22-.08-.22-.19v-2.09c0-.08-.08-.27-.2-.27-.02,0-.03,0-.05,.02-.15,.05-.39,.15-.39,.15-.02,0-.05,.02-.07,.02-.08,0-.14-.05-.14-.15v-1.21c0-.1,.08-.24,.2-.27,0,0,.36-.15,.46-.19,.1-.05,.19-.2,.19-.39v-1.68c0-.14-.1-.31-.22-.31-.02,0-.03,.02-.05,.02-.05,.03-.37,.19-.44,.19-.08,0-.14-.05-.14-.15Zm1.36,1.95c.02,.05,.1,.08,.2,.08,.39,0,1.19-.34,1.29-.68,.03-.15,.07-.63,.07-1.09s-.03-.88-.07-.97c-.03-.07-.14-.1-.25-.1-.42,0-1.21,.36-1.24,.65-.03,.14-.05,.73-.05,1.26,0,.41,.02,.78,.05,.85Z"/>
        </g>
        <g>
          <path class="cls-12" d="M318.95,453.22c0,.99,.82,1.58,1.84,1.58,1.68,0,3.76-1.56,3.76-3.18,0-.95-.76-1.58-1.85-1.58-2.07,0-3.74,1.55-3.74,3.18" vector-effect="none"/>
          <path class="cls-12" d="M327.87,453.22c0,.99,.82,1.58,1.84,1.58,1.68,0,3.76-1.56,3.76-3.18,0-.95-.76-1.58-1.85-1.58-2.07,0-3.74,1.55-3.74,3.18" vector-effect="none"/>
          <path class="cls-12" d="M250.31,457.72c0,.99,.82,1.58,1.84,1.58,1.68,0,3.76-1.56,3.76-3.18,0-.95-.76-1.58-1.85-1.58-2.07,0-3.74,1.55-3.74,3.18" vector-effect="none"/>
          <path class="cls-12" d="M262.34,457.72c0,.99,.82,1.58,1.84,1.58,1.68,0,3.76-1.56,3.76-3.18,0-.95-.76-1.58-1.85-1.58-2.07,0-3.74,1.55-3.74,3.18" vector-effect="none"/>
          <path class="cls-12" d="M274.37,457.72c0,.99,.82,1.58,1.84,1.58,1.68,0,3.76-1.56,3.76-3.18,0-.95-.76-1.58-1.85-1.58-2.07,0-3.74,1.55-3.74,3.18" vector-effect="none"/>
          <path class="cls-12" d="M285.87,453.59c0,.99,.82,1.58,1.84,1.58,1.68,0,3.76-1.56,3.76-3.18,0-.95-.76-1.58-1.85-1.58-2.07,0-3.74,1.55-3.74,3.18" vector-effect="none"/>
          <path class="cls-12" d="M291.37,457.72c0,.99,.82,1.58,1.84,1.58,1.68,0,3.76-1.56,3.76-3.18,0-.95-.76-1.58-1.85-1.58-2.07,0-3.74,1.55-3.74,3.18" vector-effect="none"/>
          <path class="cls-12" d="M282.15,452.39c.07,0,.39-.15,.44-.19,.02,0,.03-.02,.05-.02,.12,0,.22,.17,.22,.31v1.68c0,.19-.09,.34-.19,.39-.1,.03-.46,.19-.46,.19-.12,.03-.2,.17-.2,.27v1.21c0,.1,.05,.15,.14,.15,.02,0,.05-.02,.07-.02,0,0,.24-.1,.39-.15,.02-.02,.03-.02,.05-.02,.12,0,.2,.19,.2,.27v2.09c0,.1,.1,.19,.22,.19,.17,0,.29-.09,.29-.19v-2.36c0-.22,.09-.34,.17-.37l1.04-.43s.05-.02,.07-.02c.14,0,.22,.2,.22,.31v2.12c0,.1,.1,.19,.22,.19,.19,0,.29-.09,.29-.19v-2.41c0-.14,.07-.34,.19-.39,.12-.05,.48-.19,.48-.19,.12-.05,.2-.19,.2-.29v-1.21c0-.09-.05-.14-.12-.14-.03,0-.05,0-.09,.02l-.44,.17c-.1,0-.22-.1-.22-.31v-1.58c0-.12,.09-.44,.22-.49l.44-.17c.12-.05,.2-.19,.2-.29v-1.21c0-.08-.05-.14-.12-.14-.03,0-.05,0-.09,.02,0,0-.34,.14-.42,.15-.12,0-.24-.09-.24-.22v-2.07c0-.1-.1-.19-.24-.19-.17,0-.27,.09-.27,.19v2.21c-.02,.17-.07,.39-.22,.49-.2,.12-.78,.36-1.07,.42-.15,0-.2-.2-.2-.34v-2.04c0-.1-.12-.19-.24-.19-.17,0-.27,.09-.27,.19v2.29c0,.24-.1,.41-.2,.46-.1,.05-.44,.19-.44,.19-.12,.03-.2,.17-.2,.27v1.21c0,.1,.05,.15,.14,.15m1.17,.95c0-.53,.02-1.12,.05-1.26,.03-.29,.82-.65,1.24-.65,.12,0,.22,.03,.25,.1,.03,.09,.07,.51,.07,.97s-.03,.94-.07,1.09c-.1,.34-.9,.68-1.29,.68-.1,0-.19-.03-.2-.09-.03-.07-.05-.44-.05-.85" vector-effect="none"/>
          <path class="cls-12" d="M304.95,453.34c0,.99,.82,1.58,1.84,1.58,1.68,0,3.76-1.56,3.76-3.18,0-.95-.76-1.58-1.85-1.58-2.07,0-3.74,1.55-3.74,3.18" vector-effect="none"/>
          <path class="cls-12" d="M311.75,457.72c0,.99,.82,1.58,1.84,1.58,1.68,0,3.76-1.56,3.76-3.18,0-.95-.76-1.58-1.85-1.58-2.07,0-3.74,1.55-3.74,3.18" vector-effect="none"/>
          <path class="cls-12" d="M327.56,468.03v2.13l5.1-1.05v-2.13l-5.1,1.05m0-1l5.1-1.05v-2.13l-5.1,1.05v2.12m5.1-4.23v-2.12l-5.1,1.07v2.12l5.1-1.07" vector-effect="none"/>
          <path class="cls-12" d="M327.87,457.72c0,.99,.82,1.58,1.84,1.58,1.68,0,3.76-1.56,3.76-3.18,0-.95-.76-1.58-1.85-1.58-2.07,0-3.74,1.55-3.74,3.18" vector-effect="none"/>
          <path class="cls-12" d="M250.31,478.17v-2.12h69.15v2.12h-69.15" vector-effect="none"/>
          <path class="cls-12" d="M250.31,478.17v-2.12l69.15-3.19v2.12l-69.15,3.19" vector-effect="none"/>
          <path class="cls-12" d="M250.31,478.17v-2.12l69.15-6.38v2.12l-69.15,6.38" vector-effect="none"/>
          <g>
            <line class="cls-5" x1="248.57" y1="471.8" x2="361.87" y2="471.8" vector-effect="none"/>
            <line class="cls-5" x1="248.57" y1="467.55" x2="361.87" y2="467.55" vector-effect="none"/>
            <line class="cls-5" x1="248.57" y1="463.3" x2="361.87" y2="463.3" vector-effect="none"/>
            <line class="cls-5" x1="248.57" y1="459.05" x2="361.87" y2="459.05" vector-effect="none"/>
            <line class="cls-5" x1="248.57" y1="454.8" x2="361.87" y2="454.8" vector-effect="none"/>
          </g>
          <line class="cls-8" x1="331.47" y1="452.77" x2="356.44" y2="452.77"/>
          <line class="cls-8" x1="330.87" y1="456.92" x2="355.83" y2="456.92"/>
        </g>
      </g>
      <g>
        <polyline class="cls-3" points="266.14 295.75 266.14 323.58 226.03 323.58 226.03 358.83"/>
        <polygon class="cls-13" points="258.66 284.54 266.14 297.09 273.62 284.54 258.66 284.54"/>
        <polygon class="cls-13" points="218.55 370.04 226.03 357.48 233.5 370.04 218.55 370.04"/>
      </g>
      <g>
        <polyline class="cls-3" points="343.63 298.14 343.63 327.86 486.1 327.86 507.04 327.86 516.42 327.86"/>
        <polygon class="cls-13" points="336.15 286.93 343.63 299.48 351.11 286.93 336.15 286.93"/>
        <polygon class="cls-13" points="527.63 335.33 515.08 327.86 527.63 320.38 527.63 335.33"/>
      </g>
      <g>
        <polyline class="cls-3" points="282.85 503.07 282.85 526.43 475.44 526.43 475.44 449.43 512 449.43"/>
        <polygon class="cls-13" points="275.37 491.86 282.85 504.42 290.33 491.86 275.37 491.86"/>
        <polygon class="cls-13" points="523.21 456.9 510.66 449.43 523.21 441.95 523.21 456.9"/>
      </g>
      <g>
        <polyline class="cls-3" points="602.13 373.6 602.13 388.88 641.61 388.88 641.61 395.41"/>
        <polygon class="cls-13" points="594.65 362.39 602.13 374.94 609.61 362.39 594.65 362.39"/>
        <polygon class="cls-13" points="634.14 406.62 641.61 394.06 649.09 406.62 634.14 406.62"/>
      </g>
    </g>
    <path class="cls-13" d="M119.61,120.86c15.73,4.31,32.23,4.94,48.4,3.91,9.8-.86,19.39-4.23,29.04-5.78,6.43-1.05,12.89-1.07,19.36-.7,12.96,.64,25.87,4.05,38.72,5.73,12.84,1.56,25.8,1.79,38.72,1.47,9.68-.36,19.37-1.01,29.04-1.74,9.72-.87,19.26-4.05,29.04-4.44,3.25-.18,6.47-.15,9.68,.55,6.33,1.38,12.76,4.33,19.36,3.54,16.44-1.15,32.02-11.22,48.4-11.98,8.16-1.64,12.1,8.13,19.36,9.3,12.84,2.15,25.74,3.31,38.72,2.58,6.47-.53,13.1-.18,19.36-2.18,6.23-2.13,12.64-6.54,19.36-6.55,16.62-.47,31.99,9.45,48.4,10.61,16.24,1.14,32.4-1.36,48.4-4.06,12.84-1.97,25.75-3.67,38.72-2.61,6.45,.61,12.91,2.25,19.36,3.26,6.38,1.02,13.09,1.28,19.36,1.78,12.91,.84,25.82,1.48,38.72,1.48v8.19c-19.25,.21-38.92,.95-58.08,3.27-6.45,1.01-12.91,2.65-19.36,3.26-6.45,.65-12.91,.27-19.36-.2-12.95-.95-25.85-3.73-38.72-5.37-9.67-1.21-19.34-1.72-29.04-1.1-16.41,1.16-31.78,11.09-48.4,10.61-3.23-.09-6.45-.97-9.68-2.38-4.77-2.07-9.39-4.66-14.52-5.33-4.83-.51-9.68-.77-14.52-1.02-12.98-.73-25.88,.42-38.72,2.58-5.56,.75-9.41,7.24-14.52,8.98-1.6,.58-3.2,.43-4.84,.33-6.45-.41-12.91-1.93-19.36-4.17-5.59-1.96-13.69-4.95-19.36-6.22-6.44-1.44-12.88-2.53-19.36-.7-3.23,.83-6.45,1.99-9.68,2.65-6.42,1.27-12.94,.45-19.36-.56-6.42-1.15-12.87-2.75-19.36-3.33-3.23-.29-6.45-.45-9.68-.68-12.9-.91-25.8-1.53-38.72-1.01-6.47,.25-12.93,.56-19.36,1.42-12.86,1.68-25.76,5.09-38.72,5.73-6.48,.36-12.93,.35-19.36-.7-6.45-1.02-12.91-2.9-19.36-4.27-6.4-1.39-12.85-1.94-19.36-1.93-13-.03-26.12,.75-38.72,4.33,0,0,0-16.52,0-16.52h0Z"/>
    <text class="cls-15" transform="translate(121.26 110.28)"><tspan x="0" y="0">2 - 3</tspan></text>
  </g>
</svg>