<?xml version="1.0" encoding="UTF-8"?>
<svg xmlns="http://www.w3.org/2000/svg" viewBox="0 0 792 612">
  <defs>
    <style>
      .cls-1 {
        stroke-width: .43px;
      }

      .cls-1, .cls-2, .cls-3, .cls-4, .cls-5, .cls-6, .cls-7, .cls-8 {
        fill: none;
      }

      .cls-1, .cls-2, .cls-3, .cls-5, .cls-6, .cls-7 {
        stroke: #010101;
        stroke-miterlimit: 2;
      }

      .cls-9 {
        font-size: 8px;
      }

      .cls-9, .cls-10, .cls-11, .cls-12, .cls-13 {
        fill: #231f20;
      }

      .cls-9, .cls-11, .cls-12, .cls-13 {
        font-family: Lustria-Regular, Lustria;
      }

      .cls-14 {
        fill: #010101;
      }

      .cls-15 {
        fill: #fff;
      }

      .cls-15, .cls-2 {
        stroke-width: 2px;
      }

      .cls-15, .cls-4, .cls-8 {
        stroke: #231f20;
        stroke-miterlimit: 10;
      }

      .cls-11 {
        font-size: 18px;
      }

      .cls-16 {
        letter-spacing: 0em;
      }

      .cls-17 {
        letter-spacing: .06em;
      }

      .cls-18 {
        letter-spacing: .06em;
      }

      .cls-19 {
        letter-spacing: .06em;
      }

      .cls-12 {
        font-size: 12px;
      }

      .cls-3 {
        stroke-width: .53px;
      }

      .cls-5 {
        stroke-width: .31px;
      }

      .cls-20 {
        letter-spacing: .06em;
      }

      .cls-21 {
        letter-spacing: .06em;
      }

      .cls-13 {
        font-size: 16px;
      }

      .cls-22 {
        letter-spacing: .06em;
      }

      .cls-7 {
        stroke-width: .71px;
      }

      .cls-8 {
        stroke-width: .5px;
      }
    </style>
  </defs>
  <g id="Layer_1" data-name="Layer 1">
    <text class="cls-12" transform="translate(125.84 53.33)"><tspan x="0" y="0">Follow</tspan><tspan class="cls-18" x="38.18" y="0"> </tspan><tspan x="41.71" y="0">the</tspan><tspan class="cls-19" x="60.2" y="0"> </tspan><tspan x="63.73" y="0">diagram</tspan><tspan class="cls-18" x="109.41" y="0"> </tspan><tspan x="112.93" y="0">that</tspan><tspan class="cls-18" x="135.39" y="0"> </tspan><tspan x="138.91" y="0">corresponds</tspan><tspan class="cls-19" x="209.28" y="0"> </tspan><tspan x="212.8" y="0">to</tspan><tspan class="cls-18" x="224.41" y="0"> </tspan><tspan x="227.93" y="0">your</tspan><tspan class="cls-19" x="254.04" y="0"> </tspan><tspan x="257.57" y="0">assigned</tspan><tspan class="cls-18" x="306.2" y="0"> </tspan><tspan x="309.73" y="0">letter.</tspan><tspan class="cls-18" x="342.67" y="0"> </tspan><tspan x="346.19" y="0">This</tspan><tspan class="cls-19" x="370.06" y="0"> </tspan><tspan x="373.58" y="0">section</tspan><tspan class="cls-18" x="414.43" y="0"> </tspan><tspan x="417.96" y="0">is</tspan><tspan class="cls-18" x="426.71" y="0"> </tspan><tspan class="cls-16" x="430.24" y="0">a</tspan><tspan class="cls-17" x="436.37" y="0"> </tspan><tspan class="cls-16" x="439.9" y="0">fade</tspan><tspan class="cls-19" x="464.12" y="0"> </tspan><tspan x="467.65" y="0">out</tspan><tspan class="cls-17" x="486.79" y="0"> </tspan><tspan x="490.31" y="0">in</tspan><tspan class="cls-19" x="501.45" y="0"> </tspan><tspan x="504.97" y="0">both</tspan><tspan class="cls-19" x="531.55" y="0"> </tspan><tspan x="535.08" y="0">the</tspan><tspan class="cls-17" x="553.57" y="0"> </tspan><tspan x="557.1" y="0">intensity</tspan><tspan class="cls-19" x="606.25" y="0"> </tspan><tspan x="609.77" y="0">as </tspan><tspan x="0" y="14.4">well</tspan><tspan class="cls-21" x="23.16" y="14.4"> </tspan><tspan x="26.62" y="14.4">as</tspan><tspan class="cls-20" x="38.05" y="14.4"> </tspan><tspan x="41.51" y="14.4">the</tspan><tspan class="cls-21" x="60" y="14.4"> </tspan><tspan x="63.46" y="14.4">amount</tspan><tspan class="cls-21" x="107.22" y="14.4"> </tspan><tspan x="110.67" y="14.4">of</tspan><tspan class="cls-20" x="122.05" y="14.4"> </tspan><tspan x="125.51" y="14.4">material</tspan><tspan class="cls-21" x="171.23" y="14.4"> </tspan><tspan x="174.68" y="14.4">performed.</tspan><tspan class="cls-21" x="237.53" y="14.4"> </tspan><tspan x="240.98" y="14.4">This</tspan><tspan class="cls-21" x="264.85" y="14.4"> </tspan><tspan x="268.3" y="14.4">section</tspan><tspan class="cls-20" x="309.15" y="14.4"> </tspan><tspan x="312.61" y="14.4">is</tspan><tspan class="cls-21" x="321.37" y="14.4"> </tspan><tspan x="324.82" y="14.4">in</tspan><tspan class="cls-21" x="335.96" y="14.4"> </tspan><tspan x="339.42" y="14.4">essence</tspan><tspan class="cls-20" x="383.52" y="14.4"> </tspan><tspan x="386.97" y="14.4">a</tspan><tspan class="cls-21" x="393.1" y="14.4"> </tspan><tspan x="396.56" y="14.4">more</tspan><tspan class="cls-21" x="426.04" y="14.4"> </tspan><tspan class="cls-16" x="429.5" y="14.4">straight-forward</tspan><tspan class="cls-21" x="521.28" y="14.4"> </tspan><tspan x="524.74" y="14.4">retrograde</tspan><tspan class="cls-21" x="584.43" y="14.4"> </tspan><tspan x="587.88" y="14.4">of</tspan><tspan class="cls-22" x="599.26" y="14.4"> </tspan><tspan x="602.71" y="14.4">the </tspan><tspan x="0" y="28.8">material in Phase 1.</tspan></text>
  </g>
  <g id="Notation">
    <g>
      <rect class="cls-15" x="39.36" y="43.73" width="73.81" height="25.55"/>
      <text class="cls-11" transform="translate(44.79 62.83)"><tspan x="0" y="0">Phase 4</tspan></text>
    </g>
    <text/>
    <text class="cls-12" transform="translate(95.6 123.75)"><tspan x="0" y="0">1’-2’</tspan></text>
    <g>
      <rect class="cls-10" x="734.26" y="132.32" width="1" height="28.51"/>
      <rect class="cls-10" x="736.81" y="132.32" width="3" height="28.51"/>
    </g>
    <g>
      <text class="cls-13" transform="translate(48.96 234.94)"><tspan x="0" y="0">a</tspan></text>
      <circle class="cls-6" cx="53.05" cy="229.29" r="17.45"/>
    </g>
    <g>
      <text class="cls-13" transform="translate(48.17 336.51)"><tspan x="0" y="0">b</tspan></text>
      <circle class="cls-6" cx="53.05" cy="330.85" r="17.45"/>
    </g>
    <g>
      <text class="cls-13" transform="translate(48.85 442.34)"><tspan x="0" y="0">c</tspan></text>
      <circle class="cls-6" cx="53.05" cy="436.68" r="17.45"/>
    </g>
    <g>
      <text class="cls-13" transform="translate(48.05 551.61)"><tspan x="0" y="0">d</tspan></text>
      <circle class="cls-6" cx="53.05" cy="545.96" r="17.45"/>
    </g>
    <g>
      <g>
        <g>
          <g>
            <path class="cls-14" d="M151.04,202.82c1.69-2.27,4.24-2.27,5.93,0l.44-.3c-2.13-3.39-4.68-3.39-6.82,0l.44,.3" vector-effect="none"/>
            <line class="cls-7" x1="146.32" y1="205.86" x2="155.32" y2="205.86" vector-effect="none"/>
            <path class="cls-14" d="M163.65,208.81c0,.17,.09,.22,.22,.22,.15,0,.24-.12,.34-.36,.02-.02,.03-.09,.05-.15,.2-.7,.97-3.3,4.47-3.3s4.35,2.69,4.52,3.33c.02,.05,.02,.1,.03,.12,.12,.24,.19,.36,.36,.36,.15,0,.24-.07,.24-.24,0-.05,0-.1-.02-.17-1.05-5.2-4.61-5.24-5.1-5.24-.54,0-4.06,.03-5.1,5.24-.02,.07-.02,.14-.02,.19m4.18-.71c0,.51,.43,.94,.92,.94s.93-.43,.93-.94-.43-.92-.93-.92-.92,.43-.92,.92" vector-effect="none"/>
            <path class="cls-14" d="M148.02,206.66c0,.99,.82,1.58,1.84,1.58,1.68,0,3.76-1.56,3.76-3.18,0-.95-.76-1.58-1.85-1.58-2.07,0-3.74,1.55-3.74,3.18" vector-effect="none"/>
            <path class="cls-14" d="M166.81,218.64h3.91c.24,0,.44-.2,.44-.44v-1.56c0-.25-.2-.44-.44-.44h-3.91c-.25,0-.44,.19-.44,.44v1.56c0,.24,.19,.44,.44,.44" vector-effect="none"/>
            <g>
              <line class="cls-5" x1="143.02" y1="197.04" x2="143.02" y2="205.38" vector-effect="none"/>
              <line class="cls-1" x1="138.85" y1="205.86" x2="144.19" y2="205.86" vector-effect="none"/>
              <path class="cls-14" d="M144.83,201.71c.15,.34,.24,.91,.24,1.5,0,.45-.07,.92-.24,1.37-.02,.06-.03,.11-.03,.15,0,.16,.1,.25,.16,.29,.06,.04,.23-.02,.28-.19,0,0,.26-.95,.26-1.73,0-1.25-.52-2.43-1.15-3.43-.51-.79-.93-1.65-1.09-2.61-.03-.16-.11-.22-.3-.22-.06,0-.1,.03-.1,.15v2.39c.66,.12,1.61,1.48,1.97,2.33" vector-effect="none"/>
              <path class="cls-14" d="M139.87,206.33c0,.58,.48,.93,1.08,.93,.99,0,2.21-.92,2.21-1.87,0-.56-.45-.93-1.09-.93-1.22,0-2.2,.91-2.2,1.87" vector-effect="none"/>
              <line class="cls-1" x1="142.12" y1="200.49" x2="145.72" y2="196.88" vector-effect="none"/>
            </g>
            <g>
              <line class="cls-3" x1="135.52" y1="227.14" x2="192.74" y2="227.14" vector-effect="none"/>
              <line class="cls-3" x1="135.52" y1="222.89" x2="192.74" y2="222.89" vector-effect="none"/>
              <line class="cls-3" x1="135.52" y1="218.64" x2="192.74" y2="218.64" vector-effect="none"/>
              <line class="cls-3" x1="135.52" y1="214.39" x2="192.74" y2="214.39" vector-effect="none"/>
              <line class="cls-3" x1="135.52" y1="210.14" x2="192.74" y2="210.14" vector-effect="none"/>
            </g>
          </g>
          <g>
            <line class="cls-7" x1="201.79" y1="230.8" x2="210.8" y2="230.8" vector-effect="none"/>
            <path class="cls-14" d="M220.22,230.79h.87s.05-.03,.12-.07c.54-.46,3.83-3.81,4.1-3.81s3.62,3.42,4.11,3.84c.03,.02,.12,.03,.12,.03h.85s.05-.02,.05-.05c0-.02-.02-.05-.03-.07-.73-.7-4.64-5.68-5.1-5.68s-4.32,4.91-5.1,5.68c-.02,.02-.03,.05-.03,.07,0,.03,.05,.05,.05,.05m4.13-1.11c0,.53,.42,.95,.93,.95s.93-.43,.93-.95c0-.49-.43-.92-.93-.92s-.93,.42-.93,.92" vector-effect="none"/>
            <path class="cls-14" d="M203.49,231.6c0,.99,.82,1.58,1.84,1.58,1.68,0,3.76-1.56,3.76-3.18,0-.95-.76-1.58-1.85-1.58-2.07,0-3.74,1.55-3.74,3.18" vector-effect="none"/>
            <path class="cls-14" d="M224.99,249.77c.14,.1,.31,.15,.44,.15,.12,0,.24-.03,.26-.1,.02-.05,.03-.08,.03-.12,0-.15-.14-.29-.27-.41-.22,0-.41-.46-.44-.61-.05-.14-.07-.29-.07-.44,0-.7,.36-1.24,1.07-1.24,.49,0,1.05,.19,1.33,.29,.02,0,.03,.02,.05,.02,.05,.02,.09,.02,.12,.02,.05,0,.09-.02,.09-.07,0-.2-.44-.77-.63-.97-.65-.78-1.17-1.41-1.17-2.36,0-.07,.02-.15,.02-.22,.07-.99,.68-1.8,1.12-2.5,.05-.09,.07-.17,.07-.26,0-.17-.07-.32-.07-.32,0,0-2.52-2.99-2.81-3.28-.09-.09-.2-.14-.31-.14-.17,0-.34,.12-.34,.36,0,.09,.02,.17,.07,.27,.07,.19,1.04,1.05,1.04,2.28,0,.63-.25,1.36-1.02,2.16-.17,.17-.24,.36-.24,.49,0,.24,.17,.41,.17,.41l.83,1.02c.27,.34,.51,.66,.73,1.02,.03,.07,.1,.2,.1,.24,0,.02,0,.05-.02,.07-.03,.07-.1,.08-.19,.08-.07,0-.2-.03-.27-.05-.08,0-.19-.05-.27-.05-.73,0-1.39,.73-1.39,1.63,0,.85,.73,1.68,1.97,2.64" vector-effect="none"/>
            <g>
              <line class="cls-3" x1="190.86" y1="252.08" x2="241.79" y2="252.08" vector-effect="none"/>
              <line class="cls-3" x1="190.86" y1="247.83" x2="241.79" y2="247.83" vector-effect="none"/>
              <line class="cls-3" x1="190.86" y1="243.58" x2="241.79" y2="243.58" vector-effect="none"/>
              <line class="cls-3" x1="190.86" y1="239.33" x2="241.79" y2="239.33" vector-effect="none"/>
              <line class="cls-3" x1="190.86" y1="235.08" x2="241.79" y2="235.08" vector-effect="none"/>
            </g>
            <g>
              <line class="cls-5" x1="215.55" y1="222.13" x2="215.55" y2="230.47" vector-effect="none"/>
              <line class="cls-1" x1="211.39" y1="230.95" x2="216.73" y2="230.95" vector-effect="none"/>
              <path class="cls-14" d="M217.37,226.8c.15,.34,.24,.91,.24,1.5,0,.45-.07,.92-.24,1.37-.02,.06-.03,.11-.03,.15,0,.16,.1,.25,.16,.29,.06,.04,.23-.02,.28-.19,0,0,.26-.95,.26-1.73,0-1.25-.52-2.43-1.15-3.43-.51-.79-.93-1.65-1.09-2.61-.03-.16-.11-.22-.3-.22-.06,0-.1,.03-.1,.15v2.39c.66,.12,1.61,1.48,1.97,2.33" vector-effect="none"/>
              <path class="cls-14" d="M212.41,231.42c0,.58,.48,.93,1.08,.93,.99,0,2.21-.92,2.21-1.87,0-.56-.45-.93-1.09-.93-1.22,0-2.2,.91-2.2,1.87" vector-effect="none"/>
              <line class="cls-1" x1="214.65" y1="225.58" x2="218.26" y2="221.97" vector-effect="none"/>
            </g>
          </g>
          <g>
            <path class="cls-14" d="M125.01,234.96c1.69-2.27,4.24-2.27,5.93,0l.44-.3c-2.13-3.39-4.68-3.39-6.82,0l.44,.3" vector-effect="none"/>
            <line class="cls-7" x1="120.29" y1="238" x2="129.3" y2="238" vector-effect="none"/>
            <line class="cls-5" x1="108.57" y1="229.07" x2="108.57" y2="237.52" vector-effect="none"/>
            <line class="cls-1" x1="104.41" y1="238" x2="109.74" y2="238" vector-effect="none"/>
            <line class="cls-5" x1="116.99" y1="229.07" x2="116.99" y2="237.52" vector-effect="none"/>
            <line class="cls-1" x1="112.83" y1="238" x2="118.16" y2="238" vector-effect="none"/>
            <path class="cls-14" d="M119.7,231.04h.87s.05-.03,.12-.07c.54-.46,3.83-3.81,4.1-3.81s3.62,3.42,4.11,3.84c.03,.02,.12,.03,.12,.03h.85s.05-.02,.05-.05c0-.02-.02-.05-.03-.07-.73-.7-4.64-5.68-5.1-5.68s-4.32,4.91-5.1,5.68c-.02,.02-.03,.05-.03,.07,0,.03,.05,.05,.05,.05m4.13-1.11c0,.53,.42,.95,.93,.95s.93-.43,.93-.95c0-.49-.43-.92-.93-.92s-.93,.42-.93,.92" vector-effect="none"/>
            <path class="cls-14" d="M138.02,241.16c.24,0,.43-.1,.43-.22v-3.2c0-.2,2.14-.31,4.28-.31s4.3,.1,4.3,.31v3.2c0,.12,.19,.22,.41,.22,.24,0,.43-.1,.43-.22v-4.98c0-.25-.37-.46-.85-.46h-8.55c-.48,0-.85,.2-.85,.46v4.98c0,.12,.19,.22,.41,.22m4.71,.02c.53,0,.93-.42,.93-.93s-.41-.92-.93-.92-.92,.41-.92,.92,.41,.93,.92,.93" vector-effect="none"/>
            <path class="cls-14" d="M121.99,238.8c0,.99,.82,1.58,1.84,1.58,1.68,0,3.76-1.56,3.76-3.18,0-.95-.76-1.58-1.85-1.58-2.07,0-3.74,1.55-3.74,3.18" vector-effect="none"/>
            <path class="cls-14" d="M105.43,238.47c0,.58,.48,.93,1.08,.93,.99,0,2.21-.92,2.21-1.87,0-.56-.45-.93-1.09-.93-1.22,0-2.2,.91-2.2,1.87" vector-effect="none"/>
            <path class="cls-14" d="M113.85,238.47c0,.58,.48,.93,1.08,.93,.99,0,2.21-.92,2.21-1.87,0-.56-.45-.93-1.09-.93-1.22,0-2.2,.91-2.2,1.87" vector-effect="none"/>
            <path class="cls-14" d="M140.78,248.79h3.91c.24,0,.44-.2,.44-.44v-1.56c0-.26-.2-.44-.44-.44h-3.91c-.25,0-.44,.19-.44,.44v1.56c0,.24,.19,.44,.44,.44" vector-effect="none"/>
            <path class="cls-14" d="M108.42,230.35v-1.27h8.73v1.27h-8.73" vector-effect="none"/>
            <line class="cls-1" x1="107.52" y1="232.53" x2="112.77" y2="227.27" vector-effect="none"/>
            <g>
              <line class="cls-3" x1="100.24" y1="259.28" x2="177.46" y2="259.28" vector-effect="none"/>
              <line class="cls-3" x1="100.24" y1="255.03" x2="177.46" y2="255.03" vector-effect="none"/>
              <line class="cls-3" x1="100.24" y1="250.78" x2="177.46" y2="250.78" vector-effect="none"/>
              <line class="cls-3" x1="100.24" y1="246.53" x2="177.46" y2="246.53" vector-effect="none"/>
              <line class="cls-3" x1="100.24" y1="242.28" x2="177.46" y2="242.28" vector-effect="none"/>
            </g>
          </g>
        </g>
        <rect class="cls-4" x="94.87" y="192" width="151.98" height="72.66" rx="12" ry="12"/>
      </g>
      <g>
        <g>
          <g>
            <path class="cls-14" d="M294.93,200.41c1.69-2.27,4.24-2.27,5.93,0l.44-.3c-2.13-3.39-4.68-3.39-6.82,0l.44,.3" vector-effect="none"/>
            <g>
              <g>
                <line class="cls-3" x1="285.13" y1="224.7" x2="347.38" y2="224.7" vector-effect="none"/>
                <line class="cls-3" x1="285.13" y1="220.45" x2="347.38" y2="220.45" vector-effect="none"/>
                <line class="cls-3" x1="285.13" y1="216.2" x2="347.38" y2="216.2" vector-effect="none"/>
                <line class="cls-3" x1="285.13" y1="211.95" x2="347.38" y2="211.95" vector-effect="none"/>
                <line class="cls-3" x1="285.13" y1="207.7" x2="347.38" y2="207.7" vector-effect="none"/>
              </g>
              <line class="cls-7" x1="290.21" y1="203.45" x2="299.22" y2="203.45" vector-effect="none"/>
              <path class="cls-14" d="M307.94,206.6c.24,0,.43-.1,.43-.22v-3.2c0-.2,2.14-.31,4.28-.31s4.3,.1,4.3,.31v3.2c0,.12,.19,.22,.41,.22,.24,0,.43-.1,.43-.22v-4.98c0-.25-.37-.46-.85-.46h-8.55c-.48,0-.85,.2-.85,.46v4.98c0,.12,.19,.22,.41,.22m4.71,.02c.53,0,.93-.42,.93-.93s-.41-.92-.93-.92-.92,.41-.92,.92,.41,.93,.92,.93" vector-effect="none"/>
              <path class="cls-14" d="M291.91,204.25c0,.99,.82,1.58,1.84,1.58,1.68,0,3.76-1.56,3.76-3.18,0-.95-.76-1.58-1.85-1.58-2.07,0-3.74,1.55-3.74,3.18" vector-effect="none"/>
              <path class="cls-14" d="M310.7,214.24h3.91c.24,0,.44-.2,.44-.44v-1.56c0-.26-.2-.44-.44-.44h-3.91c-.25,0-.44,.19-.44,.44v1.56c0,.24,.19,.44,.44,.44" vector-effect="none"/>
            </g>
          </g>
          <g>
            <path class="cls-14" d="M343.89,234.71c1.69-2.27,4.24-2.27,5.93,0l.44-.3c-2.13-3.39-4.68-3.39-6.82,0l.44,.3" vector-effect="none"/>
            <line class="cls-7" x1="339.16" y1="237.75" x2="348.17" y2="237.75" vector-effect="none"/>
            <path class="cls-14" d="M356.49,240.7c0,.17,.09,.22,.22,.22,.15,0,.24-.12,.34-.36,.02-.02,.03-.09,.05-.15,.2-.7,.97-3.3,4.47-3.3s4.35,2.69,4.52,3.33c.02,.05,.02,.1,.03,.12,.12,.24,.19,.36,.36,.36,.15,0,.24-.07,.24-.24,0-.05,0-.1-.02-.17-1.05-5.2-4.61-5.24-5.1-5.24-.54,0-4.06,.03-5.1,5.24-.02,.07-.02,.14-.02,.19m4.18-.71c0,.51,.43,.94,.92,.94s.93-.43,.93-.94-.43-.92-.93-.92-.92,.43-.92,.92" vector-effect="none"/>
            <path class="cls-14" d="M340.86,238.54c0,.99,.82,1.58,1.84,1.58,1.68,0,3.76-1.56,3.76-3.18,0-.95-.76-1.58-1.85-1.58-2.07,0-3.74,1.55-3.74,3.18" vector-effect="none"/>
            <path class="cls-14" d="M359.65,250.53h3.91c.24,0,.44-.2,.44-.44v-1.56c0-.25-.2-.44-.44-.44h-3.91c-.25,0-.44,.19-.44,.44v1.56c0,.24,.19,.44,.44,.44" vector-effect="none"/>
            <g>
              <line class="cls-3" x1="332.88" y1="259.03" x2="385.59" y2="259.03" vector-effect="none"/>
              <line class="cls-3" x1="332.88" y1="254.78" x2="385.59" y2="254.78" vector-effect="none"/>
              <line class="cls-3" x1="332.88" y1="250.53" x2="385.59" y2="250.53" vector-effect="none"/>
              <line class="cls-3" x1="332.88" y1="246.28" x2="385.59" y2="246.28" vector-effect="none"/>
              <line class="cls-3" x1="332.88" y1="242.03" x2="385.59" y2="242.03" vector-effect="none"/>
            </g>
          </g>
          <g>
            <path class="cls-14" d="M385.53,205.33c1.69-2.27,4.24-2.27,5.94,0l.44-.3c-2.13-3.39-4.68-3.39-6.81,0l.44,.3" vector-effect="none"/>
            <line class="cls-7" x1="380.8" y1="208.37" x2="389.81" y2="208.37" vector-effect="none"/>
            <path class="cls-14" d="M398.06,211.54h.87s.05-.03,.12-.07c.54-.46,3.83-3.81,4.1-3.81s3.62,3.42,4.11,3.84c.03,.02,.12,.03,.12,.03h.85s.05-.02,.05-.05c0-.02-.02-.05-.03-.07-.73-.7-4.64-5.68-5.1-5.68s-4.32,4.91-5.1,5.68c-.02,.02-.03,.05-.03,.07,0,.03,.05,.05,.05,.05m4.13-1.11c0,.53,.42,.95,.93,.95s.93-.43,.93-.95c0-.49-.43-.92-.93-.92s-.93,.42-.93,.92" vector-effect="none"/>
            <path class="cls-14" d="M382.5,209.17c0,.99,.82,1.58,1.84,1.58,1.68,0,3.76-1.56,3.76-3.18,0-.95-.76-1.58-1.85-1.58-2.07,0-3.74,1.55-3.74,3.18" vector-effect="none"/>
            <path class="cls-14" d="M402.83,227.34c.14,.1,.31,.15,.44,.15,.12,0,.24-.03,.26-.1,.02-.05,.03-.08,.03-.12,0-.15-.14-.29-.27-.41-.22,0-.41-.46-.44-.61-.05-.14-.07-.29-.07-.44,0-.7,.36-1.24,1.07-1.24,.49,0,1.05,.19,1.33,.29,.02,0,.03,.02,.05,.02,.05,.02,.09,.02,.12,.02,.05,0,.09-.02,.09-.07,0-.2-.44-.77-.63-.97-.65-.78-1.17-1.41-1.17-2.36,0-.07,.02-.15,.02-.22,.07-.99,.68-1.8,1.12-2.5,.05-.09,.07-.17,.07-.26,0-.17-.07-.32-.07-.32,0,0-2.52-2.99-2.81-3.28-.09-.09-.2-.14-.31-.14-.17,0-.34,.12-.34,.36,0,.09,.02,.17,.07,.27,.07,.19,1.04,1.05,1.04,2.28,0,.63-.25,1.36-1.02,2.16-.17,.17-.24,.36-.24,.49,0,.24,.17,.41,.17,.41l.83,1.02c.27,.34,.51,.66,.73,1.02,.03,.07,.1,.2,.1,.24,0,.02,0,.05-.02,.07-.03,.07-.1,.08-.19,.08-.07,0-.2-.03-.27-.05-.08,0-.19-.05-.27-.05-.73,0-1.39,.73-1.39,1.63,0,.85,.73,1.68,1.97,2.64" vector-effect="none"/>
            <g>
              <line class="cls-3" x1="375.83" y1="229.66" x2="419.63" y2="229.66" vector-effect="none"/>
              <line class="cls-3" x1="375.83" y1="225.41" x2="419.63" y2="225.41" vector-effect="none"/>
              <line class="cls-3" x1="375.83" y1="221.16" x2="419.63" y2="221.16" vector-effect="none"/>
              <line class="cls-3" x1="375.83" y1="216.91" x2="419.63" y2="216.91" vector-effect="none"/>
              <line class="cls-3" x1="375.83" y1="212.66" x2="419.63" y2="212.66" vector-effect="none"/>
            </g>
          </g>
        </g>
        <rect class="cls-4" x="276.54" y="190.3" width="147.45" height="76.06" rx="12" ry="12"/>
      </g>
      <g>
        <g>
          <g>
            <g>
              <line class="cls-3" x1="571.43" y1="238.5" x2="633.68" y2="238.5" vector-effect="none"/>
              <line class="cls-3" x1="571.43" y1="234.25" x2="633.68" y2="234.25" vector-effect="none"/>
              <line class="cls-3" x1="571.43" y1="230" x2="633.68" y2="230" vector-effect="none"/>
              <line class="cls-3" x1="571.43" y1="225.75" x2="633.68" y2="225.75" vector-effect="none"/>
              <line class="cls-3" x1="571.43" y1="221.5" x2="633.68" y2="221.5" vector-effect="none"/>
            </g>
            <line class="cls-7" x1="576.51" y1="217.25" x2="589.33" y2="217.25" vector-effect="none"/>
            <path class="cls-14" d="M594.24,220.41c.24,0,.43-.1,.43-.22v-3.2c0-.2,2.14-.31,4.28-.31s4.3,.1,4.3,.31v3.2c0,.12,.19,.22,.41,.22,.24,0,.43-.1,.43-.22v-4.98c0-.25-.37-.46-.85-.46h-8.55c-.48,0-.85,.2-.85,.46v4.98c0,.12,.19,.22,.41,.22m4.71,.02c.53,0,.93-.42,.93-.93s-.41-.92-.93-.92-.92,.41-.92,.92,.41,.93,.92,.93" vector-effect="none"/>
            <path class="cls-14" d="M597,228.05h3.91c.24,0,.44-.2,.44-.44v-1.56c0-.26-.2-.44-.44-.44h-3.91c-.25,0-.44,.19-.44,.44v1.56c0,.24,.19,.44,.44,.44" vector-effect="none"/>
            <g>
              <path class="cls-14" d="M578.21,218.05c0,.99,.82,1.58,1.84,1.58,1.68,0,3.76-1.56,3.76-3.18,0-.95-.76-1.58-1.85-1.58-2.07,0-3.74,1.55-3.74,3.18" vector-effect="none"/>
              <circle class="cls-8" cx="585.79" cy="217.25" r="2.17"/>
            </g>
          </g>
          <rect class="cls-4" x="562.84" y="204.11" width="80.2" height="48.45" rx="12" ry="12"/>
        </g>
        <text class="cls-9" transform="translate(589.39 211.75)"><tspan x="0" y="0">5” - 15”</tspan></text>
      </g>
      <g>
        <g>
          <g>
            <g>
              <line class="cls-3" x1="461.91" y1="238.5" x2="524.16" y2="238.5" vector-effect="none"/>
              <line class="cls-3" x1="461.91" y1="234.25" x2="524.16" y2="234.25" vector-effect="none"/>
              <line class="cls-3" x1="461.91" y1="230" x2="524.16" y2="230" vector-effect="none"/>
              <line class="cls-3" x1="461.91" y1="225.75" x2="524.16" y2="225.75" vector-effect="none"/>
              <line class="cls-3" x1="461.91" y1="221.5" x2="524.16" y2="221.5" vector-effect="none"/>
            </g>
            <line class="cls-7" x1="466.98" y1="217.25" x2="475.99" y2="217.25" vector-effect="none"/>
            <path class="cls-14" d="M484.71,220.41c.24,0,.43-.1,.43-.22v-3.2c0-.2,2.14-.31,4.28-.31s4.3,.1,4.3,.31v3.2c0,.12,.19,.22,.41,.22,.24,0,.43-.1,.43-.22v-4.98c0-.25-.37-.46-.85-.46h-8.55c-.48,0-.85,.2-.85,.46v4.98c0,.12,.19,.22,.41,.22m4.71,.02c.53,0,.93-.42,.93-.93s-.41-.92-.93-.92-.92,.41-.92,.92,.41,.93,.92,.93" vector-effect="none"/>
            <path class="cls-14" d="M468.68,218.05c0,.99,.82,1.58,1.84,1.58,1.68,0,3.76-1.56,3.76-3.18,0-.95-.76-1.58-1.85-1.58-2.07,0-3.74,1.55-3.74,3.18" vector-effect="none"/>
            <path class="cls-14" d="M487.47,228.05h3.91c.24,0,.44-.2,.44-.44v-1.56c0-.26-.2-.44-.44-.44h-3.91c-.25,0-.44,.19-.44,.44v1.56c0,.24,.19,.44,.44,.44" vector-effect="none"/>
            <path class="cls-14" d="M471.93,213.79c1.69-2.27,4.24-2.27,5.93,0l.44-.3c-2.13-3.39-4.68-3.39-6.82,0l.44,.3" vector-effect="none"/>
          </g>
          <rect class="cls-4" x="453.31" y="204.11" width="80.2" height="48.45" rx="12" ry="12"/>
        </g>
        <text class="cls-9" transform="translate(485.3 213.63)"><tspan x="0" y="0">5” - 10”</tspan></text>
      </g>
      <g>
        <g>
          <g>
            <line class="cls-3" x1="681.04" y1="238.5" x2="743.29" y2="238.5" vector-effect="none"/>
            <line class="cls-3" x1="681.04" y1="234.25" x2="743.29" y2="234.25" vector-effect="none"/>
            <line class="cls-3" x1="681.04" y1="230" x2="743.29" y2="230" vector-effect="none"/>
            <line class="cls-3" x1="681.04" y1="225.75" x2="743.29" y2="225.75" vector-effect="none"/>
            <line class="cls-3" x1="681.04" y1="221.5" x2="743.29" y2="221.5" vector-effect="none"/>
          </g>
          <path class="cls-14" d="M703.84,220.41c.24,0,.43-.1,.43-.22v-3.2c0-.2,2.14-.31,4.28-.31s4.3,.1,4.3,.31v3.2c0,.12,.19,.22,.41,.22,.24,0,.43-.1,.43-.22v-4.98c0-.25-.37-.46-.85-.46h-8.55c-.48,0-.85,.2-.85,.46v4.98c0,.12,.19,.22,.41,.22m4.71,.02c.53,0,.93-.42,.93-.93s-.41-.92-.93-.92-.92,.41-.92,.92,.41,.93,.92,.93" vector-effect="none"/>
          <path class="cls-14" d="M706.61,228.05h3.91c.24,0,.44-.2,.44-.44v-1.56c0-.26-.2-.44-.44-.44h-3.91c-.25,0-.44,.19-.44,.44v1.56c0,.24,.19,.44,.44,.44" vector-effect="none"/>
        </g>
        <rect class="cls-4" x="672.45" y="204.11" width="80.2" height="48.45" rx="12" ry="12"/>
      </g>
      <g>
        <g>
          <line class="cls-2" x1="246.84" y1="228.33" x2="264.47" y2="228.33"/>
          <path class="cls-14" d="M276.54,228.33c-5.68,2.11-12.73,5.7-17.09,9.51l3.44-9.51-3.44-9.51c4.37,3.81,11.42,7.4,17.09,9.51Z"/>
        </g>
        <g>
          <line class="cls-2" x1="424.3" y1="228.33" x2="441.93" y2="228.33"/>
          <path class="cls-14" d="M454,228.33c-5.68,2.11-12.73,5.7-17.09,9.51l3.44-9.51-3.44-9.51c4.37,3.81,11.42,7.4,17.09,9.51Z"/>
        </g>
        <g>
          <line class="cls-2" x1="533.51" y1="228.33" x2="551.14" y2="228.33"/>
          <path class="cls-14" d="M563.21,228.33c-5.68,2.11-12.73,5.7-17.09,9.51l3.44-9.51-3.44-9.51c4.37,3.81,11.42,7.4,17.09,9.51Z"/>
        </g>
        <g>
          <line class="cls-2" x1="643.33" y1="228.33" x2="660.96" y2="228.33"/>
          <path class="cls-14" d="M673.03,228.33c-5.68,2.11-12.73,5.7-17.09,9.51l3.44-9.51-3.44-9.51c4.37,3.81,11.42,7.4,17.09,9.51Z"/>
        </g>
      </g>
    </g>
    <g>
      <g>
        <g>
          <g>
            <path class="cls-14" d="M152.78,415.45c1.69-2.27,4.24-2.27,5.93,0l.44-.3c-2.13-3.39-4.68-3.39-6.82,0l.44,.3" vector-effect="none"/>
            <line class="cls-5" x1="146.54" y1="410.1" x2="146.54" y2="418.44" vector-effect="none"/>
            <path class="cls-14" d="M163.38,419.45c0,.17,.09,.22,.22,.22,.15,0,.24-.12,.34-.36,.02-.02,.03-.09,.05-.15,.2-.7,.97-3.3,4.47-3.3s4.35,2.69,4.52,3.33c.02,.05,.02,.1,.03,.12,.12,.24,.19,.36,.36,.36,.15,0,.24-.07,.24-.24,0-.05,0-.1-.02-.17-1.05-5.2-4.61-5.24-5.1-5.24-.54,0-4.06,.03-5.1,5.24-.02,.07-.02,.14-.02,.19m4.18-.71c0,.51,.43,.94,.92,.94s.93-.43,.93-.94-.43-.92-.93-.92-.92,.43-.92,.92" vector-effect="none"/>
            <path class="cls-14" d="M149.75,419.29c0,.99,.82,1.58,1.84,1.58,1.68,0,3.76-1.56,3.76-3.18,0-.95-.76-1.58-1.85-1.58-2.07,0-3.74,1.55-3.74,3.18" vector-effect="none"/>
            <path class="cls-14" d="M148.36,414.78c.15,.34,.24,.91,.24,1.5,0,.45-.07,.92-.24,1.37-.02,.06-.03,.11-.03,.15,0,.16,.1,.25,.16,.29,.06,.04,.23-.02,.28-.19,0,0,.26-.95,.26-1.73,0-1.25-.52-2.43-1.15-3.43-.51-.79-.93-1.65-1.09-2.61-.03-.16-.11-.22-.3-.22-.06,0-.1,.03-.1,.15v2.39c.66,.12,1.61,1.48,1.97,2.33" vector-effect="none"/>
            <path class="cls-14" d="M143.4,419.39c0,.58,.48,.93,1.08,.93,.99,0,2.21-.92,2.21-1.87,0-.56-.45-.93-1.09-.93-1.22,0-2.2,.91-2.2,1.87" vector-effect="none"/>
            <path class="cls-14" d="M166.54,429.28h3.91c.24,0,.44-.2,.44-.44v-1.56c0-.25-.2-.44-.44-.44h-3.91c-.25,0-.44,.19-.44,.44v1.56c0,.24,.19,.44,.44,.44" vector-effect="none"/>
            <line class="cls-1" x1="145.64" y1="413.55" x2="149.24" y2="409.94" vector-effect="none"/>
            <g>
              <line class="cls-3" x1="135.25" y1="437.78" x2="192.48" y2="437.78" vector-effect="none"/>
              <line class="cls-3" x1="135.25" y1="433.53" x2="192.48" y2="433.53" vector-effect="none"/>
              <line class="cls-3" x1="135.25" y1="429.28" x2="192.48" y2="429.28" vector-effect="none"/>
              <line class="cls-3" x1="135.25" y1="425.03" x2="192.48" y2="425.03" vector-effect="none"/>
              <line class="cls-3" x1="135.25" y1="420.78" x2="192.48" y2="420.78" vector-effect="none"/>
            </g>
            <path class="cls-14" d="M140.38,418.85s.23-.09,.26-.11c0,0,.02,0,.03,0,.07,0,.13,.1,.13,.18v.99c0,.11-.05,.2-.11,.23-.06,.02-.27,.11-.27,.11-.07,.02-.12,.1-.12,.16v.71c0,.06,.03,.09,.08,.09,0,0,.03,0,.04,0,0,0,.14-.06,.23-.09,0,0,.02,0,.03,0,.07,0,.12,.11,.12,.16v1.23c0,.06,.06,.11,.13,.11,.1,0,.17-.05,.17-.11v-1.39c0-.13,.05-.2,.1-.22l.61-.25s.03,0,.04,0c.08,0,.13,.12,.13,.18v1.25c0,.06,.06,.11,.13,.11,.11,0,.17-.05,.17-.11v-1.42c0-.08,.04-.2,.11-.23,.07-.03,.28-.11,.28-.11,.07-.03,.12-.11,.12-.17v-.71s-.03-.08-.07-.08c-.02,0-.03,0-.05,.01l-.26,.1c-.06,0-.13-.06-.13-.18v-.93c0-.07,.05-.26,.13-.29l.26-.1c.07-.03,.12-.11,.12-.17v-.71s-.03-.08-.07-.08c-.02,0-.03,0-.05,0,0,0-.2,.08-.25,.09-.07,0-.14-.05-.14-.13v-1.22c0-.06-.06-.11-.14-.11-.1,0-.16,.05-.16,.11v1.3c0,.1-.04,.23-.13,.29-.12,.07-.46,.21-.63,.25-.09,0-.12-.12-.12-.2v-1.2c0-.06-.07-.11-.14-.11-.1,0-.16,.05-.16,.11v1.35c0,.14-.06,.24-.12,.27-.06,.03-.26,.11-.26,.11-.07,.02-.12,.1-.12,.16v.71c0,.06,.03,.09,.08,.09m.69,.56c0-.31,0-.66,.03-.74,.02-.17,.48-.38,.73-.38,.07,0,.13,.02,.15,.06,.02,.05,.04,.3,.04,.57s-.02,.55-.04,.64c-.06,.2-.53,.4-.76,.4-.06,0-.11-.02-.12-.05-.02-.04-.03-.26-.03-.5" vector-effect="none"/>
          </g>
          <g>
            <path class="cls-14" d="M223.95,441.43h.87s.05-.03,.12-.07c.54-.46,3.83-3.81,4.1-3.81s3.62,3.42,4.11,3.84c.03,.02,.12,.03,.12,.03h.85s.05-.02,.05-.05c0-.02-.02-.05-.03-.07-.73-.7-4.64-5.68-5.1-5.68s-4.32,4.91-5.1,5.68c-.02,.02-.03,.05-.03,.07,0,.03,.05,.05,.05,.05m4.13-1.11c0,.53,.42,.95,.93,.95s.93-.43,.93-.95c0-.49-.43-.92-.93-.92s-.93,.42-.93,.92" vector-effect="none"/>
            <path class="cls-14" d="M214.23,444.23c0,.99,.82,1.58,1.84,1.58,1.68,0,3.76-1.56,3.76-3.18,0-.95-.76-1.58-1.85-1.58-2.07,0-3.74,1.55-3.74,3.18" vector-effect="none"/>
            <path class="cls-14" d="M228.72,460.4c.14,.1,.31,.15,.44,.15,.12,0,.24-.03,.26-.1,.02-.05,.03-.08,.03-.12,0-.15-.14-.29-.27-.41-.22,0-.41-.46-.44-.61-.05-.14-.07-.29-.07-.44,0-.7,.36-1.24,1.07-1.24,.49,0,1.05,.19,1.33,.29,.02,0,.03,.02,.05,.02,.05,.02,.09,.02,.12,.02,.05,0,.09-.02,.09-.07,0-.2-.44-.77-.63-.97-.65-.78-1.17-1.41-1.17-2.36,0-.07,.02-.15,.02-.22,.07-.99,.68-1.8,1.12-2.5,.05-.09,.07-.17,.07-.26,0-.17-.07-.32-.07-.32,0,0-2.52-2.99-2.81-3.28-.09-.09-.2-.14-.31-.14-.17,0-.34,.12-.34,.36,0,.09,.02,.17,.07,.27,.07,.19,1.04,1.05,1.04,2.28,0,.63-.25,1.36-1.02,2.16-.17,.17-.24,.36-.24,.49,0,.24,.17,.41,.17,.41l.83,1.02c.27,.34,.51,.66,.73,1.02,.03,.07,.1,.2,.1,.24,0,.02,0,.05-.02,.07-.03,.07-.1,.08-.19,.08-.07,0-.2-.03-.27-.05-.08,0-.19-.05-.27-.05-.73,0-1.39,.73-1.39,1.63,0,.85,.73,1.68,1.97,2.64" vector-effect="none"/>
            <g>
              <line class="cls-3" x1="206.09" y1="462.72" x2="241.52" y2="462.72" vector-effect="none"/>
              <line class="cls-3" x1="206.09" y1="458.47" x2="241.52" y2="458.47" vector-effect="none"/>
              <line class="cls-3" x1="206.09" y1="454.22" x2="241.52" y2="454.22" vector-effect="none"/>
              <line class="cls-3" x1="206.09" y1="449.97" x2="241.52" y2="449.97" vector-effect="none"/>
              <line class="cls-3" x1="206.09" y1="445.72" x2="241.52" y2="445.72" vector-effect="none"/>
            </g>
            <path class="cls-14" d="M209.6,443.67c.06,0,.33-.13,.38-.16,.01,0,.03-.01,.04-.01,.1,0,.19,.15,.19,.26v1.44c0,.16-.07,.29-.16,.33-.09,.03-.39,.16-.39,.16-.1,.03-.17,.15-.17,.23v1.03c0,.09,.04,.13,.12,.13,.01,0,.04-.01,.06-.01,0,0,.2-.09,.33-.13,.01-.01,.03-.01,.04-.01,.1,0,.17,.16,.17,.23v1.79c0,.09,.09,.16,.19,.16,.15,0,.25-.07,.25-.16v-2.02c0-.19,.07-.29,.15-.32l.88-.36s.04-.01,.06-.01c.12,0,.19,.17,.19,.26v1.82c0,.09,.09,.16,.19,.16,.16,0,.25-.07,.25-.16v-2.06c0-.12,.06-.29,.16-.33,.1-.04,.41-.16,.41-.16,.1-.04,.17-.16,.17-.25v-1.03c0-.07-.04-.12-.1-.12-.03,0-.04,0-.07,.01l-.38,.15c-.09,0-.19-.09-.19-.26v-1.35c0-.1,.07-.38,.19-.42l.38-.15c.1-.04,.17-.16,.17-.25v-1.03c0-.07-.04-.12-.1-.12-.03,0-.04,0-.07,.01,0,0-.29,.12-.36,.13-.1,0-.2-.07-.2-.19v-1.77c0-.09-.09-.16-.2-.16-.15,0-.23,.07-.23,.16v1.89c-.01,.15-.06,.33-.19,.42-.17,.1-.67,.31-.91,.36-.13,0-.17-.17-.17-.29v-1.74c0-.09-.1-.16-.2-.16-.15,0-.23,.07-.23,.16v1.96c0,.2-.09,.35-.17,.39-.09,.04-.38,.16-.38,.16-.1,.03-.17,.15-.17,.23v1.03c0,.09,.04,.13,.12,.13m1,.81c0-.45,.01-.96,.04-1.08,.03-.25,.7-.55,1.06-.55,.1,0,.19,.03,.22,.09,.03,.07,.06,.44,.06,.83s-.03,.8-.06,.93c-.09,.29-.77,.58-1.1,.58-.09,0-.16-.03-.17-.07-.03-.06-.04-.38-.04-.73" vector-effect="none"/>
          </g>
          <g>
            <path class="cls-14" d="M124.75,447.6c1.69-2.27,4.24-2.27,5.93,0l.44-.3c-2.13-3.39-4.68-3.39-6.82,0l.44,.3" vector-effect="none"/>
            <line class="cls-5" x1="108.3" y1="441.71" x2="108.3" y2="450.16" vector-effect="none"/>
            <line class="cls-5" x1="116.73" y1="441.71" x2="116.73" y2="450.16" vector-effect="none"/>
            <path class="cls-14" d="M119.44,443.68h.87s.05-.03,.12-.07c.54-.46,3.83-3.81,4.1-3.81s3.62,3.42,4.11,3.84c.03,.02,.12,.03,.12,.03h.85s.05-.02,.05-.05c0-.02-.02-.05-.03-.07-.73-.7-4.64-5.68-5.1-5.68s-4.32,4.91-5.1,5.68c-.02,.02-.03,.05-.03,.07,0,.03,.05,.05,.05,.05m4.13-1.11c0,.53,.42,.95,.93,.95s.93-.43,.93-.95c0-.49-.43-.92-.93-.92s-.93,.42-.93,.92" vector-effect="none"/>
            <path class="cls-14" d="M137.75,451.79c.24,0,.43-.1,.43-.22v-3.2c0-.2,2.14-.31,4.28-.31s4.3,.1,4.3,.31v3.2c0,.12,.19,.22,.41,.22,.24,0,.43-.1,.43-.22v-4.98c0-.25-.37-.46-.85-.46h-8.55c-.48,0-.85,.2-.85,.46v4.98c0,.12,.19,.22,.41,.22m4.71,.02c.53,0,.93-.42,.93-.93s-.41-.92-.93-.92-.92,.41-.92,.92,.41,.93,.92,.93" vector-effect="none"/>
            <path class="cls-14" d="M121.72,451.43c0,.99,.82,1.58,1.84,1.58,1.68,0,3.76-1.56,3.76-3.18,0-.95-.76-1.58-1.85-1.58-2.07,0-3.74,1.55-3.74,3.18" vector-effect="none"/>
            <path class="cls-14" d="M105.16,451.1c0,.58,.48,.93,1.08,.93,.99,0,2.21-.92,2.21-1.87,0-.56-.45-.93-1.09-.93-1.22,0-2.2,.91-2.2,1.87" vector-effect="none"/>
            <path class="cls-14" d="M113.58,451.1c0,.58,.48,.93,1.08,.93,.99,0,2.21-.92,2.21-1.87,0-.56-.45-.93-1.09-.93-1.22,0-2.2,.91-2.2,1.87" vector-effect="none"/>
            <path class="cls-14" d="M140.52,459.43h3.91c.24,0,.44-.2,.44-.44v-1.56c0-.26-.2-.44-.44-.44h-3.91c-.25,0-.44,.19-.44,.44v1.56c0,.24,.19,.44,.44,.44" vector-effect="none"/>
            <path class="cls-14" d="M108.15,442.98v-1.27h8.73v1.27h-8.73" vector-effect="none"/>
            <line class="cls-1" x1="107.25" y1="445.16" x2="112.51" y2="439.91" vector-effect="none"/>
            <g>
              <line class="cls-3" x1="99.98" y1="469.92" x2="177.2" y2="469.92" vector-effect="none"/>
              <line class="cls-3" x1="99.98" y1="465.67" x2="177.2" y2="465.67" vector-effect="none"/>
              <line class="cls-3" x1="99.98" y1="461.42" x2="177.2" y2="461.42" vector-effect="none"/>
              <line class="cls-3" x1="99.98" y1="457.17" x2="177.2" y2="457.17" vector-effect="none"/>
              <line class="cls-3" x1="99.98" y1="452.92" x2="177.2" y2="452.92" vector-effect="none"/>
            </g>
            <path class="cls-14" d="M102.17,450.38s.23-.09,.26-.11c0,0,.02,0,.03,0,.07,0,.13,.1,.13,.18v.99c0,.11-.05,.2-.11,.23-.06,.02-.27,.11-.27,.11-.07,.02-.12,.1-.12,.16v.71c0,.06,.03,.09,.08,.09,0,0,.03,0,.04,0,0,0,.14-.06,.23-.09,0,0,.02,0,.03,0,.07,0,.12,.11,.12,.16v1.23c0,.06,.06,.11,.13,.11,.1,0,.17-.05,.17-.11v-1.39c0-.13,.05-.2,.1-.22l.61-.25s.03,0,.04,0c.08,0,.13,.12,.13,.18v1.25c0,.06,.06,.11,.13,.11,.11,0,.17-.05,.17-.11v-1.42c0-.08,.04-.2,.11-.23,.07-.03,.28-.11,.28-.11,.07-.03,.12-.11,.12-.17v-.71s-.03-.08-.07-.08c-.02,0-.03,0-.05,.01l-.26,.1c-.06,0-.13-.06-.13-.18v-.93c0-.07,.05-.26,.13-.29l.26-.1c.07-.03,.12-.11,.12-.17v-.71s-.03-.08-.07-.08c-.02,0-.03,0-.05,0,0,0-.2,.08-.25,.09-.07,0-.14-.05-.14-.13v-1.22c0-.06-.06-.11-.14-.11-.1,0-.16,.05-.16,.11v1.3c0,.1-.04,.23-.13,.29-.12,.07-.46,.21-.63,.25-.09,0-.12-.12-.12-.2v-1.2c0-.06-.07-.11-.14-.11-.1,0-.16,.05-.16,.11v1.35c0,.14-.06,.24-.12,.27-.06,.03-.26,.11-.26,.11-.07,.02-.12,.1-.12,.16v.71c0,.06,.03,.09,.08,.09m.69,.56c0-.31,0-.66,.03-.74,.02-.17,.48-.38,.73-.38,.07,0,.13,.02,.15,.06,.02,.05,.04,.3,.04,.57s-.02,.55-.04,.64c-.06,.2-.53,.4-.76,.4-.06,0-.11-.02-.12-.05-.02-.04-.03-.26-.03-.5" vector-effect="none"/>
          </g>
        </g>
        <rect class="cls-4" x="94.6" y="402.63" width="151.98" height="72.66" rx="12" ry="12"/>
      </g>
      <g>
        <g>
          <g>
            <path class="cls-14" d="M294.67,413.04c1.69-2.27,4.24-2.27,5.93,0l.44-.3c-2.13-3.39-4.68-3.39-6.82,0l.44,.3" vector-effect="none"/>
            <g>
              <g>
                <line class="cls-3" x1="284.87" y1="435.33" x2="347.12" y2="435.33" vector-effect="none"/>
                <line class="cls-3" x1="284.87" y1="431.08" x2="347.12" y2="431.08" vector-effect="none"/>
                <line class="cls-3" x1="284.87" y1="426.83" x2="347.12" y2="426.83" vector-effect="none"/>
                <line class="cls-3" x1="284.87" y1="422.58" x2="347.12" y2="422.58" vector-effect="none"/>
                <line class="cls-3" x1="284.87" y1="418.33" x2="347.12" y2="418.33" vector-effect="none"/>
              </g>
              <path class="cls-14" d="M307.67,417.24c.24,0,.43-.1,.43-.22v-3.2c0-.2,2.14-.31,4.28-.31s4.3,.1,4.3,.31v3.2c0,.12,.19,.22,.41,.22,.24,0,.43-.1,.43-.22v-4.98c0-.25-.37-.46-.85-.46h-8.55c-.48,0-.85,.2-.85,.46v4.98c0,.12,.19,.22,.41,.22m4.71,.02c.53,0,.93-.42,.93-.93s-.41-.92-.93-.92-.92,.41-.92,.92,.41,.93,.92,.93" vector-effect="none"/>
              <path class="cls-14" d="M291.64,416.88c0,.99,.82,1.58,1.84,1.58,1.68,0,3.76-1.56,3.76-3.18,0-.95-.76-1.58-1.85-1.58-2.07,0-3.74,1.55-3.74,3.18" vector-effect="none"/>
              <path class="cls-14" d="M310.44,424.88h3.91c.24,0,.44-.2,.44-.44v-1.56c0-.26-.2-.44-.44-.44h-3.91c-.25,0-.44,.19-.44,.44v1.56c0,.24,.19,.44,.44,.44" vector-effect="none"/>
            </g>
            <path class="cls-14" d="M286.93,415.72c.06,0,.33-.13,.38-.16,.01,0,.03-.01,.04-.01,.1,0,.19,.15,.19,.26v1.44c0,.16-.07,.29-.16,.33-.09,.03-.39,.16-.39,.16-.1,.03-.17,.15-.17,.23v1.03c0,.09,.04,.13,.12,.13,.01,0,.04-.01,.06-.01,0,0,.2-.09,.33-.13,.01-.01,.03-.01,.04-.01,.1,0,.17,.16,.17,.23v1.79c0,.09,.09,.16,.19,.16,.15,0,.25-.07,.25-.16v-2.02c0-.19,.07-.29,.15-.32l.88-.36s.04-.01,.06-.01c.12,0,.19,.17,.19,.26v1.82c0,.09,.09,.16,.19,.16,.16,0,.25-.07,.25-.16v-2.06c0-.12,.06-.29,.16-.33,.1-.04,.41-.16,.41-.16,.1-.04,.17-.16,.17-.25v-1.03c0-.07-.04-.12-.1-.12-.03,0-.04,0-.07,.01l-.38,.15c-.09,0-.19-.09-.19-.26v-1.35c0-.1,.07-.38,.19-.42l.38-.15c.1-.04,.17-.16,.17-.25v-1.03c0-.07-.04-.12-.1-.12-.03,0-.04,0-.07,.01,0,0-.29,.12-.36,.13-.1,0-.2-.07-.2-.19v-1.77c0-.09-.09-.16-.2-.16-.15,0-.23,.07-.23,.16v1.89c-.01,.15-.06,.33-.19,.42-.17,.1-.67,.31-.91,.36-.13,0-.17-.17-.17-.29v-1.74c0-.09-.1-.16-.2-.16-.15,0-.23,.07-.23,.16v1.96c0,.2-.09,.35-.17,.39-.09,.04-.38,.16-.38,.16-.1,.03-.17,.15-.17,.23v1.03c0,.09,.04,.13,.12,.13m1,.81c0-.45,.01-.96,.04-1.08,.03-.25,.7-.55,1.06-.55,.1,0,.19,.03,.22,.09,.03,.07,.06,.44,.06,.83s-.03,.8-.06,.93c-.09,.29-.77,.58-1.1,.58-.09,0-.16-.03-.17-.07-.03-.06-.04-.38-.04-.73" vector-effect="none"/>
          </g>
          <g>
            <path class="cls-14" d="M343.62,447.34c1.69-2.27,4.24-2.27,5.93,0l.44-.3c-2.13-3.39-4.68-3.39-6.82,0l.44,.3" vector-effect="none"/>
            <path class="cls-14" d="M356.23,451.34c0,.17,.09,.22,.22,.22,.15,0,.24-.12,.34-.36,.02-.02,.03-.09,.05-.15,.2-.7,.97-3.3,4.47-3.3s4.35,2.69,4.52,3.33c.02,.05,.02,.1,.03,.12,.12,.24,.19,.36,.36,.36,.15,0,.24-.07,.24-.24,0-.05,0-.1-.02-.17-1.05-5.2-4.61-5.24-5.1-5.24-.54,0-4.06,.03-5.1,5.24-.02,.07-.02,.14-.02,.19m4.18-.71c0,.51,.43,.94,.92,.94s.93-.43,.93-.94-.43-.92-.93-.92-.92,.43-.92,.92" vector-effect="none"/>
            <path class="cls-14" d="M340.6,451.18c0,.99,.82,1.58,1.84,1.58,1.68,0,3.76-1.56,3.76-3.18,0-.95-.76-1.58-1.85-1.58-2.07,0-3.74,1.55-3.74,3.18" vector-effect="none"/>
            <path class="cls-14" d="M359.39,461.16h3.91c.24,0,.44-.2,.44-.44v-1.56c0-.25-.2-.44-.44-.44h-3.91c-.25,0-.44,.19-.44,.44v1.56c0,.24,.19,.44,.44,.44" vector-effect="none"/>
            <g>
              <line class="cls-3" x1="332.62" y1="469.66" x2="385.33" y2="469.66" vector-effect="none"/>
              <line class="cls-3" x1="332.62" y1="465.41" x2="385.33" y2="465.41" vector-effect="none"/>
              <line class="cls-3" x1="332.62" y1="461.16" x2="385.33" y2="461.16" vector-effect="none"/>
              <line class="cls-3" x1="332.62" y1="456.91" x2="385.33" y2="456.91" vector-effect="none"/>
              <line class="cls-3" x1="332.62" y1="452.66" x2="385.33" y2="452.66" vector-effect="none"/>
            </g>
            <path class="cls-14" d="M336.39,450.02c.06,0,.33-.13,.38-.16,.01,0,.03-.01,.04-.01,.1,0,.19,.15,.19,.26v1.44c0,.16-.07,.29-.16,.33-.09,.03-.39,.16-.39,.16-.1,.03-.17,.15-.17,.23v1.03c0,.09,.04,.13,.12,.13,.01,0,.04-.01,.06-.01,0,0,.2-.09,.33-.13,.01-.01,.03-.01,.04-.01,.1,0,.17,.16,.17,.23v1.79c0,.09,.09,.16,.19,.16,.15,0,.25-.07,.25-.16v-2.02c0-.19,.07-.29,.15-.32l.88-.36s.04-.01,.06-.01c.12,0,.19,.17,.19,.26v1.82c0,.09,.09,.16,.19,.16,.16,0,.25-.07,.25-.16v-2.06c0-.12,.06-.29,.16-.33,.1-.04,.41-.16,.41-.16,.1-.04,.17-.16,.17-.25v-1.03c0-.07-.04-.12-.1-.12-.03,0-.04,0-.07,.01l-.38,.15c-.09,0-.19-.09-.19-.26v-1.35c0-.1,.07-.38,.19-.42l.38-.15c.1-.04,.17-.16,.17-.25v-1.03c0-.07-.04-.12-.1-.12-.03,0-.04,0-.07,.01,0,0-.29,.12-.36,.13-.1,0-.2-.07-.2-.19v-1.77c0-.09-.09-.16-.2-.16-.15,0-.23,.07-.23,.16v1.89c-.01,.15-.06,.33-.19,.42-.17,.1-.67,.31-.91,.36-.13,0-.17-.17-.17-.29v-1.74c0-.09-.1-.16-.2-.16-.15,0-.23,.07-.23,.16v1.96c0,.2-.09,.35-.17,.39-.09,.04-.38,.16-.38,.16-.1,.03-.17,.15-.17,.23v1.03c0,.09,.04,.13,.12,.13m1,.81c0-.45,.01-.96,.04-1.08,.03-.25,.7-.55,1.06-.55,.1,0,.19,.03,.22,.09,.03,.07,.06,.44,.06,.83s-.03,.8-.06,.93c-.09,.29-.77,.58-1.1,.58-.09,0-.16-.03-.17-.07-.03-.06-.04-.38-.04-.73" vector-effect="none"/>
          </g>
          <g>
            <path class="cls-14" d="M385.26,417.97c1.69-2.27,4.24-2.27,5.94,0l.44-.3c-2.13-3.39-4.68-3.39-6.81,0l.44,.3" vector-effect="none"/>
            <path class="cls-14" d="M397.79,422.18h.87s.05-.03,.12-.07c.54-.46,3.83-3.81,4.1-3.81s3.62,3.42,4.11,3.84c.03,.02,.12,.03,.12,.03h.85s.05-.02,.05-.05c0-.02-.02-.05-.03-.07-.73-.7-4.64-5.68-5.1-5.68s-4.32,4.91-5.1,5.68c-.02,.02-.03,.05-.03,.07,0,.03,.05,.05,.05,.05m4.13-1.11c0,.53,.42,.95,.93,.95s.93-.43,.93-.95c0-.49-.43-.92-.93-.92s-.93,.42-.93,.92" vector-effect="none"/>
            <path class="cls-14" d="M382.24,421.81c0,.99,.82,1.58,1.84,1.58,1.68,0,3.76-1.56,3.76-3.18,0-.95-.76-1.58-1.85-1.58-2.07,0-3.74,1.55-3.74,3.18" vector-effect="none"/>
            <path class="cls-14" d="M402.56,437.98c.14,.1,.31,.15,.44,.15,.12,0,.24-.03,.26-.1,.02-.05,.03-.08,.03-.12,0-.15-.14-.29-.27-.41-.22,0-.41-.46-.44-.61-.05-.14-.07-.29-.07-.44,0-.7,.36-1.24,1.07-1.24,.49,0,1.05,.19,1.33,.29,.02,0,.03,.02,.05,.02,.05,.02,.09,.02,.12,.02,.05,0,.09-.02,.09-.07,0-.2-.44-.77-.63-.97-.65-.78-1.17-1.41-1.17-2.36,0-.07,.02-.15,.02-.22,.07-.99,.68-1.8,1.12-2.5,.05-.09,.07-.17,.07-.26,0-.17-.07-.32-.07-.32,0,0-2.52-2.99-2.81-3.28-.09-.09-.2-.14-.31-.14-.17,0-.34,.12-.34,.36,0,.09,.02,.17,.07,.27,.07,.19,1.04,1.05,1.04,2.28,0,.63-.25,1.36-1.02,2.16-.17,.17-.24,.36-.24,.49,0,.24,.17,.41,.17,.41l.83,1.02c.27,.34,.51,.66,.73,1.02,.03,.07,.1,.2,.1,.24,0,.02,0,.05-.02,.07-.03,.07-.1,.08-.19,.08-.07,0-.2-.03-.27-.05-.08,0-.19-.05-.27-.05-.73,0-1.39,.73-1.39,1.63,0,.85,.73,1.68,1.97,2.64" vector-effect="none"/>
            <g>
              <line class="cls-3" x1="375.57" y1="440.29" x2="419.36" y2="440.29" vector-effect="none"/>
              <line class="cls-3" x1="375.57" y1="436.04" x2="419.36" y2="436.04" vector-effect="none"/>
              <line class="cls-3" x1="375.57" y1="431.79" x2="419.36" y2="431.79" vector-effect="none"/>
              <line class="cls-3" x1="375.57" y1="427.54" x2="419.36" y2="427.54" vector-effect="none"/>
              <line class="cls-3" x1="375.57" y1="423.29" x2="419.36" y2="423.29" vector-effect="none"/>
            </g>
            <path class="cls-14" d="M378.13,420.79c.06,0,.33-.13,.38-.16,.01,0,.03-.01,.04-.01,.1,0,.19,.15,.19,.26v1.44c0,.16-.07,.29-.16,.33-.09,.03-.39,.16-.39,.16-.1,.03-.17,.15-.17,.23v1.03c0,.09,.04,.13,.12,.13,.01,0,.04-.01,.06-.01,0,0,.2-.09,.33-.13,.01-.01,.03-.01,.04-.01,.1,0,.17,.16,.17,.23v1.79c0,.09,.09,.16,.19,.16,.15,0,.25-.07,.25-.16v-2.02c0-.19,.07-.29,.15-.32l.88-.36s.04-.01,.06-.01c.12,0,.19,.17,.19,.26v1.82c0,.09,.09,.16,.19,.16,.16,0,.25-.07,.25-.16v-2.06c0-.12,.06-.29,.16-.33,.1-.04,.41-.16,.41-.16,.1-.04,.17-.16,.17-.25v-1.03c0-.07-.04-.12-.1-.12-.03,0-.04,0-.07,.01l-.38,.15c-.09,0-.19-.09-.19-.26v-1.35c0-.1,.07-.38,.19-.42l.38-.15c.1-.04,.17-.16,.17-.25v-1.03c0-.07-.04-.12-.1-.12-.03,0-.04,0-.07,.01,0,0-.29,.12-.36,.13-.1,0-.2-.07-.2-.19v-1.77c0-.09-.09-.16-.2-.16-.15,0-.23,.07-.23,.16v1.89c-.01,.15-.06,.33-.19,.42-.17,.1-.67,.31-.91,.36-.13,0-.17-.17-.17-.29v-1.74c0-.09-.1-.16-.2-.16-.15,0-.23,.07-.23,.16v1.96c0,.2-.09,.35-.17,.39-.09,.04-.38,.16-.38,.16-.1,.03-.17,.15-.17,.23v1.03c0,.09,.04,.13,.12,.13m1,.81c0-.45,.01-.96,.04-1.08,.03-.25,.7-.55,1.06-.55,.1,0,.19,.03,.22,.09,.03,.07,.06,.44,.06,.83s-.03,.8-.06,.93c-.09,.29-.77,.58-1.1,.58-.09,0-.16-.03-.17-.07-.03-.06-.04-.38-.04-.73" vector-effect="none"/>
          </g>
        </g>
        <rect class="cls-4" x="276.27" y="400.94" width="147.45" height="76.06" rx="12" ry="12"/>
      </g>
      <g>
        <g>
          <g>
            <g>
              <line class="cls-3" x1="461.64" y1="449.14" x2="523.89" y2="449.14" vector-effect="none"/>
              <line class="cls-3" x1="461.64" y1="444.89" x2="523.89" y2="444.89" vector-effect="none"/>
              <line class="cls-3" x1="461.64" y1="440.64" x2="523.89" y2="440.64" vector-effect="none"/>
              <line class="cls-3" x1="461.64" y1="436.39" x2="523.89" y2="436.39" vector-effect="none"/>
              <line class="cls-3" x1="461.64" y1="432.14" x2="523.89" y2="432.14" vector-effect="none"/>
            </g>
            <path class="cls-14" d="M484.45,431.04c.24,0,.43-.1,.43-.22v-3.2c0-.2,2.14-.31,4.28-.31s4.3,.1,4.3,.31v3.2c0,.12,.19,.22,.41,.22,.24,0,.43-.1,.43-.22v-4.98c0-.25-.37-.46-.85-.46h-8.55c-.48,0-.85,.2-.85,.46v4.98c0,.12,.19,.22,.41,.22m4.71,.02c.53,0,.93-.42,.93-.93s-.41-.92-.93-.92-.92,.41-.92,.92,.41,.93,.92,.93" vector-effect="none"/>
            <path class="cls-14" d="M468.42,430.69c0,.99,.82,1.58,1.84,1.58,1.68,0,3.76-1.56,3.76-3.18,0-.95-.76-1.58-1.85-1.58-2.07,0-3.74,1.55-3.74,3.18" vector-effect="none"/>
            <path class="cls-14" d="M487.21,438.68h3.91c.24,0,.44-.2,.44-.44v-1.56c0-.26-.2-.44-.44-.44h-3.91c-.25,0-.44,.19-.44,.44v1.56c0,.24,.19,.44,.44,.44" vector-effect="none"/>
            <path class="cls-14" d="M471.66,426.42c1.69-2.27,4.24-2.27,5.93,0l.44-.3c-2.13-3.39-4.68-3.39-6.82,0l.44,.3" vector-effect="none"/>
            <path class="cls-14" d="M463.79,429.77c.06,0,.33-.13,.38-.16,.01,0,.03-.01,.04-.01,.1,0,.19,.15,.19,.26v1.44c0,.16-.07,.29-.16,.33-.09,.03-.39,.16-.39,.16-.1,.03-.17,.15-.17,.23v1.03c0,.09,.04,.13,.12,.13,.01,0,.04-.01,.06-.01,0,0,.2-.09,.33-.13,.01-.01,.03-.01,.04-.01,.1,0,.17,.16,.17,.23v1.79c0,.09,.09,.16,.19,.16,.15,0,.25-.07,.25-.16v-2.02c0-.19,.07-.29,.15-.32l.88-.36s.04-.01,.06-.01c.12,0,.19,.17,.19,.26v1.82c0,.09,.09,.16,.19,.16,.16,0,.25-.07,.25-.16v-2.06c0-.12,.06-.29,.16-.33,.1-.04,.41-.16,.41-.16,.1-.04,.17-.16,.17-.25v-1.03c0-.07-.04-.12-.1-.12-.03,0-.04,0-.07,.01l-.38,.15c-.09,0-.19-.09-.19-.26v-1.35c0-.1,.07-.38,.19-.42l.38-.15c.1-.04,.17-.16,.17-.25v-1.03c0-.07-.04-.12-.1-.12-.03,0-.04,0-.07,.01,0,0-.29,.12-.36,.13-.1,0-.2-.07-.2-.19v-1.77c0-.09-.09-.16-.2-.16-.15,0-.23,.07-.23,.16v1.89c-.01,.15-.06,.33-.19,.42-.17,.1-.67,.31-.91,.36-.13,0-.17-.17-.17-.29v-1.74c0-.09-.1-.16-.2-.16-.15,0-.23,.07-.23,.16v1.96c0,.2-.09,.35-.17,.39-.09,.04-.38,.16-.38,.16-.1,.03-.17,.15-.17,.23v1.03c0,.09,.04,.13,.12,.13m1,.81c0-.45,.01-.96,.04-1.08,.03-.25,.7-.55,1.06-.55,.1,0,.19,.03,.22,.09,.03,.07,.06,.44,.06,.83s-.03,.8-.06,.93c-.09,.29-.77,.58-1.1,.58-.09,0-.16-.03-.17-.07-.03-.06-.04-.38-.04-.73" vector-effect="none"/>
          </g>
          <rect class="cls-4" x="453.05" y="414.74" width="80.2" height="48.45" rx="12" ry="12"/>
        </g>
        <text class="cls-9" transform="translate(485.04 424.26)"><tspan x="0" y="0">5” - 10”</tspan></text>
      </g>
      <g>
        <g>
          <g>
            <line class="cls-3" x1="680.78" y1="449.14" x2="743.02" y2="449.14" vector-effect="none"/>
            <line class="cls-3" x1="680.78" y1="444.89" x2="743.02" y2="444.89" vector-effect="none"/>
            <line class="cls-3" x1="680.78" y1="440.64" x2="743.02" y2="440.64" vector-effect="none"/>
            <line class="cls-3" x1="680.78" y1="436.39" x2="743.02" y2="436.39" vector-effect="none"/>
            <line class="cls-3" x1="680.78" y1="432.14" x2="743.02" y2="432.14" vector-effect="none"/>
          </g>
          <path class="cls-14" d="M703.58,431.04c.24,0,.43-.1,.43-.22v-3.2c0-.2,2.14-.31,4.28-.31s4.3,.1,4.3,.31v3.2c0,.12,.19,.22,.41,.22,.24,0,.43-.1,.43-.22v-4.98c0-.25-.37-.46-.85-.46h-8.55c-.48,0-.85,.2-.85,.46v4.98c0,.12,.19,.22,.41,.22m4.71,.02c.53,0,.93-.42,.93-.93s-.41-.92-.93-.92-.92,.41-.92,.92,.41,.93,.92,.93" vector-effect="none"/>
          <path class="cls-14" d="M706.34,438.68h3.91c.24,0,.44-.2,.44-.44v-1.56c0-.26-.2-.44-.44-.44h-3.91c-.25,0-.44,.19-.44,.44v1.56c0,.24,.19,.44,.44,.44" vector-effect="none"/>
        </g>
        <rect class="cls-4" x="672.18" y="414.74" width="80.2" height="48.45" rx="12" ry="12"/>
      </g>
      <g>
        <g>
          <line class="cls-2" x1="246.84" y1="438.96" x2="264.47" y2="438.96"/>
          <path class="cls-14" d="M276.54,438.96c-5.68,2.11-12.73,5.7-17.09,9.51l3.44-9.51-3.44-9.51c4.37,3.81,11.42,7.4,17.09,9.51Z"/>
        </g>
        <g>
          <line class="cls-2" x1="424.3" y1="438.96" x2="441.93" y2="438.96"/>
          <path class="cls-14" d="M454,438.96c-5.68,2.11-12.73,5.7-17.09,9.51l3.44-9.51-3.44-9.51c4.37,3.81,11.42,7.4,17.09,9.51Z"/>
        </g>
        <g>
          <line class="cls-2" x1="533.51" y1="438.96" x2="551.14" y2="438.96"/>
          <path class="cls-14" d="M563.21,438.96c-5.68,2.11-12.73,5.7-17.09,9.51l3.44-9.51-3.44-9.51c4.37,3.81,11.42,7.4,17.09,9.51Z"/>
        </g>
        <g>
          <line class="cls-2" x1="643.33" y1="438.96" x2="660.96" y2="438.96"/>
          <path class="cls-14" d="M673.03,438.96c-5.68,2.11-12.73,5.7-17.09,9.51l3.44-9.51-3.44-9.51c4.37,3.81,11.42,7.4,17.09,9.51Z"/>
        </g>
      </g>
      <g>
        <g>
          <g>
            <g>
              <line class="cls-3" x1="572.58" y1="448.71" x2="634.82" y2="448.71" vector-effect="none"/>
              <line class="cls-3" x1="572.58" y1="444.46" x2="634.82" y2="444.46" vector-effect="none"/>
              <line class="cls-3" x1="572.58" y1="440.21" x2="634.82" y2="440.21" vector-effect="none"/>
              <line class="cls-3" x1="572.58" y1="435.96" x2="634.82" y2="435.96" vector-effect="none"/>
              <line class="cls-3" x1="572.58" y1="431.71" x2="634.82" y2="431.71" vector-effect="none"/>
            </g>
            <line class="cls-7" x1="577.65" y1="427.46" x2="590.47" y2="427.46" vector-effect="none"/>
            <path class="cls-14" d="M595.38,430.61c.24,0,.43-.1,.43-.22v-3.2c0-.2,2.14-.31,4.28-.31s4.3,.1,4.3,.31v3.2c0,.12,.19,.22,.41,.22,.24,0,.43-.1,.43-.22v-4.98c0-.25-.37-.46-.85-.46h-8.55c-.48,0-.85,.2-.85,.46v4.98c0,.12,.19,.22,.41,.22m4.71,.02c.53,0,.93-.42,.93-.93s-.41-.92-.93-.92-.92,.41-.92,.92,.41,.93,.92,.93" vector-effect="none"/>
            <path class="cls-14" d="M598.14,438.25h3.91c.24,0,.44-.2,.44-.44v-1.56c0-.26-.2-.44-.44-.44h-3.91c-.25,0-.44,.19-.44,.44v1.56c0,.24,.19,.44,.44,.44" vector-effect="none"/>
            <g>
              <path class="cls-14" d="M579.35,428.25c0,.99,.82,1.58,1.84,1.58,1.68,0,3.76-1.56,3.76-3.18,0-.95-.76-1.58-1.85-1.58-2.07,0-3.74,1.55-3.74,3.18" vector-effect="none"/>
              <circle class="cls-8" cx="586.93" cy="427.46" r="2.17"/>
            </g>
          </g>
          <rect class="cls-4" x="563.98" y="414.31" width="80.2" height="48.45" rx="12" ry="12"/>
        </g>
        <text class="cls-9" transform="translate(590.53 421.95)"><tspan x="0" y="0">5” - 15”</tspan></text>
      </g>
    </g>
    <g>
      <g>
        <g>
          <path class="cls-14" d="M149.67,312.74c1.69-2.27,4.24-2.27,5.93,0l.44-.3c-2.13-3.39-4.68-3.39-6.82,0l.44,.3" vector-effect="none"/>
          <path class="cls-14" d="M160.68,312.02c0,.17,.09,.22,.22,.22,.15,0,.24-.12,.34-.36,.02-.02,.03-.09,.05-.15,.2-.7,.97-3.3,4.47-3.3s4.35,2.69,4.52,3.33c.02,.05,.02,.1,.03,.12,.12,.24,.19,.36,.36,.36,.15,0,.24-.07,.24-.24,0-.05,0-.1-.02-.17-1.05-5.2-4.61-5.24-5.1-5.24-.54,0-4.06,.03-5.1,5.24-.02,.07-.02,.14-.02,.19m4.18-.71c0,.51,.43,.94,.92,.94s.93-.43,.93-.94-.43-.92-.93-.92-.92,.43-.92,.92" vector-effect="none"/>
          <path class="cls-14" d="M145.05,316.36c0,.99,.82,1.58,1.84,1.58,1.68,0,3.76-1.56,3.76-3.18,0-.95-.76-1.58-1.85-1.58-2.07,0-3.74,1.55-3.74,3.18" vector-effect="none"/>
          <path class="cls-14" d="M163.84,321.85h3.91c.24,0,.44-.2,.44-.44v-1.56c0-.25-.2-.44-.44-.44h-3.91c-.25,0-.44,.19-.44,.44v1.56c0,.24,.19,.44,.44,.44" vector-effect="none"/>
          <g>
            <line class="cls-3" x1="132.55" y1="330.35" x2="189.77" y2="330.35" vector-effect="none"/>
            <line class="cls-3" x1="132.55" y1="326.1" x2="189.77" y2="326.1" vector-effect="none"/>
            <line class="cls-3" x1="132.55" y1="321.85" x2="189.77" y2="321.85" vector-effect="none"/>
            <line class="cls-3" x1="132.55" y1="317.6" x2="189.77" y2="317.6" vector-effect="none"/>
            <line class="cls-3" x1="132.55" y1="313.35" x2="189.77" y2="313.35" vector-effect="none"/>
          </g>
        </g>
        <g>
          <path class="cls-14" d="M218.45,340.64c1.16-1.93,2.52-1.93,3.67,0l-.27,.16c-.88-1.28-2.24-1.28-3.13,0l-.27-.16" vector-effect="none"/>
          <line class="cls-5" x1="209.88" y1="331.55" x2="209.88" y2="339.99" vector-effect="none"/>
          <line class="cls-5" x1="218.3" y1="331.55" x2="218.3" y2="339.99" vector-effect="none"/>
          <path class="cls-14" d="M221.3,334.44h.87s.05-.03,.12-.07c.54-.46,3.83-3.81,4.1-3.81s3.62,3.42,4.11,3.84c.03,.02,.12,.03,.12,.03h.85s.05-.02,.05-.05c0-.02-.02-.05-.03-.07-.73-.7-4.64-5.68-5.1-5.68s-4.32,4.91-5.1,5.68c-.02,.02-.03,.05-.03,.07,0,.03,.05,.05,.05,.05m4.13-1.11c0,.53,.42,.95,.93,.95s.93-.43,.93-.95c0-.49-.43-.92-.93-.92s-.93,.42-.93,.92" vector-effect="none"/>
          <path class="cls-14" d="M194.68,341.27c0,.99,.82,1.58,1.84,1.58,1.68,0,3.76-1.56,3.76-3.18,0-.95-.76-1.58-1.85-1.58-2.07,0-3.74,1.55-3.74,3.18" vector-effect="none"/>
          <path class="cls-14" d="M226.07,352.98c.14,.1,.31,.15,.44,.15,.12,0,.24-.03,.26-.1,.02-.05,.03-.08,.03-.12,0-.15-.14-.29-.27-.41-.22,0-.41-.46-.44-.61-.05-.14-.07-.29-.07-.44,0-.7,.36-1.24,1.07-1.24,.49,0,1.05,.19,1.33,.29,.02,0,.03,.02,.05,.02,.05,.02,.09,.02,.12,.02,.05,0,.09-.02,.09-.07,0-.2-.44-.77-.63-.97-.65-.78-1.17-1.41-1.17-2.36,0-.07,.02-.15,.02-.22,.07-.99,.68-1.8,1.12-2.5,.05-.09,.07-.17,.07-.26,0-.17-.07-.32-.07-.32,0,0-2.52-2.99-2.81-3.28-.09-.09-.2-.14-.31-.14-.17,0-.34,.12-.34,.36,0,.09,.02,.17,.07,.27,.07,.19,1.04,1.05,1.04,2.28,0,.63-.25,1.36-1.02,2.16-.17,.17-.24,.36-.24,.49,0,.24,.17,.41,.17,.41l.83,1.02c.27,.34,.51,.66,.73,1.02,.03,.07,.1,.2,.1,.24,0,.02,0,.05-.02,.07-.03,.07-.1,.08-.19,.08-.07,0-.2-.03-.27-.05-.08,0-.19-.05-.27-.05-.73,0-1.39,.73-1.39,1.63,0,.85,.73,1.68,1.97,2.64" vector-effect="none"/>
          <path class="cls-14" d="M206.73,340.94c0,.58,.48,.93,1.08,.93,.99,0,2.21-.92,2.21-1.87,0-.56-.45-.93-1.09-.93-1.22,0-2.2,.91-2.2,1.87" vector-effect="none"/>
          <path class="cls-14" d="M215.15,340.94c0,.58,.48,.93,1.08,.93,.99,0,2.21-.92,2.21-1.87,0-.56-.45-.93-1.09-.93-1.22,0-2.2,.91-2.2,1.87" vector-effect="none"/>
          <path class="cls-14" d="M209.72,332.82v-1.27h8.73v1.27h-8.73" vector-effect="none"/>
          <line class="cls-1" x1="208.82" y1="335" x2="214.08" y2="329.74" vector-effect="none"/>
          <g>
            <line class="cls-3" x1="187.89" y1="355.29" x2="238.82" y2="355.29" vector-effect="none"/>
            <line class="cls-3" x1="187.89" y1="351.04" x2="238.82" y2="351.04" vector-effect="none"/>
            <line class="cls-3" x1="187.89" y1="346.79" x2="238.82" y2="346.79" vector-effect="none"/>
            <line class="cls-3" x1="187.89" y1="342.54" x2="238.82" y2="342.54" vector-effect="none"/>
            <line class="cls-3" x1="187.89" y1="338.29" x2="238.82" y2="338.29" vector-effect="none"/>
          </g>
        </g>
        <g>
          <path class="cls-14" d="M123.98,344.88c1.69-2.27,4.24-2.27,5.93,0l.44-.3c-2.13-3.39-4.68-3.39-6.82,0l.44,.3" vector-effect="none"/>
          <path class="cls-14" d="M116.73,340.05h.87s.05-.03,.12-.07c.54-.46,3.83-3.81,4.1-3.81s3.62,3.42,4.11,3.84c.03,.02,.12,.03,.12,.03h.85s.05-.02,.05-.05c0-.02-.02-.05-.03-.07-.73-.7-4.64-5.68-5.1-5.68s-4.32,4.91-5.1,5.68c-.02,.02-.03,.05-.03,.07,0,.03,.05,.05,.05,.05m4.13-1.11c0,.53,.42,.95,.93,.95s.93-.43,.93-.95c0-.49-.43-.92-.93-.92s-.93,.42-.93,.92" vector-effect="none"/>
          <path class="cls-14" d="M135.05,344.36c.24,0,.43-.1,.43-.22v-3.2c0-.2,2.14-.31,4.28-.31s4.3,.1,4.3,.31v3.2c0,.12,.19,.22,.41,.22,.24,0,.43-.1,.43-.22v-4.98c0-.25-.37-.46-.85-.46h-8.55c-.48,0-.85,.2-.85,.46v4.98c0,.12,.19,.22,.41,.22m4.71,.02c.53,0,.93-.42,.93-.93s-.41-.92-.93-.92-.92,.41-.92,.92,.41,.93,.92,.93" vector-effect="none"/>
          <path class="cls-14" d="M119.02,348.43c0,.99,.82,1.58,1.84,1.58,1.68,0,3.76-1.56,3.76-3.18,0-.95-.76-1.58-1.85-1.58-2.07,0-3.74,1.55-3.74,3.18" vector-effect="none"/>
          <path class="cls-14" d="M137.81,352h3.91c.24,0,.44-.2,.44-.44v-1.56c0-.26-.2-.44-.44-.44h-3.91c-.25,0-.44,.19-.44,.44v1.56c0,.24,.19,.44,.44,.44" vector-effect="none"/>
          <g>
            <line class="cls-5" x1="105.6" y1="338.7" x2="105.6" y2="347.15" vector-effect="none"/>
            <line class="cls-5" x1="114.02" y1="338.7" x2="114.02" y2="347.15" vector-effect="none"/>
            <path class="cls-14" d="M102.46,348.1c0,.58,.48,.93,1.08,.93,.99,0,2.21-.92,2.21-1.87,0-.56-.45-.93-1.09-.93-1.22,0-2.2,.91-2.2,1.87" vector-effect="none"/>
            <path class="cls-14" d="M110.88,348.1c0,.58,.48,.93,1.08,.93,.99,0,2.21-.92,2.21-1.87,0-.56-.45-.93-1.09-.93-1.22,0-2.2,.91-2.2,1.87" vector-effect="none"/>
            <path class="cls-14" d="M105.45,339.98v-1.27h8.73v1.27h-8.73" vector-effect="none"/>
            <line class="cls-1" x1="104.55" y1="342.16" x2="109.8" y2="336.9" vector-effect="none"/>
          </g>
          <g>
            <line class="cls-3" x1="97.27" y1="362.49" x2="174.49" y2="362.49" vector-effect="none"/>
            <line class="cls-3" x1="97.27" y1="358.24" x2="174.49" y2="358.24" vector-effect="none"/>
            <line class="cls-3" x1="97.27" y1="353.99" x2="174.49" y2="353.99" vector-effect="none"/>
            <line class="cls-3" x1="97.27" y1="349.74" x2="174.49" y2="349.74" vector-effect="none"/>
            <line class="cls-3" x1="97.27" y1="345.49" x2="174.49" y2="345.49" vector-effect="none"/>
          </g>
        </g>
        <rect class="cls-4" x="91.9" y="295.21" width="151.98" height="72.66" rx="12" ry="12"/>
      </g>
      <g>
        <g>
          <g>
            <path class="cls-14" d="M291.85,309.57c1.88-2.12,4.42-1.9,5.91,.51l.46-.26c-1.84-3.56-4.38-3.78-6.79-.58l.41,.33" vector-effect="none"/>
            <g>
              <line class="cls-3" x1="282.16" y1="327.91" x2="344.41" y2="327.91" vector-effect="none"/>
              <line class="cls-3" x1="282.16" y1="323.66" x2="344.41" y2="323.66" vector-effect="none"/>
              <line class="cls-3" x1="282.16" y1="319.41" x2="344.41" y2="319.41" vector-effect="none"/>
              <line class="cls-3" x1="282.16" y1="315.16" x2="344.41" y2="315.16" vector-effect="none"/>
              <line class="cls-3" x1="282.16" y1="310.91" x2="344.41" y2="310.91" vector-effect="none"/>
            </g>
            <path class="cls-14" d="M304.97,309.81c.24,0,.43-.1,.43-.22v-3.2c0-.2,2.14-.31,4.28-.31s4.3,.1,4.3,.31v3.2c0,.12,.19,.22,.41,.22,.24,0,.43-.1,.43-.22v-4.98c0-.25-.37-.46-.85-.46h-8.55c-.48,0-.85,.2-.85,.46v4.98c0,.12,.19,.22,.41,.22m4.71,.02c.53,0,.93-.42,.93-.93s-.41-.92-.93-.92-.92,.41-.92,.92,.41,.93,.92,.93" vector-effect="none"/>
            <path class="cls-14" d="M288.94,313.67c0,.99,.82,1.58,1.84,1.58,1.68,0,3.76-1.56,3.76-3.18,0-.95-.76-1.58-1.85-1.58-2.07,0-3.74,1.55-3.74,3.18" vector-effect="none"/>
            <path class="cls-14" d="M307.73,317.45h3.91c.24,0,.44-.2,.44-.44v-1.56c0-.26-.2-.44-.44-.44h-3.91c-.25,0-.44,.19-.44,.44v1.56c0,.24,.19,.44,.44,.44" vector-effect="none"/>
          </g>
          <g>
            <path class="cls-14" d="M340.92,343.95c1.69-2.27,4.24-2.27,5.93,0l.44-.3c-2.13-3.39-4.68-3.39-6.82,0l.44,.3" vector-effect="none"/>
            <path class="cls-14" d="M353.52,343.91c0,.17,.09,.22,.22,.22,.15,0,.24-.12,.34-.36,.02-.02,.03-.09,.05-.15,.2-.7,.97-3.3,4.47-3.3s4.35,2.69,4.52,3.33c.02,.05,.02,.1,.03,.12,.12,.24,.19,.36,.36,.36,.15,0,.24-.07,.24-.24,0-.05,0-.1-.02-.17-1.05-5.2-4.61-5.24-5.1-5.24-.54,0-4.06,.03-5.1,5.24-.02,.07-.02,.14-.02,.19m4.18-.71c0,.51,.43,.94,.92,.94s.93-.43,.93-.94-.43-.92-.93-.92-.92,.43-.92,.92" vector-effect="none"/>
            <path class="cls-14" d="M337.89,347.79c0,.99,.82,1.58,1.84,1.58,1.68,0,3.76-1.56,3.76-3.18,0-.95-.76-1.58-1.85-1.58-2.07,0-3.74,1.55-3.74,3.18" vector-effect="none"/>
            <path class="cls-14" d="M356.68,353.74h3.91c.24,0,.44-.2,.44-.44v-1.56c0-.25-.2-.44-.44-.44h-3.91c-.25,0-.44,.19-.44,.44v1.56c0,.24,.19,.44,.44,.44" vector-effect="none"/>
            <g>
              <line class="cls-3" x1="329.91" y1="362.24" x2="382.62" y2="362.24" vector-effect="none"/>
              <line class="cls-3" x1="329.91" y1="357.99" x2="382.62" y2="357.99" vector-effect="none"/>
              <line class="cls-3" x1="329.91" y1="353.74" x2="382.62" y2="353.74" vector-effect="none"/>
              <line class="cls-3" x1="329.91" y1="349.49" x2="382.62" y2="349.49" vector-effect="none"/>
              <line class="cls-3" x1="329.91" y1="345.24" x2="382.62" y2="345.24" vector-effect="none"/>
            </g>
          </g>
          <g>
            <path class="cls-14" d="M382.56,314.58c1.69-2.27,4.24-2.27,5.94,0l.44-.3c-2.13-3.39-4.68-3.39-6.81,0l.44,.3" vector-effect="none"/>
            <path class="cls-14" d="M395.09,314.75h.87s.05-.03,.12-.07c.54-.46,3.83-3.81,4.1-3.81s3.62,3.42,4.11,3.84c.03,.02,.12,.03,.12,.03h.85s.05-.02,.05-.05c0-.02-.02-.05-.03-.07-.73-.7-4.64-5.68-5.1-5.68s-4.32,4.91-5.1,5.68c-.02,.02-.03,.05-.03,.07,0,.03,.05,.05,.05,.05m4.13-1.11c0,.53,.42,.95,.93,.95s.93-.43,.93-.95c0-.49-.43-.92-.93-.92s-.93,.42-.93,.92" vector-effect="none"/>
            <path class="cls-14" d="M379.53,318.41c0,.99,.82,1.58,1.84,1.58,1.68,0,3.76-1.56,3.76-3.18,0-.95-.76-1.58-1.85-1.58-2.07,0-3.74,1.55-3.74,3.18" vector-effect="none"/>
            <path class="cls-14" d="M399.86,330.55c.14,.1,.31,.15,.44,.15,.12,0,.24-.03,.26-.1,.02-.05,.03-.08,.03-.12,0-.15-.14-.29-.27-.41-.22,0-.41-.46-.44-.61-.05-.14-.07-.29-.07-.44,0-.7,.36-1.24,1.07-1.24,.49,0,1.05,.19,1.33,.29,.02,0,.03,.02,.05,.02,.05,.02,.09,.02,.12,.02,.05,0,.09-.02,.09-.07,0-.2-.44-.77-.63-.97-.65-.78-1.17-1.41-1.17-2.36,0-.07,.02-.15,.02-.22,.07-.99,.68-1.8,1.12-2.5,.05-.09,.07-.17,.07-.26,0-.17-.07-.32-.07-.32,0,0-2.52-2.99-2.81-3.28-.09-.09-.2-.14-.31-.14-.17,0-.34,.12-.34,.36,0,.09,.02,.17,.07,.27,.07,.19,1.04,1.05,1.04,2.28,0,.63-.25,1.36-1.02,2.16-.17,.17-.24,.36-.24,.49,0,.24,.17,.41,.17,.41l.83,1.02c.27,.34,.51,.66,.73,1.02,.03,.07,.1,.2,.1,.24,0,.02,0,.05-.02,.07-.03,.07-.1,.08-.19,.08-.07,0-.2-.03-.27-.05-.08,0-.19-.05-.27-.05-.73,0-1.39,.73-1.39,1.63,0,.85,.73,1.68,1.97,2.64" vector-effect="none"/>
            <g>
              <line class="cls-3" x1="372.86" y1="332.86" x2="416.66" y2="332.86" vector-effect="none"/>
              <line class="cls-3" x1="372.86" y1="328.61" x2="416.66" y2="328.61" vector-effect="none"/>
              <line class="cls-3" x1="372.86" y1="324.36" x2="416.66" y2="324.36" vector-effect="none"/>
              <line class="cls-3" x1="372.86" y1="320.11" x2="416.66" y2="320.11" vector-effect="none"/>
              <line class="cls-3" x1="372.86" y1="315.86" x2="416.66" y2="315.86" vector-effect="none"/>
            </g>
          </g>
        </g>
        <rect class="cls-4" x="273.57" y="293.51" width="147.45" height="76.06" rx="12" ry="12"/>
      </g>
      <g>
        <g>
          <g>
            <g>
              <line class="cls-3" x1="568.46" y1="341.71" x2="630.71" y2="341.71" vector-effect="none"/>
              <line class="cls-3" x1="568.46" y1="337.46" x2="630.71" y2="337.46" vector-effect="none"/>
              <line class="cls-3" x1="568.46" y1="333.21" x2="630.71" y2="333.21" vector-effect="none"/>
              <line class="cls-3" x1="568.46" y1="328.96" x2="630.71" y2="328.96" vector-effect="none"/>
              <line class="cls-3" x1="568.46" y1="324.71" x2="630.71" y2="324.71" vector-effect="none"/>
            </g>
            <line class="cls-7" x1="573.54" y1="320.46" x2="586.36" y2="320.46" vector-effect="none"/>
            <path class="cls-14" d="M591.27,323.62c.24,0,.43-.1,.43-.22v-3.2c0-.2,2.14-.31,4.28-.31s4.3,.1,4.3,.31v3.2c0,.12,.19,.22,.41,.22,.24,0,.43-.1,.43-.22v-4.98c0-.25-.37-.46-.85-.46h-8.55c-.48,0-.85,.2-.85,.46v4.98c0,.12,.19,.22,.41,.22m4.71,.02c.53,0,.93-.42,.93-.93s-.41-.92-.93-.92-.92,.41-.92,.92,.41,.93,.92,.93" vector-effect="none"/>
            <path class="cls-14" d="M594.03,331.26h3.91c.24,0,.44-.2,.44-.44v-1.56c0-.26-.2-.44-.44-.44h-3.91c-.25,0-.44,.19-.44,.44v1.56c0,.24,.19,.44,.44,.44" vector-effect="none"/>
            <g>
              <path class="cls-14" d="M575.24,321.26c0,.99,.82,1.58,1.84,1.58,1.68,0,3.76-1.56,3.76-3.18,0-.95-.76-1.58-1.85-1.58-2.07,0-3.74,1.55-3.74,3.18" vector-effect="none"/>
              <circle class="cls-8" cx="582.82" cy="320.46" r="2.17"/>
            </g>
          </g>
          <rect class="cls-4" x="559.87" y="307.31" width="80.2" height="48.45" rx="12" ry="12"/>
        </g>
        <text class="cls-9" transform="translate(586.42 314.96)"><tspan x="0" y="0">5” - 15”</tspan></text>
      </g>
      <g>
        <g>
          <g>
            <g>
              <line class="cls-3" x1="458.94" y1="341.71" x2="521.19" y2="341.71" vector-effect="none"/>
              <line class="cls-3" x1="458.94" y1="337.46" x2="521.19" y2="337.46" vector-effect="none"/>
              <line class="cls-3" x1="458.94" y1="333.21" x2="521.19" y2="333.21" vector-effect="none"/>
              <line class="cls-3" x1="458.94" y1="328.96" x2="521.19" y2="328.96" vector-effect="none"/>
              <line class="cls-3" x1="458.94" y1="324.71" x2="521.19" y2="324.71" vector-effect="none"/>
            </g>
            <path class="cls-14" d="M481.74,323.62c.24,0,.43-.1,.43-.22v-3.2c0-.2,2.14-.31,4.28-.31s4.3,.1,4.3,.31v3.2c0,.12,.19,.22,.41,.22,.24,0,.43-.1,.43-.22v-4.98c0-.25-.37-.46-.85-.46h-8.55c-.48,0-.85,.2-.85,.46v4.98c0,.12,.19,.22,.41,.22m4.71,.02c.53,0,.93-.42,.93-.93s-.41-.92-.93-.92-.92,.41-.92,.92,.41,.93,.92,.93" vector-effect="none"/>
            <path class="cls-14" d="M465.71,327.26c0,.99,.82,1.58,1.84,1.58,1.68,0,3.76-1.56,3.76-3.18,0-.95-.76-1.58-1.85-1.58-2.07,0-3.74,1.55-3.74,3.18" vector-effect="none"/>
            <path class="cls-14" d="M484.5,331.26h3.91c.24,0,.44-.2,.44-.44v-1.56c0-.26-.2-.44-.44-.44h-3.91c-.25,0-.44,.19-.44,.44v1.56c0,.24,.19,.44,.44,.44" vector-effect="none"/>
            <path class="cls-14" d="M468.96,323c1.69-2.27,4.24-2.27,5.93,0l.44-.3c-2.13-3.39-4.68-3.39-6.82,0l.44,.3" vector-effect="none"/>
          </g>
          <rect class="cls-4" x="450.34" y="307.31" width="80.2" height="48.45" rx="12" ry="12"/>
        </g>
        <text class="cls-9" transform="translate(482.33 316.84)"><tspan x="0" y="0">5” - 10”</tspan></text>
      </g>
      <g>
        <g>
          <g>
            <line class="cls-3" x1="678.07" y1="341.71" x2="740.32" y2="341.71" vector-effect="none"/>
            <line class="cls-3" x1="678.07" y1="337.46" x2="740.32" y2="337.46" vector-effect="none"/>
            <line class="cls-3" x1="678.07" y1="333.21" x2="740.32" y2="333.21" vector-effect="none"/>
            <line class="cls-3" x1="678.07" y1="328.96" x2="740.32" y2="328.96" vector-effect="none"/>
            <line class="cls-3" x1="678.07" y1="324.71" x2="740.32" y2="324.71" vector-effect="none"/>
          </g>
          <path class="cls-14" d="M700.87,323.62c.24,0,.43-.1,.43-.22v-3.2c0-.2,2.14-.31,4.28-.31s4.3,.1,4.3,.31v3.2c0,.12,.19,.22,.41,.22,.24,0,.43-.1,.43-.22v-4.98c0-.25-.37-.46-.85-.46h-8.55c-.48,0-.85,.2-.85,.46v4.98c0,.12,.19,.22,.41,.22m4.71,.02c.53,0,.93-.42,.93-.93s-.41-.92-.93-.92-.92,.41-.92,.92,.41,.93,.92,.93" vector-effect="none"/>
          <path class="cls-14" d="M703.64,331.26h3.91c.24,0,.44-.2,.44-.44v-1.56c0-.26-.2-.44-.44-.44h-3.91c-.25,0-.44,.19-.44,.44v1.56c0,.24,.19,.44,.44,.44" vector-effect="none"/>
        </g>
        <rect class="cls-4" x="669.48" y="307.31" width="80.2" height="48.45" rx="12" ry="12"/>
      </g>
      <g>
        <g>
          <line class="cls-2" x1="244.14" y1="331.54" x2="261.76" y2="331.54"/>
          <path class="cls-14" d="M273.83,331.54c-5.68,2.11-12.73,5.7-17.09,9.51l3.44-9.51-3.44-9.51c4.37,3.81,11.42,7.4,17.09,9.51Z"/>
        </g>
        <g>
          <line class="cls-2" x1="421.6" y1="331.54" x2="439.23" y2="331.54"/>
          <path class="cls-14" d="M451.3,331.54c-5.68,2.11-12.73,5.7-17.09,9.51l3.44-9.51-3.44-9.51c4.37,3.81,11.42,7.4,17.09,9.51Z"/>
        </g>
        <g>
          <line class="cls-2" x1="530.8" y1="331.54" x2="548.43" y2="331.54"/>
          <path class="cls-14" d="M560.5,331.54c-5.68,2.11-12.73,5.7-17.09,9.51l3.44-9.51-3.44-9.51c4.37,3.81,11.42,7.4,17.09,9.51Z"/>
        </g>
        <g>
          <line class="cls-2" x1="640.63" y1="331.54" x2="658.25" y2="331.54"/>
          <path class="cls-14" d="M670.32,331.54c-5.68,2.11-12.73,5.7-17.09,9.51l3.44-9.51-3.44-9.51c4.37,3.81,11.42,7.4,17.09,9.51Z"/>
        </g>
      </g>
    </g>
    <g>
      <g>
        <g>
          <g>
            <path class="cls-14" d="M151.78,523.18c1.69-2.27,4.24-2.27,5.93,0l.44-.3c-2.13-3.39-4.68-3.39-6.82,0l.44,.3" vector-effect="none"/>
            <line class="cls-5" x1="143.75" y1="518.88" x2="143.75" y2="527.22" vector-effect="none"/>
            <path class="cls-14" d="M164.38,522.47c0,.17,.09,.22,.22,.22,.15,0,.24-.12,.34-.36,.02-.02,.03-.09,.05-.15,.2-.7,.97-3.3,4.47-3.3s4.35,2.69,4.52,3.33c.02,.05,.02,.1,.03,.12,.12,.24,.19,.36,.36,.36,.15,0,.24-.07,.24-.24,0-.05,0-.1-.02-.17-1.05-5.2-4.61-5.24-5.1-5.24-.54,0-4.06,.03-5.1,5.24-.02,.07-.02,.14-.02,.19m4.18-.71c0,.51,.43,.94,.92,.94s.93-.43,.93-.94-.43-.92-.93-.92-.92,.43-.92,.92" vector-effect="none"/>
            <path class="cls-14" d="M148.75,528.5c0,.99,.82,1.58,1.84,1.58,1.68,0,3.76-1.56,3.76-3.18,0-.95-.76-1.58-1.85-1.58-2.07,0-3.74,1.55-3.74,3.18" vector-effect="none"/>
            <path class="cls-14" d="M145.57,523.56c.15,.34,.24,.91,.24,1.5,0,.45-.07,.92-.24,1.37-.02,.06-.03,.11-.03,.15,0,.16,.1,.25,.16,.29,.06,.04,.23-.02,.28-.19,0,0,.26-.95,.26-1.73,0-1.25-.52-2.43-1.15-3.43-.51-.79-.93-1.65-1.09-2.61-.03-.16-.11-.22-.3-.22-.06,0-.1,.03-.1,.15v2.39c.66,.12,1.61,1.48,1.97,2.33" vector-effect="none"/>
            <path class="cls-14" d="M140.61,528.17c0,.58,.48,.93,1.08,.93,.99,0,2.21-.92,2.21-1.87,0-.56-.45-.93-1.09-.93-1.22,0-2.2,.91-2.2,1.87" vector-effect="none"/>
            <path class="cls-14" d="M167.54,532.29h3.91c.24,0,.44-.2,.44-.44v-1.56c0-.25-.2-.44-.44-.44h-3.91c-.25,0-.44,.19-.44,.44v1.56c0,.24,.19,.44,.44,.44" vector-effect="none"/>
            <line class="cls-1" x1="142.85" y1="522.33" x2="146.46" y2="518.72" vector-effect="none"/>
            <g>
              <line class="cls-3" x1="136.25" y1="540.79" x2="193.48" y2="540.79" vector-effect="none"/>
              <line class="cls-3" x1="136.25" y1="536.54" x2="193.48" y2="536.54" vector-effect="none"/>
              <line class="cls-3" x1="136.25" y1="532.29" x2="193.48" y2="532.29" vector-effect="none"/>
              <line class="cls-3" x1="136.25" y1="528.04" x2="193.48" y2="528.04" vector-effect="none"/>
              <line class="cls-3" x1="136.25" y1="523.79" x2="193.48" y2="523.79" vector-effect="none"/>
            </g>
          </g>
          <g>
            <path class="cls-14" d="M222.02,552.24c1.16-2.19,2.52-2.19,3.67,0l-.27,.18c-.88-1.46-2.24-1.46-3.13,0l-.27-.18" vector-effect="none"/>
            <path class="cls-14" d="M227.16,546.88h.87s.05-.03,.12-.07c.54-.46,3.83-3.81,4.1-3.81s3.62,3.42,4.11,3.84c.03,.02,.12,.03,.12,.03h.85s.05-.02,.05-.05c0-.02-.02-.05-.03-.07-.73-.7-4.64-5.68-5.1-5.68s-4.32,4.91-5.1,5.68c-.02,.02-.03,.05-.03,.07,0,.03,.05,.05,.05,.05m4.13-1.11c0,.53,.42,.95,.93,.95s.93-.43,.93-.95c0-.49-.43-.92-.93-.92s-.93,.42-.93,.92" vector-effect="none"/>
            <path class="cls-14" d="M198.4,553.71c0,.99,.82,1.58,1.84,1.58,1.68,0,3.76-1.56,3.76-3.18,0-.95-.76-1.58-1.85-1.58-2.07,0-3.74,1.55-3.74,3.18" vector-effect="none"/>
            <path class="cls-14" d="M231.93,563.44c.14,.1,.31,.15,.44,.15,.12,0,.24-.03,.26-.1,.02-.05,.03-.08,.03-.12,0-.15-.14-.29-.27-.41-.22,0-.41-.46-.44-.61-.05-.14-.07-.29-.07-.44,0-.7,.36-1.24,1.07-1.24,.49,0,1.05,.19,1.33,.29,.02,0,.03,.02,.05,.02,.05,.02,.09,.02,.12,.02,.05,0,.09-.02,.09-.07,0-.2-.44-.77-.63-.97-.65-.78-1.17-1.41-1.17-2.36,0-.07,.02-.15,.02-.22,.07-.99,.68-1.8,1.12-2.5,.05-.09,.07-.17,.07-.26,0-.17-.07-.32-.07-.32,0,0-2.52-2.99-2.81-3.28-.09-.09-.2-.14-.31-.14-.17,0-.34,.12-.34,.36,0,.09,.02,.17,.07,.27,.07,.19,1.04,1.05,1.04,2.28,0,.63-.25,1.36-1.02,2.16-.17,.17-.24,.36-.24,.49,0,.24,.17,.41,.17,.41l.83,1.02c.27,.34,.51,.66,.73,1.02,.03,.07,.1,.2,.1,.24,0,.02,0,.05-.02,.07-.03,.07-.1,.08-.19,.08-.07,0-.2-.03-.27-.05-.08,0-.19-.05-.27-.05-.73,0-1.39,.73-1.39,1.63,0,.85,.73,1.68,1.97,2.64" vector-effect="none"/>
            <g>
              <line class="cls-5" x1="213.59" y1="543.98" x2="213.59" y2="552.43" vector-effect="none"/>
              <line class="cls-5" x1="222.01" y1="543.98" x2="222.01" y2="552.43" vector-effect="none"/>
              <path class="cls-14" d="M210.44,553.38c0,.58,.48,.93,1.08,.93,.99,0,2.21-.92,2.21-1.87,0-.56-.45-.93-1.09-.93-1.22,0-2.2,.91-2.2,1.87" vector-effect="none"/>
              <path class="cls-14" d="M218.87,553.38c0,.58,.48,.93,1.08,.93,.99,0,2.21-.92,2.21-1.87,0-.56-.45-.93-1.09-.93-1.22,0-2.2,.91-2.2,1.87" vector-effect="none"/>
              <path class="cls-14" d="M213.43,545.26v-1.27h8.73v1.27h-8.73" vector-effect="none"/>
              <line class="cls-1" x1="212.53" y1="547.44" x2="217.79" y2="542.18" vector-effect="none"/>
            </g>
            <g>
              <line class="cls-3" x1="191.6" y1="565.73" x2="242.52" y2="565.73" vector-effect="none"/>
              <line class="cls-3" x1="191.6" y1="561.48" x2="242.52" y2="561.48" vector-effect="none"/>
              <line class="cls-3" x1="191.6" y1="557.23" x2="242.52" y2="557.23" vector-effect="none"/>
              <line class="cls-3" x1="191.6" y1="552.98" x2="242.52" y2="552.98" vector-effect="none"/>
              <line class="cls-3" x1="191.6" y1="548.73" x2="242.52" y2="548.73" vector-effect="none"/>
            </g>
          </g>
          <g>
            <path class="cls-14" d="M115.75,554.74c1.69-2.27,4.24-2.27,5.93,0l.44-.3c-2.13-3.39-4.68-3.39-6.82,0l.44,.3" vector-effect="none"/>
            <path class="cls-14" d="M110.44,550.84h.87s.05-.03,.12-.07c.54-.46,3.83-3.81,4.1-3.81s3.62,3.42,4.11,3.84c.03,.02,.12,.03,.12,.03h.85s.05-.02,.05-.05c0-.02-.02-.05-.03-.07-.73-.7-4.64-5.68-5.1-5.68s-4.32,4.91-5.1,5.68c-.02,.02-.03,.05-.03,.07,0,.03,.05,.05,.05,.05m4.13-1.11c0,.53,.42,.95,.93,.95s.93-.43,.93-.95c0-.49-.43-.92-.93-.92s-.93,.42-.93,.92" vector-effect="none"/>
            <path class="cls-14" d="M138.75,554.81c.24,0,.43-.1,.43-.22v-3.2c0-.2,2.14-.31,4.28-.31s4.3,.1,4.3,.31v3.2c0,.12,.19,.22,.41,.22,.24,0,.43-.1,.43-.22v-4.98c0-.25-.37-.46-.85-.46h-8.55c-.48,0-.85,.2-.85,.46v4.98c0,.12,.19,.22,.41,.22m4.71,.02c.53,0,.93-.42,.93-.93s-.41-.92-.93-.92-.92,.41-.92,.92,.41,.93,.92,.93" vector-effect="none"/>
            <path class="cls-14" d="M112.72,560.58c0,.99,.82,1.58,1.84,1.58,1.68,0,3.76-1.56,3.76-3.18,0-.95-.76-1.58-1.85-1.58-2.07,0-3.74,1.55-3.74,3.18" vector-effect="none"/>
            <path class="cls-14" d="M141.52,562.45h3.91c.24,0,.44-.2,.44-.44v-1.56c0-.26-.2-.44-.44-.44h-3.91c-.25,0-.44,.19-.44,.44v1.56c0,.24,.19,.44,.44,.44" vector-effect="none"/>
            <g>
              <line class="cls-3" x1="100.98" y1="572.94" x2="178.2" y2="572.94" vector-effect="none"/>
              <line class="cls-3" x1="100.98" y1="568.69" x2="178.2" y2="568.69" vector-effect="none"/>
              <line class="cls-3" x1="100.98" y1="564.44" x2="178.2" y2="564.44" vector-effect="none"/>
              <line class="cls-3" x1="100.98" y1="560.19" x2="178.2" y2="560.19" vector-effect="none"/>
              <line class="cls-3" x1="100.98" y1="555.94" x2="178.2" y2="555.94" vector-effect="none"/>
            </g>
          </g>
        </g>
        <rect class="cls-4" x="95.6" y="505.65" width="151.98" height="72.66" rx="12" ry="12"/>
      </g>
      <g>
        <g>
          <g>
            <path class="cls-14" d="M295.67,514.06c1.69-2.27,4.24-2.27,5.93,0l.44-.3c-2.13-3.39-4.68-3.39-6.82,0l.44,.3" vector-effect="none"/>
            <g>
              <g>
                <line class="cls-3" x1="285.87" y1="538.35" x2="348.12" y2="538.35" vector-effect="none"/>
                <line class="cls-3" x1="285.87" y1="534.1" x2="348.12" y2="534.1" vector-effect="none"/>
                <line class="cls-3" x1="285.87" y1="529.85" x2="348.12" y2="529.85" vector-effect="none"/>
                <line class="cls-3" x1="285.87" y1="525.6" x2="348.12" y2="525.6" vector-effect="none"/>
                <line class="cls-3" x1="285.87" y1="521.35" x2="348.12" y2="521.35" vector-effect="none"/>
              </g>
              <line class="cls-7" x1="290.94" y1="517.1" x2="299.95" y2="517.1" vector-effect="none"/>
              <path class="cls-14" d="M308.67,520.26c.24,0,.43-.1,.43-.22v-3.2c0-.2,2.14-.31,4.28-.31s4.3,.1,4.3,.31v3.2c0,.12,.19,.22,.41,.22,.24,0,.43-.1,.43-.22v-4.98c0-.25-.37-.46-.85-.46h-8.55c-.48,0-.85,.2-.85,.46v4.98c0,.12,.19,.22,.41,.22m4.71,.02c.53,0,.93-.42,.93-.93s-.41-.92-.93-.92-.92,.41-.92,.92,.41,.93,.92,.93" vector-effect="none"/>
              <path class="cls-14" d="M292.64,517.9c0,.99,.82,1.58,1.84,1.58,1.68,0,3.76-1.56,3.76-3.18,0-.95-.76-1.58-1.85-1.58-2.07,0-3.74,1.55-3.74,3.18" vector-effect="none"/>
              <path class="cls-14" d="M311.44,527.9h3.91c.24,0,.44-.2,.44-.44v-1.56c0-.26-.2-.44-.44-.44h-3.91c-.25,0-.44,.19-.44,.44v1.56c0,.24,.19,.44,.44,.44" vector-effect="none"/>
            </g>
          </g>
          <g>
            <path class="cls-14" d="M344.62,548.36c1.69-2.27,4.24-2.27,5.93,0l.44-.3c-2.13-3.39-4.68-3.39-6.82,0l.44,.3" vector-effect="none"/>
            <line class="cls-7" x1="339.9" y1="551.4" x2="348.91" y2="551.4" vector-effect="none"/>
            <path class="cls-14" d="M357.23,554.35c0,.17,.09,.22,.22,.22,.15,0,.24-.12,.34-.36,.02-.02,.03-.09,.05-.15,.2-.7,.97-3.3,4.47-3.3s4.35,2.69,4.52,3.33c.02,.05,.02,.1,.03,.12,.12,.24,.19,.36,.36,.36,.15,0,.24-.07,.24-.24,0-.05,0-.1-.02-.17-1.05-5.2-4.61-5.24-5.1-5.24-.54,0-4.06,.03-5.1,5.24-.02,.07-.02,.14-.02,.19m4.18-.71c0,.51,.43,.94,.92,.94s.93-.43,.93-.94-.43-.92-.93-.92-.92,.43-.92,.92" vector-effect="none"/>
            <path class="cls-14" d="M341.6,552.2c0,.99,.82,1.58,1.84,1.58,1.68,0,3.76-1.56,3.76-3.18,0-.95-.76-1.58-1.85-1.58-2.07,0-3.74,1.55-3.74,3.18" vector-effect="none"/>
            <path class="cls-14" d="M360.39,564.18h3.91c.24,0,.44-.2,.44-.44v-1.56c0-.25-.2-.44-.44-.44h-3.91c-.25,0-.44,.19-.44,.44v1.56c0,.24,.19,.44,.44,.44" vector-effect="none"/>
            <g>
              <line class="cls-3" x1="333.62" y1="572.68" x2="386.33" y2="572.68" vector-effect="none"/>
              <line class="cls-3" x1="333.62" y1="568.43" x2="386.33" y2="568.43" vector-effect="none"/>
              <line class="cls-3" x1="333.62" y1="564.18" x2="386.33" y2="564.18" vector-effect="none"/>
              <line class="cls-3" x1="333.62" y1="559.93" x2="386.33" y2="559.93" vector-effect="none"/>
              <line class="cls-3" x1="333.62" y1="555.68" x2="386.33" y2="555.68" vector-effect="none"/>
            </g>
          </g>
          <g>
            <path class="cls-14" d="M386.26,518.99c1.69-2.27,4.24-2.27,5.94,0l.44-.3c-2.13-3.39-4.68-3.39-6.81,0l.44,.3" vector-effect="none"/>
            <line class="cls-7" x1="381.54" y1="522.02" x2="390.55" y2="522.02" vector-effect="none"/>
            <path class="cls-14" d="M398.79,525.2h.87s.05-.03,.12-.07c.54-.46,3.83-3.81,4.1-3.81s3.62,3.42,4.11,3.84c.03,.02,.12,.03,.12,.03h.85s.05-.02,.05-.05c0-.02-.02-.05-.03-.07-.73-.7-4.64-5.68-5.1-5.68s-4.32,4.91-5.1,5.68c-.02,.02-.03,.05-.03,.07,0,.03,.05,.05,.05,.05m4.13-1.11c0,.53,.42,.95,.93,.95s.93-.43,.93-.95c0-.49-.43-.92-.93-.92s-.93,.42-.93,.92" vector-effect="none"/>
            <path class="cls-14" d="M383.24,522.82c0,.99,.82,1.58,1.84,1.58,1.68,0,3.76-1.56,3.76-3.18,0-.95-.76-1.58-1.85-1.58-2.07,0-3.74,1.55-3.74,3.18" vector-effect="none"/>
            <path class="cls-14" d="M403.56,541c.14,.1,.31,.15,.44,.15,.12,0,.24-.03,.26-.1,.02-.05,.03-.08,.03-.12,0-.15-.14-.29-.27-.41-.22,0-.41-.46-.44-.61-.05-.14-.07-.29-.07-.44,0-.7,.36-1.24,1.07-1.24,.49,0,1.05,.19,1.33,.29,.02,0,.03,.02,.05,.02,.05,.02,.09,.02,.12,.02,.05,0,.09-.02,.09-.07,0-.2-.44-.77-.63-.97-.65-.78-1.17-1.41-1.17-2.36,0-.07,.02-.15,.02-.22,.07-.99,.68-1.8,1.12-2.5,.05-.09,.07-.17,.07-.26,0-.17-.07-.32-.07-.32,0,0-2.52-2.99-2.81-3.28-.09-.09-.2-.14-.31-.14-.17,0-.34,.12-.34,.36,0,.09,.02,.17,.07,.27,.07,.19,1.04,1.05,1.04,2.28,0,.63-.25,1.36-1.02,2.16-.17,.17-.24,.36-.24,.49,0,.24,.17,.41,.17,.41l.83,1.02c.27,.34,.51,.66,.73,1.02,.03,.07,.1,.2,.1,.24,0,.02,0,.05-.02,.07-.03,.07-.1,.08-.19,.08-.07,0-.2-.03-.27-.05-.08,0-.19-.05-.27-.05-.73,0-1.39,.73-1.39,1.63,0,.85,.73,1.68,1.97,2.64" vector-effect="none"/>
            <g>
              <line class="cls-3" x1="376.57" y1="543.31" x2="420.36" y2="543.31" vector-effect="none"/>
              <line class="cls-3" x1="376.57" y1="539.06" x2="420.36" y2="539.06" vector-effect="none"/>
              <line class="cls-3" x1="376.57" y1="534.81" x2="420.36" y2="534.81" vector-effect="none"/>
              <line class="cls-3" x1="376.57" y1="530.56" x2="420.36" y2="530.56" vector-effect="none"/>
              <line class="cls-3" x1="376.57" y1="526.31" x2="420.36" y2="526.31" vector-effect="none"/>
            </g>
          </g>
        </g>
        <rect class="cls-4" x="277.27" y="503.95" width="147.45" height="76.06" rx="12" ry="12"/>
      </g>
      <g>
        <g>
          <g>
            <g>
              <line class="cls-3" x1="572.17" y1="552.16" x2="634.42" y2="552.16" vector-effect="none"/>
              <line class="cls-3" x1="572.17" y1="547.91" x2="634.42" y2="547.91" vector-effect="none"/>
              <line class="cls-3" x1="572.17" y1="543.66" x2="634.42" y2="543.66" vector-effect="none"/>
              <line class="cls-3" x1="572.17" y1="539.41" x2="634.42" y2="539.41" vector-effect="none"/>
              <line class="cls-3" x1="572.17" y1="535.16" x2="634.42" y2="535.16" vector-effect="none"/>
            </g>
            <line class="cls-7" x1="577.25" y1="530.91" x2="590.07" y2="530.91" vector-effect="none"/>
            <path class="cls-14" d="M594.97,534.06c.24,0,.43-.1,.43-.22v-3.2c0-.2,2.14-.31,4.28-.31s4.3,.1,4.3,.31v3.2c0,.12,.19,.22,.41,.22,.24,0,.43-.1,.43-.22v-4.98c0-.25-.37-.46-.85-.46h-8.55c-.48,0-.85,.2-.85,.46v4.98c0,.12,.19,.22,.41,.22m4.71,.02c.53,0,.93-.42,.93-.93s-.41-.92-.93-.92-.92,.41-.92,.92,.41,.93,.92,.93" vector-effect="none"/>
            <path class="cls-14" d="M597.74,541.7h3.91c.24,0,.44-.2,.44-.44v-1.56c0-.26-.2-.44-.44-.44h-3.91c-.25,0-.44,.19-.44,.44v1.56c0,.24,.19,.44,.44,.44" vector-effect="none"/>
            <g>
              <path class="cls-14" d="M578.94,531.7c0,.99,.82,1.58,1.84,1.58,1.68,0,3.76-1.56,3.76-3.18,0-.95-.76-1.58-1.85-1.58-2.07,0-3.74,1.55-3.74,3.18" vector-effect="none"/>
              <circle class="cls-8" cx="586.52" cy="530.91" r="2.17"/>
            </g>
          </g>
          <rect class="cls-4" x="563.57" y="517.76" width="80.2" height="48.45" rx="12" ry="12"/>
        </g>
        <text class="cls-9" transform="translate(590.12 525.4)"><tspan x="0" y="0">5” - 15”</tspan></text>
      </g>
      <g>
        <g>
          <g>
            <g>
              <line class="cls-3" x1="462.64" y1="552.16" x2="524.89" y2="552.16" vector-effect="none"/>
              <line class="cls-3" x1="462.64" y1="547.91" x2="524.89" y2="547.91" vector-effect="none"/>
              <line class="cls-3" x1="462.64" y1="543.66" x2="524.89" y2="543.66" vector-effect="none"/>
              <line class="cls-3" x1="462.64" y1="539.41" x2="524.89" y2="539.41" vector-effect="none"/>
              <line class="cls-3" x1="462.64" y1="535.16" x2="524.89" y2="535.16" vector-effect="none"/>
            </g>
            <line class="cls-7" x1="467.72" y1="530.91" x2="476.73" y2="530.91" vector-effect="none"/>
            <path class="cls-14" d="M485.45,534.06c.24,0,.43-.1,.43-.22v-3.2c0-.2,2.14-.31,4.28-.31s4.3,.1,4.3,.31v3.2c0,.12,.19,.22,.41,.22,.24,0,.43-.1,.43-.22v-4.98c0-.25-.37-.46-.85-.46h-8.55c-.48,0-.85,.2-.85,.46v4.98c0,.12,.19,.22,.41,.22m4.71,.02c.53,0,.93-.42,.93-.93s-.41-.92-.93-.92-.92,.41-.92,.92,.41,.93,.92,.93" vector-effect="none"/>
            <path class="cls-14" d="M469.42,531.7c0,.99,.82,1.58,1.84,1.58,1.68,0,3.76-1.56,3.76-3.18,0-.95-.76-1.58-1.85-1.58-2.07,0-3.74,1.55-3.74,3.18" vector-effect="none"/>
            <path class="cls-14" d="M488.21,541.7h3.91c.24,0,.44-.2,.44-.44v-1.56c0-.26-.2-.44-.44-.44h-3.91c-.25,0-.44,.19-.44,.44v1.56c0,.24,.19,.44,.44,.44" vector-effect="none"/>
            <path class="cls-14" d="M472.66,527.44c1.69-2.27,4.24-2.27,5.93,0l.44-.3c-2.13-3.39-4.68-3.39-6.82,0l.44,.3" vector-effect="none"/>
          </g>
          <rect class="cls-4" x="454.05" y="517.76" width="80.2" height="48.45" rx="12" ry="12"/>
        </g>
        <text class="cls-9" transform="translate(486.04 527.28)"><tspan x="0" y="0">5” - 10”</tspan></text>
      </g>
      <g>
        <g>
          <g>
            <line class="cls-3" x1="681.78" y1="552.16" x2="744.02" y2="552.16" vector-effect="none"/>
            <line class="cls-3" x1="681.78" y1="547.91" x2="744.02" y2="547.91" vector-effect="none"/>
            <line class="cls-3" x1="681.78" y1="543.66" x2="744.02" y2="543.66" vector-effect="none"/>
            <line class="cls-3" x1="681.78" y1="539.41" x2="744.02" y2="539.41" vector-effect="none"/>
            <line class="cls-3" x1="681.78" y1="535.16" x2="744.02" y2="535.16" vector-effect="none"/>
          </g>
          <path class="cls-14" d="M704.58,534.06c.24,0,.43-.1,.43-.22v-3.2c0-.2,2.14-.31,4.28-.31s4.3,.1,4.3,.31v3.2c0,.12,.19,.22,.41,.22,.24,0,.43-.1,.43-.22v-4.98c0-.25-.37-.46-.85-.46h-8.55c-.48,0-.85,.2-.85,.46v4.98c0,.12,.19,.22,.41,.22m4.71,.02c.53,0,.93-.42,.93-.93s-.41-.92-.93-.92-.92,.41-.92,.92,.41,.93,.92,.93" vector-effect="none"/>
          <path class="cls-14" d="M707.34,541.7h3.91c.24,0,.44-.2,.44-.44v-1.56c0-.26-.2-.44-.44-.44h-3.91c-.25,0-.44,.19-.44,.44v1.56c0,.24,.19,.44,.44,.44" vector-effect="none"/>
        </g>
        <rect class="cls-4" x="673.18" y="517.76" width="80.2" height="48.45" rx="12" ry="12"/>
      </g>
      <g>
        <g>
          <line class="cls-2" x1="246.84" y1="541.98" x2="264.47" y2="541.98"/>
          <path class="cls-14" d="M276.54,541.98c-5.68,2.11-12.73,5.7-17.09,9.51l3.44-9.51-3.44-9.51c4.37,3.81,11.42,7.4,17.09,9.51Z"/>
        </g>
        <g>
          <line class="cls-2" x1="424.3" y1="541.98" x2="441.93" y2="541.98"/>
          <path class="cls-14" d="M454,541.98c-5.68,2.11-12.73,5.7-17.09,9.51l3.44-9.51-3.44-9.51c4.37,3.81,11.42,7.4,17.09,9.51Z"/>
        </g>
        <g>
          <line class="cls-2" x1="533.51" y1="541.98" x2="551.14" y2="541.98"/>
          <path class="cls-14" d="M563.21,541.98c-5.68,2.11-12.73,5.7-17.09,9.51l3.44-9.51-3.44-9.51c4.37,3.81,11.42,7.4,17.09,9.51Z"/>
        </g>
        <g>
          <line class="cls-2" x1="643.33" y1="541.98" x2="660.96" y2="541.98"/>
          <path class="cls-14" d="M673.03,541.98c-5.68,2.11-12.73,5.7-17.09,9.51l3.44-9.51-3.44-9.51c4.37,3.81,11.42,7.4,17.09,9.51Z"/>
        </g>
      </g>
    </g>
    <path class="cls-10" d="M97.27,139.11c19.63,2.92,39.24,4.72,59,4.73,6.56-.14,13.11-.69,19.67-.77,26.22-.05,52.44,1.34,78.66,.13,13.12-.28,26.23-1.21,39.33-1.83,6.56-.3,13.11-.41,19.67-.36,6.56,.13,13.11,1.69,19.67,1.95l78.66,.95c101.9,1.22,213.08,2.27,314.64,2.54,0,0,0,.25,0,.25-101.44,.27-212.81,1.32-314.64,2.54,0,0-78.66,.95-78.66,.95-6.56,.25-13.11,1.82-19.67,1.95-13.12,.16-26.23-.66-39.33-1.42-19.65-.94-39.33-1.49-59-1.2-13.11,.2-26.22,.72-39.33,.57-6.56-.08-13.11-.63-19.67-.77-6.56-.2-13.11,.25-19.67,.63-13.11,.84-26.22,1.99-39.33,4.1v-14.95h0Z"/>
  </g>
</svg>